<svg xmlns="http://www.w3.org/2000/svg" width="215.063" height="76.781" viewBox="0 0 215.063 76.781">
  <defs>
    <style>
      .cls-1 {
        fill: #2b546a;
        fill-rule: evenodd;
      }
    </style>
  </defs>
  <path id="_08_title.svg" data-name="08_title.svg" class="cls-1" d="M447.987,69.515h44.086q1.74-.385.387-1.547l-4.448-3.674-2.9,3.867h-9.088q1.93-2.125,4.061-4.061l0.773-.193q1.545-.385.387-1.547l-1.934-1.354h9.862q1.35,0,0-1.354l-4.834-4.06-3.094,4.06h-8.7v-4.06l0.967-.193q3.09-1.16-.581-2.127l-6.187-.774v7.154H449.921l0.773,1.354h6.381a5.989,5.989,0,0,1,1.934,3.48,10.967,10.967,0,0,0,.966,3.674H447.214Zm27.457-8.508a52.355,52.355,0,0,1-1.933,7.154h-9.862a3.046,3.046,0,0,0,.387-4.254,4.459,4.459,0,0,0-1.547-1.547c-0.773-.514-1.483-0.967-2.127-1.354h15.082Zm-9.474,26.1v5.994q0,2.32.966,3.094,1.161,0.77,5.221.773h4.834l8.121-.193q2.511,0,4.447-.193,3.286-.39,3.094-2.127,0.19-1.16-1.74-2.707-0.581-.385-0.58-2.707a31.408,31.408,0,0,0,0-5.221q-0.2-.77-0.58,0a13.665,13.665,0,0,0-1.354,3.287,24.249,24.249,0,0,1-1.933,4.061q-0.971,1.16-4.254,1.16h-7.155a14.076,14.076,0,0,1-2.9-.193,1.032,1.032,0,0,1-.773-1.16V87.111h8.507v1.353a0.982,0.982,0,0,0,.967.967,8.061,8.061,0,0,0,3.481-.387,1.264,1.264,0,0,0,.966-1.16V76.67l0.581-.387q1.35-1.16.386-2.127L481.825,70.1l-2.32,3.094h-20.69l-5.994-2.32V89.625a1.2,1.2,0,0,0,1.547,1.354l1.74-.193q2.125-.19,2.127-1.547V87.111h7.735Zm-7.735-6.381h7.735v5.027h-7.735V80.73Zm0-6.187h7.735v4.834h-7.735V74.543Zm21.656,6.188v5.027h-8.507V80.73h8.507Zm-8.507-6.187h8.507v4.834h-8.507V74.543Zm50.948-10.055q5.5,2.236,6.7,7.391,1.89,7.734-2.062,12.891a15.646,15.646,0,0,1-5.328,4.469,26.8,26.8,0,0,1-6.188,2.406q-1.377.346-1.031,0.688t4.641-.516q7.56-1.547,11.515-5.328a13.124,13.124,0,0,0,4.3-12.375,12.284,12.284,0,0,0-6.015-8.594q-4.3-2.747-11.86-3.609-13.922-1.547-19.25,13.75-2.409,7.05,1.547,11.688,3.262,3.783,5.672,2.75a14,14,0,0,0,4.125-3.781,45.58,45.58,0,0,0,6.016-10.141A25.084,25.084,0,0,0,517,70.847a2.821,2.821,0,0,1,.172-0.859,14.6,14.6,0,0,1,1.375-2.406,0.988,0.988,0,0,0,.172-1.2q-0.688-1.547-3.609-2.922a15.435,15.435,0,0,1,7.218,1.031h0Zm-9.109.859a6.555,6.555,0,0,1-.344,3.438L511.5,73.253a41.363,41.363,0,0,1-2.922,7.219q-2.578,4.814-5.328,5.156-1.2.173-1.719-1.375a7.942,7.942,0,0,1-.343-2.75,20.488,20.488,0,0,1,1.718-8.25q3.436-7.561,8.938-9.109a1.659,1.659,0,0,1,1.375,1.2h0Zm26.648,21.57q-1.355,1.935-.773,3.094,1.74,2.13,3.673-.387a6.911,6.911,0,0,0,.194-6.187q-1.935-3.671-1.74-1.547a1.764,1.764,0,0,1,.193.773,7.207,7.207,0,0,1-1.547,4.254h0Zm15.662-9.861q-0.2,3.675-.58,7.734a24.665,24.665,0,0,1-.58,3.674q-0.581,2.515-2.127,2.9a7.656,7.656,0,0,1-3.48,0q-1.741-.19-3.674-0.58-1.549-.19-0.58.58l3.674,1.934a1.237,1.237,0,0,1,.966.773,5.251,5.251,0,0,0,.194,1.16c0.127,1.16.58,1.74,1.353,1.74a6.992,6.992,0,0,0,4.061-1.353,7.844,7.844,0,0,0,3.093-3.674q1.352-3.091,1.934-12.955l0.58-.387q1.161-.965.194-1.74l-3.868-3.48-1.547,2.32h-2.32V70.289H559.4q1.352-.385.194-1.547l-3.481-3.287-1.933,3.481h-1.354V63.521h6.188q1.16-.385.193-1.547l-3.094-3.287-2.32,3.48h-0.967V56.753h6.961c0.9-.257.967-0.773,0.193-1.547l-3.673-3.48L553.793,55.4h-7.348l-5.22-2.707v26.49c0,0.517.063,0.773,0.193,0.773q3.671-.385,3.674-1.547V77.056h10.441Zm-6.574-6.768V75.7h-3.867V70.289h3.867Zm0-6.768v5.414h-3.867V63.521h3.867Zm-3.867-6.768h3.867v5.414h-3.867V56.753ZM544.512,87.5q0,1.74.58,2.127a1.522,1.522,0,0,0,2.127-.773,6.638,6.638,0,0,0-.387-5.027q-2.13-3.671-2.9-2.9a3.1,3.1,0,0,0,.193.773,5.885,5.885,0,0,1,.58,3.481q-0.2,1.74-.193,2.32h0Zm6.574-3.674a6.72,6.72,0,0,0-3.481-3.287q-1.74-.58,0,1.547a9.36,9.36,0,0,1,.967,4.254c0.127,1.033.58,1.547,1.354,1.547q2.511-.77,1.16-4.06h0Zm-0.967-3.674a8.1,8.1,0,0,1,1.934,3.287q0.769,2.13,2.32.773a2.6,2.6,0,0,0-.387-3.287,6,6,0,0,0-3.867-1.74q-1.549.39,0,.967h0ZM577,90.2q0,0.775-1.74.773-2.321,0-4.447-.193c-1.291-.127-1.807,0-1.547.387q2.321,1.16,5.22,2.32a6.117,6.117,0,0,1,.774,2.127q0.386,2.125,3.48.387,3.287-1.74,3.287-3.674V73.382h3.094q1.35-.385.387-1.74l-3.867-4.254-3.287,4.447h-17.6a19.539,19.539,0,0,0,6.574-3.094,11.579,11.579,0,0,0,3.867-5.8,12.689,12.689,0,0,1,4.254,5.8q0.966,2.515,3.481.967a2.5,2.5,0,0,0,.966-3.094q-0.969-3.671-8.507-4.641a3.227,3.227,0,0,0,.193-0.967H583.57q1.546-.385.387-1.547L579.7,55.593l-3.094,4.06h-5.027a29.235,29.235,0,0,0,.773-4.447l0.387-.193q1.35-1.16-.193-1.74l-5.221-.967a66.768,66.768,0,0,1-.387,7.348h-7.734l0.58,1.354h6.961a13.816,13.816,0,0,1-2.514,6.574,15.3,15.3,0,0,1-5.414,4.254h-1.74l0.773,1.353H577V90.2Zm-6.768-3.287v0.967a0.78,0.78,0,0,0,.967.773q2.9-.19,2.9-1.354V80.537l0.193-.193q1.159-1.545.193-2.32l-3.093-2.514-1.547,2.707h-2.9l-4.64-2.707V89.045q0,1.16.773,1.16,3.092-.19,3.094-1.547v-1.74h4.06Zm0-7.348v5.994h-4.06V79.57h4.06Zm38.067,13.535H592.44l0.773,1.353h37.9q1.931-.39.386-1.74l-4.834-4.254-3.48,4.641h-8.7v-23.4h18.949q1.74-.385.387-1.934l-4.448-4.447L625.7,68.355H614.483v-11.6l2.127-.967q2.125-1.74-.387-2.32l-7.928-.773V68.355H589.733l0.773,1.353h17.789v23.4ZM447.242,23.172A0.736,0.736,0,0,0,447,22.6l-2.676-2.216a0.74,0.74,0,0,0-.486-0.189,0.733,0.733,0,0,0-.757.73,0.761,0.761,0,0,0,.27.568l2.676,2.243a0.692,0.692,0,0,0,.486.189A0.733,0.733,0,0,0,447.242,23.172Zm-3.513,1.189a0.81,0.81,0,0,0-.162-0.486L441.189,21.2a0.78,0.78,0,0,0-.568-0.243,0.732,0.732,0,0,0-.757.73,0.71,0.71,0,0,0,.19.513l2.378,2.675a0.764,0.764,0,0,0,.54.243A0.738,0.738,0,0,0,443.729,24.361Zm2.026,10.161a0.8,0.8,0,0,0-.783-0.784c-0.946,0-3.837-1.784-7.242-3.837l-2.514-1.513V23.172a0.8,0.8,0,0,0-.783-0.784,0.784,0.784,0,0,0-.784.784v16.7a0.784,0.784,0,0,0,.784.784,0.8,0.8,0,0,0,.783-0.784v-9.62l1.676,1c4.459,2.648,6.729,4.053,8.08,4.053A0.784,0.784,0,0,0,445.755,34.522Zm23.519-10.647a0.8,0.8,0,0,0-.784-0.784H457.519a0.822,0.822,0,0,0-.784.784,0.8,0.8,0,0,0,.784.784H468.49A0.784,0.784,0,0,0,469.274,23.875Zm0.865,5.972V28.361a0.784,0.784,0,0,0-.784-0.784H455.817a0.784,0.784,0,1,0,0,1.567h12.755v0.7c0,1.486-3.351,7.431-12.755,9.161a0.759,0.759,0,0,0-.622.757,0.8,0.8,0,0,0,.784.784h0.135C466.058,38.71,470.139,32.306,470.139,29.847Zm21.816-6.161a0.8,0.8,0,0,0-.784-0.784h-9a0.8,0.8,0,0,0-.784.784,0.784,0.784,0,0,0,.784.784h9A0.784,0.784,0,0,0,491.955,23.686Zm5.324,15.457a0.768,0.768,0,0,0-.784-0.784h-3.486c-1.621,0-2.945-.189-3.486-0.7a1.5,1.5,0,0,1-.324-1.189c0-2.108-.7-3.567-2.135-3.81l4.864-4.108a0.783,0.783,0,0,0,.27-0.622,0.816,0.816,0,0,0-.783-0.784H480.578a0.8,0.8,0,0,0-.783.784,0.784,0.784,0,0,0,.783.784h8.675l-11.08,9.4a0.745,0.745,0,0,0-.3.568,0.789,0.789,0,0,0,.811.784,0.808,0.808,0,0,0,.486-0.162l5.729-4.837a5.092,5.092,0,0,1,1.676-.3c0.513,0,1.053.081,1.053,2.3,0,2.729,1.757,3.459,5.378,3.459H496.5A0.768,0.768,0,0,0,497.279,39.143Zm23.127-11.728a0.784,0.784,0,0,0-.784-0.784h-9.134v-3.54a0.784,0.784,0,0,0-.783-0.784,0.8,0.8,0,0,0-.784.784v3.54h-5.837a0.785,0.785,0,0,0-.784.784,0.8,0.8,0,0,0,.784.784h5.837l-0.054,3.3h-4.7a0.77,0.77,0,1,0,0,1.54h4.675v1.973c0,4.216.946,5.648,3.918,5.648a9.874,9.874,0,0,0,7.134-3.4,0.691,0.691,0,0,0,.19-0.486,0.808,0.808,0,0,0-.784-0.811,0.769,0.769,0,0,0-.6.27,8.509,8.509,0,0,1-5.945,2.864c-1.7,0-2.351-.73-2.351-3.945,0-.486,0-1.243.027-2.108H516.3a0.77,0.77,0,1,0,0-1.54h-5.864l0.054-3.3h9.134A0.8,0.8,0,0,0,520.406,27.415Zm28.066,8.3a0.808,0.808,0,0,0-.811-0.784,0.735,0.735,0,0,0-.541.216,9.844,9.844,0,0,1-6.566,3.081c-2.594,0-.162-7.81-4.648-7.81a6.961,6.961,0,0,0-2.4.459l3.81-7.215a0.833,0.833,0,0,0,.081-0.351,0.777,0.777,0,0,0-1.459-.405L527.61,38.629a0.863,0.863,0,0,0-.081.378,0.778,0.778,0,0,0,.756.784,0.806,0.806,0,0,0,.7-0.405l3.054-5.756a5.585,5.585,0,0,1,3.864-1.648c2.756,0,.189,7.81,4.648,7.81a11.529,11.529,0,0,0,7.674-3.54A0.9,0.9,0,0,0,548.472,35.711Zm25.122-3.972c0-4.459-3.351-7.377-8.567-7.377-6.107,0-9.755,4.324-9.755,8.512,0,3.729,1.784,5.026,3.351,5.026,1.189,0,2.54-1.459,3.621-3.4a23.218,23.218,0,0,0,2.54-7.215V25.928h0.406c4.242,0,6.836,2.243,6.836,5.81,0,3.081-3.918,6.188-7.809,6.188a0.784,0.784,0,1,0,0,1.567C569.027,39.494,573.594,35.738,573.594,31.738ZM563.217,27.2c-1,5.215-3.621,9.134-4.594,9.134s-1.784-1.135-1.784-3.459c0-3,2.351-6.08,6.378-6.783V27.2Zm38.743-2.972a0.758,0.758,0,0,0-.271-0.567l-2.729-2.135a0.716,0.716,0,0,0-1.135.567,0.645,0.645,0,0,0,.243.54l2.73,2.135a0.733,0.733,0,0,0,.459.162A0.7,0.7,0,0,0,601.96,24.226Zm-3.243,1.135a0.652,0.652,0,0,0-.189-0.486l-2.7-2.567a0.693,0.693,0,0,0-.486-0.189,0.681,0.681,0,0,0-.7.7,0.585,0.585,0,0,0,.217.486l2.7,2.594a0.632,0.632,0,0,0,.459.189A0.7,0.7,0,0,0,598.717,25.361Zm2.162,5.891a0.758,0.758,0,0,0-.271-0.567c-0.972-.73-2.486-1.811-6.4-6.134a0.766,0.766,0,0,0-.595-0.27,0.818,0.818,0,0,0-.783.784v0.054c0,1.189.135,2.324,0.135,3.351,0,3.756-.432,10.431-5.54,10.431-2.81,0-3.81-2.027-3.81-4.108,0-3.216,2.27-7.161,5.567-9.728a0.839,0.839,0,0,0,.27-0.649,0.754,0.754,0,0,0-.757-0.757h-7.863a0.77,0.77,0,1,0,0,1.54h5.81c-2.784,2.783-4.594,6.459-4.594,9.593,0,3.486,2.107,5.675,5.377,5.675,6.216,0,7.08-7.269,7.08-12.025V27.036a40.524,40.524,0,0,0,4.945,4.729,1.375,1.375,0,0,0,.7.243A0.718,0.718,0,0,0,600.879,31.252Zm27.138,8.728a0.767,0.767,0,0,0-.27-0.595l-10.755-8.674V27.928h7.458a0.77,0.77,0,1,0,0-1.54h-7.458V22.929a0.784,0.784,0,0,0-1.568,0v3.459h-6.891a0.77,0.77,0,1,0,0,1.54h6.891v2.756l-6.053,6.7-3.756,1.27a0.78,0.78,0,0,0-.541.73,0.761,0.761,0,0,0,.784.757,0.748,0.748,0,0,0,.243-0.027l3.973-1.3A0.854,0.854,0,0,0,610.4,38.6l5.864-6.513L626.774,40.6a0.753,0.753,0,0,0,.486.162,0.766,0.766,0,0,0,.6-0.27A0.89,0.89,0,0,0,628.017,39.98Zm-8.674-1.027a0.8,0.8,0,0,0-.784-0.784h-4.027a0.784,0.784,0,0,0,0,1.567h4.027A0.8,0.8,0,0,0,619.343,38.954Zm29.378,0.192a0.667,0.667,0,0,0-.7-0.7l-6,.264c-0.408.024-.816,0.024-1.177,0.024-3.963,0-4.612-1.033-4.612-1.777,0-2.786,6.318-6.2,10.041-7.687a0.673,0.673,0,0,0,.432-0.625,0.692,0.692,0,0,0-.672-0.7,1.036,1.036,0,0,0-.265.048,34.8,34.8,0,0,0-6.245,3.171l-0.841-6.1a0.661,0.661,0,0,0-.7-0.576,0.677,0.677,0,0,0-.673.7l0.937,6.87c-1.922,1.465-3.387,3.171-3.387,4.9,0,1.633.817,3.171,5.765,3.171,0.408,0,.841,0,1.321-0.024l6.149-.288A0.662,0.662,0,0,0,648.721,39.146Z" transform="translate(-433.656 -20.188)"/>
</svg>
