<svg xmlns="http://www.w3.org/2000/svg" width="215.063" height="76.344" viewBox="0 0 215.063 76.344">
  <defs>
    <style>
      .cls-1 {
        fill: #2b546a;
        fill-rule: evenodd;
      }
    </style>
  </defs>
  <path id="_07_title.svg" data-name="07_title.svg" class="cls-1" d="M440.242,13.172A0.736,0.736,0,0,0,440,12.6l-2.676-2.216a0.746,0.746,0,0,0-1.243.54,0.761,0.761,0,0,0,.27.568l2.676,2.243a0.692,0.692,0,0,0,.486.189A0.733,0.733,0,0,0,440.242,13.172Zm-3.513,1.189a0.81,0.81,0,0,0-.162-0.486L434.189,11.2a0.78,0.78,0,0,0-.568-0.243,0.732,0.732,0,0,0-.757.73,0.714,0.714,0,0,0,.19.513l2.378,2.675a0.763,0.763,0,0,0,.54.243A0.738,0.738,0,0,0,436.729,14.361Zm2.026,10.161a0.8,0.8,0,0,0-.783-0.784c-0.946,0-3.837-1.783-7.242-3.837l-2.514-1.513V13.172a0.8,0.8,0,0,0-.783-0.784,0.784,0.784,0,0,0-.784.784v16.7a0.784,0.784,0,0,0,.784.784,0.8,0.8,0,0,0,.783-0.784v-9.62l1.676,1c4.459,2.648,6.729,4.053,8.08,4.053A0.784,0.784,0,0,0,438.755,24.522Zm23.519-10.647a0.8,0.8,0,0,0-.784-0.784H450.519a0.822,0.822,0,0,0-.784.784,0.8,0.8,0,0,0,.784.784H461.49A0.784,0.784,0,0,0,462.274,13.875Zm0.865,5.972V18.361a0.784,0.784,0,0,0-.784-0.784H448.817a0.784,0.784,0,1,0,0,1.567h12.755v0.7c0,1.486-3.351,7.431-12.755,9.161a0.759,0.759,0,0,0-.622.757,0.8,0.8,0,0,0,.784.784h0.135C459.058,28.71,463.139,22.306,463.139,19.847Zm21.816-6.161a0.8,0.8,0,0,0-.784-0.784h-9a0.8,0.8,0,0,0-.784.784,0.784,0.784,0,0,0,.784.784h9A0.784,0.784,0,0,0,484.955,13.686Zm5.324,15.457a0.768,0.768,0,0,0-.784-0.784h-3.486c-1.621,0-2.945-.189-3.486-0.7a1.5,1.5,0,0,1-.324-1.189c0-2.108-.7-3.567-2.135-3.81l4.864-4.107a0.783,0.783,0,0,0,.27-0.622,0.816,0.816,0,0,0-.783-0.784H473.578a0.8,0.8,0,0,0-.783.784,0.784,0.784,0,0,0,.783.784h8.675l-11.08,9.4a0.745,0.745,0,0,0-.3.567,0.789,0.789,0,0,0,.811.784,0.808,0.808,0,0,0,.486-0.162l5.729-4.837a5.092,5.092,0,0,1,1.676-.3c0.513,0,1.053.081,1.053,2.3,0,2.729,1.757,3.459,5.378,3.459H489.5A0.768,0.768,0,0,0,490.279,29.143Zm23.127-11.728a0.784,0.784,0,0,0-.784-0.784h-9.134v-3.54a0.784,0.784,0,0,0-.783-0.784,0.8,0.8,0,0,0-.784.784v3.54h-5.837a0.784,0.784,0,0,0-.783.784,0.8,0.8,0,0,0,.783.784h5.837l-0.054,3.3h-4.7a0.77,0.77,0,1,0,0,1.54h4.675v1.973c0,4.216.946,5.648,3.918,5.648a9.878,9.878,0,0,0,7.135-3.4,0.694,0.694,0,0,0,.189-0.486,0.808,0.808,0,0,0-.784-0.811,0.765,0.765,0,0,0-.594.27,8.513,8.513,0,0,1-5.946,2.864c-1.7,0-2.351-.73-2.351-3.945,0-.486,0-1.243.027-2.108H509.3a0.77,0.77,0,1,0,0-1.54h-5.864l0.054-3.3h9.134A0.8,0.8,0,0,0,513.406,17.415Zm28.066,8.3a0.808,0.808,0,0,0-.811-0.784,0.735,0.735,0,0,0-.541.216,9.844,9.844,0,0,1-6.566,3.081c-2.594,0-.162-7.81-4.648-7.81a6.961,6.961,0,0,0-2.4.459l3.81-7.215a0.833,0.833,0,0,0,.081-0.351,0.777,0.777,0,0,0-1.459-.405L520.61,28.629a0.863,0.863,0,0,0-.081.378,0.778,0.778,0,0,0,.756.784,0.806,0.806,0,0,0,.7-0.405l3.054-5.756a5.585,5.585,0,0,1,3.864-1.648c2.756,0,.189,7.81,4.648,7.81a11.527,11.527,0,0,0,7.674-3.54A0.892,0.892,0,0,0,541.472,25.711Zm25.122-3.972c0-4.459-3.351-7.377-8.567-7.377-6.107,0-9.755,4.324-9.755,8.512,0,3.729,1.784,5.026,3.351,5.026,1.189,0,2.54-1.459,3.621-3.4a23.217,23.217,0,0,0,2.54-7.215V15.928h0.406c4.242,0,6.836,2.243,6.836,5.81,0,3.081-3.918,6.188-7.809,6.188a0.784,0.784,0,1,0,0,1.567C562.027,29.494,566.594,25.738,566.594,21.738ZM556.217,17.2c-1,5.215-3.621,9.134-4.594,9.134s-1.784-1.135-1.784-3.459c0-3,2.351-6.08,6.378-6.783V17.2Zm38.743-2.972a0.758,0.758,0,0,0-.271-0.568l-2.729-2.135a0.716,0.716,0,0,0-1.135.567,0.645,0.645,0,0,0,.243.54l2.73,2.135a0.733,0.733,0,0,0,.459.162A0.7,0.7,0,0,0,594.96,14.226Zm-3.243,1.135a0.652,0.652,0,0,0-.189-0.486l-2.7-2.567a0.693,0.693,0,0,0-.486-0.189,0.681,0.681,0,0,0-.7.7,0.585,0.585,0,0,0,.217.486l2.7,2.594a0.632,0.632,0,0,0,.459.189A0.7,0.7,0,0,0,591.717,15.361Zm2.162,5.891a0.761,0.761,0,0,0-.27-0.567c-0.973-.73-2.487-1.811-6.405-6.134a0.766,0.766,0,0,0-.594-0.27,0.818,0.818,0,0,0-.784.784v0.054c0,1.189.135,2.324,0.135,3.351,0,3.756-.432,10.431-5.54,10.431-2.81,0-3.81-2.027-3.81-4.107,0-3.216,2.27-7.161,5.567-9.728a0.839,0.839,0,0,0,.27-0.649,0.754,0.754,0,0,0-.757-0.757h-7.863a0.77,0.77,0,1,0,0,1.54h5.81c-2.784,2.783-4.594,6.458-4.594,9.593,0,3.486,2.107,5.675,5.377,5.675,6.216,0,7.08-7.269,7.08-12.025V17.036a40.416,40.416,0,0,0,4.946,4.729,1.369,1.369,0,0,0,.7.243A0.718,0.718,0,0,0,593.879,21.252Zm27.138,8.728a0.767,0.767,0,0,0-.27-0.594l-10.755-8.674V17.928h7.458a0.77,0.77,0,1,0,0-1.54h-7.458V12.929a0.784,0.784,0,0,0-1.568,0v3.459h-6.891a0.77,0.77,0,1,0,0,1.54h6.891v2.756l-6.053,6.7-3.756,1.27a0.78,0.78,0,0,0-.541.73,0.761,0.761,0,0,0,.784.757,0.748,0.748,0,0,0,.243-0.027l3.973-1.3A0.854,0.854,0,0,0,603.4,28.6l5.864-6.512L619.774,30.6a0.753,0.753,0,0,0,.486.162,0.766,0.766,0,0,0,.6-0.27A0.89,0.89,0,0,0,621.017,29.98Zm-8.674-1.027a0.8,0.8,0,0,0-.784-0.784h-4.027a0.784,0.784,0,0,0,0,1.567h4.027A0.8,0.8,0,0,0,612.343,28.954Zm29.378,0.192a0.667,0.667,0,0,0-.7-0.7l-6,.264c-0.408.024-.816,0.024-1.177,0.024-3.963,0-4.612-1.033-4.612-1.777,0-2.786,6.318-6.2,10.041-7.687a0.673,0.673,0,0,0,.432-0.625,0.692,0.692,0,0,0-.672-0.7,1.036,1.036,0,0,0-.265.048,34.8,34.8,0,0,0-6.245,3.171l-0.841-6.1a0.661,0.661,0,0,0-.7-0.576,0.678,0.678,0,0,0-.673.7l0.937,6.87c-1.922,1.465-3.387,3.171-3.387,4.9,0,1.633.817,3.171,5.765,3.171,0.408,0,.841,0,1.321-0.024l6.149-.288A0.662,0.662,0,0,0,641.721,29.146ZM451.62,56.834h0.347a20.669,20.669,0,0,1,2.921.2V54.655a19.757,19.757,0,0,1-2.921.2h-6.536a14.989,14.989,0,0,1-2.129-.1,31.665,31.665,0,0,0,6.981-8.714,23.808,23.808,0,0,0,5.248,8.516l0.941,1.337,3.812-5.248L458.5,49.9a27.981,27.981,0,0,1-7.228-5.793l0.891-1.782-6.783-1.634-0.248,1.98a33.1,33.1,0,0,1-6.585,13.566l-1.188.99,1.386,1.287,0.991-.99a19.522,19.522,0,0,0,2.129-1.584l0.3-.2,0.3-.248v1.535a21.838,21.838,0,0,1,2.97-.2h0.694v5.793h-4.159a21.156,21.156,0,0,1-2.921-.2V64.8a19.739,19.739,0,0,1,2.921-.2h4.159V78.569c-0.892.1-3.763,0.3-4.952,0.3l-2.475.05,1.98,6.932,2.525-1.089a123.579,123.579,0,0,0,14.953-5.991l1.386-.545-0.495-1.733-1.535.446c-1.832.4-3.565,0.743-5.892,1.04V64.607h3.169a20.861,20.861,0,0,1,2.97.2V62.428a20.861,20.861,0,0,1-2.97.2H451.62V56.834Zm16.735-5.2h-2.872a42.4,42.4,0,0,0,1.535-5.644l0.5-1.634-6.535-1.188L461.027,45a69.534,69.534,0,0,1-1.832,15.15l-0.643,1.287,1.782,0.792,0.594-1.287a35.366,35.366,0,0,0,3.862-7.328h3.565v9.556h-6.239a21.177,21.177,0,0,1-2.921-.2V65.35a19.757,19.757,0,0,1,2.921-.2h5.991c-0.743,7.526-4.555,14.457-10.2,18.467l-1.634.743,1.287,1.733,1.337-.941c7.823-3.565,12.774-8.912,14.655-15.794,0.693,6.486,2.674,11.437,6.09,15.15L481.128,86l3.862-6.733-1.584-.792a19.077,19.077,0,0,1-8.615-13.318h6.139a19.1,19.1,0,0,1,2.872.2V62.973a18.666,18.666,0,0,1-2.872.2h-6.337V53.616h4.8a20.7,20.7,0,0,1,2.922.2V51.437a19.761,19.761,0,0,1-2.922.2h-4.8V44.159a19.457,19.457,0,0,1,.248-2.971h-6.734a15.978,15.978,0,0,1,.248,2.971v7.476Zm-26.488,15-1.783.5,0.248,1.04c0.2,2.03.3,4.357,0.4,7.377l-0.2,1.683,5.446-1.683-0.743-1.287c-0.792-1.832-2.03-4.555-3.069-6.585ZM454,66.092l-0.1,1.98a64.663,64.663,0,0,1-1.09,6.783l-0.346.99,1.683,0.644,0.5-1.139a38.654,38.654,0,0,0,3.565-6.139l0.891-1.485Zm76.418,11.239c-11.189-6.634-17.081-17.18-16.883-30.2V45.694a19.588,19.588,0,0,1,.248-2.971h-8.219a15.978,15.978,0,0,1,.248,2.971v1.733c0.3,16.834-4.407,27.577-15.5,35.35l-1.634.644,1.188,1.98,1.585-.941c12.575-5.545,19.309-13.863,21.141-26.042q1.931,15.893,12.971,25.349l1.585,1.584,5.693-6.931ZM569.9,57.081h4.357a20.861,20.861,0,0,1,2.97.2V54.9a20.847,20.847,0,0,1-2.97.2H551.334V48.467c2.029,0.1,4.307.148,6.337,0.148a119.508,119.508,0,0,0,15-.842l2.921-.2-5.347-7.03-1.832.99a31.363,31.363,0,0,1-7.823,2.723,43.643,43.643,0,0,1-11.239,1.485,36.392,36.392,0,0,1-5.347-.248c0.2,2.525.248,3.119,0.248,4.9V69.855h-5.447a21.354,21.354,0,0,1-2.97-.2v2.377a21.853,21.853,0,0,1,2.97-.2H576.93a20.884,20.884,0,0,1,2.971.2V69.657a20.884,20.884,0,0,1-2.971.2H569.9V57.081Zm-6.981,0V69.855H551.334V57.081h11.585ZM549.4,72.776l-1.337,1.98a51.336,51.336,0,0,1-10.447,8.961l-1.584.693,1.238,1.832,1.386-.594a58.746,58.746,0,0,0,14.655-6.486l2.327-1.089Zm14.061,0.2-1.486,1.782,1.535,1.04a129.2,129.2,0,0,1,9.8,9.258l1.139,1.485,5.694-6.486-1.882-.644c-2.97-1.485-6.733-3.07-13.318-5.595Zm51.886-15.15h1.337a20.861,20.861,0,0,1,2.97.2V55.646a20.861,20.861,0,0,1-2.97.2H615.35v-4.7a19.589,19.589,0,0,1,.248-2.971h-6.932a15.978,15.978,0,0,1,.248,2.971v4.7H597.18a21.357,21.357,0,0,1-2.971-.2v2.377a21.858,21.858,0,0,1,2.971-.2h11.734v16.19a1.277,1.277,0,0,1-1.535,1.535,36.45,36.45,0,0,1-5.446-.5l0.445,2.327,2.278,0.446a28.137,28.137,0,0,0,7.525,1.436c1.931,0,3.169-1.337,3.169-3.466V57.824Zm-16.833,2.228-1.436,1.238,0.693,0.941a60.827,60.827,0,0,1,3.317,7.575l0.446,1.436,6.04-5.05-1.683-.99c-2.278-1.634-3.664-2.575-6.536-4.357Zm-9.061-16.14a36.3,36.3,0,0,1-3.713-.1,17.865,17.865,0,0,1,.247,3.911V79.955a21.558,21.558,0,0,1-.247,3.911,12.143,12.143,0,0,1,1.238-.049h40.5l0.644,0.049a22.219,22.219,0,0,1-.248-3.911V47.724a21.879,21.879,0,0,1,.248-3.911c-1.238.1-1.931,0.1-3.714,0.1H589.456Zm31.687,1.98V81.837H592.724V45.892h28.419Z" transform="translate(-426.656 -10.188)"/>
</svg>
