<svg xmlns="http://www.w3.org/2000/svg" width="238.094" height="67.875" viewBox="0 0 238.094 67.875">
  <defs>
    <style>
      .cls-1 {
        fill: #2b546a;
        fill-rule: evenodd;
      }
    </style>
  </defs>
  <path id="_06_title.svg" data-name="06_title.svg" class="cls-1" d="M504.2,27.172a0.736,0.736,0,0,0-.243-0.567l-2.676-2.216a0.746,0.746,0,0,0-1.243.54,0.758,0.758,0,0,0,.271.568l2.675,2.243a0.692,0.692,0,0,0,.486.189A0.733,0.733,0,0,0,504.2,27.172Zm-3.513,1.189a0.81,0.81,0,0,0-.162-0.486L498.146,25.2a0.779,0.779,0,0,0-.568-0.243,0.731,0.731,0,0,0-.756.73,0.713,0.713,0,0,0,.189.513l2.378,2.675a0.763,0.763,0,0,0,.54.243A0.737,0.737,0,0,0,500.686,28.361Zm2.027,10.161a0.8,0.8,0,0,0-.784-0.784c-0.946,0-3.837-1.784-7.242-3.837l-2.513-1.513V27.172a0.8,0.8,0,0,0-.784-0.784,0.785,0.785,0,0,0-.784.784v16.7a0.785,0.785,0,0,0,.784.784,0.8,0.8,0,0,0,.784-0.784v-9.62l1.675,1c4.459,2.648,6.729,4.053,8.08,4.053A0.785,0.785,0,0,0,502.713,38.522Zm23.518-10.647a0.8,0.8,0,0,0-.783-0.784H514.476a0.822,0.822,0,0,0-.784.784,0.8,0.8,0,0,0,.784.784h10.972A0.784,0.784,0,0,0,526.231,27.875Zm0.865,5.972V32.361a0.784,0.784,0,0,0-.784-0.784H512.774a0.784,0.784,0,1,0,0,1.567h12.755v0.7c0,1.486-3.351,7.431-12.755,9.161a0.759,0.759,0,0,0-.622.757,0.8,0.8,0,0,0,.784.784h0.135C523.015,42.71,527.1,36.306,527.1,33.847Zm21.816-6.161a0.8,0.8,0,0,0-.783-0.784h-9a0.8,0.8,0,0,0-.784.784,0.785,0.785,0,0,0,.784.784h9A0.784,0.784,0,0,0,548.912,27.686Zm5.324,15.457a0.768,0.768,0,0,0-.784-0.784h-3.486c-1.621,0-2.945-.189-3.486-0.7a1.5,1.5,0,0,1-.324-1.189c0-2.108-.7-3.567-2.135-3.81l4.864-4.108a0.783,0.783,0,0,0,.27-0.622,0.816,0.816,0,0,0-.783-0.784H537.536a0.8,0.8,0,0,0-.784.784,0.784,0.784,0,0,0,.784.784h8.674l-11.08,9.4a0.745,0.745,0,0,0-.3.568,0.79,0.79,0,0,0,.811.784,0.808,0.808,0,0,0,.486-0.162l5.729-4.837a5.092,5.092,0,0,1,1.676-.3c0.513,0,1.054.081,1.054,2.3,0,2.729,1.756,3.459,5.377,3.459h3.486A0.768,0.768,0,0,0,554.236,43.143Zm23.127-11.728a0.784,0.784,0,0,0-.784-0.784h-9.133v-3.54a0.785,0.785,0,0,0-.784-0.784,0.8,0.8,0,0,0-.784.784v3.54h-5.837a0.784,0.784,0,0,0-.783.784,0.8,0.8,0,0,0,.783.784h5.837l-0.054,3.3h-4.7a0.77,0.77,0,1,0,0,1.54H565.8v1.973c0,4.216.946,5.648,3.919,5.648a9.877,9.877,0,0,0,7.134-3.4,0.694,0.694,0,0,0,.189-0.486,0.808,0.808,0,0,0-.784-0.811,0.765,0.765,0,0,0-.594.27,8.513,8.513,0,0,1-5.945,2.864c-1.7,0-2.352-.73-2.352-3.945,0-.486,0-1.243.028-2.108h5.864a0.77,0.77,0,1,0,0-1.54h-5.864l0.054-3.3h9.133A0.8,0.8,0,0,0,577.363,31.415Zm28.066,8.3a0.808,0.808,0,0,0-.811-0.784,0.731,0.731,0,0,0-.54.216,9.848,9.848,0,0,1-6.567,3.081c-2.594,0-.162-7.81-4.648-7.81a6.961,6.961,0,0,0-2.405.459l3.81-7.215a0.833,0.833,0,0,0,.081-0.351,0.777,0.777,0,0,0-1.459-.405l-8.323,15.728a0.863,0.863,0,0,0-.081.378,0.778,0.778,0,0,0,.756.784,0.806,0.806,0,0,0,.7-0.405L589,37.63a5.585,5.585,0,0,1,3.864-1.648c2.756,0,.189,7.81,4.648,7.81a11.527,11.527,0,0,0,7.674-3.54A0.892,0.892,0,0,0,605.429,39.711Zm25.122-3.972c0-4.459-3.351-7.377-8.567-7.377-6.107,0-9.755,4.324-9.755,8.512,0,3.729,1.784,5.026,3.351,5.026,1.189,0,2.54-1.459,3.621-3.4a23.217,23.217,0,0,0,2.54-7.215V29.928h0.406c4.242,0,6.836,2.243,6.836,5.81,0,3.081-3.918,6.188-7.809,6.188a0.784,0.784,0,1,0,0,1.567C625.984,43.494,630.551,39.738,630.551,35.738ZM620.174,31.2c-1,5.215-3.621,9.134-4.594,9.134S613.8,39.2,613.8,36.873c0-3,2.351-6.08,6.378-6.783V31.2Zm38.743-2.972a0.761,0.761,0,0,0-.27-0.567l-2.73-2.135a0.716,0.716,0,0,0-1.135.567,0.645,0.645,0,0,0,.243.54l2.73,2.135a0.733,0.733,0,0,0,.459.162A0.7,0.7,0,0,0,658.917,28.226Zm-3.243,1.135a0.652,0.652,0,0,0-.189-0.486l-2.7-2.567a0.693,0.693,0,0,0-.486-0.189,0.681,0.681,0,0,0-.7.7,0.588,0.588,0,0,0,.217.486l2.7,2.594a0.632,0.632,0,0,0,.459.189A0.7,0.7,0,0,0,655.674,29.361Zm2.162,5.891a0.761,0.761,0,0,0-.27-0.568c-0.973-.73-2.487-1.811-6.405-6.134a0.766,0.766,0,0,0-.594-0.27,0.818,0.818,0,0,0-.784.784v0.054c0,1.189.135,2.324,0.135,3.351,0,3.756-.432,10.431-5.54,10.431-2.81,0-3.81-2.027-3.81-4.108,0-3.216,2.27-7.161,5.567-9.728a0.839,0.839,0,0,0,.27-0.649,0.754,0.754,0,0,0-.757-0.757h-7.863a0.77,0.77,0,1,0,0,1.54h5.81C640.811,31.982,639,35.657,639,38.792c0,3.486,2.108,5.675,5.377,5.675,6.216,0,7.08-7.269,7.08-12.025V31.036a40.416,40.416,0,0,0,4.946,4.729,1.369,1.369,0,0,0,.7.243A0.717,0.717,0,0,0,657.836,35.252Zm27.138,8.728a0.767,0.767,0,0,0-.27-0.595l-10.755-8.674V31.928h7.458a0.77,0.77,0,1,0,0-1.54h-7.458V26.929a0.784,0.784,0,0,0-1.568,0v3.459H665.49a0.77,0.77,0,1,0,0,1.54h6.891v2.756l-6.053,6.7-3.756,1.27a0.78,0.78,0,0,0-.541.73,0.761,0.761,0,0,0,.784.757,0.748,0.748,0,0,0,.243-0.027l3.973-1.3a0.854,0.854,0,0,0,.324-0.216l5.864-6.513L683.731,44.6a0.753,0.753,0,0,0,.486.162,0.766,0.766,0,0,0,.6-0.27A0.89,0.89,0,0,0,684.974,43.98ZM676.3,42.954a0.8,0.8,0,0,0-.784-0.784H671.49a0.784,0.784,0,1,0,0,1.567h4.026A0.8,0.8,0,0,0,676.3,42.954ZM706.293,36.8c0-3.963-2.979-6.558-7.615-6.558-5.428,0-8.671,3.843-8.671,7.566,0,3.315,1.585,4.468,2.979,4.468,1.056,0,2.257-1.3,3.218-3.027a20.61,20.61,0,0,0,2.258-6.413v-1.2h0.361c3.771,0,6.077,1.994,6.077,5.164,0,2.738-3.483,5.5-6.942,5.5a0.7,0.7,0,1,0,0,1.393C702.233,43.7,706.293,40.359,706.293,36.8Zm-9.224-4.035c-0.889,4.636-3.219,8.119-4.083,8.119s-1.586-1.009-1.586-3.075c0-2.666,2.09-5.4,5.669-6.029v0.985ZM517.581,68.8V61.526a1.428,1.428,0,0,0-1.436-1.386h-15.4V55.833a1.436,1.436,0,0,0-2.872,0V60.14h-15.2a1.428,1.428,0,0,0-1.436,1.386V68.8a1.437,1.437,0,0,0,1.436,1.436,1.47,1.47,0,0,0,1.436-1.436V62.962h30.6V68.8a1.47,1.47,0,0,0,1.436,1.436A1.437,1.437,0,0,0,517.581,68.8Zm4.109,7.773a1.48,1.48,0,0,0-1.485-1.436H500.747V69.151h8.466a1.436,1.436,0,1,0,0-2.872H489.558a1.436,1.436,0,1,0,0,2.872h8.317v5.991H478.566a1.436,1.436,0,0,0-1.435,1.436,1.479,1.479,0,0,0,1.435,1.485h19.309v9.8h-5.149a1.469,1.469,0,0,0-1.435,1.436,1.436,1.436,0,0,0,1.435,1.436h6.585a1.437,1.437,0,0,0,1.436-1.436V78.063h19.458A1.523,1.523,0,0,0,521.69,76.578Zm43.361-6.783V61.922a1.47,1.47,0,0,0-1.436-1.436h-15.4V56.278a1.436,1.436,0,0,0-2.872,0v4.208h-15.2a1.47,1.47,0,0,0-1.436,1.436v7.872a1.437,1.437,0,0,0,1.436,1.436,1.47,1.47,0,0,0,1.436-1.436V63.358h30.6v6.436a1.47,1.47,0,0,0,1.436,1.436A1.437,1.437,0,0,0,565.051,69.795Zm-5.5,18.22V72.32a1.436,1.436,0,0,0-1.435-1.436h-9.853V66.675a1.436,1.436,0,0,0-2.872,0v4.208H535.246a1.437,1.437,0,0,0-1.436,1.436V88.014a1.437,1.437,0,0,0,1.436,1.436H558.12A1.436,1.436,0,0,0,559.555,88.014Zm-2.871-1.436h-8.417V81.43h5.595a1.411,1.411,0,1,0,0-2.822h-5.595V73.755h8.417V86.579Zm-11.289,0h-8.713V73.755H545.4v4.852h-5.99a1.411,1.411,0,1,0,0,2.822h5.99v5.149Zm67.528-8.714a1.59,1.59,0,0,0-.5-1.089L604.655,69.5a1.355,1.355,0,0,0-.941-0.4,1.48,1.48,0,0,0-1.485,1.436,1.535,1.535,0,0,0,.445,1.089l7.823,7.229a1.571,1.571,0,0,0,.99.4,1.425,1.425,0,0,0,1.04-.446A1.561,1.561,0,0,0,612.923,77.865ZM594.455,89.351v-30.6a1.436,1.436,0,1,0-2.871,0V87.915h-5.545a1.436,1.436,0,0,0-1.436,1.436,1.406,1.406,0,0,0,1.436,1.436h6.981A1.436,1.436,0,0,0,594.455,89.351ZM583.514,70.735a1.63,1.63,0,0,0-.3-0.941,1.406,1.406,0,0,0-1.09-.5,1.384,1.384,0,0,0-.891.3l-8.714,7.129a1.406,1.406,0,0,0-.5,1.089,1.354,1.354,0,0,0,1.387,1.386,1.6,1.6,0,0,0,.891-0.3l8.714-7.08A1.406,1.406,0,0,0,583.514,70.735ZM661.23,60.091a1.437,1.437,0,0,0-1.436-1.436h-2.872a1.411,1.411,0,1,0,0,2.822h2.872A1.428,1.428,0,0,0,661.23,60.091Zm-19.111-3.169a1.47,1.47,0,0,0-1.436-1.436,1.344,1.344,0,0,0-1.287.792l-1.882,3.961a1.317,1.317,0,0,0-.148.594,1.49,1.49,0,0,0,1.534,1.436,1.36,1.36,0,0,0,1.238-.743l1.832-3.961A1.525,1.525,0,0,0,642.119,56.922Zm-8.467,3.961V56.922a1.436,1.436,0,1,0-2.871,0v3.961A1.436,1.436,0,1,0,633.652,60.883ZM665.19,90.737a1.3,1.3,0,0,0-.247-0.842l-8.021-11.338,4.159-4.357a1.378,1.378,0,0,0,.4-1.04,1.354,1.354,0,0,0-1.386-1.386,1.425,1.425,0,0,0-1.04.446l-3.812,3.961-3.515-4.951V68.507h11.04a1.436,1.436,0,1,0,0-2.872h-11.04V57.764a1.411,1.411,0,1,0-2.822,0v7.872h-5.3a1.458,1.458,0,0,0-1.238.693V64.992a1.461,1.461,0,0,0-1.436-1.386H624.493a1.461,1.461,0,0,0-1.436,1.386V76.479a1.47,1.47,0,0,0,1.436,1.436h6.535v2.872h-9.9a1.411,1.411,0,1,0,0,2.822h9.9v6.486a1.44,1.44,0,0,0,2.872,0V83.608h8.318a1.411,1.411,0,1,0,0-2.822H633.9V77.914h7.03a1.47,1.47,0,0,0,1.436-1.436V67.814a1.458,1.458,0,0,0,1.238.693h5.3v3.169a1.83,1.83,0,0,0,.247.842l4.06,5.743-9.8,10.249a1.51,1.51,0,0,0-.446,1.04,1.471,1.471,0,0,0,1.486,1.386,1.383,1.383,0,0,0,.99-0.4l9.456-9.9,7.674,10.843a1.477,1.477,0,0,0,1.189.594A1.385,1.385,0,0,0,665.19,90.737ZM626.473,60.883V56.922a1.436,1.436,0,0,0-1.435-1.436,1.4,1.4,0,0,0-1.387,1.436v3.961a1.4,1.4,0,0,0,1.387,1.436A1.436,1.436,0,0,0,626.473,60.883ZM639.5,75.043h-5.6V71.924h3.169a1.242,1.242,0,0,0,1.138-1.238,1.208,1.208,0,0,0-1.138-1.238H633.9v-3.02h5.6v8.615Zm-8.467,0h-5.1V66.428h5.1v3.02h-2.772a1.209,1.209,0,0,0-1.139,1.238,1.243,1.243,0,0,0,1.139,1.238h2.772v3.119Zm84.2-3.317a1.47,1.47,0,0,0-1.436-1.436h-8.615V65.933a1.436,1.436,0,0,0-1.435-1.436h-8.17l4.654-4.951a1.436,1.436,0,0,0-1.039-2.426H689.43V56.179a1.436,1.436,0,1,0-2.871,0v1.436l-9.853,4.456a1.454,1.454,0,0,0,.594,2.773,1.318,1.318,0,0,0,.594-0.149l10.5-4.7h7.476L691.559,64.5h-9.308a1.437,1.437,0,0,0-1.436,1.436,1.47,1.47,0,0,0,1.436,1.436h8.763V70.29h-19.16a1.47,1.47,0,0,0-1.436,1.436,1.437,1.437,0,0,0,1.436,1.436h19.16v2.822h-8.763a1.436,1.436,0,1,0,0,2.872h8.763v8.763h-6.089a1.462,1.462,0,0,0-1.387,1.436,1.428,1.428,0,0,0,1.387,1.436h7.525a1.437,1.437,0,0,0,1.436-1.436v-10.2h9.853a1.436,1.436,0,0,0,1.435-1.436V73.161h8.615A1.437,1.437,0,0,0,715.225,71.726ZM702.3,70.29h-8.417V67.369H702.3V70.29Zm0,5.694h-8.417V73.161H702.3v2.822Z" transform="translate(-477.125 -24.188)"/>
</svg>
