<svg xmlns="http://www.w3.org/2000/svg" width="27.031" height="40" viewBox="0 0 27.031 40">
  <defs>
    <style>
      .cls-1 {
        fill: #b5e9ff;
        fill-rule: evenodd;
      }
    </style>
  </defs>
  <path id="prev.svg" class="cls-1" d="M117.252,275.758l19.032,19.178a0.833,0.833,0,0,1,0,1.17l-19.032,19.18a0.815,0.815,0,0,1-1.16,0l-6.344-6.392a0.858,0.858,0,0,1,0-1.171l12.106-12.2-12.106-12.2a0.831,0.831,0,0,1,0-1.17l6.344-6.393A0.814,0.814,0,0,1,117.252,275.758Zm0.158,2.5,5.619,9.3c-2.71-5.278-2.695-5.333-2.616-5.581a0.5,0.5,0,0,1,.247-0.293,0.5,0.5,0,0,1,.112-0.033Zm7.67,9.809c-0.519-1.047-.779-1.607-0.905-1.924-0.009-.014-0.018-0.029-0.028-0.042l0.009-.007a0.546,0.546,0,0,1-.071-0.422,0.488,0.488,0,0,1,.361-0.323l-0.194-.195-2.449-2.468C122.826,284.369,123.958,286.228,125.08,288.064Zm8.239,6.224-0.657-.662-0.143-.144,0.747,0.824Zm-5.2-4.552a0.493,0.493,0,0,1,.354-0.328l-0.993-1-1.84-1.854c0.866,1.285,1.817,2.694,2.731,4.043A1.131,1.131,0,0,1,128.122,289.736Zm6.421,5.786-0.733-.74c0.061,0.117.124,0.236,0.186,0.349L134,295.144a0.5,0.5,0,0,1-.152.63,0.49,0.49,0,0,1-.649-0.07l-2.591-2.854c0.641,1.256,1.364,2.663,1.93,3.761l0,0a0.5,0.5,0,0,1,.03.376,0.49,0.49,0,0,1-.246.291c-0.162.084-.271,0.139-0.621-0.233l-0.038.02c-0.027-.05-0.053-0.1-0.079-0.152-0.49-.568-1.383-1.838-3.212-4.538,0.965,1.888,1.988,3.88,2.851,5.555a0.528,0.528,0,0,1,.032.381,0.5,0.5,0,0,1-.245.29c-0.159.082-.271,0.139-0.6-0.242l-0.055.029-0.134-.26c-0.506-.656-1.407-2.059-3.182-4.948,2.036,3.957,2.738,5.338,2.959,5.89l0.02,0.033-0.008,0a0.5,0.5,0,0,1,.055.405,0.5,0.5,0,0,1-.9.109L122.8,289.111c1.932,3.8,4.17,7.969,5.811,11.424v0a0.661,0.661,0,0,1-.185.662,0.469,0.469,0,0,1-.644-0.19c-1.181-2.092-2.522-4.458-3.872-6.834l3.729,7.382a0.5,0.5,0,0,1-.215.667c-0.17.087-.284,0.146-0.6-0.246l-0.057.029-0.171-.338c-0.28-.4-0.674-1.046-1.264-2.058,1.487,2.994,1.453,3.1,1.4,3.277a0.5,0.5,0,0,1-.248.293,0.487,0.487,0,0,1-.569-0.088l-1.97-1.96c1.48,2.927,1.474,2.969,1.42,3.139a0.5,0.5,0,0,1-.245.288c-0.338.174-.338,0.174-2.186-1.827l-0.023-.025,1.216,2.406a0.5,0.5,0,0,1-.216.668c-0.294.151-.356,0.182-2.489-2,0.467,0.912.972,1.89,1.375,2.666a0.011,0.011,0,0,0,0,0,0.5,0.5,0,0,1-.137.619,0.489,0.489,0,0,1-.633-0.026l-2.4-2.2c0.531,1.038,1.154,2.236,1.632,3.148a0.509,0.509,0,0,1,.035.382,0.5,0.5,0,0,1-.246.292c-0.331.17-.336,0.173-2.728-2.142,0.063,0.122.124,0.244,0.185,0.362,1.4,2.75,1.4,2.751,1.334,2.96a0.5,0.5,0,0,1-.361.331,0.488,0.488,0,0,1-.467-0.145L117.5,308.4c1.231,2.393,1.214,2.444,1.146,2.657a0.49,0.49,0,0,1-.846.17c-0.335-.4-0.724-0.867-1.123-1.341l0.922,1.824a0.5,0.5,0,0,1-.156.631,0.489,0.489,0,0,1-.643-0.068s-0.716-.777-1.54-1.669c1.252,2.444,1.246,2.473,1.178,2.685a0,0,0,0,0,0,0l0.239,0.241Zm-22.852,12.99a0.487,0.487,0,0,1,.835-0.155c0.354,0.421.769,0.912,1.192,1.412-1.072-2.079-1.069-2.077-1-2.287a0.5,0.5,0,0,1,.245-0.29c0.149-.076.231-0.119,0.654,0.266l0.025-.01c0,0.012.015,0.031,0.029,0.061,0.3,0.276.745,0.743,1.463,1.511l-1.2-2.365a0.5,0.5,0,0,1,.215-0.667c0.169-.087.266-0.137,0.646,0.225l0.016-.009,0.024,0.049c0.226,0.221.546,0.576,1.023,1.133l-0.613-1.189c-0.393-.746-0.389-0.747-0.325-0.945a0.494,0.494,0,0,1,.361-0.334,0.487,0.487,0,0,1,.467.146l1.593,1.717c-1.288-2.535-1.285-2.546-1.222-2.744a0.5,0.5,0,0,1,.245-0.288c0.331-.171.331-0.171,2.533,1.962,0.038,0.036.076,0.072,0.114,0.11-1.531-2.955-1.5-3.042-1.44-3.248a0.5,0.5,0,0,1,.247-0.293,0.488,0.488,0,0,1,.555.074l2.257,2.073c-1.616-3.126-1.6-3.183-1.528-3.4a0.491,0.491,0,0,1,.822-0.2c0.559,0.578,1.261,1.3,1.922,1.976l-1.387-2.744a0.5,0.5,0,0,1,.215-0.668c0.177-.09.263-0.135,0.654,0.221l0.017,0.015c0.294,0.269.753,0.754,1.533,1.6l-1.21-2.388v0a0.5,0.5,0,0,1,.147-0.63,0.489,0.489,0,0,1,.637.035l2.181,2.15c-0.488-.979-1.1-2.2-1.779-3.539l-11.369,11.46Zm-0.2-25.776,0.2,0.2a0.482,0.482,0,0,1,.843-0.113l0.888,1.192c-0.894-1.745-.88-1.785-0.815-1.991a0.506,0.506,0,0,1,.247-0.3,0.49,0.49,0,0,1,.633.168l1.928,2.919-1.748-3.46a0.5,0.5,0,0,1,.215-0.667,0.49,0.49,0,0,1,.662.216l5.05,10,0.5,0.5c-1.163-2.279-2.307-4.513-3.217-6.282-1.484-2.888-2.085-4.142-2.313-4.657,0,0,0-.176,0-0.176h0c-0.152,0-.135-0.181-0.109-0.266,0.041-.126.129-0.016,0.246-0.075,0.238-.123.355-0.487,0.675,0.341h0s0-.084,0-0.08a33.6,33.6,0,0,1,1.773,2.91q0.308,0.545.655,1.155l-2.379-4.706a0.5,0.5,0,0,1,.215-0.668c0.182-.093.3-0.155,0.626,0.235l0.036-.018,0.09,0.178c0.357,0.476.927,1.4,1.935,3.132-1.075-2.151-1.564-3.177-1.779-3.688l-0.1-.159,0.026-.017a0.534,0.534,0,0,1-.075-0.393,0.5,0.5,0,0,1,.412-0.341,0.469,0.469,0,0,1,.206.035l-0.347-.349Z" transform="translate(-109.5 -275.531)"/>
</svg>
