<svg xmlns="http://www.w3.org/2000/svg" width="27.031" height="40" viewBox="0 0 27.031 40">
  <defs>
    <style>
      .cls-1 {
        fill: #b5e9ff;
        fill-rule: evenodd;
      }
    </style>
  </defs>
  <path id="next.svg" class="cls-1" d="M155.779,355.305l-19.031-19.178a0.831,0.831,0,0,1,0-1.17l19.031-19.18a0.815,0.815,0,0,1,1.16,0l6.345,6.392a0.858,0.858,0,0,1,0,1.17l-12.107,12.2,12.107,12.2a0.833,0.833,0,0,1,0,1.17l-6.345,6.393A0.815,0.815,0,0,1,155.779,355.305Zm-0.157-2.5-5.62-9.3c2.71,5.278,2.7,5.333,2.617,5.58a0.5,0.5,0,0,1-.248.293,0.449,0.449,0,0,1-.112.033ZM147.951,343c0.519,1.046.779,1.607,0.905,1.924l0.029,0.042-0.01.006a0.543,0.543,0,0,1,.071.423,0.489,0.489,0,0,1-.36.323l0.193,0.195,2.45,2.468C150.205,346.693,149.073,344.834,147.951,343Zm-8.239-6.225,0.658,0.663,0.142,0.143-0.747-.823Zm5.2,4.552a0.492,0.492,0,0,1-.354.329l0.993,1,1.84,1.855c-0.865-1.286-1.817-2.694-2.731-4.044A1.131,1.131,0,0,1,144.909,341.326Zm-6.421-5.785,0.734,0.739c-0.062-.117-0.125-0.236-0.186-0.349l-0.007-.013a0.5,0.5,0,0,1,.153-0.629,0.489,0.489,0,0,1,.649.069l2.59,2.855c-0.641-1.256-1.364-2.663-1.93-3.761l0,0a0.508,0.508,0,0,1-.03-0.377,0.5,0.5,0,0,1,.246-0.291c0.163-.083.272-0.139,0.621,0.234l0.038-.021,0.079,0.152c0.49,0.568,1.384,1.839,3.212,4.539-0.965-1.888-1.988-3.881-2.851-5.555a0.531,0.531,0,0,1-.032-0.382,0.5,0.5,0,0,1,.245-0.29c0.159-.081.271-0.139,0.605,0.243l0.055-.029c0.046,0.087.09,0.174,0.135,0.26,0.506,0.655,1.407,2.059,3.181,4.947-2.035-3.956-2.738-5.337-2.958-5.89l-0.02-.032,0.007,0a0.494,0.494,0,1,1,.843-0.514l6.366,10.514c-1.932-3.8-4.169-7.969-5.81-11.425v0a0.659,0.659,0,0,1,.184-0.661,0.468,0.468,0,0,1,.644.19c1.182,2.092,2.522,4.457,3.872,6.833l-3.729-7.381a0.5,0.5,0,0,1,.215-0.668c0.17-.087.285-0.146,0.6,0.247l0.058-.029,0.171,0.337c0.279,0.4.673,1.046,1.263,2.058-1.487-2.993-1.452-3.1-1.4-3.277a0.5,0.5,0,0,1,.247-0.292,0.486,0.486,0,0,1,.569.088l1.97,1.96c-1.48-2.927-1.474-2.969-1.42-3.139a0.5,0.5,0,0,1,.246-0.289c0.337-.173.337-0.173,2.185,1.827l0.024,0.025-1.216-2.406a0.5,0.5,0,0,1,.215-0.667c0.294-.151.356-0.183,2.489,2-0.467-.913-0.972-1.89-1.375-2.667l0,0a0.5,0.5,0,0,1,.137-0.619,0.489,0.489,0,0,1,.632.026l2.4,2.2c-0.531-1.038-1.154-2.235-1.632-3.148a0.512,0.512,0,0,1-.035-0.381,0.5,0.5,0,0,1,.246-0.293c0.332-.169.336-0.172,2.728,2.142-0.063-.122-0.124-0.244-0.185-0.362-1.4-2.749-1.4-2.751-1.334-2.959a0.5,0.5,0,0,1,.362-0.332,0.488,0.488,0,0,1,.466.146l1.517,1.634c-1.231-2.392-1.215-2.444-1.147-2.656a0.5,0.5,0,0,1,.374-0.338,0.491,0.491,0,0,1,.472.167c0.335,0.4.725,0.867,1.123,1.342l-0.922-1.824a0.5,0.5,0,0,1,.157-0.632,0.489,0.489,0,0,1,.642.069l1.54,1.668c-1.252-2.443-1.245-2.472-1.178-2.684v0l-0.239-.241Zm22.853-12.991a0.487,0.487,0,0,1-.835.155l-1.192-1.411c1.071,2.079,1.068,2.076,1,2.287a0.5,0.5,0,0,1-.246.29c-0.148.076-.231,0.118-0.653-0.267l-0.026.011c0-.013-0.015-0.032-0.029-0.062-0.3-.275-0.745-0.742-1.463-1.51l1.195,2.365a0.5,0.5,0,0,1-.215.667c-0.169.087-.266,0.136-0.645-0.225l-0.017.008-0.024-.048c-0.226-.221-0.546-0.577-1.023-1.133l0.614,1.188c0.392,0.747.388,0.748,0.325,0.946a0.491,0.491,0,0,1-.829.188l-1.593-1.718c1.288,2.536,1.285,2.546,1.222,2.744a0.5,0.5,0,0,1-.245.289c-0.331.17-.331,0.17-2.533-1.962l-0.114-.11c1.531,2.955,1.5,3.041,1.441,3.247a0.5,0.5,0,0,1-.248.294,0.491,0.491,0,0,1-.555-0.075l-2.257-2.072c1.616,3.125,1.6,3.182,1.529,3.4a0.5,0.5,0,0,1-.356.333,0.489,0.489,0,0,1-.466-0.135c-0.56-.579-1.262-1.3-1.922-1.977L152.569,331a0.5,0.5,0,0,1-.215.667c-0.177.091-.263,0.135-0.654-0.22l-0.017-.016c-0.294-.269-0.752-0.753-1.532-1.6,0.412,0.813.843,1.664,1.209,2.388v0a0.5,0.5,0,0,1-.148.629,0.485,0.485,0,0,1-.636-0.035l-2.182-2.149c0.488,0.979,1.1,2.2,1.779,3.538l11.369-11.459Zm0.2,25.777-0.2-.2a0.481,0.481,0,0,1-.843.114l-0.888-1.193c0.894,1.745.88,1.785,0.815,1.992a0.5,0.5,0,0,1-.247.294,0.491,0.491,0,0,1-.633-0.167l-1.928-2.92,1.748,3.46a0.5,0.5,0,0,1-.215.668,0.491,0.491,0,0,1-.662-0.217l-5.05-9.994-0.5-.506c1.163,2.279,2.307,4.513,3.217,6.282,1.484,2.888,2.085,4.142,2.313,4.658,0,0,0,.176,0,0.176h0c0.152,0,.136.18,0.109,0.266-0.04.126-.128,0.015-0.246,0.075-0.237.123-.354,0.486-0.675-0.341h0s0,0.083,0,.079a33.325,33.325,0,0,1-1.774-2.91c-0.205-.362-0.424-0.749-0.655-1.155l2.379,4.707a0.5,0.5,0,0,1-.215.667c-0.182.093-.3,0.155-0.626-0.235l-0.036.019-0.09-.178c-0.357-.477-0.927-1.4-1.934-3.132,1.074,2.151,1.563,3.176,1.778,3.688l0.1,0.159-0.026.016a0.536,0.536,0,0,1,.075.394,0.5,0.5,0,0,1-.412.341,0.5,0.5,0,0,1-.206-0.035l0.347,0.349Z" transform="translate(-136.5 -315.562)"/>
</svg>
