<svg xmlns="http://www.w3.org/2000/svg" width="239.219" height="77.001" viewBox="0 0 239.219 77.001">
  <defs>
    <style>
      .cls-1 {
        fill: #2b546a;
        fill-rule: evenodd;
      }
    </style>
  </defs>
  <path id="_19_title.svg" data-name="19_title.svg" class="cls-1" d="M477.2,27.172a0.736,0.736,0,0,0-.243-0.567l-2.676-2.216a0.746,0.746,0,0,0-1.243.54,0.758,0.758,0,0,0,.271.568l2.675,2.243a0.692,0.692,0,0,0,.486.189A0.733,0.733,0,0,0,477.2,27.172Zm-3.513,1.189a0.81,0.81,0,0,0-.162-0.486L471.146,25.2a0.779,0.779,0,0,0-.568-0.243,0.731,0.731,0,0,0-.756.73,0.713,0.713,0,0,0,.189.513l2.378,2.675a0.763,0.763,0,0,0,.54.243A0.737,0.737,0,0,0,473.686,28.361Zm2.027,10.161a0.8,0.8,0,0,0-.784-0.784c-0.946,0-3.837-1.784-7.242-3.837l-2.513-1.513V27.172a0.8,0.8,0,0,0-.784-0.784,0.785,0.785,0,0,0-.784.784v16.7a0.785,0.785,0,0,0,.784.784,0.8,0.8,0,0,0,.784-0.784v-9.62l1.675,1c4.459,2.648,6.729,4.053,8.08,4.053A0.785,0.785,0,0,0,475.713,38.522Zm23.518-10.647a0.8,0.8,0,0,0-.783-0.784H487.476a0.822,0.822,0,0,0-.784.784,0.8,0.8,0,0,0,.784.784h10.972A0.784,0.784,0,0,0,499.231,27.875Zm0.865,5.972V32.361a0.784,0.784,0,0,0-.784-0.784H485.774a0.784,0.784,0,1,0,0,1.567h12.755v0.7c0,1.486-3.351,7.431-12.755,9.161a0.759,0.759,0,0,0-.622.757,0.8,0.8,0,0,0,.784.784h0.135C496.015,42.71,500.1,36.306,500.1,33.847Zm21.816-6.161a0.8,0.8,0,0,0-.783-0.784h-9a0.8,0.8,0,0,0-.784.784,0.785,0.785,0,0,0,.784.784h9A0.784,0.784,0,0,0,521.912,27.686Zm5.324,15.457a0.768,0.768,0,0,0-.784-0.784h-3.486c-1.621,0-2.945-.189-3.486-0.7a1.5,1.5,0,0,1-.324-1.189c0-2.108-.7-3.567-2.135-3.81l4.864-4.108a0.783,0.783,0,0,0,.27-0.622,0.816,0.816,0,0,0-.783-0.784H510.536a0.8,0.8,0,0,0-.784.784,0.784,0.784,0,0,0,.784.784h8.674l-11.08,9.4a0.745,0.745,0,0,0-.3.568,0.79,0.79,0,0,0,.811.784,0.808,0.808,0,0,0,.486-0.162l5.729-4.837a5.092,5.092,0,0,1,1.676-.3c0.513,0,1.054.081,1.054,2.3,0,2.729,1.756,3.459,5.377,3.459h3.486A0.768,0.768,0,0,0,527.236,43.143Zm23.127-11.728a0.784,0.784,0,0,0-.784-0.784h-9.133v-3.54a0.785,0.785,0,0,0-.784-0.784,0.8,0.8,0,0,0-.784.784v3.54h-5.837a0.784,0.784,0,0,0-.783.784,0.8,0.8,0,0,0,.783.784h5.837l-0.054,3.3h-4.7a0.77,0.77,0,1,0,0,1.54H538.8v1.973c0,4.216.946,5.648,3.919,5.648a9.877,9.877,0,0,0,7.134-3.4,0.694,0.694,0,0,0,.189-0.486,0.808,0.808,0,0,0-.784-0.811,0.765,0.765,0,0,0-.594.27,8.513,8.513,0,0,1-5.945,2.864c-1.7,0-2.352-.73-2.352-3.945,0-.486,0-1.243.028-2.108h5.864a0.77,0.77,0,1,0,0-1.54h-5.864l0.054-3.3h9.133A0.8,0.8,0,0,0,550.363,31.415Zm28.066,8.3a0.808,0.808,0,0,0-.811-0.784,0.731,0.731,0,0,0-.54.216,9.848,9.848,0,0,1-6.567,3.081c-2.594,0-.162-7.81-4.648-7.81a6.961,6.961,0,0,0-2.405.459l3.81-7.215a0.833,0.833,0,0,0,.081-0.351,0.777,0.777,0,0,0-1.459-.405l-8.323,15.728a0.863,0.863,0,0,0-.081.378,0.778,0.778,0,0,0,.756.784,0.806,0.806,0,0,0,.7-0.405L562,37.63a5.585,5.585,0,0,1,3.864-1.648c2.756,0,.189,7.81,4.648,7.81a11.527,11.527,0,0,0,7.674-3.54A0.892,0.892,0,0,0,578.429,39.711Zm25.122-3.972c0-4.459-3.351-7.377-8.567-7.377-6.107,0-9.755,4.324-9.755,8.512,0,3.729,1.784,5.026,3.351,5.026,1.189,0,2.54-1.459,3.621-3.4a23.217,23.217,0,0,0,2.54-7.215V29.928h0.406c4.242,0,6.836,2.243,6.836,5.81,0,3.081-3.918,6.188-7.809,6.188a0.784,0.784,0,1,0,0,1.567C598.984,43.494,603.551,39.738,603.551,35.738ZM593.174,31.2c-1,5.215-3.621,9.134-4.594,9.134S586.8,39.2,586.8,36.873c0-3,2.351-6.08,6.378-6.783V31.2Zm38.743-2.972a0.761,0.761,0,0,0-.27-0.567l-2.73-2.135a0.716,0.716,0,0,0-1.135.567,0.645,0.645,0,0,0,.243.54l2.73,2.135a0.733,0.733,0,0,0,.459.162A0.7,0.7,0,0,0,631.917,28.226Zm-3.243,1.135a0.652,0.652,0,0,0-.189-0.486l-2.7-2.567a0.693,0.693,0,0,0-.486-0.189,0.681,0.681,0,0,0-.7.7,0.588,0.588,0,0,0,.217.486l2.7,2.594a0.632,0.632,0,0,0,.459.189A0.7,0.7,0,0,0,628.674,29.361Zm2.162,5.891a0.761,0.761,0,0,0-.27-0.568c-0.973-.73-2.487-1.811-6.405-6.134a0.766,0.766,0,0,0-.594-0.27,0.818,0.818,0,0,0-.784.784v0.054c0,1.189.135,2.324,0.135,3.351,0,3.756-.432,10.431-5.54,10.431-2.81,0-3.81-2.027-3.81-4.108,0-3.216,2.27-7.161,5.567-9.728a0.839,0.839,0,0,0,.27-0.649,0.754,0.754,0,0,0-.757-0.757h-7.863a0.77,0.77,0,1,0,0,1.54h5.81C613.811,31.982,612,35.657,612,38.792c0,3.486,2.108,5.675,5.377,5.675,6.216,0,7.08-7.269,7.08-12.025V31.036a40.416,40.416,0,0,0,4.946,4.729,1.369,1.369,0,0,0,.7.243A0.717,0.717,0,0,0,630.836,35.252Zm27.138,8.728a0.767,0.767,0,0,0-.27-0.595l-10.755-8.674V31.928h7.458a0.77,0.77,0,1,0,0-1.54h-7.458V26.929a0.784,0.784,0,0,0-1.568,0v3.459H638.49a0.77,0.77,0,1,0,0,1.54h6.891v2.756l-6.053,6.7-3.756,1.27a0.78,0.78,0,0,0-.541.73,0.761,0.761,0,0,0,.784.757,0.748,0.748,0,0,0,.243-0.027l3.973-1.3a0.854,0.854,0,0,0,.324-0.216l5.864-6.513L656.731,44.6a0.753,0.753,0,0,0,.486.162,0.766,0.766,0,0,0,.6-0.27A0.89,0.89,0,0,0,657.974,43.98ZM649.3,42.954a0.8,0.8,0,0,0-.784-0.784H644.49a0.784,0.784,0,1,0,0,1.567h4.026A0.8,0.8,0,0,0,649.3,42.954ZM679.293,36.8c0-3.963-2.979-6.558-7.615-6.558-5.428,0-8.671,3.843-8.671,7.566,0,3.315,1.585,4.468,2.979,4.468,1.056,0,2.257-1.3,3.218-3.027a20.61,20.61,0,0,0,2.258-6.413v-1.2h0.361c3.771,0,6.077,1.994,6.077,5.164,0,2.738-3.483,5.5-6.942,5.5a0.7,0.7,0,1,0,0,1.393C675.233,43.7,679.293,40.359,679.293,36.8Zm-9.224-4.035c-0.889,4.636-3.219,8.119-4.083,8.119s-1.586-1.009-1.586-3.075c0-2.666,2.09-5.4,5.669-6.029v0.985ZM449.458,59.5l0.594,0.3,0.544,1.386-0.841.4L450,62.268l1.04,0.2,0.1,0.5,0.594,0.05-1.881.545,0.148,0.4,1.04,0.149-0.594.248,0.247,0.545-1.039.644v0.248l0.594,0.545h1.683l5.3-.2c1.237,0,3.317.049,6.139,0.2,0.248,0,1.139.049,2.079,0.1l-0.3,2.079-10.4.1-0.2-1.386h-0.5l-0.1,1.287-0.149.1-0.3.743-0.049-1.634-0.248-.248-0.5.446-0.1,8.961-0.445,23.418,0.643,0.347,0.5-1.139,0.3,0.5h0.5l0.148-.644,0.693,1.237,0.594-.148,0.149-2.079,0.3,0.693,0.347-.2,0.891,1.98,0.445-2.921a2.9,2.9,0,0,0,.792,2.277h0.446l0.248-1.188,0.5,0.148,1.039,1.435,0.248-.1,0.049-.792-0.148-23.765h3.367l0.742,2.228-2.97.3V78.8l0.148,0.148h0.5l-0.544.4,0.742,0.446-0.841.3v0.346l1.435,0.347-1.237.594v0.347l0.346,0.1,0.05,0.2h0.594l-0.792.446,0.1,0.248h0.5l-0.99.5-0.05.792,6.536,0.049,0.1,1.386c-0.743.049-1.486,0.1-1.585,0.1h-2.871a12.671,12.671,0,0,0-1.931.4l0.148,0.347h0.149l-0.149.693,1.783,0.2v0.3l-1.684.5-0.049.5L463.667,89l-1.04.347-0.1.545,1.09,0.148-1.238.4-0.2.842h6.139l0.05,7.674,0.4-.1,0.594,0.842,0.594-1.733,0.445,1.188,0.347-.049,0.05-.148,0.148-.1,0.149-1.535,0.445,2.079h0.4l0.347-2.178,0.445,1.386,0.4-.1,0.247-1.287,0.644,1.931h0.346l0.4-1.584,0.446,1.188,0.545-.248L475.7,91.48c0.644-.049.99-0.049,1.238-0.049L480.1,91.48a4.643,4.643,0,0,0,2.179-.445l-0.2-.4-0.842-.1,0.545-.247V89.945l-0.842-.3,1.485-.594V88.806l-0.247-.248h-0.891l1.535-.4-0.694-.594-1.782-.248,1.832-.446V86.43l-1.04-.148,0.891-.446a9.53,9.53,0,0,0-1.584-.4l-3.466.148c-0.4,0-.594,0-1.237-0.049V84.1a7.409,7.409,0,0,1,.891-0.149L480.2,84.1h0.05l1.931-.594-0.248-.594-0.643-.1,0.742-.3-0.4-.594-1.039-.2,1.93-.644,0.347-.446-1.287-.446,0.3-.4V79.6l-0.446.05-0.1-.743,1.238-.5-0.248-.5-2.871.2,0.445-1.832,3.466-.049V92.074a16.974,16.974,0,0,0-5.149.693l-0.3.5,1.436,0.148,0.1,0.2-1.386.941,0.247,0.4,0.644,0.1h0.3l-0.248.247,0.05,0.5h1.386l-1.634.545,0.149,0.545,1.287,0.1-1.782.4-0.05.247,0.693,0.2-1.237.446,0.445,0.594a63.439,63.439,0,0,0,9.06.446,5.982,5.982,0,0,0,3.714-.941c0.643-.545.792-1.386,0.792-5.149V90.984L491.541,69.5l-0.247-1.584-0.347.05-0.3.5-0.643-.049-0.3-.743-0.346.05-0.248.792H473.569l0.594-2.228c6.387,0.1,11.041.148,15.051,0.148a26.3,26.3,0,0,0,6.14-.4l-0.644-.594,0.347-.2,0.3-.1-0.644-.693-1.188-.2,1.436-.4-0.1-.4-1.387-.2,1.238-.644,0.941-.148V62.12l-1.139-.248,0.842-.347-0.5-.5-1.486-.2,1.387-.5,0.148-.4-1.386-.2,1.089-.446,0.545-.693-0.149-.149-19.259.149,0.049-3.169-0.743.149-0.544,1.089-0.3-.842-0.347.1-0.3.644-0.3-1.287-1.04.3-0.4.743-0.2-.5-0.346-.1-0.3.545-0.4-1.139-0.742.2-0.248.743-0.4-.1-0.148-.545h-0.347l-0.2.5-0.2-.594-1.188.2-0.446,2.921c-2.327.1-3.466,0.149-5.347,0.149-1.04,0-2.129,0-3.218-.05-2.129-.05-3.515-0.1-4.01-0.1-3.12,0-3.813.1-4.654,0.743v0.3Zm21.636,18.665-0.5-2.228h3.12l-0.545,2.228h-2.079Zm27.468-4.753,0.594,0.545c0.643,0.347,1.881,1.089,3.713,2.079,0.99,0.693,1.98,1.337,2.971,1.98a11.259,11.259,0,0,0,2.376.545l0.2-1.337h0.4l0.1-.594,0.941,0.149-0.049-.644-0.694-.99,1.585,0.248V75.042L509.5,73.755l0.991,0.4,0.3-.247-0.644-1.089,1.238,0.347,0.148-.5,1.684-.594-0.99,1.98L512.87,74l0.594-.545h0.2l-0.594,1.832,0.891,0.5,1.04-.941-0.1,3.763-3.812.248,0.148,0.5,1.189,0.248-0.4.148v0.248l-0.2.2-0.3-.4-0.5.446-0.247-.5-0.347.1L510,80.686l-0.3-1.139-0.5.248-0.544.842-0.347-1.683-0.445.3-0.446.941-0.149-.4-0.4.148-0.148-.743-0.446.149-0.594,1.089-0.3-1.535-0.644-.545-0.3-.05a9.222,9.222,0,0,0-.346,1.139c-0.248,1.287-.545,2.624-0.792,3.961-0.347,1.287-2.08,6.684-2.476,7.476l-0.792,2.079c-0.149.3-.4,0.99-0.743,1.931l0.347,1.04,1.139-.743h0.4l0.247-.248-0.1,1.485h0.4l0.545-.594,0.2,1.881,0.693-.545v1.089l0.5,0.148,1.287-1.535-0.4,1.733,0.248,0.2a3.623,3.623,0,0,0,1.733-1.733l-0.248,1.782h0.347l0.2,0.792,0.544-.347c0.991-1.337,2.377-6.04,3.516-11.882l3.069,0.049L512.623,99.55l0.544,0.3h0.693l0.743-2.178,0.5,2.278,0.545-.446,0.1-.99,0.346,0.1,20.547-.2,0.1,1.139,0.4,0.693,0.594-.594,0.347-2.723,0.644,3.119,0.693-.545,0.4-12.328,3.961-.049,0.1-.3-0.743-.5-0.842-.594,1.436-.4,0.2-.5-1.089-.644,0.891-.4V83.459l-1.337-.4-0.346-.594,1.485-.792-1.089-.5,1.188-.5,0.1-.5-0.941-.3,1.09-.5V78.8l-3.615.2c0.05-.842.1-1.386,0.1-1.584V73.458l0.1-3.119A14.24,14.24,0,0,0,540.2,68.8l-0.545-.446-0.148,1.535-0.693-1.683-0.694.5,0.05,0.3-18.319-.3,1.188-2.178,21.636,0.248-0.1-.545,0.991-.149-0.6-.99-0.99-.149,1.436-.545-0.3-.842-1.04-.248,1.089-.4v-0.2l-1.039-1.089,1.039-.4-0.94-.792,0.544-.2-0.4-.4,0.05-.148,1.04-.347-0.5-.545H524.159L524.7,56.08h-0.4l-0.347.891-0.2-.891-0.445.2-0.743,1.337,0.2-1.782-0.5.1-0.594.743V55.535h-0.545l-0.841.842-0.248-1.188-0.544.1-0.248.4-0.5.5-0.4-1.733-0.446.2-0.544,1.485-0.1-.99-0.248-.248a9.1,9.1,0,0,0-.842,1.386c-0.1.247-.5,1.436-1.089,3.218-0.644,2.03-2.327,5.05-5.644,9.9l0.1,0.347,0.743-.2v0.941l0.643-.049-0.247.644-9.358-4.06,0.05,0.5,0.346,0.891-0.445-.1-0.149.2h-0.544L501.78,69.6,500.1,69.15v0.5l1.238,1.139-1.485-.2-0.248.247,0.892,0.99-1.387-.3-0.445.347,0.841,0.743-0.2.5-0.594-.148ZM521.435,90.44l0.3-3.07h2.08l-0.3,3.218Zm0.694-10.694,0.148-2.921,2.476-.049L524.6,79.746h-2.475Zm7.228,10.694,0.149-2.971,2.426-.148-0.2,3.07Zm0.594-10.546,0.2-2.822,2.575-.148-0.1,2.822ZM500,62.12l-0.049.5-0.05.148,0.05,0.05a0.384,0.384,0,0,0,.148.2,2.184,2.184,0,0,0,1.09.743,14.009,14.009,0,0,1,2.871,1.782c3.07,2.376,3.367,2.575,4.852,2.624l0.1-.347-0.841-1.337,1.237,0.5,0.545-.2-0.446-.891-0.643-.4-0.1-.545,2.129,0.743,0.049-.446-0.99-1.089,0.545-.4,0.99,0.445,0.5-.3-0.693-1.337,1.287,0.2,0.347-.346-0.545-.693-0.049-.545c-2.03-1.337-3.516-2.327-4.555-2.872l-2.278-1.337c-0.346-.2-1.188-0.545-2.426-1.04l-0.049.545,0.94,0.743-1.436-.347-0.3.4,1.535,1.485-1.733-.4-0.049.5,0.941,1.188-1.634-.446-0.248.4,1.337,1.535-1.98-.5-0.05.644,0.792,0.792Zm47.074,3.812,0.793,0.347v0.347l-0.4.3v0.842l1.534,0.3-1.237.545,0.049,0.594,1.634,0.446-2.129.792-0.149.5,0.991,0.445-0.347.149-0.1.891,1.584,0.05-1.782.693,0.1,0.347,0.5,0.2,16.735-.247c-0.248,2.129-2.575,6.09-5.5,9.357-2.872,3.119-6.09,5.2-11.239,7.278l-0.792.743-0.1.594,0.2,0.347,1.436-.3-1.684,1.683,0.3,0.3,3.317-1.188c-1.585,1.089-1.931,1.436-2.426,2.575l0.346,0.248,1.436-.5-0.891,1.287,0.148,0.148,1.981-.446-1.584,1.832,0.5,0.3,1.534-.545-0.5,1.683,0.941-.5L551.329,99.7l0.4,0.2,0.644-.4c0.941-.1,1.238-0.248,3.911-2.079l5.5-3.763a54.524,54.524,0,0,0,4.7-4.6,18.807,18.807,0,0,0,4.307-6.288c2.03,3.317,4.406,5.991,9.258,10.4A30.3,30.3,0,0,0,589.6,98.51l0.594-.4,0.693-.049V97.619l-1.98-1.139,1.287,0.149,0.3-.4-0.149-.4,1.535-.2V95.292l-0.841-.743,1.188-.1-0.891-.99,1.782-.2v-0.4l-1.683-1.04,0.742-.049v-0.4l-1.188-.545V90.786a5.233,5.233,0,0,0,1.436.3,4.057,4.057,0,0,0,.891-0.149l0.05-.941-1.04-.792,1.436,0.049-0.1-.644a13.435,13.435,0,0,0-1.288-.693l-3.762-1.485a23.332,23.332,0,0,1-3.813-2.377c-4.753-3.466-7.179-6.288-8.813-10.348,1.387-.049,2.526-0.1,3.169-0.1,0.4,0,1.882.049,4.159,0.148,1.238,0.05,2.575.05,3.911,0.05a27.608,27.608,0,0,0,5.793-.347v-0.4l-0.644-.1,0.248-.693-0.594-.446,1.436-.545-0.149-.5-1.238-.3,0.892-.644-0.149-.5-1.436-.148,1.733-.743-0.1-.347-1.436-.2,0.842-.594-0.347-.743-1.237-.148,1.732-.3,0.4-.545c-0.595-.2-0.991-0.3-1.189-0.347h-1.733l-2.624.05-10.941-.149c-0.1,0-.545.05-1.288,0.1,0-1.337,0-1.337.1-2.921a34.07,34.07,0,0,0,.248-3.812,26.7,26.7,0,0,0-.248-3.515l-0.3.149-0.3-.644-0.5.149-0.4,1.881-0.3.149-0.05.644-0.693-2.426-0.346.149-0.4,1.089-0.3-.941-0.644.248-0.446,1.485-0.346-1.634H569.5l-0.149.891-0.5-.644h-0.248l-0.4,1.634L567.47,55.04l-0.347.049,0.1,0.891-0.4-.792-0.941.3-0.2,9.654-1.733.05-6.238.1a25.955,25.955,0,0,1-2.822-.1c-2.525-.149-4.357-0.248-5.05-0.248a6.268,6.268,0,0,0-2.773.693v0.3Zm52.422-9.407v0.842a3.312,3.312,0,0,0,.049.743c0.248,2.971.248,2.971,0.248,3.664,0,1.337-.1,3.268-0.248,5.2-0.1,1.98-.2,3.713-0.2,5.2a12.266,12.266,0,0,0,.1,1.337l0.149,1.04a2.565,2.565,0,0,0,.049.5l0.5-.3L600.384,74l0.891,0.05,0.248,1.535,0.3-.842,33.914,0.2,0.1,0.743h0.545l0.2-1.485,0.5-.05,0.05,1.04h0.594a14.4,14.4,0,0,0,.247-1.584l-0.3-4.406,0.2-10.546v-0.2a18.406,18.406,0,0,0-.3-2.871l-0.693.644,0.05,2.178-0.2-.446h-0.248l-0.445-1.931-0.545.545v0.842l-9.853.149-21.933-.4-0.5.05-0.1-1.436-0.5.446-0.1,1.04-0.594-.3-0.1-1.386-0.644.644v1.386l-0.693.644-0.2-2.178-0.247-.2Zm8.417,8.021V62.813c0.742,0.05,1.584.05,1.683,0.05h1.238c14.853,0.1,15.744.148,18.467,0.346l-0.1,1.881Zm0.049,4.01L629.348,68.7l0.1,1.931-20.795-.1-0.742.05Zm-6.189,31.39,0.446,0.941,0.347-.4,0.1-1.831,0.445,0.248,0.248,1.881,0.445-.3,0.347-1.485v1.634l0.594-.1,0.248-1.584,27.923,0.049,0.248,0.148,0.049,1.931,0.446-.1,0.3-1.486,0.545-.149,0.544,1.832a4.391,4.391,0,0,0,.446-0.941l-0.1-3.466,0.1-20.25-0.545-1.238-0.4.792v1.04l-0.247.149-0.545-1.881-0.347.347-0.148.891-28.716-.05L604.2,74.993l-0.445.347L603.6,76.775l-0.4.049-0.2.3-0.4-1.782a1.754,1.754,0,0,0-.644.743l0.248,2.971Zm8.566-11.932V86.281c1.534-.05,2.574-0.1,3.218-0.1l3.168,0.05h6.585c1.238,0.05,1.783.1,3.516,0.2v1.535Zm0.148,4.208V91.43l16.289,0.347,0.1,1.436-16.388-.248V92.222Zm0.149-9.754V81.132c0.99-.049,1.782-0.049,2.277-0.049,3.02-.1,4.852-0.149,5.1-0.149l3.614,0.149,3.466,0.1a16.619,16.619,0,0,1,1.782.1v1.386l-15.843-.1Zm34.1-26.092-0.149,31.687,0.149,4.8-0.1,6.535a13.4,13.4,0,0,0,.4,1.535l0.5-.347,0.1-.693,1.188,0.941,0.248-.693,0.346,0.792,0.5-.1,0.5-1.733,0.644,1.485h0.446l0.5-1.831,0.693,1.831h0.5l0.247-1.732,0.5,1.732,0.2,0.2,0.643-.5L653,91.133c0.742-.049,1.138-0.049,1.683-0.049a9.18,9.18,0,0,1,1.089.049h0.594c2.575,0,3.565-1.535,3.565-5.595,0-4.159-.4-7.427-1.04-8.961a21.164,21.164,0,0,1-1.485-4.258,5.122,5.122,0,0,1,.545-1.535,16.035,16.035,0,0,1,.643-1.535l0.248,0.4,0.99-.347-0.742,1.535,0.643,0.149,1.139-.743-1.485,1.98,0.594,0.149,1.386-.545L660.084,74l0.247,0.2,0.4-.148-0.2,14.011,0.446,0.644,0.2-.2,0.693-.148,0.3,0.248,0.545-1.287,5.149-.149c-2.08,1.881-3.416,2.476-10,4.654l-0.743.644,0.248,0.594,0.792,0.1,0.346,0.5-0.049.248,0.3,0.445,1.485-.1-1.089.842,0.3,0.5,1.733-.347-1.337,1.386,0.3,0.4h0.05l-0.446,1.287,1.139-.248-0.693.792-0.05.545,1.486-.5-0.347,1.139c2.228-.4,7.971-4.011,11.09-7.08,3.862,3.664,8.764,6.238,13.022,6.882v-0.99l-0.892-.842,0.991-.792-0.149-.2,0.149-.4-0.3-.149,0.5-.3V95.837l-0.793-.5,0.1-.347,1.337,0.2V94.2l-1.485-.891a4.751,4.751,0,0,0,1.139.248,4.231,4.231,0,0,0,1.237-.3V92.668l-0.544-.347,0.94-.4,0.4-.743-0.347-.347c-0.4-.049-0.792-0.1-4.109-0.594a24.318,24.318,0,0,1-6.437-2.921l7.13-.1,0.049,1.238,0.594-.05,0.1,0.149,0.4-.3-0.05-14.8,1.683,0.446,0.149-.594-0.792-.446,0.643-.05,0.1-.445-0.643-.842,0.643-.1V70.834l-1.138-.693,1.386,0.2,0.148-.148V69.844l-1.287-1.287,1.485,0.2,0.149-.148V68.16l-1.535-1.089,1.882,0.149,0.1-.545-1.09-.693,1.04-.1,0.446-.446-0.149-.594c-0.594-.248-1.04-0.4-1.188-0.5-0.594-.2-1.188-0.446-1.832-0.644-0.99-.4-1.683-0.644-2.079-0.842A32.386,32.386,0,0,1,676.62,58.9l0.594-1.733-0.594.05-0.643-.4-0.793.644,0.05-.792-0.644.1-0.99,1.04,0.5-1.386-0.643-.148-0.644.644,0.148-1.139h-0.5l-1.188,1.188,0.4-1.733-0.4-.1-1.089,1.139,0.346-1.683-0.792.347c-1.782,3.614-6.09,7.823-10.3,10a27.341,27.341,0,0,1,.545-3.565,10.848,10.848,0,0,0,.4-2.921,22.7,22.7,0,0,0-.2-2.871l-0.446.445-0.1,1.386-0.2-.446h-0.1l-0.693-1.485-0.4.446L658,57.416H646.963l-0.346-1.535h-0.4l-0.4,1.436-0.4.05-0.1-1.287Zm6.584,23.616V72.864c1.832,3.416,2.426,5.446,2.426,8.12a27.728,27.728,0,0,1-.247,2.772h-1.337l-0.148-.049h-0.5Zm2.129-15.249c-0.3,1.337-.4,1.832-0.5,2.129a10.7,10.7,0,0,1-1.683,3.515c0.049-1.436.049-2.525,0.049-3.268,0-.792,0-1.337-0.049-2.377h2.178Zm8.566,8.862,3.812-2.971-0.05.941-0.891.347,0.149,0.4,4.357,0.248v1.287l-5.991-.1-0.248-.594-1.039.743Zm5.891,7.971L667.857,79.2l2.277-.1-0.247,2.475h-1.981Zm2.08-14.407,2.574-2.525,2.525,2.376Zm5.892,14.457,0.1-2.376,1.782-.1,0.1,2.475h-1.98Zm0.792-7.773-0.149-1.386,3.367,0.049,0.693-.5-0.446-.446,0.5-.2v-0.2l3.812,1.832L684.2,74.3h-0.3l-0.4-1.188-0.3.792Z" transform="translate(-449.469 -24.188)"/>
</svg>
