<svg xmlns="http://www.w3.org/2000/svg" width="215.687" height="84.406" viewBox="0 0 215.687 84.406">
  <defs>
    <style>
      .cls-1 {
        fill: #2b546a;
        fill-rule: evenodd;
      }
    </style>
  </defs>
  <path id="_01_title.svg" data-name="01_title.svg" class="cls-1" d="M502.2,21.172a0.736,0.736,0,0,0-.243-0.567l-2.676-2.216a0.746,0.746,0,0,0-1.243.54,0.758,0.758,0,0,0,.271.568l2.675,2.243a0.692,0.692,0,0,0,.486.189A0.733,0.733,0,0,0,502.2,21.172Zm-3.513,1.189a0.81,0.81,0,0,0-.162-0.486L496.146,19.2a0.779,0.779,0,0,0-.568-0.243,0.731,0.731,0,0,0-.756.73,0.713,0.713,0,0,0,.189.513l2.378,2.675a0.763,0.763,0,0,0,.54.243A0.737,0.737,0,0,0,498.686,22.361Zm2.027,10.161a0.8,0.8,0,0,0-.784-0.784c-0.946,0-3.837-1.783-7.242-3.837l-2.513-1.513V21.172a0.8,0.8,0,0,0-.784-0.784,0.785,0.785,0,0,0-.784.784v16.7a0.785,0.785,0,0,0,.784.784,0.8,0.8,0,0,0,.784-0.784v-9.62l1.675,1c4.459,2.648,6.729,4.053,8.08,4.053A0.785,0.785,0,0,0,500.713,32.522Zm23.518-10.647a0.8,0.8,0,0,0-.783-0.784H512.476a0.822,0.822,0,0,0-.784.784,0.8,0.8,0,0,0,.784.784h10.972A0.784,0.784,0,0,0,524.231,21.875Zm0.865,5.972V26.361a0.784,0.784,0,0,0-.784-0.784H510.774a0.784,0.784,0,1,0,0,1.567h12.755v0.7c0,1.486-3.351,7.431-12.755,9.161a0.759,0.759,0,0,0-.622.757,0.8,0.8,0,0,0,.784.784h0.135C521.015,36.71,525.1,30.306,525.1,27.847Zm21.816-6.161a0.8,0.8,0,0,0-.783-0.784h-9a0.8,0.8,0,0,0-.784.784,0.785,0.785,0,0,0,.784.784h9A0.784,0.784,0,0,0,546.912,21.686Zm5.324,15.457a0.768,0.768,0,0,0-.784-0.784h-3.486c-1.621,0-2.945-.189-3.486-0.7a1.5,1.5,0,0,1-.324-1.189c0-2.108-.7-3.567-2.135-3.81l4.864-4.107a0.783,0.783,0,0,0,.27-0.622,0.816,0.816,0,0,0-.783-0.784H535.536a0.8,0.8,0,0,0-.784.784,0.784,0.784,0,0,0,.784.784h8.674l-11.08,9.4a0.745,0.745,0,0,0-.3.568,0.79,0.79,0,0,0,.811.784,0.808,0.808,0,0,0,.486-0.162l5.729-4.837a5.092,5.092,0,0,1,1.676-.3c0.513,0,1.054.081,1.054,2.3,0,2.729,1.756,3.459,5.377,3.459h3.486A0.768,0.768,0,0,0,552.236,37.143Zm23.127-11.728a0.784,0.784,0,0,0-.784-0.784h-9.133v-3.54a0.785,0.785,0,0,0-.784-0.784,0.8,0.8,0,0,0-.784.784v3.54h-5.837a0.784,0.784,0,0,0-.783.784,0.8,0.8,0,0,0,.783.784h5.837l-0.054,3.3h-4.7a0.77,0.77,0,1,0,0,1.54H563.8v1.973c0,4.216.946,5.648,3.919,5.648a9.877,9.877,0,0,0,7.134-3.4,0.694,0.694,0,0,0,.189-0.486,0.808,0.808,0,0,0-.784-0.811,0.765,0.765,0,0,0-.594.27,8.513,8.513,0,0,1-5.945,2.864c-1.7,0-2.352-.73-2.352-3.945,0-.486,0-1.243.028-2.108h5.864a0.77,0.77,0,1,0,0-1.54h-5.864l0.054-3.3h9.133A0.8,0.8,0,0,0,575.363,25.415Zm28.066,8.3a0.808,0.808,0,0,0-.811-0.784,0.731,0.731,0,0,0-.54.216,9.848,9.848,0,0,1-6.567,3.081c-2.594,0-.162-7.81-4.648-7.81a6.961,6.961,0,0,0-2.405.459l3.81-7.215a0.833,0.833,0,0,0,.081-0.351,0.777,0.777,0,0,0-1.459-.405l-8.323,15.728a0.863,0.863,0,0,0-.081.378,0.778,0.778,0,0,0,.756.784,0.806,0.806,0,0,0,.7-0.405L587,31.63a5.585,5.585,0,0,1,3.864-1.648c2.756,0,.189,7.81,4.648,7.81a11.527,11.527,0,0,0,7.674-3.54A0.892,0.892,0,0,0,603.429,33.711Zm25.122-3.972c0-4.459-3.351-7.377-8.567-7.377-6.107,0-9.755,4.324-9.755,8.512,0,3.729,1.784,5.026,3.351,5.026,1.189,0,2.54-1.459,3.621-3.4a23.217,23.217,0,0,0,2.54-7.215V23.928h0.406c4.242,0,6.836,2.243,6.836,5.81,0,3.081-3.918,6.188-7.809,6.188a0.784,0.784,0,1,0,0,1.567C623.984,37.494,628.551,33.738,628.551,29.738ZM618.174,25.2c-1,5.215-3.621,9.134-4.594,9.134S611.8,33.2,611.8,30.873c0-3,2.351-6.08,6.378-6.783V25.2Zm38.743-2.972a0.761,0.761,0,0,0-.27-0.567l-2.73-2.135a0.716,0.716,0,0,0-1.135.567,0.645,0.645,0,0,0,.243.54l2.73,2.135a0.733,0.733,0,0,0,.459.162A0.7,0.7,0,0,0,656.917,22.226Zm-3.243,1.135a0.652,0.652,0,0,0-.189-0.486l-2.7-2.567a0.693,0.693,0,0,0-.486-0.189,0.681,0.681,0,0,0-.7.7,0.588,0.588,0,0,0,.217.486l2.7,2.594a0.632,0.632,0,0,0,.459.189A0.7,0.7,0,0,0,653.674,23.361Zm2.162,5.891a0.761,0.761,0,0,0-.27-0.567c-0.973-.73-2.487-1.811-6.405-6.134a0.766,0.766,0,0,0-.594-0.27,0.818,0.818,0,0,0-.784.784v0.054c0,1.189.135,2.324,0.135,3.351,0,3.756-.432,10.431-5.54,10.431-2.81,0-3.81-2.027-3.81-4.108,0-3.216,2.27-7.161,5.567-9.728a0.839,0.839,0,0,0,.27-0.649,0.754,0.754,0,0,0-.757-0.757h-7.863a0.77,0.77,0,1,0,0,1.54h5.81C638.811,25.982,637,29.657,637,32.792c0,3.486,2.108,5.675,5.377,5.675,6.216,0,7.08-7.269,7.08-12.025V25.036a40.416,40.416,0,0,0,4.946,4.729,1.369,1.369,0,0,0,.7.243A0.717,0.717,0,0,0,655.836,29.252Zm27.138,8.728a0.767,0.767,0,0,0-.27-0.595l-10.755-8.674V25.928h7.458a0.77,0.77,0,1,0,0-1.54h-7.458V20.929a0.784,0.784,0,0,0-1.568,0v3.459H663.49a0.77,0.77,0,1,0,0,1.54h6.891v2.756l-6.053,6.7-3.756,1.27a0.78,0.78,0,0,0-.541.73,0.761,0.761,0,0,0,.784.757,0.748,0.748,0,0,0,.243-0.027l3.973-1.3a0.854,0.854,0,0,0,.324-0.216l5.864-6.513L681.731,38.6a0.753,0.753,0,0,0,.486.162,0.766,0.766,0,0,0,.6-0.27A0.89,0.89,0,0,0,682.974,37.98ZM674.3,36.954a0.8,0.8,0,0,0-.784-0.784H669.49a0.784,0.784,0,1,0,0,1.567h4.026A0.8,0.8,0,0,0,674.3,36.954ZM704.293,30.8c0-3.963-2.979-6.558-7.615-6.558-5.428,0-8.671,3.843-8.671,7.566,0,3.315,1.585,4.468,2.979,4.468,1.056,0,2.257-1.3,3.218-3.027a20.61,20.61,0,0,0,2.258-6.413v-1.2h0.361c3.771,0,6.077,1.994,6.077,5.164,0,2.738-3.483,5.5-6.942,5.5a0.7,0.7,0,1,0,0,1.393C700.233,37.7,704.293,34.359,704.293,30.8Zm-9.224-4.036c-0.889,4.636-3.219,8.119-4.083,8.119s-1.586-1.009-1.586-3.075c0-2.666,2.09-5.4,5.669-6.029v0.985ZM536.295,70.087v0.55l0.366,0.061,0.367,0.672,1.465,0.183-1.832.916-0.183.55,0.427,0.367,1.527,0.061-0.061.55-1.1.611,0.733,0.916,1.588,0.305-1.588.611-0.244,1.282,1.954-.061-1.954,1.221,0.549,0.489a25.1,25.1,0,0,0,3.6-.55c0.732-.183,1.465-0.367,2.2-0.489l3.665-.855,3.175-.916,3.36-.916c0.061,0,1.4-.366,2.565-0.733l-0.306.366,0.122,0.428,1.527-.794-0.061,2.2,1.527-1.466,0.183,2.5,1.588-1.344-0.183,2.076,0.733,0.427a10.058,10.058,0,0,1,1.1-1.4c0.733-.977,1.466-1.893,2.26-2.809a27.025,27.025,0,0,0,2.26-4.581l3.786,4.092h0.428l0.672-.672-0.489-.855,1.221,0.305,0.489-.305-0.916-1.4h0.427V71.248l0.672,0.183,0.55-.305-0.305-.794,0.855,0.489,0.061,3.115c0.122,1.527.122,1.527,0.855,2.2,1.038,1.038,3.053,1.466,6.718,1.466,5.313,0,6.84-.855,9.527-5.374l-0.244-.916L591.445,71l-0.917.672,0.978-1.649-0.489-.489-1.466.672,1.1-1.954-0.489-.428-1.344.672,1.4-2.382-1.466-.489,0.489-1.038-0.611-.733L585.581,67.4h-0.488c-0.122-2.076-.306-4.214-0.306-4.581,0-.794.062-3.054,0.184-6.84a17.184,17.184,0,0,0,.061-1.771,43.975,43.975,0,0,0-.367-6.107l-0.794.489-0.244,2.321-0.427.122-0.489-2.5h-0.672l-0.183,1.71-3.42-.183-14.047.183L563.9,47.856l-0.611.55-0.183.672-0.916.489-0.366-1.221-0.611.428c0.122,10.138-1.161,16.062-4.4,21.193l-0.855.122,1.1-1.16-0.122-.427-0.916-.122h-0.367l1.4-1.16-0.3-.55h-1.039l0.672-1.16-3.848.672-0.061-6.718,5.253-.061-0.245-.977-0.549-.55,0.916-.244-0.244-.977-0.794-.366,1.221-.733-0.305-.733-1.344-.428-0.183-.427,1.466-.611-0.367-.672-1.038-.305,1.1-.733-0.061-.428,0.367-.366-0.428-.672c-1.038-.061-1.71-0.122-1.893-0.122l-4.581.305c-0.855,0-2.992-.122-6.229-0.367-1.588-.122-3.3-0.183-6.535-0.183l-1.466.672h-0.122l0.977,0.733-0.916.305,0.427,0.611h0.917l-0.978,1.221,1.222,0.305-0.55.489v0.611L536.844,55l0.061,0.916,1.161,0.183-1.344.489,0.122,0.794,1.344,0.428-1.4.733,0.245,0.794,5.863-.183L542.524,68.5l-6.29,1.588h0.061Zm33.529-8.428,0.061-2.2h5.192l0.122,5.985ZM536.783,97.265v0.305l0.978-.611,0.977-2.076-0.184,3.054,0.306,0.244h0.3l0.367-.366,0.061,0.855,0.672,0.183,1.16-1.221-0.244,2.016,0.855,0.122,1.282-1.71v0.489l0.183,0.367-0.3,1.16,0.794,0.062,1.466-1.466-0.428,1.893,0.306,0.122v0.428l0.549-.183,4.4-10.688c0.122,1.4.122,1.4,0.183,3.542,0.122,4.336.122,5.191,0.3,5.558,0.489,1.588,2.016,2.259,4.581,2.137l2.321-.122c0.549,0,5.252.061,12.092,0.305h0.794a35.112,35.112,0,0,0,5.253-.488l-0.184-.428,0.855-.244-0.732-.428-2.077-.122,2.626-.916-0.672-.611-1.832-.183,3.054-.611-0.916-.855-2.016-.244,2.749-.794-0.55-.611-1.893-.366,2.5-1.222-2.321-.244,0.427-.427L576.6,92.5l-0.733-.672-14.963-.305L560.6,79.859l-0.794.244-0.549,2.015-0.367-1.283-0.916.366-0.428-.855-0.732.122-0.367.611-0.427-.916-0.489.183v0.183l-0.489.183-0.244-.733-0.611.244-0.183,1.527-0.549-1.4-0.856.489-0.488.122-0.55-1.1-0.855.489,0.183,4.886-0.488-.244-0.672.55,0.366-1.1-0.916.061-1.343,1.4-0.122-2.015h-0.733l-0.916,1.344-0.245-.305v-2.2H545.4l-1.71,2.443,0.183-2.138-0.611-.794a20.628,20.628,0,0,0-1.282,2.382l-1.527,3.542c-1.039,2.138-2.077,4.275-3.176,6.413a17.862,17.862,0,0,0-.672,2.565Zm25.957-17.1,0.61,1.222c0.856,1.038,1.466,1.771,2.688,3.237a35.508,35.508,0,0,0,5.374,5.5l0.183-.733L571.29,88.1l1.466,0.794,0.488-.244-0.427-1.527,0.3-.366-0.183-.367,1.588,0.733,0.428-.428-0.306-.794,0.55-.183V84.867l1.1,0.672,0.611-.489-0.794-1.16,0.3-.611,1.405,0.672,0.183-.672L569.824,75.1,569.4,75.4l-0.367-.244-0.671.305L569.03,76.5l-1.649.122-0.366.305,0.55,1.4-1.344-.977-0.489.305,0.855,1.527-0.122.489-1.71-1.4-0.427.489,0.427,0.794-0.672.305,0.184,0.428-1.344-.55Zm15.329,4.581-0.61.672a0.616,0.616,0,0,0-.061.183,4.348,4.348,0,0,0,.366,1.16,37.458,37.458,0,0,1,.977,5.008c0,0.183.183,1.1,0.367,2.016q0.366,1.557.549,2.565a21.422,21.422,0,0,0,1.466,5.558h0.366l0.611-.489,0.367-1.405,0.733,1.649h0.549l0.428-.977,0.061-2.626,0.733,2.5,0.916-.061,0.183-1.221,0.916,1.71,0.611,0.122,0.183-.733,0.061-2.321,0.916,1.466,0.855,0.183,0.061-1.954,1.283,1.588,0.611-.427a21.387,21.387,0,0,0-1.527-6.169l-3.054-11.6h-0.611l-0.3,1.344-0.489.244-0.061.733-0.855-.794-0.488.244-0.184,1.344-0.671-1.038-0.855.244-0.245,1.893-0.977-1.771-0.855.305v2.565L578.8,84.012l-0.855.122-0.122.122ZM597.8,61.659L598.6,61.9l0.183,0.366-0.549.428L598.294,63l0.794,0.305-1.222.55,0.794,0.733h1.405l-2.077.916,0.061,0.428,1.222,0.183-0.916.672,0.061,0.55,1.649,0.244-1.344.244-0.488.428,0.549,0.855,23.086-.244,30.476,0.061-0.183-.794-0.55-.305V67.4l0.855-.244v-0.55l-1.954-.489,1.16-.183,0.184-.611-0.917-.183,1.527-.672-0.488-.611-2.2-.305,2.321-.672V62.453l-0.916-.244,0.366-.366-0.244-.489,0.244-.55-12.031.244,0.855-2.077H643a28.9,28.9,0,0,0,5.008-.366l0.244-.367-0.855-.244-0.122-.611,0.855-.366-0.183-.367L646.6,56.1l-0.183-.489,1.283-.672-0.245-.305-1.832-.244,1.527-.427-0.061-.428,0.855-.122-0.489-.611-0.672-.061V52.376l0.794-.55-0.366-.611-16.8.061-0.245-.183c0.061-.794.122-1.527,0.122-2.077a4,4,0,0,0-.549-2.138l-0.489.855H628.77l-0.245-.305-0.549.061-0.184,1.344-1.038-2.26-0.794,1.1-1.16.061-0.977-.855-0.367,2.2-0.794-1.649-0.733.367v0.489l-0.733-1.1-0.549,1.527-0.733-1.649-0.489.611v3.6H601.286l-0.366.55,1.649,0.366-1.16.489-0.062.489,0.978,0.55-1.405.611,1.221,0.855v0.672l-1.588.977,0.794,0.122,0.245,0.305-0.122.183,0.3,0.733-0.183.672,7.939-.122,0.672,2.26a17.279,17.279,0,0,1-2.015-.061c-4.337-.183-6.779-0.305-6.9-0.305a33.025,33.025,0,0,0-3.481.367v0.672Zm21.681-2.809,10.688-.122a5.353,5.353,0,0,1-1.221,2.5l-8.673-.061ZM602.813,93.356l0.611,0.55,0.244-2.626,1.283-.183,0.366,3.054h0.855l-0.183-4.4,0.977-.183,0.061,3.237,0.306,0.305,0.488-.611,0.061-1.344,12.215-.122v4.336c-0.061,1.1-.061,2.077-0.061,2.26,0,3.6,1.344,4.947,5.13,4.947l8.49-.184c1.038,0,3.053.061,6.84,0.122,1.221,0.062,2.565.062,3.542,0.062a21.74,21.74,0,0,0,7.146-.978l-0.061-.3,0.366-.366-0.611-.55h-1.465l1.343-.672,0.122-.55-1.343-.183,1.832-.733V97.509l-2.443-.122,2.565-1.16-0.427-.489H649.84l1.527-.916-1.771-.366,1.588-.794-0.489-.427H630.3l0.062-1.954,13.13-.061,0.062,0.611,0.366,0.428,0.733-1.527,0.855-.061,0.489,1.1,0.671-.122-0.122-21.8-0.549.244-0.062.611h-0.61l-0.306-.733h-0.549l-0.061.428-38.172.366-0.488-1.71-0.55.367-0.122,1.4-0.733.122-0.489-1.466-0.427-.061-0.061,7.268Zm10.2-15.024,0.244-1.4,7.146-.122v1.649Zm0.122,5.863v-1.71l7.206,0.061v1.832Zm17.039,0.061v-1.4h6.535V84.2Zm0.061-5.68V76.805l6.657,0.183-0.122,1.588h-6.535Z" transform="translate(-488.594 -18.188)"/>
</svg>
