<svg xmlns="http://www.w3.org/2000/svg" width="261.281" height="79.376" viewBox="0 0 261.281 79.376">
  <defs>
    <style>
      .cls-1 {
        fill: #2b546a;
        fill-rule: evenodd;
      }
    </style>
  </defs>
  <path id="_22_title.svg" data-name="22_title.svg" class="cls-1" d="M494.242,24.172A0.736,0.736,0,0,0,494,23.6l-2.676-2.216a0.746,0.746,0,0,0-1.243.54,0.761,0.761,0,0,0,.27.568l2.676,2.243a0.692,0.692,0,0,0,.486.189A0.733,0.733,0,0,0,494.242,24.172Zm-3.513,1.189a0.81,0.81,0,0,0-.162-0.486L488.189,22.2a0.78,0.78,0,0,0-.568-0.243,0.732,0.732,0,0,0-.757.73,0.714,0.714,0,0,0,.19.513l2.378,2.675a0.763,0.763,0,0,0,.54.243A0.738,0.738,0,0,0,490.729,25.361Zm2.026,10.161a0.8,0.8,0,0,0-.783-0.784c-0.946,0-3.837-1.784-7.242-3.837l-2.514-1.513V24.172a0.8,0.8,0,0,0-.783-0.784,0.784,0.784,0,0,0-.784.784v16.7a0.784,0.784,0,0,0,.784.784,0.8,0.8,0,0,0,.783-0.784v-9.62l1.676,1c4.459,2.648,6.729,4.053,8.08,4.053A0.784,0.784,0,0,0,492.755,35.522Zm23.519-10.647a0.8,0.8,0,0,0-.784-0.784H504.519a0.822,0.822,0,0,0-.784.784,0.8,0.8,0,0,0,.784.784H515.49A0.784,0.784,0,0,0,516.274,24.875Zm0.865,5.972V29.361a0.784,0.784,0,0,0-.784-0.784H502.817a0.784,0.784,0,1,0,0,1.567h12.755v0.7c0,1.486-3.351,7.431-12.755,9.161a0.759,0.759,0,0,0-.622.757,0.8,0.8,0,0,0,.784.784h0.135C513.058,39.71,517.139,33.306,517.139,30.847Zm21.816-6.161a0.8,0.8,0,0,0-.784-0.784h-9a0.8,0.8,0,0,0-.784.784,0.784,0.784,0,0,0,.784.784h9A0.784,0.784,0,0,0,538.955,24.686Zm5.324,15.457a0.768,0.768,0,0,0-.784-0.784h-3.486c-1.621,0-2.945-.189-3.486-0.7a1.5,1.5,0,0,1-.324-1.189c0-2.108-.7-3.567-2.135-3.81l4.864-4.108a0.783,0.783,0,0,0,.27-0.622,0.816,0.816,0,0,0-.783-0.784H527.578a0.8,0.8,0,0,0-.783.784,0.784,0.784,0,0,0,.783.784h8.675l-11.08,9.4a0.745,0.745,0,0,0-.3.568,0.789,0.789,0,0,0,.811.784,0.808,0.808,0,0,0,.486-0.162l5.729-4.837a5.092,5.092,0,0,1,1.676-.3c0.513,0,1.053.081,1.053,2.3,0,2.729,1.757,3.459,5.378,3.459H543.5A0.768,0.768,0,0,0,544.279,40.143Zm23.127-11.728a0.784,0.784,0,0,0-.784-0.784h-9.134v-3.54a0.784,0.784,0,0,0-.783-0.784,0.8,0.8,0,0,0-.784.784v3.54h-5.837a0.784,0.784,0,0,0-.783.784,0.8,0.8,0,0,0,.783.784h5.837l-0.054,3.3h-4.7a0.77,0.77,0,1,0,0,1.54h4.675v1.973c0,4.216.946,5.648,3.918,5.648a9.878,9.878,0,0,0,7.135-3.4,0.694,0.694,0,0,0,.189-0.486,0.808,0.808,0,0,0-.784-0.811,0.765,0.765,0,0,0-.594.27,8.513,8.513,0,0,1-5.946,2.864c-1.7,0-2.351-.73-2.351-3.945,0-.486,0-1.243.027-2.108H563.3a0.77,0.77,0,1,0,0-1.54h-5.864l0.054-3.3h9.134A0.8,0.8,0,0,0,567.406,28.415Zm28.066,8.3a0.808,0.808,0,0,0-.811-0.784,0.735,0.735,0,0,0-.541.216,9.844,9.844,0,0,1-6.566,3.081c-2.594,0-.162-7.81-4.648-7.81a6.961,6.961,0,0,0-2.4.459l3.81-7.215a0.833,0.833,0,0,0,.081-0.351,0.777,0.777,0,0,0-1.459-.405L574.61,39.629a0.863,0.863,0,0,0-.081.378,0.778,0.778,0,0,0,.756.784,0.806,0.806,0,0,0,.7-0.405l3.054-5.756a5.585,5.585,0,0,1,3.864-1.648c2.756,0,.189,7.81,4.648,7.81a11.527,11.527,0,0,0,7.674-3.54A0.892,0.892,0,0,0,595.472,36.711Zm25.122-3.972c0-4.459-3.351-7.377-8.567-7.377-6.107,0-9.755,4.324-9.755,8.512,0,3.729,1.784,5.026,3.351,5.026,1.189,0,2.54-1.459,3.621-3.4a23.217,23.217,0,0,0,2.54-7.215V26.928h0.406c4.242,0,6.836,2.243,6.836,5.81,0,3.081-3.918,6.188-7.809,6.188a0.784,0.784,0,1,0,0,1.567C616.027,40.494,620.594,36.738,620.594,32.738ZM610.217,28.2c-1,5.215-3.621,9.134-4.594,9.134s-1.784-1.135-1.784-3.459c0-3,2.351-6.08,6.378-6.783V28.2Zm38.743-2.972a0.758,0.758,0,0,0-.271-0.567l-2.729-2.135a0.716,0.716,0,0,0-1.135.567,0.645,0.645,0,0,0,.243.54l2.73,2.135a0.733,0.733,0,0,0,.459.162A0.7,0.7,0,0,0,648.96,25.226Zm-3.243,1.135a0.652,0.652,0,0,0-.189-0.486l-2.7-2.567a0.693,0.693,0,0,0-.486-0.189,0.681,0.681,0,0,0-.7.7,0.585,0.585,0,0,0,.217.486l2.7,2.594a0.632,0.632,0,0,0,.459.189A0.7,0.7,0,0,0,645.717,26.361Zm2.162,5.891a0.761,0.761,0,0,0-.27-0.568c-0.973-.73-2.487-1.811-6.405-6.134a0.766,0.766,0,0,0-.594-0.27,0.818,0.818,0,0,0-.784.784v0.054c0,1.189.135,2.324,0.135,3.351,0,3.756-.432,10.431-5.54,10.431-2.81,0-3.81-2.027-3.81-4.108,0-3.216,2.27-7.161,5.567-9.728a0.839,0.839,0,0,0,.27-0.649,0.754,0.754,0,0,0-.757-0.757h-7.863a0.77,0.77,0,1,0,0,1.54h5.81c-2.784,2.783-4.594,6.459-4.594,9.593,0,3.486,2.107,5.675,5.377,5.675,6.216,0,7.08-7.269,7.08-12.025V28.036a40.416,40.416,0,0,0,4.946,4.729,1.369,1.369,0,0,0,.7.243A0.718,0.718,0,0,0,647.879,32.252Zm27.138,8.728a0.767,0.767,0,0,0-.27-0.595l-10.755-8.674V28.928h7.458a0.77,0.77,0,1,0,0-1.54h-7.458V23.929a0.784,0.784,0,0,0-1.568,0v3.459h-6.891a0.77,0.77,0,1,0,0,1.54h6.891v2.756l-6.053,6.7-3.756,1.27a0.78,0.78,0,0,0-.541.73,0.761,0.761,0,0,0,.784.757,0.748,0.748,0,0,0,.243-0.027l3.973-1.3A0.854,0.854,0,0,0,657.4,39.6l5.864-6.513L673.774,41.6a0.753,0.753,0,0,0,.486.162,0.766,0.766,0,0,0,.6-0.27A0.89,0.89,0,0,0,675.017,40.98Zm-8.674-1.027a0.8,0.8,0,0,0-.784-0.784h-4.027a0.784,0.784,0,0,0,0,1.567h4.027A0.8,0.8,0,0,0,666.343,39.954Zm29.378,0.192a0.667,0.667,0,0,0-.7-0.7l-6,.264c-0.408.024-.816,0.024-1.177,0.024-3.963,0-4.612-1.033-4.612-1.777,0-2.786,6.318-6.2,10.041-7.687a0.673,0.673,0,0,0,.432-0.625,0.692,0.692,0,0,0-.672-0.7,1.036,1.036,0,0,0-.265.048,34.8,34.8,0,0,0-6.245,3.171l-0.841-6.1a0.661,0.661,0,0,0-.7-0.576,0.678,0.678,0,0,0-.673.7l0.937,6.87c-1.922,1.465-3.387,3.171-3.387,4.9,0,1.633.817,3.171,5.765,3.171,0.408,0,.841,0,1.321-0.024l6.149-.288A0.662,0.662,0,0,0,695.721,40.146ZM476.8,95.912q1.545-.39.387-1.547l-4.254-3.287h29q1.74-.385.58-1.547l-4.641-3.094-2.9,3.287h-7.735v-3.48h12.375q1.352-.385.194-1.547l-3.674-3.287-2.707,3.48h-6.188v-2.9h2.127v1.16c0,0.387.257,0.58,0.774,0.58h0.967q3.285-.385,3.287-1.547V75.029l0.773-.387q1.35-.77.387-1.74l-4.641-3.674-1.74,2.707H469.064l-4.254-2.127,5.027-2.127q3.671-1.931,1.547-1.934-1.355.195-3.674,0.58-3.87.58-10.828,1.16l3.094,4.641a1.143,1.143,0,0,0,1.933-.193l0.58-1.354,1.354-.58V82.957q0,0.775,1.353.773a13.2,13.2,0,0,0,2.514-.193,1.086,1.086,0,0,0,1.16-.967V81.99H471v2.9H459.782l0.58,1.354H471v3.48H456.5l0.58,1.353h14.889a30.16,30.16,0,0,1-8.895,6.381q-3.29,1.545-4.834,2.127-0.774,1.16,3.288.387a58.618,58.618,0,0,0,12.955-4.061h2.32Zm-0.193-22.623v2.9H468.87v-2.9h7.735Zm-7.735,4.254h7.735v3.094H468.87V77.543Zm13.342,8.7v3.48h-6.188v-3.48h6.188Zm0-4.254v2.9h-6.188v-2.9h6.188Zm7.154-4.447v3.094h-8.121V77.543h8.121Zm0-4.254v2.9h-8.121v-2.9h8.121ZM472.351,57.627H457.462l0.773,1.353h14.5V70.195c0,0.646.707,0.9,2.127,0.773a21.333,21.333,0,0,0,2.127-.387,1.036,1.036,0,0,0,.774-1.16v-8.7l0.58-.193q1.545-.58.387-1.74l-4.641-3.867ZM468.1,62.074q-1.551-2.126-5.608-2.32-2.514,0,0,1.354a2.507,2.507,0,0,1,1.16,1.547q0.385,0.97.774,1.74a2,2,0,0,0,2.707,1.354q3.09-.77.967-3.674h0Zm12.375,8.7q1.545,1.16,2.127-.193l0.386-.773,6.575-2.32,1.74-.58a7.912,7.912,0,0,1,.967-0.387q1.74-1.16-.194-1.16l-5.22.58q-3.291.39-8.7,0.773ZM493.62,70q0,1.16,1.934.967,3.09-.385,3.094-1.74V60.72l0.966-.58c0.644-.514.707-0.967,0.194-1.353l-4.641-3.867-1.934,2.707H479.118l0.774,1.353H493.62V70ZM482.985,91.658q-2.319.195-.773,0.773c0.387,0.13.773,0.26,1.16,0.387a28.682,28.682,0,0,1,7.154,3.674q1.742,1.351,3.674,2.9a2.394,2.394,0,0,0,3.481-.773q1.16-2.32-1.547-4.447-1.935-1.545-6.768-2.127-2.9-.19-5.607-0.387h-0.774Zm6-30.164q-1.551-1.931-6.575-1.74-1.74,0,.58.967a5.369,5.369,0,0,1,2.127,2.707q0.966,2.13,2.514,1.934,3.285-.58,1.354-3.867h0Zm43.644,5.994q5.5,2.236,6.7,7.391,1.89,7.734-2.062,12.891a15.64,15.64,0,0,1-5.329,4.469,26.8,26.8,0,0,1-6.187,2.406q-1.379.346-1.031,0.688t4.64-.516q7.562-1.547,11.516-5.328a13.124,13.124,0,0,0,4.3-12.375,12.283,12.283,0,0,0-6.016-8.594q-4.3-2.747-11.859-3.609-13.922-1.547-19.25,13.75-2.409,7.05,1.547,11.688,3.262,3.783,5.672,2.75a14,14,0,0,0,4.125-3.781,45.614,45.614,0,0,0,6.015-10.141,25.035,25.035,0,0,0,1.891-5.328,2.791,2.791,0,0,1,.172-0.859,14.527,14.527,0,0,1,1.375-2.406,0.989,0.989,0,0,0,.172-1.2q-0.69-1.547-3.61-2.922a15.441,15.441,0,0,1,7.219,1.031h0Zm-9.109.859a6.565,6.565,0,0,1-.344,3.438L521.8,76.253a41.363,41.363,0,0,1-2.922,7.219q-2.579,4.814-5.328,5.156-1.2.173-1.719-1.375a7.937,7.937,0,0,1-.344-2.75,20.472,20.472,0,0,1,1.719-8.25q3.437-7.561,8.938-9.109a1.659,1.659,0,0,1,1.375,1.2h0Zm61.168,17.316a26.2,26.2,0,0,1-.967,4.447q-0.969,2.9-2.9,3.287t-6.574-.58q-1.74-.385-1.741.193a10.7,10.7,0,0,0,3.094,1.547q3.482,1.545,3.481,1.934a8.238,8.238,0,0,0,.193,1.547,1.381,1.381,0,0,0,.58.967q1.93,0.77,5.414-1.353,2.706-1.74,4.447-9.475l0.967-.193q1.931-.58.387-2.127L586.617,81.8l-1.934,2.514H572.115q0.19-.965.773-4.254h9.475v0.967a0.774,0.774,0,0,0,.387.773,10.652,10.652,0,0,0,3.287-.193c1.16-.127,1.74-0.58,1.74-1.354V70.582l0.58-.193q1.74-.77.387-2.127l-5.028-4.447-1.933,3.094h-8.7q2.319-1.545.773-3.48,5.41-.965,9.861-2.127h2.321q1.93-.385.386-1.934l-4.834-4.254-2.9,2.514h-26.3l0.774,1.353h24.75q-2.321,1.74-4.834,3.481a11.057,11.057,0,0,0-1.934-1.354,19.689,19.689,0,0,0-8.121-1.354h-1.16q-0.775.2,0,.58a13.458,13.458,0,0,1,4.447,2.514q0.771,0.775,1.934,2.127a9.192,9.192,0,0,0,2.127,1.934H559.353l-5.994-2.9v17.4a2.135,2.135,0,0,0,.193.967,13.178,13.178,0,0,0,3.674-.193c1.03-.127,1.547-0.58,1.547-1.353V80.056h8.314a20.847,20.847,0,0,1-.773,4.254h-17.4l0.773,1.353h16.436a15.918,15.918,0,0,1-3.287,5.8,23.632,23.632,0,0,1-8.508,5.8,27.535,27.535,0,0,1-4.834,1.74q-2.13,1.16.773,0.773l1.74-.387q5.991-1.355,7.155-1.74,6.765-2.32,9.668-6.187a20.318,20.318,0,0,0,2.9-5.8h12.955Zm-17.016-11.6V78.7h-8.894V74.062h8.894Zm-8.894-5.8h8.894v4.447h-8.894V68.261Zm23.59,5.8V78.7h-9.281V74.062h9.281Zm0-5.8v4.447h-9.281V68.261h9.281ZM604.6,99.2a1.181,1.181,0,0,0,.773,1.353c0.127,0,.707-0.066,1.74-0.193l1.741-.193a1.488,1.488,0,0,0,1.546-1.547V97.265h14.116v1.354a0.78,0.78,0,0,0,.773.967,10.52,10.52,0,0,0,4.447-.967,1.742,1.742,0,0,0,.58-1.547V83.923l0.774-.387q1.931-1.16.387-2.32l-5.414-4.447-1.934,3.094H612.722q3.285-2.32,7.541-5.994h17.015c1.161-.257,1.287-0.837.387-1.74l-4.641-4.254-3.867,4.641H621.81a100.1,100.1,0,0,0,9.088-9.088l1.933-.387q2.511-.58.58-2.32l-4.64-3.867a68.666,68.666,0,0,1-5.221,6.574L619.1,59.56l-2.707,3.48h-0.581V58.98l1.161-.773q1.545-1.74-.387-2.32l-6.574-.58v7.734H596.48l0.58,1.353h12.955v8.121H592.806l0.58,1.354h20.3q-3.1,2.9-5.608,4.834l-3.48-1.353V81.41a73.32,73.32,0,0,1-10.635,7.348c-0.26.13-.517,0.26-0.774,0.387q-1.159,1.355.387,1.16c0.387-.127.774-0.257,1.16-0.387a78.239,78.239,0,0,0,9.862-4.834V99.2Zm19.916-10.441v7.154H610.4V88.757h14.116Zm0-7.541V87.4H610.4V81.216h14.116Zm-1.741-16.822a72.307,72.307,0,0,1-6.961,7.154V64.394h6.961ZM644.6,88.8a22.73,22.73,0,0,1-1.89,3.609,3.657,3.657,0,0,0-.172,3.266q1.2,2.4,2.578,2.234a2.5,2.5,0,0,0,1.719-1.547q1.889-4.294,5.671-16.5l2.063-6.531q3.779-.858,6.531-1.547,2.579-.685,1.891-2.406a2.809,2.809,0,0,0-1.2-1.375q-2.236-1.2-2.75-.172a2.688,2.688,0,0,1-1.032.688l-2.234.859,1.375-3.437,0.516-1.031,0.515-.516q0.685-.685-0.343-1.547-3.267-2.921-5.672-2.922a2.6,2.6,0,0,0-2.063,1.031,0.7,0.7,0,0,0-.172.516q2.232,0.862,2.578,1.719a2.085,2.085,0,0,1,0,1.2c-0.115.459-.231,0.859-0.343,1.2l-0.516,2.234q-0.346,1.378-.687,2.75a12.2,12.2,0,0,1-5.157.516,5.4,5.4,0,0,1-3.265-2.234q-2.236,1.72.859,4.469,1.546,1.378,2.578,1.2,2.921-.342,3.953-0.516A121.934,121.934,0,0,1,644.6,88.8h0Zm13.922-2.922a7.517,7.517,0,0,0-.172,5.672,7.364,7.364,0,0,0,4.641,3.953q3.779,1.374,10.828,1.2h1.891a5.428,5.428,0,0,0,2.578-.687,1.9,1.9,0,0,0,.343-2.922q-1.546-2.232-2.921-1.891a12.315,12.315,0,0,0-1.375.344,20.184,20.184,0,0,1-4.125.516,32.765,32.765,0,0,1-5.5-.344,6.863,6.863,0,0,1-4.469-2.75Q659.38,87.6,659.9,84.5q-0.516-.858-1.375,1.375h0Zm4.125-6.016c-0.687.919-.575,1.147,0.344,0.688a53.772,53.772,0,0,1,6.875-3.781,12.841,12.841,0,0,1,6.187-.687q2.063,0.173,1.547-2.234,0-2.4-2.75-2.578a23.512,23.512,0,0,0-5.156.344q-7.734,1.031-11.172,5.844c-0.344.575-.172,0.688,0.516,0.344a14.273,14.273,0,0,1,8.25-2.062,41.622,41.622,0,0,0-4.641,4.125h0Zm26.3,4.813q-0.173,3.44,2.235,4.813a1.641,1.641,0,0,0,2.406-.344q0.684-1.031,1.89-2.75,5.326-6.53,11-6.359,5.326,0,5.329,6.016a8.446,8.446,0,0,1-4.3,7.734,21.309,21.309,0,0,1-7.219,2.922q-0.863.169-3.609,0.688a14.2,14.2,0,0,0-3.438.859c0,0.228.172,0.344,0.516,0.344a39.682,39.682,0,0,0,7.562-.516,36.459,36.459,0,0,0,9.625-2.578q5.157-2.4,6.531-6.875a7.433,7.433,0,0,0-.687-5.844,7.886,7.886,0,0,0-3.953-3.437q-5.33-2.4-13.063.344a41.822,41.822,0,0,0-6.015,2.922q0-2.4.172-6.016a43.271,43.271,0,0,1,.859-4.812q8.25-1.374,11.859-2.234,2.748-.685,1.2-2.75a5.093,5.093,0,0,0-1.718-1.375q-2.062-.858-3.094.344a14.919,14.919,0,0,1-4.469,1.719q-2.062.516-2.922,0.688l0.516-1.891A8.259,8.259,0,0,1,697.2,64.05c0.8-.8.86-1.488,0.172-2.062a16.923,16.923,0,0,0-2.578-1.719,5.04,5.04,0,0,0-2.922-.859,3.251,3.251,0,0,0-2.578,1.547,3.488,3.488,0,0,1,2.578,1.547A4.221,4.221,0,0,1,691.7,65.6l-0.515,3.094a33.343,33.343,0,0,1-3.61.516h-1.89a3.015,3.015,0,0,1-1.375-.344,2.941,2.941,0,0,1-1.719-2.062q-1.2.347-.86,2.234a4.948,4.948,0,0,0,2.75,3.266,2.115,2.115,0,0,0,.86.516q0.342,0,5.156-.516a101.006,101.006,0,0,0-1.547,12.375h0Z" transform="translate(-456.5 -21.188)"/>
</svg>
