<svg id="グループ_6" data-name="グループ 6" xmlns="http://www.w3.org/2000/svg" width="38" height="63" viewBox="0 0 38 63">
  <defs>
    <style>
      .cls-1 {
        fill: #2b546a;
        fill-rule: evenodd;
      }

      .cls-2 {
        fill: #ff4c4c;
      }
    </style>
  </defs>
  <path id="QM02_1" data-name="QM02 1" class="cls-1" d="M22.579,39.566v6.213a4.565,4.565,0,0,1-4.668,4.68,4.68,4.68,0,0,1-4.663-4.68v-9.94c0-.093.1-0.093,0.1-0.189a0.2,0.2,0,0,1-.1-0.192,4.81,4.81,0,0,1,4.663-4.684,10.7,10.7,0,1,0,0-21.4A10.525,10.525,0,0,0,8.77,14.626,4.674,4.674,0,1,1,.679,9.945,20.036,20.036,0,1,1,22.579,39.566ZM17.993,52.5a5.247,5.247,0,1,1-5.228,5.247A5.238,5.238,0,0,1,17.993,52.5Z"/>
  <circle id="QM02_1_のコピー" data-name="QM02 1 のコピー" class="cls-2" cx="17.984" cy="20.063" r="5.234"/>
</svg>
