<svg xmlns="http://www.w3.org/2000/svg" width="226.25" height="73.344" viewBox="0 0 226.25 73.344">
  <defs>
    <style>
      .cls-1 {
        fill: #2b546a;
        fill-rule: evenodd;
      }
    </style>
  </defs>
  <path id="_05_title.svg" data-name="05_title.svg" class="cls-1" d="M466.2,21.5a0.736,0.736,0,0,0-.243-0.567l-2.676-2.216a0.746,0.746,0,0,0-1.243.54,0.758,0.758,0,0,0,.271.567l2.675,2.243a0.693,0.693,0,0,0,.486.189A0.733,0.733,0,0,0,466.2,21.5Zm-3.513,1.189a0.81,0.81,0,0,0-.162-0.486l-2.378-2.675a0.779,0.779,0,0,0-.568-0.243,0.731,0.731,0,0,0-.756.73,0.714,0.714,0,0,0,.189.513l2.378,2.675a0.764,0.764,0,0,0,.54.243A0.737,0.737,0,0,0,462.686,22.688Zm2.027,10.161a0.8,0.8,0,0,0-.784-0.784c-0.946,0-3.837-1.784-7.242-3.837l-2.513-1.513V21.5a0.8,0.8,0,0,0-.784-0.784,0.785,0.785,0,0,0-.784.784V38.2a0.785,0.785,0,0,0,.784.784,0.8,0.8,0,0,0,.784-0.784v-9.62l1.675,1c4.459,2.648,6.729,4.053,8.08,4.053A0.785,0.785,0,0,0,464.713,32.848ZM488.231,22.2a0.8,0.8,0,0,0-.783-0.784H476.476a0.822,0.822,0,0,0-.784.784,0.8,0.8,0,0,0,.784.784h10.972A0.784,0.784,0,0,0,488.231,22.2Zm0.865,5.972V26.687a0.784,0.784,0,0,0-.784-0.784H474.774a0.784,0.784,0,1,0,0,1.567h12.755v0.7c0,1.486-3.351,7.431-12.755,9.161a0.759,0.759,0,0,0-.622.757,0.8,0.8,0,0,0,.784.784h0.135C485.015,37.037,489.1,30.632,489.1,28.173Zm21.816-6.161a0.8,0.8,0,0,0-.783-0.784h-9a0.8,0.8,0,0,0-.784.784,0.785,0.785,0,0,0,.784.784h9A0.784,0.784,0,0,0,510.912,22.012Zm5.324,15.457a0.768,0.768,0,0,0-.784-0.784h-3.486c-1.621,0-2.945-.189-3.486-0.7a1.5,1.5,0,0,1-.324-1.189c0-2.108-.7-3.567-2.135-3.81l4.864-4.107a0.783,0.783,0,0,0,.27-0.622,0.816,0.816,0,0,0-.783-0.784H499.536a0.8,0.8,0,0,0-.784.784,0.784,0.784,0,0,0,.784.784h8.674l-11.08,9.4a0.745,0.745,0,0,0-.3.568,0.79,0.79,0,0,0,.811.784,0.808,0.808,0,0,0,.486-0.162l5.729-4.837a5.092,5.092,0,0,1,1.676-.3c0.513,0,1.054.081,1.054,2.3,0,2.729,1.756,3.459,5.377,3.459h3.486A0.768,0.768,0,0,0,516.236,37.469Zm23.127-11.728a0.784,0.784,0,0,0-.784-0.784h-9.133v-3.54a0.785,0.785,0,0,0-.784-0.784,0.8,0.8,0,0,0-.784.784v3.54h-5.837a0.784,0.784,0,0,0-.783.784,0.8,0.8,0,0,0,.783.784h5.837l-0.054,3.3h-4.7a0.77,0.77,0,1,0,0,1.54H527.8v1.973c0,4.215.946,5.648,3.919,5.648a9.877,9.877,0,0,0,7.134-3.4,0.694,0.694,0,0,0,.189-0.486,0.808,0.808,0,0,0-.784-0.811,0.765,0.765,0,0,0-.594.27,8.513,8.513,0,0,1-5.945,2.864c-1.7,0-2.352-.73-2.352-3.945,0-.486,0-1.243.028-2.108h5.864a0.77,0.77,0,1,0,0-1.54h-5.864l0.054-3.3h9.133A0.8,0.8,0,0,0,539.363,25.741Zm28.066,8.3a0.808,0.808,0,0,0-.811-0.784,0.731,0.731,0,0,0-.54.216,9.848,9.848,0,0,1-6.567,3.081c-2.594,0-.162-7.81-4.648-7.81a6.958,6.958,0,0,0-2.405.459l3.81-7.215a0.833,0.833,0,0,0,.081-0.351,0.777,0.777,0,0,0-1.459-.405l-8.323,15.727a0.864,0.864,0,0,0-.081.378,0.778,0.778,0,0,0,.756.784,0.806,0.806,0,0,0,.7-0.405L551,31.957a5.585,5.585,0,0,1,3.864-1.648c2.756,0,.189,7.81,4.648,7.81a11.527,11.527,0,0,0,7.674-3.54A0.892,0.892,0,0,0,567.429,34.037Zm25.122-3.972c0-4.459-3.351-7.377-8.567-7.377-6.107,0-9.755,4.324-9.755,8.512,0,3.729,1.784,5.026,3.351,5.026,1.189,0,2.54-1.459,3.621-3.4a23.218,23.218,0,0,0,2.54-7.215V24.255h0.406c4.242,0,6.836,2.243,6.836,5.81,0,3.081-3.918,6.188-7.809,6.188a0.784,0.784,0,1,0,0,1.567C587.984,37.821,592.551,34.064,592.551,30.065Zm-10.377-4.54c-1,5.215-3.621,9.134-4.594,9.134S575.8,33.524,575.8,31.2c0-3,2.351-6.08,6.378-6.783v1.108Zm38.743-2.973a0.761,0.761,0,0,0-.27-0.567l-2.73-2.135a0.716,0.716,0,0,0-1.135.567,0.645,0.645,0,0,0,.243.541l2.73,2.135a0.733,0.733,0,0,0,.459.162A0.7,0.7,0,0,0,620.917,22.553Zm-3.243,1.135a0.652,0.652,0,0,0-.189-0.486l-2.7-2.567a0.693,0.693,0,0,0-.486-0.189,0.681,0.681,0,0,0-.7.7,0.588,0.588,0,0,0,.217.486l2.7,2.594a0.632,0.632,0,0,0,.459.189A0.7,0.7,0,0,0,617.674,23.688Zm2.162,5.891a0.761,0.761,0,0,0-.27-0.567c-0.973-.73-2.487-1.811-6.405-6.134a0.766,0.766,0,0,0-.594-0.27,0.818,0.818,0,0,0-.784.784v0.054c0,1.189.135,2.324,0.135,3.351,0,3.756-.432,10.431-5.54,10.431-2.81,0-3.81-2.027-3.81-4.108,0-3.216,2.27-7.161,5.567-9.728a0.839,0.839,0,0,0,.27-0.649,0.754,0.754,0,0,0-.757-0.757h-7.863a0.77,0.77,0,1,0,0,1.54h5.81C602.811,26.309,601,29.984,601,33.119c0,3.486,2.108,5.675,5.377,5.675,6.216,0,7.08-7.269,7.08-12.025V25.363a40.421,40.421,0,0,0,4.946,4.729,1.369,1.369,0,0,0,.7.243A0.717,0.717,0,0,0,619.836,29.579Zm27.138,8.729a0.767,0.767,0,0,0-.27-0.595l-10.755-8.674V26.255h7.458a0.77,0.77,0,1,0,0-1.54h-7.458V21.255a0.784,0.784,0,0,0-1.568,0v3.459H627.49a0.77,0.77,0,1,0,0,1.54h6.891v2.756l-6.053,6.7-3.756,1.27a0.78,0.78,0,0,0-.541.73,0.761,0.761,0,0,0,.784.757,0.748,0.748,0,0,0,.243-0.027l3.973-1.3a0.854,0.854,0,0,0,.324-0.216l5.864-6.513,10.512,8.512a0.753,0.753,0,0,0,.486.162,0.766,0.766,0,0,0,.6-0.27A0.89,0.89,0,0,0,646.974,38.307ZM638.3,37.28a0.8,0.8,0,0,0-.784-0.784H633.49a0.784,0.784,0,1,0,0,1.567h4.026A0.8,0.8,0,0,0,638.3,37.28Zm29.993-6.149c0-3.963-2.979-6.558-7.615-6.558-5.428,0-8.671,3.843-8.671,7.566,0,3.315,1.585,4.468,2.979,4.468,1.056,0,2.257-1.3,3.218-3.026a20.61,20.61,0,0,0,2.258-6.414v-1.2h0.361c3.771,0,6.077,1.994,6.077,5.164,0,2.738-3.483,5.5-6.942,5.5a0.7,0.7,0,1,0,0,1.393C664.233,38.025,668.293,34.686,668.293,31.131ZM659.069,27.1c-0.889,4.636-3.219,8.119-4.083,8.119S653.4,34.206,653.4,32.14c0-2.666,2.09-5.4,5.669-6.029V27.1ZM489.262,53.062c0-.944-1.62-2.024-4.363-2.968l-0.72.944H469.608V50.724c1.8-.63,2.968-1.574,2.968-1.934,0-.495,0-0.72-8.455-1.439l-2.249,1.934,3.418,1.034v0.72h-12.5l-0.45-.809c-3.058.9-4.677,1.934-4.677,2.788q0,1.214,3.238,1.214h8.77L458.5,55.446l2.069,0.54V56.84h-2.879l-0.4-.675c-2.2.72-3.194,1.664-3.194,2.339,0,0.63.765,0.9,2.294,0.9h2.429c-3.1,3.733-4.273,4.048-4.812,4.048a2.13,2.13,0,0,1-1.17-.54c0.045-1.619.135-3.328,0.18-5.127,1.664-.81,2.159-1.214,2.159-1.754s-0.18-.72-6.476-1.574l-1.8,1.709,2.473,1.034c0,14.437-1.709,27.929-4,27.929a1.6,1.6,0,0,1-.449-0.09v0.54c0.764,0.63.854,1.934,0.854,2.878V89.4c0,0.809.18,1.349,0.765,1.349,1.169,0,2.248-1.3,3.148-3.823a7.175,7.175,0,0,1,1.034,3.508c0,0.675.18,1.124,0.765,1.124,6.521,0,12.413-6.566,13.088-8.005,1.843-.36,2.923-1.169,2.923-1.439,0-.495-0.72-0.944-6.926-1.979l-2.114,1.574,2.429,1.079c-1.664,3.013-5.8,5.037-9.265,5.037-0.36,0-.675-0.135-1.709-1.529,1.439-4.542,2.428-12.368,2.878-22.847a2.653,2.653,0,0,1,.99,2.159v0.225a0.735,0.735,0,0,0,.719.81c1.035,0,3.373-2.114,6.072-5.487V64.4a1.018,1.018,0,0,1-.5,1.079c0.315,1.124,1.034,2.339,2.024,2.339,1.079,0,1.394-.585,1.394-1.934V60.8c2.159,2.429,4.5,4.138,5.487,4.138a0.573,0.573,0,0,0,.585-0.675,6.807,6.807,0,0,1,.539-2.114,6.634,6.634,0,0,1,.99,3.328c-1.035-.135-2.384-0.315-4.093-0.54L464.885,66.6l2.789,0.675c-0.225.315-.45,0.585-0.675,0.944h-8.905l-0.5-.81c-2.338.944-4,1.889-4,3.013a1.557,1.557,0,0,0,.719.989v5.577a1.31,1.31,0,0,0-.809.9c0,1.349,1.574,2.384,3.013,2.384a6.18,6.18,0,0,0,1.574-.315h10.164V86.7c0,3.193,1.215,4.542,6.117,4.542h8.95c4.183,0,5.667-.81,5.667-3.058,0-1.529-.9-3.013-3.148-8.185a2.481,2.481,0,0,0,1.574-2.069,1.471,1.471,0,0,0-.945-0.989V71.412a1.365,1.365,0,0,0,.9-1.079c0-1.034-1.035-1.934-5.127-2.923l-0.36.81H471.272a1.823,1.823,0,0,0,.225-0.4c1.574-.4,3.013-0.989,3.013-1.349,0-.135-0.135-0.36-1.124-0.585a27.431,27.431,0,0,0,4.452-4.722V64.4a0.979,0.979,0,0,1-.675,1.079c0.315,1.124,1.215,2.339,2.294,2.339,0.99,0,1.3-.585,1.3-1.934V61.023c2.429,2.788,5.127,5.082,6.162,5.082,0.5,0,.63-0.315.63-0.855a9.408,9.408,0,0,1,.314-2.294h-0.494a0.288,0.288,0,0,1-.315.225c-0.72,0-2.294-.9-4.767-3.778h2.653c1.349,0,2.069-.27,2.069-0.9,0-.81-1.214-1.754-3.058-2.339l-0.36.675h-2.834V56.39c1.215-.495,1.709-0.945,1.709-1.349,0-.225-0.224-0.45-3.193-0.809h5.4a6.83,6.83,0,0,0,2.339.495C488.407,54.726,489.262,54.232,489.262,53.062ZM477.838,56.84h-2.833l-0.4-.675c-2.2.72-3.238,1.664-3.238,2.339,0,0.63.764,0.9,2.293,0.9h2.474c-3.013,3.733-4.093,4.048-4.542,4.048-0.225,0-.5-0.4-1.215-1.664h-0.494a1.073,1.073,0,0,1-.54.18c-0.36,0-1.8-.135-4.093-2.564h2.429c1.3,0,2.024-.27,2.024-0.9,0-.81-1.26-1.754-3.014-2.339l-0.4.675h-2.789V56.39c1.125-.495,1.664-0.945,1.664-1.349,0-.225-0.225-0.45-3.193-0.809h15.022l-1.17,1.214,2.024,0.54V56.84Zm5.4,15.876H471.991v-1.8h11.2l0.045,0.045v1.754Zm0,4.408H471.991V75.19h11.244v1.934Zm3.1,8.68c0,2.294-1.439,2.519-4.812,2.519h-6.341c-2.609,0-3.194-.36-3.194-2.608V79.957h3.823l-1.124.944,1.529,0.495c-0.45.765-1.169,1.979-2.024,3.148a0.341,0.341,0,0,1-.18-0.045l-0.674-1.259-1.215.9c0.9,2.833,1.215,3.553,1.8,3.553a3.653,3.653,0,0,0,1.08-1.034c1.8-.135,5.891-0.675,7.735-0.989a2.449,2.449,0,0,0,1.8,1.3c0.855,0,.99-1.034.99-1.484a4.287,4.287,0,0,1,.225-1.529h-0.5a0.392,0.392,0,0,1-.405.225c-0.5,0-1.394-1.394-2.384-2.653a0.975,0.975,0,0,0-.719-0.315,6.643,6.643,0,0,0-1.979.675l0.405,0.27c0.494,0.63.944,1.169,1.3,1.709-1.484.225-3.238,0.45-4.812,0.585,0.764-1.034,1.124-1.754,1.754-2.564a2.959,2.959,0,0,0,1.709-.944c0-.225-0.18-0.495-2.969-0.989h5.622a4.843,4.843,0,0,0,1.574.36,4.985,4.985,0,0,0,.855-0.09A24.667,24.667,0,0,1,486.338,85.8ZM468.8,72.716H457.6v-1.8h11.2v1.8Zm0,4.408H457.6V75.19h11.2v1.934Zm66.665-1.754h-0.5a0.676,0.676,0,0,1-.629.315c-2.159,0-9.265-3.868-13-7.916h7.151a3.463,3.463,0,0,0,1.8.72,3.33,3.33,0,0,0,2.923-3.148,1.728,1.728,0,0,0-.854-1.394V53.827a1.584,1.584,0,0,0,.809-1.169c0-1.484-1.529-3.193-5.127-3.913l-0.36.9H498.359l-0.585-.989c-2.248,1.079-4.362,2.2-4.362,3.508,0,0.585.674,1.079,3.733,1.079h14.392V56.93H498.314V56.435c1.3-.675,2.294-1.3,2.294-1.664,0-.495-0.315-0.63-6.7-1.439l-1.664,1.8,2.113,0.809v8.005a1.877,1.877,0,0,0-.809,1.394,3.293,3.293,0,0,0,2.968,3.148,3.033,3.033,0,0,0,1.664-.72h6.207c-3.373,4.273-9.715,8.77-11.829,8.77a1.086,1.086,0,0,1-.764-0.315h-0.36a6.183,6.183,0,0,1,.27,2.114c0,0.54-.045,1.079-0.045,1.484a0.972,0.972,0,0,0,1.124,1.034c1.979,0,5.532-2.159,9-5.082l0.765,0.18v1.754c0,5.532-3.6,10.029-9.85,10.029a5.844,5.844,0,0,1-1.529-.27v0.45a1.938,1.938,0,0,1,1.124,2.024v0.45a0.9,0.9,0,0,0,.945,1.124A13.114,13.114,0,0,0,504.97,84.23c10.03,5.217,15.337,7.646,17.181,7.646,2.338,0,3.193-1.124,3.193-5.217V76.449a4.25,4.25,0,0,0,.4-0.135c3.193,2.159,6.251,3.643,8.1,3.643a0.846,0.846,0,0,0,1.034-.944A8.441,8.441,0,0,1,535.463,75.37Zm-7.016-18.44H515.135V53.242h13.312V56.93Zm0,7.241H515.135V60.348h13.312v3.823Zm-16.91,0H498.314V60.348h13.223v3.823Zm10.119,8.95c-0.315-.045-0.585-0.09-0.945-0.135l-1.934,2.159,2.744,0.72V86.253c0,1.3-.315,1.754-1.8,1.754-1.349,0-6.3-1.169-14.482-4.362a14.659,14.659,0,0,0,1.214-5.892V76.224c1.62-.675,2.474-1.439,2.474-1.8,0-.4-0.809-0.675-4.452-1.034a41.906,41.906,0,0,0,4.947-5.622h7.061A35.86,35.86,0,0,0,521.656,73.121Zm58.506,13.627h-0.585a0.849,0.849,0,0,1-.765.45c-6.521,0-15.7-12.008-18.214-23.7h14.481a6.228,6.228,0,0,0,2.564.675c1.439,0,2.294-.495,2.294-1.979,0-1.079-1.664-2.923-4.588-4.093l-0.764,1.214H560.148V51.128c1.709-.675,3.013-1.709,3.013-2.114,0-.585-0.674-0.72-8.32-1.574l-2.2,2.294,3.418,1.035v8.545H541.483l-0.719-1.259c-3.1,1.349-4.588,3.1-4.588,4.138,0,1.259.54,1.979,2.339,1.979a5.4,5.4,0,0,0,2.474-.675h14.8C554.031,77.169,544,86.973,537.391,86.973a0.688,0.688,0,0,1-.675-0.495h-0.629a8.842,8.842,0,0,1,.584,3.733c0,1.034.4,1.349,1.08,1.349,6.161,0,16.64-8.14,20.733-22.172,3.6,11.379,11.693,21.363,20.014,22.173h0.089a0.994,0.994,0,0,0,1.035-1.124C579.622,88.187,579.847,87.333,580.162,86.748Zm44.483-24.421a1.934,1.934,0,0,0-.9-1.394V54.052a2.072,2.072,0,0,0,.81-1.3c0-1.574-1.439-3.283-4.947-4l-0.36.989h-32.2l-0.45-.989c-2.114,1.169-3.643,2.519-3.643,3.958a2.208,2.208,0,0,0,.72,1.394v6.881a1.557,1.557,0,0,0-.9,1.259,3.275,3.275,0,0,0,2.879,3.238,3.575,3.575,0,0,0,1.529-.54h33.056a2.464,2.464,0,0,0,1.529.54A3.253,3.253,0,0,0,624.645,62.327Zm-1.664,25.141a1.841,1.841,0,0,0-.855-1.3V71.187a1.717,1.717,0,0,0,.81-1.169c0-1.439-1.709-3.1-5.038-3.778l-0.449.809H589.654l-0.584-.9c-2.249,1.079-4.318,2.069-4.318,3.418,0,0.54.72,1.079,3.688,1.079h29.638v3.058H589.924c0.9-.495,1.619-0.99,1.619-1.394,0-.54-0.135-0.675-6.341-1.484l-1.124,1.664,1.619,0.675v13a1.841,1.841,0,0,0-.855,1.3,3.537,3.537,0,0,0,3.148,3.1,3.456,3.456,0,0,0,1.754-.675h28.334a3.765,3.765,0,0,0,1.754.675A3.534,3.534,0,0,0,622.981,87.468Zm-3.1-31.8H587.451V53.152h32.426v2.519Zm0,5.847H587.451V58.909h32.426v2.609Zm-1.8,18.529h-28.2V77.034h28.2v3.013Zm0,6.341h-28.2V83.42h28.2v2.968Zm53.069-28.379h-0.54a0.686,0.686,0,0,1-.539.27c-2.384,0-9.04-4.318-11.289-7.556a3.734,3.734,0,0,0,1.8-1.529c0-.54-0.225-0.809-8.5-1.574l-2.114,2.114,2.968,0.9c-1.934,3.1-9.085,8.275-11.873,8.275a0.575,0.575,0,0,1-.5-0.315h-0.54a14.348,14.348,0,0,1,.36,3.6c0,0.495.135,0.855,0.99,0.855a12.676,12.676,0,0,0,5.127-1.979c0.4,0.45,1.349.63,2.923,0.63h4.812V64.98h-7.87l-0.4-.765c-2.114.989-3.508,2.114-3.508,3.373a2.125,2.125,0,0,0,.675,1.169V73.93a1.434,1.434,0,0,0-.81,1.079,2.8,2.8,0,0,0,2.7,2.7,3.378,3.378,0,0,0,1.349-.4h7.511c-1.664,5.532-8.276,10.029-11.919,10.029-0.539,0-1.079-.27-3.373-4.812,1.979-1.034,3.373-3.643,3.373-7.421,0-4.273-2.563-8.68-5.531-10.479a35.846,35.846,0,0,0,4.047-10.974,1.848,1.848,0,0,0,1.529-1.8c0-1.034-1.664-2.384-4.542-3.463l-0.585.989h-5.442l-0.539-.989c-2.429,1.214-3.733,2.384-3.733,3.373,0,0.809.539,1.169,3.1,1.169h6.521a21.773,21.773,0,0,1-4.227,11.154V56.525c1.079-.54,1.8-1.079,1.8-1.574s-0.27-.63-6.477-1.979L626.712,55l2.249,0.9V73.121c0,10.479-.18,13.582-1.17,14.707v0.495l0.765,0.315c0.135,2.474.855,3.238,2.294,3.238s1.709-1.619,1.709-4.632V78.608a7.278,7.278,0,0,1,1.259,1.889c0.9,1.8,1.394,2.564,2.609,2.564a4.9,4.9,0,0,0,1.619-.27c1.934,4.318,2.563,6.072,2.653,7.151a1.063,1.063,0,0,0,1.124,1.259c4.858,0,11.694-5.262,14.617-10.974,3.148,6.251,9.49,11.019,13.313,11.019a0.948,0.948,0,0,0,.9-1.169,12.626,12.626,0,0,1,.27-3.013h-0.54a0.729,0.729,0,0,1-.629.4c-3.733,0-8.815-5.172-11.109-10.164h6.7a4.018,4.018,0,0,0,1.439.45,2.892,2.892,0,0,0,2.654-2.7,1.422,1.422,0,0,0-.765-1.124V68.668a1.528,1.528,0,0,0,.72-1.034c0-1.394-.72-2.519-4.183-3.418l-0.36.765h-7.061V61.7h4.273c1.844,0,2.968-.36,3.013-1.124a11.984,11.984,0,0,0,4.678,1.844,0.947,0.947,0,0,0,1.169-.9c0-.36-0.045-0.945-0.045-1.619A5.2,5.2,0,0,1,671.147,58.009Zm-10.614-.54-0.36.63h-8.86l-0.135-.315a37.149,37.149,0,0,0,4.678-4.5A48,48,0,0,0,660.533,57.47ZM665.12,74.02h-7.331V68.309h7.331V74.02Zm-10.884,0h-7.555V68.309h7.555V74.02Zm-15.966.54c0,3.1-1.124,4.9-3.013,4.9a6,6,0,0,1-2.7-1.574V65.25A10.924,10.924,0,0,1,638.27,74.56Z" transform="translate(-444.906 -18.531)"/>
</svg>
