<svg xmlns="http://www.w3.org/2000/svg" width="234.531" height="80.313" viewBox="0 0 234.531 80.313">
  <defs>
    <style>
      .cls-1 {
        fill: #2b546a;
        fill-rule: evenodd;
      }
    </style>
  </defs>
  <path id="_15_title.svg" data-name="15_title.svg" class="cls-1" d="M494.242,15.172A0.736,0.736,0,0,0,494,14.6l-2.676-2.216a0.746,0.746,0,0,0-1.243.54,0.761,0.761,0,0,0,.27.568l2.676,2.243a0.692,0.692,0,0,0,.486.189A0.733,0.733,0,0,0,494.242,15.172Zm-3.513,1.189a0.81,0.81,0,0,0-.162-0.486L488.189,13.2a0.78,0.78,0,0,0-.568-0.243,0.732,0.732,0,0,0-.757.73,0.714,0.714,0,0,0,.19.513l2.378,2.675a0.763,0.763,0,0,0,.54.243A0.738,0.738,0,0,0,490.729,16.361Zm2.026,10.161a0.8,0.8,0,0,0-.783-0.784c-0.946,0-3.837-1.783-7.242-3.837l-2.514-1.513V15.172a0.8,0.8,0,0,0-.783-0.784,0.784,0.784,0,0,0-.784.784v16.7a0.784,0.784,0,0,0,.784.784,0.8,0.8,0,0,0,.783-0.784v-9.62l1.676,1c4.459,2.648,6.729,4.053,8.08,4.053A0.784,0.784,0,0,0,492.755,26.522Zm23.519-10.647a0.8,0.8,0,0,0-.784-0.784H504.519a0.822,0.822,0,0,0-.784.784,0.8,0.8,0,0,0,.784.784H515.49A0.784,0.784,0,0,0,516.274,15.875Zm0.865,5.972V20.361a0.784,0.784,0,0,0-.784-0.784H502.817a0.784,0.784,0,1,0,0,1.567h12.755v0.7c0,1.486-3.351,7.431-12.755,9.161a0.759,0.759,0,0,0-.622.757,0.8,0.8,0,0,0,.784.784h0.135C513.058,30.71,517.139,24.306,517.139,21.847Zm21.816-6.161a0.8,0.8,0,0,0-.784-0.784h-9a0.8,0.8,0,0,0-.784.784,0.784,0.784,0,0,0,.784.784h9A0.784,0.784,0,0,0,538.955,15.686Zm5.324,15.457a0.768,0.768,0,0,0-.784-0.784h-3.486c-1.621,0-2.945-.189-3.486-0.7a1.5,1.5,0,0,1-.324-1.189c0-2.108-.7-3.567-2.135-3.81l4.864-4.107a0.783,0.783,0,0,0,.27-0.622,0.816,0.816,0,0,0-.783-0.784H527.578a0.8,0.8,0,0,0-.783.784,0.784,0.784,0,0,0,.783.784h8.675l-11.08,9.4a0.745,0.745,0,0,0-.3.567,0.789,0.789,0,0,0,.811.784,0.808,0.808,0,0,0,.486-0.162l5.729-4.837a5.092,5.092,0,0,1,1.676-.3c0.513,0,1.053.081,1.053,2.3,0,2.729,1.757,3.459,5.378,3.459H543.5A0.768,0.768,0,0,0,544.279,31.143Zm23.127-11.728a0.784,0.784,0,0,0-.784-0.784h-9.134v-3.54a0.784,0.784,0,0,0-.783-0.784,0.8,0.8,0,0,0-.784.784v3.54h-5.837a0.784,0.784,0,0,0-.783.784,0.8,0.8,0,0,0,.783.784h5.837l-0.054,3.3h-4.7a0.77,0.77,0,1,0,0,1.54h4.675v1.973c0,4.216.946,5.648,3.918,5.648a9.878,9.878,0,0,0,7.135-3.4,0.694,0.694,0,0,0,.189-0.486,0.808,0.808,0,0,0-.784-0.811,0.765,0.765,0,0,0-.594.27,8.513,8.513,0,0,1-5.946,2.864c-1.7,0-2.351-.73-2.351-3.945,0-.486,0-1.243.027-2.108H563.3a0.77,0.77,0,1,0,0-1.54h-5.864l0.054-3.3h9.134A0.8,0.8,0,0,0,567.406,19.415Zm28.066,8.3a0.808,0.808,0,0,0-.811-0.784,0.735,0.735,0,0,0-.541.216,9.844,9.844,0,0,1-6.566,3.081c-2.594,0-.162-7.81-4.648-7.81a6.961,6.961,0,0,0-2.4.459l3.81-7.215a0.833,0.833,0,0,0,.081-0.351,0.777,0.777,0,0,0-1.459-.405L574.61,30.629a0.863,0.863,0,0,0-.081.378,0.778,0.778,0,0,0,.756.784,0.806,0.806,0,0,0,.7-0.405l3.054-5.756a5.585,5.585,0,0,1,3.864-1.648c2.756,0,.189,7.81,4.648,7.81a11.527,11.527,0,0,0,7.674-3.54A0.892,0.892,0,0,0,595.472,27.711Zm25.122-3.972c0-4.459-3.351-7.377-8.567-7.377-6.107,0-9.755,4.324-9.755,8.512,0,3.729,1.784,5.026,3.351,5.026,1.189,0,2.54-1.459,3.621-3.4a23.217,23.217,0,0,0,2.54-7.215V17.928h0.406c4.242,0,6.836,2.243,6.836,5.81,0,3.081-3.918,6.188-7.809,6.188a0.784,0.784,0,1,0,0,1.567C616.027,31.494,620.594,27.738,620.594,23.738ZM610.217,19.2c-1,5.215-3.621,9.134-4.594,9.134s-1.784-1.135-1.784-3.459c0-3,2.351-6.08,6.378-6.783V19.2Zm38.743-2.972a0.758,0.758,0,0,0-.271-0.567l-2.729-2.135a0.716,0.716,0,0,0-1.135.567,0.645,0.645,0,0,0,.243.54l2.73,2.135a0.733,0.733,0,0,0,.459.162A0.7,0.7,0,0,0,648.96,16.226Zm-3.243,1.135a0.652,0.652,0,0,0-.189-0.486l-2.7-2.567a0.693,0.693,0,0,0-.486-0.189,0.681,0.681,0,0,0-.7.7,0.585,0.585,0,0,0,.217.486l2.7,2.594a0.632,0.632,0,0,0,.459.189A0.7,0.7,0,0,0,645.717,17.361Zm2.162,5.891a0.761,0.761,0,0,0-.27-0.567c-0.973-.73-2.487-1.811-6.405-6.134a0.766,0.766,0,0,0-.594-0.27,0.818,0.818,0,0,0-.784.784v0.054c0,1.189.135,2.324,0.135,3.351,0,3.756-.432,10.431-5.54,10.431-2.81,0-3.81-2.027-3.81-4.107,0-3.216,2.27-7.161,5.567-9.728a0.839,0.839,0,0,0,.27-0.649,0.754,0.754,0,0,0-.757-0.757h-7.863a0.77,0.77,0,1,0,0,1.54h5.81c-2.784,2.783-4.594,6.459-4.594,9.593,0,3.486,2.107,5.675,5.377,5.675,6.216,0,7.08-7.269,7.08-12.025V19.036a40.416,40.416,0,0,0,4.946,4.729,1.369,1.369,0,0,0,.7.243A0.718,0.718,0,0,0,647.879,23.252Zm27.138,8.728a0.767,0.767,0,0,0-.27-0.594l-10.755-8.674V19.928h7.458a0.77,0.77,0,1,0,0-1.54h-7.458V14.929a0.784,0.784,0,0,0-1.568,0v3.459h-6.891a0.77,0.77,0,1,0,0,1.54h6.891v2.756l-6.053,6.7-3.756,1.27a0.78,0.78,0,0,0-.541.73,0.761,0.761,0,0,0,.784.757,0.748,0.748,0,0,0,.243-0.027l3.973-1.3A0.854,0.854,0,0,0,657.4,30.6l5.864-6.512L673.774,32.6a0.753,0.753,0,0,0,.486.162,0.766,0.766,0,0,0,.6-0.27A0.89,0.89,0,0,0,675.017,31.98Zm-8.674-1.027a0.8,0.8,0,0,0-.784-0.784h-4.027a0.784,0.784,0,0,0,0,1.567h4.027A0.8,0.8,0,0,0,666.343,30.954Zm29.378,0.192a0.667,0.667,0,0,0-.7-0.7l-6,.264c-0.408.024-.816,0.024-1.177,0.024-3.963,0-4.612-1.033-4.612-1.777,0-2.786,6.318-6.2,10.041-7.687a0.673,0.673,0,0,0,.432-0.625,0.692,0.692,0,0,0-.672-0.7,1.036,1.036,0,0,0-.265.048,34.8,34.8,0,0,0-6.245,3.171l-0.841-6.1a0.661,0.661,0,0,0-.7-0.576,0.678,0.678,0,0,0-.673.7l0.937,6.87c-1.922,1.465-3.387,3.171-3.387,4.9,0,1.633.817,3.171,5.765,3.171,0.408,0,.841,0,1.321-0.024l6.149-.288A0.662,0.662,0,0,0,695.721,31.146Zm-218.7,26.935a33.767,33.767,0,0,1-3.713-.148,17.1,17.1,0,0,1,.248,3.169v2.822a16.767,16.767,0,0,1-.248,3.169,27.888,27.888,0,0,1,3.713-.148h29.409a28.152,28.152,0,0,1,2.922.148,16.767,16.767,0,0,1-.248-3.169V61.1a16.136,16.136,0,0,1,.248-3.169,26.786,26.786,0,0,1-3.714.148H477.025Zm16.141,1.98v4.9H489.4v-4.9h3.763Zm9.753,0v4.9h-3.911v-4.9h3.911Zm-19.358,0v4.9h-3.813v-4.9h3.813Zm7.624,15.546,0.644-.644,1.535-1.436L486.878,71.8h19.259v3.367a15.451,15.451,0,0,1-.2,2.475l-0.049.5h7.228a19.56,19.56,0,0,1-.247-2.971V73.379a19.258,19.258,0,0,1,.247-3.713,26.763,26.763,0,0,1-3.713.148H473.461a33.776,33.776,0,0,1-3.714-.148A19.879,19.879,0,0,1,470,73.379v1.782a15.567,15.567,0,0,1-.2,2.475l-0.05.5h7.179a19.56,19.56,0,0,1-.247-2.971V71.8h8.912L484.8,73.181a31.947,31.947,0,0,1-10.2,9.209l-1.584.545,1.238,1.634,1.485-.644a43.928,43.928,0,0,0,8.417-3.367c1.188,1.436,2.426,3.169,3.515,4.8a46.4,46.4,0,0,1-13.219,4.753l-2.08.149,0.892,2.228,1.782-.346c15-1.089,23.666-5.545,29.756-15.249V75.459l-0.793.049c-1.782.05-3.069,0.1-3.96,0.1h-8.863Zm5.248,1.98a28.4,28.4,0,0,1-3.861,4.258,1.839,1.839,0,0,0-.545-0.247l-0.594-.3c-1.287-.594-2.03-0.941-4.06-1.782l-0.842-.347a27.168,27.168,0,0,0,2.327-1.584h7.575Zm5.6-23.913h8.466a20.87,20.87,0,0,1,2.971.2V51.5a20.884,20.884,0,0,1-2.971.2h-8.466V50.209a19.588,19.588,0,0,1,.248-2.971H495a16.041,16.041,0,0,1,.247,2.971v1.485h-8.07V50.209a19.457,19.457,0,0,1,.248-2.971h-7.279a15.978,15.978,0,0,1,.248,2.971v1.485h-8.219a21.353,21.353,0,0,1-2.97-.2v2.377a21.838,21.838,0,0,1,2.97-.2h8.219v0.2a15.451,15.451,0,0,1-.2,2.476l-0.05.5h7.279a19.458,19.458,0,0,1-.248-2.971v-0.2h8.07v0.2a15.451,15.451,0,0,1-.2,2.476l-0.049.5h7.278a19.589,19.589,0,0,1-.248-2.971v-0.2Zm33.444,26.488c-3.169.5-5.5,0.792-9.357,1.139l-1.04.148,0.545-.644A109.767,109.767,0,0,0,539.284,63.23L540.72,61.4l-7.179-3.713L532.8,60.358c-0.941,2.327-2.426,5.743-3.169,7.228-2.278-1.881-3.367-2.773-5-4.01a96.334,96.334,0,0,0,9.358-11.387l1.238-1.584L527.5,47.139l-0.347,1.98a72.008,72.008,0,0,1-4.406,13.17,28.059,28.059,0,0,0-2.723-1.782l-1.04-.891-1.337,1.535,0.991,0.842a80.33,80.33,0,0,1,7.525,12.576c-2.327,4.456-2.673,5.05-3.812,7.08l-0.842.049-1.139.1c-0.2,0-.594,0-1.237.049h-1.981l2.377,8.565,1.931-1.089a116.38,116.38,0,0,0,14.754-6.931l0.148,0.99c0.1,0.941.2,1.535,0.2,1.733,0.1,0.594.1,0.891,0.2,1.782v2.03l7.476-3.317-0.99-1.485c-2.475-4.406-4.654-8.021-6.832-11.14L535.868,71.8l-1.881.941,0.544,1.238a58.653,58.653,0,0,1,1.337,6.09Zm9.605,7.773,2.822,0.644c3.862,1.683,6.387,2.475,7.922,2.475,2.772,0,3.763-1.683,4.258-7.476,0.643-6.634.693-9.7,0.693-29.954V52.14c-1.981.148-3.02,0.148-6.238,0.148H541.215a21.353,21.353,0,0,1-2.97-.2v2.377a21.844,21.844,0,0,1,2.97-.2h12.724c0.05,8.615.05,8.813,0.05,10.2,0,8.912-.4,16.932-0.99,19.854-0.3,1.485-.792,1.832-2.575,1.832a39.5,39.5,0,0,1-5.545-.446Zm54.412-35.35v0.99H572.407a21.357,21.357,0,0,1-2.971-.2v2.971a21.841,21.841,0,0,1,2.971-.2h30.548a20.866,20.866,0,0,1,2.97.2V52.585h-6.436Zm3.961,14.853a20.884,20.884,0,0,1-2.971.2h-25.5a21.343,21.343,0,0,1-2.97-.2v2.921a21.832,21.832,0,0,1,2.97-.2h25.5a20.884,20.884,0,0,1,2.971.2V67.438Zm-1.387,14.8v0.99H569.882a21.357,21.357,0,0,1-2.971-.2V86.1a21.856,21.856,0,0,1,2.971-.2h35.6a20.88,20.88,0,0,1,2.97.2V82.242h-6.387Zm26.4-16.338V61.7h2.525l0.694,0.05c0.247,0,.445.049,0.94,0.1V60.012a21.545,21.545,0,0,0,1.733,1.436l1.634,1.287,3.515-5.842-1.98-.446a23.33,23.33,0,0,1-9.655-6.04l1.288-1.733L622.472,46.5l-0.792,2.277c-1.882,4.6-5.942,10.447-9.209,13.12l-1.238.743,1.089,1.584,1.139-.842a35.678,35.678,0,0,0,4.753-2.872v1.337a23.521,23.521,0,0,1,2.97-.148h1.337V65.9h-5.3a33.744,33.744,0,0,1-3.714-.149,15.049,15.049,0,0,1,.248,2.971v4.258a15.025,15.025,0,0,1-.248,3.614,27.9,27.9,0,0,1,3.714-.148h5.149a17.886,17.886,0,0,1-8.764,13.17l-1.336.545,1.039,1.733,1.387-.743c5.891-2.129,9.9-5.2,12.08-9.456,1.832,2.178,4.06,5.05,5.347,6.931l1.188,1.98,4.852-5.149-2.029-.99c-2.476-1.485-4.6-2.624-8.566-4.6a15.022,15.022,0,0,0,.891-3.416h6.09a28.133,28.133,0,0,1,2.921.148,18.158,18.158,0,0,1-.247-3.614V69.369a17.567,17.567,0,0,1,.247-3.614,26.745,26.745,0,0,1-3.713.149h-5.3Zm-0.1,1.98h3.219v6.585h-3.219V67.884Zm-5.743,0v6.585H619.5V67.884h3.119Zm-1.436-8.169a16.074,16.074,0,0,1-1.831-.049,35.984,35.984,0,0,0,7.426-7.625,23.312,23.312,0,0,0,5.4,7.575c-0.545.05-1.337,0.1-2.525,0.1h-8.467ZM640,80.806h6.338a19.588,19.588,0,0,1-.248-2.971V55.8a19.59,19.59,0,0,1,.248-2.971H640a15.979,15.979,0,0,1,.248,2.971V77.835a15.567,15.567,0,0,1-.2,2.475Zm2.228,8.912,2.674,0.5a30.076,30.076,0,0,0,7.426,1.584c1.832,0,2.922-1.188,2.922-3.169V51.644a19.56,19.56,0,0,1,.247-2.971h-6.634a16.041,16.041,0,0,1,.247,2.971V86.4c0,1.139-.346,1.436-1.683,1.436a50.437,50.437,0,0,1-5.5-.3Zm44.213-24.21h14.308a20.884,20.884,0,0,1,2.971.2V63.329a20.87,20.87,0,0,1-2.971.2H686.439V51.545a19.56,19.56,0,0,1,.247-2.971h-8.317a16.041,16.041,0,0,1,.247,2.971V63.527H664.605a21.342,21.342,0,0,1-2.971-.2v2.376a21.856,21.856,0,0,1,2.971-.2h14.011V87.242H666.09a21.367,21.367,0,0,1-2.971-.2v2.376a21.858,21.858,0,0,1,2.971-.2h33.172a20.884,20.884,0,0,1,2.971.2V87.044a20.884,20.884,0,0,1-2.971.2H686.439V65.507Z" transform="translate(-469.188 -12.188)"/>
</svg>
