<svg xmlns="http://www.w3.org/2000/svg" width="258.094" height="77.313" viewBox="0 0 258.094 77.313">
  <defs>
    <style>
      .cls-1 {
        fill: #2b546a;
        fill-rule: evenodd;
      }
    </style>
  </defs>
  <path id="_04_title.svg" data-name="04_title.svg" class="cls-1" d="M488.2,25.172a0.736,0.736,0,0,0-.243-0.567l-2.676-2.216a0.746,0.746,0,0,0-1.243.54,0.758,0.758,0,0,0,.271.568l2.675,2.243a0.692,0.692,0,0,0,.486.189A0.733,0.733,0,0,0,488.2,25.172Zm-3.513,1.189a0.81,0.81,0,0,0-.162-0.486L482.146,23.2a0.779,0.779,0,0,0-.568-0.243,0.731,0.731,0,0,0-.756.73,0.713,0.713,0,0,0,.189.513l2.378,2.675a0.763,0.763,0,0,0,.54.243A0.737,0.737,0,0,0,484.686,26.361Zm2.027,10.161a0.8,0.8,0,0,0-.784-0.784c-0.946,0-3.837-1.784-7.242-3.837l-2.513-1.513V25.172a0.8,0.8,0,0,0-.784-0.784,0.785,0.785,0,0,0-.784.784v16.7a0.785,0.785,0,0,0,.784.784,0.8,0.8,0,0,0,.784-0.784v-9.62l1.675,1c4.459,2.648,6.729,4.053,8.08,4.053A0.785,0.785,0,0,0,486.713,36.522Zm23.518-10.647a0.8,0.8,0,0,0-.783-0.784H498.476a0.822,0.822,0,0,0-.784.784,0.8,0.8,0,0,0,.784.784h10.972A0.784,0.784,0,0,0,510.231,25.875Zm0.865,5.972V30.361a0.784,0.784,0,0,0-.784-0.784H496.774a0.784,0.784,0,1,0,0,1.567h12.755v0.7c0,1.486-3.351,7.431-12.755,9.161a0.759,0.759,0,0,0-.622.757,0.8,0.8,0,0,0,.784.784h0.135C507.015,40.71,511.1,34.306,511.1,31.847Zm21.816-6.161a0.8,0.8,0,0,0-.783-0.784h-9a0.8,0.8,0,0,0-.784.784,0.785,0.785,0,0,0,.784.784h9A0.784,0.784,0,0,0,532.912,25.686Zm5.324,15.457a0.768,0.768,0,0,0-.784-0.784h-3.486c-1.621,0-2.945-.189-3.486-0.7a1.5,1.5,0,0,1-.324-1.189c0-2.108-.7-3.567-2.135-3.81l4.864-4.108a0.783,0.783,0,0,0,.27-0.622,0.816,0.816,0,0,0-.783-0.784H521.536a0.8,0.8,0,0,0-.784.784,0.784,0.784,0,0,0,.784.784h8.674l-11.08,9.4a0.745,0.745,0,0,0-.3.568,0.79,0.79,0,0,0,.811.784,0.808,0.808,0,0,0,.486-0.162l5.729-4.837a5.092,5.092,0,0,1,1.676-.3c0.513,0,1.054.081,1.054,2.3,0,2.729,1.756,3.459,5.377,3.459h3.486A0.768,0.768,0,0,0,538.236,41.143Zm23.127-11.728a0.784,0.784,0,0,0-.784-0.784h-9.133v-3.54a0.785,0.785,0,0,0-.784-0.784,0.8,0.8,0,0,0-.784.784v3.54h-5.837a0.784,0.784,0,0,0-.783.784,0.8,0.8,0,0,0,.783.784h5.837l-0.054,3.3h-4.7a0.77,0.77,0,1,0,0,1.54H549.8v1.973c0,4.216.946,5.648,3.919,5.648a9.877,9.877,0,0,0,7.134-3.4,0.694,0.694,0,0,0,.189-0.486,0.808,0.808,0,0,0-.784-0.811,0.765,0.765,0,0,0-.594.27,8.513,8.513,0,0,1-5.945,2.864c-1.7,0-2.352-.73-2.352-3.945,0-.486,0-1.243.028-2.108h5.864a0.77,0.77,0,1,0,0-1.54h-5.864l0.054-3.3h9.133A0.8,0.8,0,0,0,561.363,29.415Zm28.066,8.3a0.808,0.808,0,0,0-.811-0.784,0.731,0.731,0,0,0-.54.216,9.848,9.848,0,0,1-6.567,3.081c-2.594,0-.162-7.81-4.648-7.81a6.961,6.961,0,0,0-2.405.459l3.81-7.215a0.833,0.833,0,0,0,.081-0.351,0.777,0.777,0,0,0-1.459-.405l-8.323,15.728a0.863,0.863,0,0,0-.081.378,0.778,0.778,0,0,0,.756.784,0.806,0.806,0,0,0,.7-0.405L573,35.63a5.585,5.585,0,0,1,3.864-1.648c2.756,0,.189,7.81,4.648,7.81a11.527,11.527,0,0,0,7.674-3.54A0.892,0.892,0,0,0,589.429,37.711Zm25.122-3.972c0-4.459-3.351-7.377-8.567-7.377-6.107,0-9.755,4.324-9.755,8.512,0,3.729,1.784,5.026,3.351,5.026,1.189,0,2.54-1.459,3.621-3.4a23.217,23.217,0,0,0,2.54-7.215V27.928h0.406c4.242,0,6.836,2.243,6.836,5.81,0,3.081-3.918,6.188-7.809,6.188a0.784,0.784,0,1,0,0,1.567C609.984,41.494,614.551,37.738,614.551,33.738ZM604.174,29.2c-1,5.215-3.621,9.134-4.594,9.134S597.8,37.2,597.8,34.873c0-3,2.351-6.08,6.378-6.783V29.2Zm38.743-2.972a0.761,0.761,0,0,0-.27-0.567l-2.73-2.135a0.716,0.716,0,0,0-1.135.567,0.645,0.645,0,0,0,.243.54l2.73,2.135a0.733,0.733,0,0,0,.459.162A0.7,0.7,0,0,0,642.917,26.226Zm-3.243,1.135a0.652,0.652,0,0,0-.189-0.486l-2.7-2.567a0.693,0.693,0,0,0-.486-0.189,0.681,0.681,0,0,0-.7.7,0.588,0.588,0,0,0,.217.486l2.7,2.594a0.632,0.632,0,0,0,.459.189A0.7,0.7,0,0,0,639.674,27.361Zm2.162,5.891a0.761,0.761,0,0,0-.27-0.568c-0.973-.73-2.487-1.811-6.405-6.134a0.766,0.766,0,0,0-.594-0.27,0.818,0.818,0,0,0-.784.784v0.054c0,1.189.135,2.324,0.135,3.351,0,3.756-.432,10.431-5.54,10.431-2.81,0-3.81-2.027-3.81-4.108,0-3.216,2.27-7.161,5.567-9.728a0.839,0.839,0,0,0,.27-0.649,0.754,0.754,0,0,0-.757-0.757h-7.863a0.77,0.77,0,1,0,0,1.54h5.81C624.811,29.982,623,33.657,623,36.792c0,3.486,2.108,5.675,5.377,5.675,6.216,0,7.08-7.269,7.08-12.025V29.036a40.416,40.416,0,0,0,4.946,4.729,1.369,1.369,0,0,0,.7.243A0.717,0.717,0,0,0,641.836,33.252Zm27.138,8.728a0.767,0.767,0,0,0-.27-0.595l-10.755-8.674V29.928h7.458a0.77,0.77,0,1,0,0-1.54h-7.458V24.929a0.784,0.784,0,0,0-1.568,0v3.459H649.49a0.77,0.77,0,1,0,0,1.54h6.891v2.756l-6.053,6.7-3.756,1.27a0.78,0.78,0,0,0-.541.73,0.761,0.761,0,0,0,.784.757,0.748,0.748,0,0,0,.243-0.027l3.973-1.3a0.854,0.854,0,0,0,.324-0.216l5.864-6.513L667.731,42.6a0.753,0.753,0,0,0,.486.162,0.766,0.766,0,0,0,.6-0.27A0.89,0.89,0,0,0,668.974,41.98ZM660.3,40.954a0.8,0.8,0,0,0-.784-0.784H655.49a0.784,0.784,0,1,0,0,1.567h4.026A0.8,0.8,0,0,0,660.3,40.954ZM690.293,34.8c0-3.963-2.979-6.558-7.615-6.558-5.428,0-8.671,3.843-8.671,7.566,0,3.315,1.585,4.468,2.979,4.468,1.056,0,2.257-1.3,3.218-3.027a20.61,20.61,0,0,0,2.258-6.413v-1.2h0.361c3.771,0,6.077,1.994,6.077,5.164,0,2.738-3.483,5.5-6.942,5.5a0.7,0.7,0,1,0,0,1.393C686.233,41.7,690.293,38.359,690.293,34.8Zm-9.224-4.035c-0.889,4.636-3.219,8.119-4.083,8.119s-1.586-1.009-1.586-3.075c0-2.666,2.09-5.4,5.669-6.029v0.985ZM485.19,99.326c6.262-.162,7.395-0.81,8.421-4.966l0.162-.81,0.108-.378c1.781,0.27,4.319.54,5.938,0.648l1.35-5.614c-1.026-.054-4.373-0.27-6.37-0.432,0.378-2.375.594-4.265,0.755-6.208l7.126-.27-0.162-5.4-6.478.27c0.486-5.506.54-6.856,0.648-9.717l-19.973,1.188h-2.16c0.756-.972,1.3-1.728,1.944-2.7l21.377-1.565L497.39,56.9l-17.059,1.4a51.034,51.034,0,0,0,2.376-5.236l-6.8-2a39.776,39.776,0,0,1-8.313,14.305l6.316,2.807c-0.648,3.509-1.026,5.506-1.674,8.8l-6.262.216,0.216,5.4,4.805-.162a97.361,97.361,0,0,1-3.185,11.012l6.585,0.972c0.162-.648.432-1.565,0.756-2.807,4.751,0.324,6.478.486,12.524,1.026-0.378,1.242-.648,1.458-1.511,1.458a12.557,12.557,0,0,1-3.563-.378Zm0.054-12.092,0.054-.378,0.216-1.242c0.27-1.835.324-2.159,0.54-3.995l3.4-.108c-0.323,2.591-.431,3.455-0.809,5.884l-3.185-.162h-0.216Zm-4.589-5.452c-0.324,2.213-.539,3.455-0.863,5.128-1.512-.054-2.915-0.162-3.455-0.216,0.378-1.457.648-2.7,1.025-4.75Zm-2.321-4.75c0.378-1.943.54-2.753,0.81-4.211l2.7-.162c-0.27,2.483-.324,3.077-0.54,4.265Zm11.984-4.8c0,0.162-.216,2.969-0.324,4.373l-3.293.108c0.216-1.3.324-1.835,0.594-4.319ZM456.093,59.541a50.461,50.461,0,0,1,8.368,4.535l4.156-6.748a88.658,88.658,0,0,0-8.205-4.1Zm-2.969,11.606a57.935,57.935,0,0,1,8.314,4.427l4.156-6.8a80.257,80.257,0,0,0-8.259-3.995Zm6.532,7.18a66,66,0,0,1-6.694,14.467l7.018,4.535a90.521,90.521,0,0,0,5.506-14.575Zm90.767,7.18c0.054,1.566.054,1.727,0.054,2.159q0,3.239-.485,3.239c-0.54,0-2.268-1.673-3.509-3.4a31.253,31.253,0,0,1-3.995-7.935l9.231-.972-0.7-5.668-9.986,1.134-0.756-4.427c3.293-.918,4.912-1.457,6.316-1.943l-4.7-5.236a58.776,58.776,0,0,1-13.873,4.75H522.3l0.432,18.624-2.861.54,1.943,5.83a87.566,87.566,0,0,0,14.143-4.1V82.484c-2.159.756-4.426,1.4-6.856,2V80.918l6.964-.7a33.673,33.673,0,0,0,8.367,14.791c2.646,2.645,5.723,4.427,7.72,4.427,2.321,0,3.509-2.591,4.049-8.853ZM529.047,75.466l-0.054-3.185,5.02-1.026,0.648,3.563Zm-15.6,21.485c4.21-6.64,6.154-17.166,6.1-33.091L551.5,61.215l-0.54-5.938-14.467,1.3c-0.216-2.645-.378-4.265-0.648-6.316l-8.1.7c0.54,2.267.918,4.1,1.242,6.262l-9.555.864v-1.4H512.42c0.162,4.319.162,5.182,0.162,7.827,0,14.143-1.781,23.158-5.56,27.909Zm7.017-4.157,0.27,5.722,20.406-.864-0.27-5.722ZM601.832,88.8l1.889-1.026a37.194,37.194,0,0,0-4.319-7.341l-4.048,2.105c0.594,0.918.648,1.08,1.4,2.429a34.134,34.134,0,0,1-3.563.54c1.134-2.051,2.43-4.588,3.077-6.154l-5.344-1.3a60.023,60.023,0,0,1-3.131,8.1l-1.187.108,0.27-8.475,11.606-.594,1.349-21.539L584.017,56.9c0.918-1.511,1.62-2.915,2.808-5.29l-7.774-1.565c-0.648,2.375-1.511,5.074-2.429,7.45l-4.589.324-0.162-1.565h-6.855l2.159,23.806h6.748l-0.162-1.619,6.316-.324-0.162,4.7-4.8-3.131c-4.21,5.938-9.554,10.311-14.683,11.984l5.075,5.506c4.966-2.267,11.012-7.935,14.413-13.5l-0.378,9.285c-0.216,4.751,1.457,5.506,12.524,5.506,8.043,0,11.984-.432,13.549-1.4,1.188-.756,1.728-2.105,2.322-5.614Zm-15.223-1.673,1.673,3.833a92.355,92.355,0,0,0,10.2-2.321l0.7,1.619,1.782-.972c-0.054,2.321-.216,2.537-2.267,2.807a63.908,63.908,0,0,1-6.424.27c-5.506,0-5.83-.108-5.776-2ZM573.383,73.793l-0.27-3.4,5.992-.432v3.509Zm17.652-4.642-0.162-4.427-5.29.378V61.755l6.856-.54-0.594,11.66-6.262.324V69.528Zm-18.3-3.077-0.27-3.239,6.64-.54v3.293Zm52.6,33.037h7.45l-0.27-2.321,19.379-.864L653.564,79.3l-21.539,1.3c2.105-2.267,3.455-3.833,4.642-5.236L656.7,74.117l-0.486-5.56-42.43,2.591,0.432,5.56L627.6,75.9a53.748,53.748,0,0,1-16.086,11.876l5.506,5.02a36.062,36.062,0,0,0,7.071-4.858Zm20.351-14.089-0.647,5.83-13.064.594-0.594-5.614ZM616.046,68.556l30.878-2.915h6.1l-0.54-11.174h-7.072l0.27,5.722-7.341.648V50.526H631V61.539l-7.125.648,0.485-5.56H617.4Zm90.275,17.058c0.054,1.943.054,3.347,0.054,4.157,0,0.54-.054.81-0.216,0.81-0.756,0-2.7-2.753-4.427-6.208a100.59,100.59,0,0,0,6.37-10.742l-5.938-2.753a58.237,58.237,0,0,1-3.293,6.37,55.2,55.2,0,0,1-2.213-9.231l8.691-.918-0.54-4.75,4.967-2.591a40.051,40.051,0,0,0-4.481-6.208l-5.614,2.969a43.07,43.07,0,0,1,3.185,4.427L695.9,61.7c-0.432-4.7-.648-7.989-0.756-10.635h-6.909c0.378,5.236.755,9.015,1.079,11.39l-5.938.7V61.593h-6.262c0.162,5.938.216,7.665,0.216,10.85,0,10.365-.917,16.249-3.293,20.675l6.262,3.131a37.76,37.76,0,0,0,1.89-6.586l1.457,5.182c4.157-.108,5.129-1.026,6.046-5.938l4.7,4.157a35.626,35.626,0,0,0,3.185-3.293c3.67,6.154,7.341,9.717,9.932,9.717,1.944,0,3.077-2.429,3.563-7.827Zm-20.837-5.938a49.28,49.28,0,0,1-.756,7.126c-0.324,1.619-.648,2.159-1.4,2.159a3.927,3.927,0,0,1-.971-0.108,60.811,60.811,0,0,0,.917-9.015Zm-2.052-5.722,0.054-4.534,7.072-.756a78.916,78.916,0,0,0,4.1,14.9,28.448,28.448,0,0,1-4.913,4.966,101.691,101.691,0,0,0,1.458-15.277ZM662.7,89.933a72.5,72.5,0,0,0,13.334-5.776V77.679c-1.08.486-2.645,1.08-3.779,1.511V70.122l4.1-.432-0.648-6.262-3.455.324V51.876h-6.424V64.4l-5.56.54,0.648,6.316,4.912-.486V81.4c-1.835.594-4.049,1.242-5.614,1.62Z" transform="translate(-452.969 -22.188)"/>
</svg>
