<svg xmlns="http://www.w3.org/2000/svg" width="245.5" height="72.406" viewBox="0 0 245.5 72.406">
  <defs>
    <style>
      .cls-1 {
        fill: #2b546a;
        fill-rule: evenodd;
      }
    </style>
  </defs>
  <path id="_02_title.svg" data-name="02_title.svg" class="cls-1" d="M462.2,25.172a0.736,0.736,0,0,0-.243-0.567l-2.676-2.216a0.746,0.746,0,0,0-1.243.54,0.758,0.758,0,0,0,.271.568l2.675,2.243a0.692,0.692,0,0,0,.486.189A0.733,0.733,0,0,0,462.2,25.172Zm-3.513,1.189a0.81,0.81,0,0,0-.162-0.486L456.146,23.2a0.779,0.779,0,0,0-.568-0.243,0.731,0.731,0,0,0-.756.73,0.713,0.713,0,0,0,.189.513l2.378,2.675a0.763,0.763,0,0,0,.54.243A0.737,0.737,0,0,0,458.686,26.361Zm2.027,10.161a0.8,0.8,0,0,0-.784-0.784c-0.946,0-3.837-1.784-7.242-3.837l-2.513-1.513V25.172a0.8,0.8,0,0,0-.784-0.784,0.785,0.785,0,0,0-.784.784v16.7a0.785,0.785,0,0,0,.784.784,0.8,0.8,0,0,0,.784-0.784v-9.62l1.675,1c4.459,2.648,6.729,4.053,8.08,4.053A0.785,0.785,0,0,0,460.713,36.522Zm23.518-10.647a0.8,0.8,0,0,0-.783-0.784H472.476a0.822,0.822,0,0,0-.784.784,0.8,0.8,0,0,0,.784.784h10.972A0.784,0.784,0,0,0,484.231,25.875Zm0.865,5.972V30.361a0.784,0.784,0,0,0-.784-0.784H470.774a0.784,0.784,0,1,0,0,1.567h12.755v0.7c0,1.486-3.351,7.431-12.755,9.161a0.759,0.759,0,0,0-.622.757,0.8,0.8,0,0,0,.784.784h0.135C481.015,40.71,485.1,34.306,485.1,31.847Zm21.816-6.161a0.8,0.8,0,0,0-.783-0.784h-9a0.8,0.8,0,0,0-.784.784,0.785,0.785,0,0,0,.784.784h9A0.784,0.784,0,0,0,506.912,25.686Zm5.324,15.457a0.768,0.768,0,0,0-.784-0.784h-3.486c-1.621,0-2.945-.189-3.486-0.7a1.5,1.5,0,0,1-.324-1.189c0-2.108-.7-3.567-2.135-3.81l4.864-4.108a0.783,0.783,0,0,0,.27-0.622,0.816,0.816,0,0,0-.783-0.784H495.536a0.8,0.8,0,0,0-.784.784,0.784,0.784,0,0,0,.784.784h8.674l-11.08,9.4a0.745,0.745,0,0,0-.3.568,0.79,0.79,0,0,0,.811.784,0.808,0.808,0,0,0,.486-0.162l5.729-4.837a5.092,5.092,0,0,1,1.676-.3c0.513,0,1.054.081,1.054,2.3,0,2.729,1.756,3.459,5.377,3.459h3.486A0.768,0.768,0,0,0,512.236,41.143Zm23.127-11.728a0.784,0.784,0,0,0-.784-0.784h-9.133v-3.54a0.785,0.785,0,0,0-.784-0.784,0.8,0.8,0,0,0-.784.784v3.54h-5.837a0.784,0.784,0,0,0-.783.784,0.8,0.8,0,0,0,.783.784h5.837l-0.054,3.3h-4.7a0.77,0.77,0,1,0,0,1.54H523.8v1.973c0,4.216.946,5.648,3.919,5.648a9.877,9.877,0,0,0,7.134-3.4,0.694,0.694,0,0,0,.189-0.486,0.808,0.808,0,0,0-.784-0.811,0.765,0.765,0,0,0-.594.27,8.513,8.513,0,0,1-5.945,2.864c-1.7,0-2.352-.73-2.352-3.945,0-.486,0-1.243.028-2.108h5.864a0.77,0.77,0,1,0,0-1.54h-5.864l0.054-3.3h9.133A0.8,0.8,0,0,0,535.363,29.415Zm28.066,8.3a0.808,0.808,0,0,0-.811-0.784,0.731,0.731,0,0,0-.54.216,9.848,9.848,0,0,1-6.567,3.081c-2.594,0-.162-7.81-4.648-7.81a6.961,6.961,0,0,0-2.405.459l3.81-7.215a0.833,0.833,0,0,0,.081-0.351,0.777,0.777,0,0,0-1.459-.405l-8.323,15.728a0.863,0.863,0,0,0-.081.378,0.778,0.778,0,0,0,.756.784,0.806,0.806,0,0,0,.7-0.405L547,35.63a5.585,5.585,0,0,1,3.864-1.648c2.756,0,.189,7.81,4.648,7.81a11.527,11.527,0,0,0,7.674-3.54A0.892,0.892,0,0,0,563.429,37.711Zm25.122-3.972c0-4.459-3.351-7.377-8.567-7.377-6.107,0-9.755,4.324-9.755,8.512,0,3.729,1.784,5.026,3.351,5.026,1.189,0,2.54-1.459,3.621-3.4a23.217,23.217,0,0,0,2.54-7.215V27.928h0.406c4.242,0,6.836,2.243,6.836,5.81,0,3.081-3.918,6.188-7.809,6.188a0.784,0.784,0,1,0,0,1.567C583.984,41.494,588.551,37.738,588.551,33.738ZM578.174,29.2c-1,5.215-3.621,9.134-4.594,9.134S571.8,37.2,571.8,34.873c0-3,2.351-6.08,6.378-6.783V29.2Zm38.743-2.972a0.761,0.761,0,0,0-.27-0.567l-2.73-2.135a0.716,0.716,0,0,0-1.135.567,0.645,0.645,0,0,0,.243.54l2.73,2.135a0.733,0.733,0,0,0,.459.162A0.7,0.7,0,0,0,616.917,26.226Zm-3.243,1.135a0.652,0.652,0,0,0-.189-0.486l-2.7-2.567a0.693,0.693,0,0,0-.486-0.189,0.681,0.681,0,0,0-.7.7,0.588,0.588,0,0,0,.217.486l2.7,2.594a0.632,0.632,0,0,0,.459.189A0.7,0.7,0,0,0,613.674,27.361Zm2.162,5.891a0.761,0.761,0,0,0-.27-0.568c-0.973-.73-2.487-1.811-6.405-6.134a0.766,0.766,0,0,0-.594-0.27,0.818,0.818,0,0,0-.784.784v0.054c0,1.189.135,2.324,0.135,3.351,0,3.756-.432,10.431-5.54,10.431-2.81,0-3.81-2.027-3.81-4.108,0-3.216,2.27-7.161,5.567-9.728a0.839,0.839,0,0,0,.27-0.649,0.754,0.754,0,0,0-.757-0.757h-7.863a0.77,0.77,0,1,0,0,1.54h5.81C598.811,29.982,597,33.657,597,36.792c0,3.486,2.108,5.675,5.377,5.675,6.216,0,7.08-7.269,7.08-12.025V29.036a40.416,40.416,0,0,0,4.946,4.729,1.369,1.369,0,0,0,.7.243A0.717,0.717,0,0,0,615.836,33.252Zm27.138,8.728a0.767,0.767,0,0,0-.27-0.595l-10.755-8.674V29.928h7.458a0.77,0.77,0,1,0,0-1.54h-7.458V24.929a0.784,0.784,0,0,0-1.568,0v3.459H623.49a0.77,0.77,0,1,0,0,1.54h6.891v2.756l-6.053,6.7-3.756,1.27a0.78,0.78,0,0,0-.541.73,0.761,0.761,0,0,0,.784.757,0.748,0.748,0,0,0,.243-0.027l3.973-1.3a0.854,0.854,0,0,0,.324-0.216l5.864-6.513L641.731,42.6a0.753,0.753,0,0,0,.486.162,0.766,0.766,0,0,0,.6-0.27A0.89,0.89,0,0,0,642.974,41.98ZM634.3,40.954a0.8,0.8,0,0,0-.784-0.784H629.49a0.784,0.784,0,1,0,0,1.567h4.026A0.8,0.8,0,0,0,634.3,40.954ZM664.293,34.8c0-3.963-2.979-6.558-7.615-6.558-5.428,0-8.671,3.843-8.671,7.566,0,3.315,1.585,4.468,2.979,4.468,1.056,0,2.257-1.3,3.218-3.027a20.61,20.61,0,0,0,2.258-6.413v-1.2h0.361c3.771,0,6.077,1.994,6.077,5.164,0,2.738-3.483,5.5-6.942,5.5a0.7,0.7,0,1,0,0,1.393C660.233,41.7,664.293,38.359,664.293,34.8Zm-9.224-4.035c-0.889,4.636-3.219,8.119-4.083,8.119s-1.586-1.009-1.586-3.075c0-2.666,2.09-5.4,5.669-6.029v0.985Zm-178.817,39V61.834a1.557,1.557,0,0,0-1.566-1.512H457.9v-4.7a1.565,1.565,0,1,0-3.131,0v4.7H438.194a1.556,1.556,0,0,0-1.565,1.512V69.77a1.567,1.567,0,0,0,1.565,1.566,1.6,1.6,0,0,0,1.566-1.565V63.4h33.361v6.37a1.6,1.6,0,0,0,1.565,1.566A1.567,1.567,0,0,0,476.252,69.77Zm4.48,8.475a1.613,1.613,0,0,0-1.619-1.565H457.9V70.148h9.231a1.566,1.566,0,0,0,0-3.131H445.7a1.566,1.566,0,1,0,0,3.131h9.069v6.532H433.714a1.567,1.567,0,0,0-1.566,1.566,1.614,1.614,0,0,0,1.566,1.619h21.053V90.553h-5.614a1.6,1.6,0,0,0-1.566,1.566,1.567,1.567,0,0,0,1.566,1.566h7.179a1.567,1.567,0,0,0,1.566-1.565V79.864h21.215A1.66,1.66,0,0,0,480.732,78.245Zm44.066-7.4V62.266a1.6,1.6,0,0,0-1.566-1.565H506.444V56.112a1.565,1.565,0,1,0-3.131,0V60.7H486.74a1.6,1.6,0,0,0-1.565,1.566v8.583a1.567,1.567,0,0,0,1.565,1.566,1.6,1.6,0,0,0,1.566-1.565V63.832h33.361v7.018a1.6,1.6,0,0,0,1.565,1.566A1.567,1.567,0,0,0,524.8,70.849Zm-5.992,19.865V73.6a1.567,1.567,0,0,0-1.566-1.565H506.5V67.448a1.566,1.566,0,1,0-3.131,0v4.588H492.3a1.567,1.567,0,0,0-1.566,1.566V90.715A1.567,1.567,0,0,0,492.3,92.28H517.24A1.567,1.567,0,0,0,518.806,90.715Zm-3.131-1.565H506.5V83.535h6.1a1.539,1.539,0,1,0,0-3.077h-6.1v-5.29h9.177V89.149Zm-12.308,0h-9.5V75.168h9.5v5.29h-6.532a1.539,1.539,0,1,0,0,3.077h6.532v5.614Zm69.382,3.185V57.624a1.641,1.641,0,0,0-1.565-1.565H556.447a1.6,1.6,0,0,0-1.566,1.565v11.66a1.614,1.614,0,0,0,1.566,1.62h13.172V92.334a1.566,1.566,0,0,0,1.565,1.566A1.6,1.6,0,0,0,572.749,92.334Zm-5.614-10.472a1.336,1.336,0,0,0-1.349-1.35H557.8V76.086h4.535a1.429,1.429,0,0,0,1.4-1.4,1.348,1.348,0,0,0-1.4-1.35H541.386a1.349,1.349,0,0,0-1.4,1.35,1.429,1.429,0,0,0,1.4,1.4h4.75v4.427H538.9a1.377,1.377,0,1,0,0,2.753h7.233v2.861l-5.4,6.154a1.617,1.617,0,0,0-.324.972,1.408,1.408,0,0,0,1.512,1.35,1.276,1.276,0,0,0,1.025-.432l5.722-6.64a1.493,1.493,0,0,0,.27-0.864v-3.4h6.046v9.5a1.4,1.4,0,1,0,2.807,0v-9.5h7.99A1.349,1.349,0,0,0,567.135,81.862Zm-18.57-12.578V57.624A1.6,1.6,0,0,0,547,56.058H532.911a1.6,1.6,0,0,0-1.566,1.565V84.4l-4.588,6.8a1.792,1.792,0,0,0-.27.864,1.579,1.579,0,0,0,1.565,1.62,1.669,1.669,0,0,0,1.3-.7l4.8-7.234a1.189,1.189,0,0,0,.27-0.864V70.9H547A1.613,1.613,0,0,0,548.565,69.284Zm21.054-1.565H558.012V64.7h8.907a1.242,1.242,0,1,0,0-2.483h-8.907V59.243h11.607v8.475Zm-24.185,0H534.422V64.7h8.151a1.243,1.243,0,1,0,0-2.483h-8.151V59.243h11.012v8.475Zm9.555,12.794h-6.046V76.086h6.046v4.427ZM628.8,64.156a1.6,1.6,0,0,0-1.565-1.565H599.542a1.566,1.566,0,0,0-1.566,1.566,1.533,1.533,0,0,0,1.566,1.566h7.719V68.2L596.033,81a1.94,1.94,0,0,0-.378.972,1.614,1.614,0,0,0,1.565,1.62,1.735,1.735,0,0,0,1.188-.54l11.606-13.226a1.7,1.7,0,0,0,.378-1.026V65.721h16.843A1.567,1.567,0,0,0,628.8,64.156Zm-4.211,26.829V79.055a1.566,1.566,0,0,0-1.565-1.565H606.883a1.533,1.533,0,0,0-1.565,1.566v11.93a1.533,1.533,0,0,0,1.565,1.565h16.141A1.566,1.566,0,0,0,624.589,90.985ZM597.274,74.736a1.613,1.613,0,0,0-1.619-1.565,1.577,1.577,0,0,0-.486.108l-3.293,1.188V66.585h3.833a1.565,1.565,0,0,0,1.565-1.565,1.641,1.641,0,0,0-1.565-1.565h-3.833V56.6a1.652,1.652,0,0,0-1.565-1.62,1.614,1.614,0,0,0-1.566,1.62v6.856h-8.583a1.6,1.6,0,0,0-1.565,1.566,1.533,1.533,0,0,0,1.565,1.566h8.583v9.069l-8.8,3.239a1.59,1.59,0,0,0,.54,3.077,1.922,1.922,0,0,0,.54-0.108L588.745,79V90.553h-5.722a1.641,1.641,0,0,0-1.565,1.566,1.613,1.613,0,0,0,1.565,1.619h7.288a1.614,1.614,0,0,0,1.565-1.619V77.867l4.319-1.62A1.6,1.6,0,0,0,597.274,74.736Zm24.184,14.683H608.449v-8.8h13.009v8.8ZM677.671,92.6a1.575,1.575,0,0,0-1.026-1.511L655,83.643a1.94,1.94,0,0,0,.108-0.594V76.086h11.012a1.567,1.567,0,0,0,1.566-1.565V63.886a1.567,1.567,0,0,0-1.566-1.565H655.106V57.246a1.566,1.566,0,1,0-3.131,0V62.32H640.639a1.567,1.567,0,0,0-1.566,1.566V74.52a1.567,1.567,0,0,0,1.566,1.566h11.336v5.938l-0.7.324-13.387-4.588a2.3,2.3,0,0,0-.594-0.108,1.478,1.478,0,0,0-1.458,1.566,1.506,1.506,0,0,0,1.026,1.458l10.473,3.617-15.116,7.4a1.557,1.557,0,0,0-.863,1.4,1.476,1.476,0,0,0,1.565,1.457,1.663,1.663,0,0,0,.7-0.162l17.922-8.637,24.076,8.313a1.5,1.5,0,0,0,.486.054,1.627,1.627,0,0,0,1.512-1.026A1.494,1.494,0,0,0,677.671,92.6Zm-13.118-19.65h-9.447v-7.5h9.447v7.5Zm-12.578,0H642.2v-7.5h9.771v7.5Z" transform="translate(-432.156 -22.188)"/>
</svg>
