<svg xmlns="http://www.w3.org/2000/svg" width="215.687" height="76.844" viewBox="0 0 215.687 76.844">
  <defs>
    <style>
      .cls-1 {
        fill: #2b546a;
        fill-rule: evenodd;
      }
    </style>
  </defs>
  <path id="_10_title.svg" data-name="10_title.svg" class="cls-1" d="M482.2,31.172a0.736,0.736,0,0,0-.243-0.567l-2.676-2.216a0.746,0.746,0,0,0-1.243.54,0.758,0.758,0,0,0,.271.568l2.675,2.243a0.692,0.692,0,0,0,.486.189A0.733,0.733,0,0,0,482.2,31.172Zm-3.513,1.189a0.81,0.81,0,0,0-.162-0.486L476.146,29.2a0.779,0.779,0,0,0-.568-0.243,0.731,0.731,0,0,0-.756.73,0.713,0.713,0,0,0,.189.513l2.378,2.675a0.763,0.763,0,0,0,.54.243A0.737,0.737,0,0,0,478.686,32.361Zm2.027,10.161a0.8,0.8,0,0,0-.784-0.784c-0.946,0-3.837-1.784-7.242-3.837l-2.513-1.513V31.172a0.8,0.8,0,0,0-.784-0.784,0.785,0.785,0,0,0-.784.784v16.7a0.785,0.785,0,0,0,.784.784,0.8,0.8,0,0,0,.784-0.784v-9.62l1.675,1c4.459,2.648,6.729,4.053,8.08,4.053A0.785,0.785,0,0,0,480.713,42.522Zm23.518-10.647a0.8,0.8,0,0,0-.783-0.784H492.476a0.822,0.822,0,0,0-.784.784,0.8,0.8,0,0,0,.784.784h10.972A0.784,0.784,0,0,0,504.231,31.875Zm0.865,5.972V36.361a0.784,0.784,0,0,0-.784-0.784H490.774a0.784,0.784,0,1,0,0,1.567h12.755v0.7c0,1.486-3.351,7.431-12.755,9.161a0.759,0.759,0,0,0-.622.757,0.8,0.8,0,0,0,.784.784h0.135C501.015,46.71,505.1,40.306,505.1,37.847Zm21.816-6.161a0.8,0.8,0,0,0-.783-0.784h-9a0.8,0.8,0,0,0-.784.784,0.785,0.785,0,0,0,.784.784h9A0.784,0.784,0,0,0,526.912,31.686Zm5.324,15.457a0.768,0.768,0,0,0-.784-0.784h-3.486c-1.621,0-2.945-.189-3.486-0.7a1.5,1.5,0,0,1-.324-1.189c0-2.108-.7-3.567-2.135-3.81l4.864-4.108a0.783,0.783,0,0,0,.27-0.622,0.816,0.816,0,0,0-.783-0.784H515.536a0.8,0.8,0,0,0-.784.784,0.784,0.784,0,0,0,.784.784h8.674l-11.08,9.4a0.745,0.745,0,0,0-.3.568,0.79,0.79,0,0,0,.811.784,0.808,0.808,0,0,0,.486-0.162l5.729-4.837a5.092,5.092,0,0,1,1.676-.3c0.513,0,1.054.081,1.054,2.3,0,2.729,1.756,3.459,5.377,3.459h3.486A0.768,0.768,0,0,0,532.236,47.143Zm23.127-11.728a0.784,0.784,0,0,0-.784-0.784h-9.133v-3.54a0.785,0.785,0,0,0-.784-0.784,0.8,0.8,0,0,0-.784.784v3.54h-5.837a0.784,0.784,0,0,0-.783.784,0.8,0.8,0,0,0,.783.784h5.837l-0.054,3.3h-4.7a0.77,0.77,0,1,0,0,1.54H543.8v1.973c0,4.216.946,5.648,3.919,5.648a9.877,9.877,0,0,0,7.134-3.4,0.694,0.694,0,0,0,.189-0.486,0.808,0.808,0,0,0-.784-0.811,0.765,0.765,0,0,0-.594.27,8.513,8.513,0,0,1-5.945,2.864c-1.7,0-2.352-.73-2.352-3.945,0-.486,0-1.243.028-2.108h5.864a0.77,0.77,0,1,0,0-1.54h-5.864l0.054-3.3h9.133A0.8,0.8,0,0,0,555.363,35.415Zm28.066,8.3a0.808,0.808,0,0,0-.811-0.784,0.731,0.731,0,0,0-.54.216,9.848,9.848,0,0,1-6.567,3.081c-2.594,0-.162-7.81-4.648-7.81a6.961,6.961,0,0,0-2.405.459l3.81-7.215a0.833,0.833,0,0,0,.081-0.351,0.777,0.777,0,0,0-1.459-.405l-8.323,15.728a0.863,0.863,0,0,0-.081.378,0.778,0.778,0,0,0,.756.784,0.806,0.806,0,0,0,.7-0.405L567,41.63a5.585,5.585,0,0,1,3.864-1.648c2.756,0,.189,7.81,4.648,7.81a11.527,11.527,0,0,0,7.674-3.54A0.892,0.892,0,0,0,583.429,43.711Zm25.122-3.972c0-4.459-3.351-7.377-8.567-7.377-6.107,0-9.755,4.324-9.755,8.512,0,3.729,1.784,5.026,3.351,5.026,1.189,0,2.54-1.459,3.621-3.4a23.217,23.217,0,0,0,2.54-7.215V33.928h0.406c4.242,0,6.836,2.243,6.836,5.81,0,3.081-3.918,6.188-7.809,6.188a0.784,0.784,0,1,0,0,1.567C603.984,47.494,608.551,43.738,608.551,39.738ZM598.174,35.2c-1,5.215-3.621,9.134-4.594,9.134S591.8,43.2,591.8,40.873c0-3,2.351-6.08,6.378-6.783V35.2Zm38.743-2.973a0.761,0.761,0,0,0-.27-0.567l-2.73-2.135a0.716,0.716,0,0,0-1.135.567,0.645,0.645,0,0,0,.243.54l2.73,2.135a0.733,0.733,0,0,0,.459.162A0.7,0.7,0,0,0,636.917,32.226Zm-3.243,1.135a0.652,0.652,0,0,0-.189-0.486l-2.7-2.567a0.693,0.693,0,0,0-.486-0.189,0.681,0.681,0,0,0-.7.7,0.588,0.588,0,0,0,.217.486l2.7,2.594a0.632,0.632,0,0,0,.459.189A0.7,0.7,0,0,0,633.674,33.361Zm2.162,5.891a0.761,0.761,0,0,0-.27-0.568c-0.973-.73-2.487-1.811-6.405-6.134a0.766,0.766,0,0,0-.594-0.27,0.818,0.818,0,0,0-.784.784v0.054c0,1.189.135,2.324,0.135,3.351,0,3.756-.432,10.431-5.54,10.431-2.81,0-3.81-2.027-3.81-4.108,0-3.216,2.27-7.161,5.567-9.728a0.839,0.839,0,0,0,.27-0.649,0.754,0.754,0,0,0-.757-0.757h-7.863a0.77,0.77,0,1,0,0,1.54h5.81C618.811,35.982,617,39.657,617,42.792c0,3.486,2.108,5.675,5.377,5.675,6.216,0,7.08-7.269,7.08-12.025V35.036a40.416,40.416,0,0,0,4.946,4.729,1.369,1.369,0,0,0,.7.243A0.717,0.717,0,0,0,635.836,39.252Zm27.138,8.728a0.767,0.767,0,0,0-.27-0.595l-10.755-8.674V35.928h7.458a0.77,0.77,0,1,0,0-1.54h-7.458V30.929a0.784,0.784,0,0,0-1.568,0v3.459H643.49a0.77,0.77,0,1,0,0,1.54h6.891v2.756l-6.053,6.7-3.756,1.27a0.78,0.78,0,0,0-.541.73,0.761,0.761,0,0,0,.784.757,0.748,0.748,0,0,0,.243-0.027l3.973-1.3a0.854,0.854,0,0,0,.324-0.216l5.864-6.513L661.731,48.6a0.753,0.753,0,0,0,.486.162,0.766,0.766,0,0,0,.6-0.27A0.89,0.89,0,0,0,662.974,47.98ZM654.3,46.954a0.8,0.8,0,0,0-.784-0.784H649.49a0.784,0.784,0,1,0,0,1.567h4.026A0.8,0.8,0,0,0,654.3,46.954ZM684.293,40.8c0-3.963-2.979-6.558-7.615-6.558-5.428,0-8.671,3.843-8.671,7.566,0,3.315,1.585,4.468,2.979,4.468,1.056,0,2.257-1.3,3.218-3.027a20.61,20.61,0,0,0,2.258-6.413v-1.2h0.361c3.771,0,6.077,1.994,6.077,5.164,0,2.738-3.483,5.5-6.942,5.5a0.7,0.7,0,1,0,0,1.393C680.233,47.7,684.293,44.359,684.293,40.8Zm-9.224-4.035c-0.889,4.636-3.219,8.119-4.083,8.119s-1.586-1.009-1.586-3.075c0-2.666,2.09-5.4,5.669-6.029v0.985Zm-193.43,65.345,0.248,2.525,0.693,0.248,0.1-3.021,0.1,0.2,0.3,0.149-0.05,1.683,0.347,0.446,0.3-.2v-1.733l2.971-.05,27.577-.2,0.4,1.832,0.842-1.931L516,103.9l0.594-1.287L516.544,60.03l-0.248-.545-0.5-.2-0.049,2.228-0.594-1.634-0.3.3v0.693h-0.5l-0.3-1.535-0.445.148v1.683l-28.815-.4-0.248-1.386-0.4.545-0.148,1.535-0.3.2-0.2-1.98-0.6.346-0.148,1.832-0.3-2.03-0.545.446,0.05,2.475Zm9.407-28.072,0.149-5.248,16.14,0.1,0.049,8.516-16.239-.149Zm0.1,17.428,0.05-6.733,16.189,0.248,0.05,8.862-16.239.1ZM524.03,69.784l0.2,0.3,2.624,0.545-1.634.445,0.2,0.792,0.545,0.148-0.991.5v0.3l1.288,0.545-1.238.3,0.5,0.792,12.031-.248c-0.644,2.872-4.01,8.12-7.625,11.932l-4.01,3.565c-0.1.149-.495,0.545-1.089,1.238l0.3,0.644,0.941-.545-0.693,1.238,0.643,0.2,0.891-.446,0.05,0.2-0.891,1.931,0.1,0.05,2.723-1.485-2.179,3.02,0.545-.049,2.079-1.337a5.629,5.629,0,0,0-1.287,2.624l1.683-.792-0.445,1.584,0.594,0.149,0.644-.347-0.4,1.139,0.5,0.3c0.693-.545,1.485-1.139,2.475-1.881,0.149-.148.594-0.594,1.238-1.287,0.2-.248.792-0.842,1.436-1.485l1.386,0.3-1.337.644,0.594,0.594,1.387,0.149-2.08.545,0.2,0.5H536.8V97.41l-1.138.347,0.1,0.5a5.308,5.308,0,0,0,1.782.3l2.971-.049c0.346,0,.792,0,1.584.049v1.139c0,1.139,0,1.634-.05,2.228v0.445a5.779,5.779,0,0,0,.5,2.327h0.346l0.248-.891,0.346,0.4,0.545-.049,0.5,0.792,0.4-.149,0.3-1.93,0.347,1.485h0.742l0.248-1.485,0.347,1.485,0.742,0.1,0.2-1.04,0.743,1.634,0.247-.049,0.347-1.733,0.3,1.287,0.644-.05,0.148-.445,0.248,0.643,0.5,0.05V98.4l7.327,0.248,0.149-.2-0.5-.891L557.2,97.41l0.247-.248v-0.4l1.04-.3,0.1-.149-1.535-.644,0.594-.347-0.2-.5-1.139-.2,1.337-.545V93.747l-0.5-.347,0.545-.148c3.565,3.367,4.9,4.406,7.278,5.743l0.841-.1V98.6l0.2-.2,0.891,0.248L567.054,98l-0.742-1.386,1.485,0.2-1.386-2.278,0.693,0.347,0.693-.248-0.446-.743,1.684,0.4-0.05-.644-0.792-1.287,1.188,0.049,0.248-.3-0.4-1.089,0.2-.3,0.94,0.2-0.1-.693c-0.643-.545-1.039-0.941-1.188-1.04l-1.04-.743a27.02,27.02,0,0,1-5.1-4.159c-3.02-3.119-4.357-4.951-7.229-9.9,0.446,0.05.793,0.1,0.842,0.1l7.328-.149,3.762,0.1a6.208,6.208,0,0,0,1.09-.4l0.1-.4-0.892-.3,1.09-.5v-0.3l-0.892-.347,0.347-.3-0.049-.1-0.991-.594,1.139-.594v-0.3l-1.188-.446,1.733-.693,0.247-.347L567.3,68.15l1.139-.644,0.049-.347-0.99-.3,1.287-.792a4.014,4.014,0,0,0-1.683-.594c-0.248,0-.792.05-1.535,0.1l-3.416-.049-9.457.148c-0.1,0-.594-0.05-1.287-0.1-0.05-.743-0.1-1.436-0.1-1.683l-0.1-3.466a11.465,11.465,0,0,0-.3-1.535l-0.3.149-0.248.644-0.594-.2-0.346,1.139-0.4-1.634-0.4-.1-0.594,1.04-0.2-.3-0.594.149-0.346-.693-0.6.446-0.2,1.584-0.643-1.634h-0.4l-0.4.99-0.4-1.089-0.544-.148-0.248.891-0.445-1.238-0.5.4-0.2,6.288c-0.842.049-1.486,0.049-1.931,0.049-1.04.05-1.684,0.05-1.882,0.05l-10.892-.148c-0.2,0-1.139.148-2.525,0.4l0.1,0.545-0.3.248v0.594l1.386,0.446L525.416,68l-0.3.347,0.446,0.594Zm14.556,20.349a37.1,37.1,0,0,0,4.159-7.179l-0.05,7.08Zm12.377,0.1-0.049-8.466a27.885,27.885,0,0,0,5,8.417Zm23.562-24.508,0.148,0.248,1.436,0.248-0.693.644,0.743,0.148-1.486.644,0.2,0.545,0.644,0.3-0.891.4,0.3,0.4,12.972,0.1,1.287-.3,0.148-.545-0.5-.1,0.693-.148,0.05-.5,1.287,0.2-1.733,11.09,0.693-.1,0.1-.446L590.368,78h3.119v2.03l-0.049,2.03-1.783-2.079-0.544.347,0.2,0.792-0.792.2,0.495,1.188-0.693-.3-0.446.346,0.693,1.436-1.04-.3-0.1-.5-0.841-.148,0.792-.446-0.149-.5-0.693-.2,0.5-.4v-0.4l-2.376-.248,2.772-.693-0.148-.446-0.891-.05-0.248-.5,0.941-.347-0.792-.644-12.378.1-0.594.347,0.2,0.248,0.743,0.148v0.5l0.643,0.347-1.683,1.139,0.247,0.446,1.733,0.248-1.683.693,0.792,0.693-0.3.346,0.3,0.3-0.247.3-0.05.5,12.279-.1,0.3-.248,0.4,1.188-0.792-.446-0.2.5,0.4,0.792-9.556.148-0.643-1.386-0.4.842-0.5.049-0.2-.693-0.544.594-0.248,9.605v2.773l-0.148,4.208a12.894,12.894,0,0,0,.3,2.129l0.5-.346,0.148-1.733,0.545,0.4,0.148,1.287,0.595-.148,0.1-1.485,9.9,0.049,0.148,0.842,0.743-.446-0.05-1.584,0.347,0.049,0.545-.4-0.1.99,0.6,0.1-0.149.694,0.347,0.1,1.386-1.585-0.3,1.436,0.346,0.1,0.4-.693L592.4,103.6l0.446-.4-0.2.842,0.792,0.3a21.147,21.147,0,0,0,3.416-7.773c0.545,0.4,1.386.941,2.426,1.634,4.258,2.921,7.476,4.01,13.12,4.456,3.317,0.3,3.317.3,3.911,0.3a8.614,8.614,0,0,0,2.228-.446v-0.3l-1.633-.347,1.931-.5-0.446-.495-1.535-.247,1.238-.4,0.1-.347-1.04-.2,0.2-.148-0.2-.545,1.634-.5V98.1l-2.178-.4,1.782-.4,0.2-.4-0.3-.5-1.04-.148,1.485-.594-0.3-.594,0.4-.149,0.049-.644c-11.882-.05-12.08-0.1-16.734-2.773,4.753-.148,6.139-0.2,7.228-0.2a14.43,14.43,0,0,1,1.535.049l5.446,0.3h1.733l0.148-.248-0.049-.743,0.346-.3-0.148-.3-1.436-.3h0.1l1.733-.693-0.3-.4-2.377-.347,1.585-.644-0.149-.3-1.98-.347,2.723-.743-0.693-.594V85.28l0.5-.2-0.149-.594h-4.109v-5.4l3.713-.3,0.248-.248-0.842-.594,0.941-.4-0.5-.545h-1.535l1.436-.5-0.446-.4-1.683-.1,2.178-.693-0.445-.644h-1.535l1.98-.693-0.247-.5-1.387-.1,1.634-.3-0.693-.594h-2.773V67.655l3.763-1.238,0.3-.446-0.3-.347,0.1-.545-1.287.1,0.3-.792-0.5-.05,0.99-1.04-0.445-.346-1.486.148,0.792-.545,0.248-.644-1.733.248,0.743-.792-0.2-.3-1.189.2,0.892-.99-0.446-.347c-0.693.149-1.238,0.248-1.485,0.3-0.248.1-1.287,0.446-2.921,0.99a68.486,68.486,0,0,1-8.269,1.931c-1.336.248-1.732,0.347-3.218,0.693l-0.1.5,0.545,0.1,0.247,0.545-0.891.594v0.347l0.941,0.149-0.347.3,0.1,0.4,1.882-.148L599.23,68.2l0.446,0.5,0.743,0.148-0.594.3,0.544,0.5,7.13-.842-0.4,15.942h-1.189V70.625l-0.4-.5-0.693.941h-0.5l-0.3-.693-0.594-.148-0.347,1.634-0.5-.941-0.5-.049-0.149.644-1.089-1.04V84.785l-1.931-.05a55.684,55.684,0,0,0,.3-5.892c0-5.248-.049-6.09-0.5-8.318l-0.4.2-0.148.99-0.3-1.287-0.446.248-0.1.792h-0.891l1.634-11.684-0.5.1-0.446.941-0.4.248-0.2-1.04-0.644.842-7.377.4-0.247.149-0.3.644,0.792,0.3,0.2,0.4,0.445,0.148-3.366.05v-2.08a2.532,2.532,0,0,0-.5-1.733l-0.793,1.287-0.544-.792-0.5.4-0.1.99-0.594-1.683h-0.4L582.4,60.426l-0.4-.2-0.2.99-0.743-2.278-0.247-.1-0.3,1.337-0.248-.4-0.693-.2-0.149.4h-0.3l-0.049-.248-0.2.05-0.347-.2-0.148.2V63.05l-3.12.1-0.742.594,0.693,0.2v0.247l-0.545.248,1.387,0.594Zm7.327,30.6L582.1,92.36l1.832-.049-0.149,4.01h-1.931ZM589.13,93.4V87.558l2.228,2.971a14.612,14.612,0,0,1-2.129,4.9ZM575.614,72.7l0.049,0.4,2.674,0.347-0.891.2v0.248l-1.287.792,0.544,0.446H577.3l-0.643.545,0.148,0.347-0.5.4,0.248,0.347c1.039,0.049,1.435.049,2.327,0.049l6.634-.049,1.485,0.1a3.607,3.607,0,0,0,1.684-.545l-0.149-.445-0.445-.149-0.2-.4,0.792-.347-0.149-.891-1.436-.149,1.585-.891-0.495-.446,0.346-.149,0.05-.594-1.189-.05,0.842-.3,0.1-.644-11.981.446,0.1,0.446H576.6Zm55.04-11.684a68.007,68.007,0,0,1-3.713,14.853l-1.634,3.911c-0.1.2-.248,0.693-0.545,1.436a0.672,0.672,0,0,0,.347.545l0.5-.5,0.4,1.584h0.248l1.336-2.129v1.139l0.446-.148-0.347,3.466,1.139-1.436,0.05,0.248,0.247-.049,0.2,0.891h0.446l0.644-1.04-0.149,2.129,0.446-.248,0.742-1.04h0.693l-0.792.347,0.347,0.792-0.347.2,2.129,0.693L631,87.607l0.247,0.545h12.081l-0.05,5.5-1.733.049h-2.871l-11.883-.149a2.086,2.086,0,0,0-1.089.4l0.5,0.5,0.743,0.2-1.535.743,0.4,0.347,2.921,0.3-1.733.594,0.2,0.4,1.238,0.248L626.05,98.3l1.733,0.1-1.288.445,0.1,0.644,0.941,0.3-1.436.347,0.1,0.247-0.1.149,0.5,0.445,1.139,0.149-1.337.1-0.1.148h-0.148l-0.3.347v0.2l0.247,0.247,0.792,0.05,21.488,0.049,9.555,0.1c1.288,0.149,2.129.2,2.476,0.2l4.951,0.1,1.485,0.1a9.44,9.44,0,0,0,2.327-.347l0.2-.3,0.1-.149-0.1-.4-1.386-.346,0.5-.248,0.2-.247-1.188-.495,1.931-.545-0.149-.446-1.337-.446,0.892-.4-0.149-.693,0.941-.4-0.149-.644-2.228-.446,1.585-.248-0.05-.693-0.842-.2,0.694-.594-0.1-.347,0.148-.3c-0.792-.1-1.386-0.148-1.634-0.148s-1.634.05-3.763,0.2h-1.732l-5.6-.148-3.317-.1L652.488,88c1.585,0.1,10.942.3,11.586,0.248a16.158,16.158,0,0,0,1.831-.4l-0.5-.941-1.782-.347,1.98-1.089-1.831-.4,2.327-.792-0.4-.4-2.475-.4,2.475-.644V82.706l-1.732-.644,1.683-.743-1.584-.4,0.742-.446,0.446-.148-0.347-.693-12.674.149,0.1-5.2h13.615l2.079-.2-0.2-.545L666.8,73.5l1.683-.594-0.248-.4-1.435-.247,1.336-1.238L667,70.675l1.089-.644-0.3-.5-1.683-.1,0.4-.347-0.1-.4-0.694-.1,1.585-.545,0.1-.644-2.08-.3,2.377-.693-0.2-.446,0.247-.3-15.4-.05L652.29,58.2h-0.346l-0.2.5-0.5.248L651,60.476l-0.941-1.485-0.544.545-0.149,1.139L648.577,58.3l-0.2.1-0.5,1.188-0.2-.644-0.743.3-0.1,1.089L645.9,58.248h-0.2l-0.346,2.129-0.2-1.139-0.644.05-0.248.594-0.544-.99-0.594.693-0.1,6.139h-4.11l0.2-3.119-0.693-.842-0.3.99-0.445-1.238-0.347.1-0.5,1.634-0.4-1.089-0.545-.1-0.544.99-0.3-2.178-0.2-.2-0.94,2.278-0.248-1.733-0.2-.248-1.089,1.089-0.248-1.089-0.4.248-0.3-.644Zm5.2,18.418,0.841-2.525,0.6-2.426,5.941-.149,0.1,5.05Z" transform="translate(-468.594 -28.188)"/>
</svg>
