<svg xmlns="http://www.w3.org/2000/svg" width="262.719" height="74.75" viewBox="0 0 262.719 74.75">
  <defs>
    <style>
      .cls-1 {
        fill: #2b546a;
        fill-rule: evenodd;
      }
    </style>
  </defs>
  <path id="_11_title.svg" data-name="11_title.svg" class="cls-1" d="M501.242,22.172A0.736,0.736,0,0,0,501,21.6l-2.676-2.216a0.746,0.746,0,0,0-1.243.54,0.761,0.761,0,0,0,.27.568l2.676,2.243a0.692,0.692,0,0,0,.486.189A0.733,0.733,0,0,0,501.242,22.172Zm-3.513,1.189a0.81,0.81,0,0,0-.162-0.486L495.189,20.2a0.78,0.78,0,0,0-.568-0.243,0.732,0.732,0,0,0-.757.73,0.714,0.714,0,0,0,.19.513l2.378,2.675a0.763,0.763,0,0,0,.54.243A0.738,0.738,0,0,0,497.729,23.361Zm2.026,10.161a0.8,0.8,0,0,0-.783-0.784c-0.946,0-3.837-1.784-7.242-3.837l-2.514-1.513V22.172a0.8,0.8,0,0,0-.783-0.784,0.784,0.784,0,0,0-.784.784v16.7a0.784,0.784,0,0,0,.784.784,0.8,0.8,0,0,0,.783-0.784v-9.62l1.676,1c4.459,2.648,6.729,4.053,8.08,4.053A0.784,0.784,0,0,0,499.755,33.522Zm23.519-10.647a0.8,0.8,0,0,0-.784-0.784H511.519a0.822,0.822,0,0,0-.784.784,0.8,0.8,0,0,0,.784.784H522.49A0.784,0.784,0,0,0,523.274,22.875Zm0.865,5.972V27.361a0.784,0.784,0,0,0-.784-0.784H509.817a0.784,0.784,0,1,0,0,1.567h12.755v0.7c0,1.486-3.351,7.431-12.755,9.161a0.759,0.759,0,0,0-.622.757,0.8,0.8,0,0,0,.784.784h0.135C520.058,37.71,524.139,31.306,524.139,28.847Zm21.816-6.161a0.8,0.8,0,0,0-.784-0.784h-9a0.8,0.8,0,0,0-.784.784,0.784,0.784,0,0,0,.784.784h9A0.784,0.784,0,0,0,545.955,22.686Zm5.324,15.457a0.768,0.768,0,0,0-.784-0.784h-3.486c-1.621,0-2.945-.189-3.486-0.7a1.5,1.5,0,0,1-.324-1.189c0-2.108-.7-3.567-2.135-3.81l4.864-4.107a0.783,0.783,0,0,0,.27-0.622,0.816,0.816,0,0,0-.783-0.784H534.578a0.8,0.8,0,0,0-.783.784,0.784,0.784,0,0,0,.783.784h8.675l-11.08,9.4a0.745,0.745,0,0,0-.3.568,0.789,0.789,0,0,0,.811.784,0.808,0.808,0,0,0,.486-0.162l5.729-4.837a5.092,5.092,0,0,1,1.676-.3c0.513,0,1.053.081,1.053,2.3,0,2.729,1.757,3.459,5.378,3.459H550.5A0.768,0.768,0,0,0,551.279,38.143Zm23.127-11.728a0.784,0.784,0,0,0-.784-0.784h-9.134v-3.54a0.784,0.784,0,0,0-.783-0.784,0.8,0.8,0,0,0-.784.784v3.54h-5.837a0.784,0.784,0,0,0-.783.784,0.8,0.8,0,0,0,.783.784h5.837l-0.054,3.3h-4.7a0.77,0.77,0,1,0,0,1.54h4.675v1.973c0,4.216.946,5.648,3.918,5.648a9.878,9.878,0,0,0,7.135-3.4,0.694,0.694,0,0,0,.189-0.486,0.808,0.808,0,0,0-.784-0.811,0.765,0.765,0,0,0-.594.27,8.513,8.513,0,0,1-5.946,2.864c-1.7,0-2.351-.73-2.351-3.945,0-.486,0-1.243.027-2.108H570.3a0.77,0.77,0,1,0,0-1.54h-5.864l0.054-3.3h9.134A0.8,0.8,0,0,0,574.406,26.415Zm28.066,8.3a0.808,0.808,0,0,0-.811-0.784,0.735,0.735,0,0,0-.541.216,9.844,9.844,0,0,1-6.566,3.081c-2.594,0-.162-7.81-4.648-7.81a6.961,6.961,0,0,0-2.4.459l3.81-7.215a0.833,0.833,0,0,0,.081-0.351,0.777,0.777,0,0,0-1.459-.405L581.61,37.629a0.863,0.863,0,0,0-.081.378,0.778,0.778,0,0,0,.756.784,0.806,0.806,0,0,0,.7-0.405l3.054-5.756a5.585,5.585,0,0,1,3.864-1.648c2.756,0,.189,7.81,4.648,7.81a11.527,11.527,0,0,0,7.674-3.54A0.892,0.892,0,0,0,602.472,34.711Zm25.122-3.972c0-4.459-3.351-7.377-8.567-7.377-6.107,0-9.755,4.324-9.755,8.512,0,3.729,1.784,5.026,3.351,5.026,1.189,0,2.54-1.459,3.621-3.4a23.217,23.217,0,0,0,2.54-7.215V24.928h0.406c4.242,0,6.836,2.243,6.836,5.81,0,3.081-3.918,6.188-7.809,6.188a0.784,0.784,0,1,0,0,1.567C623.027,38.494,627.594,34.738,627.594,30.738ZM617.217,26.2c-1,5.215-3.621,9.134-4.594,9.134s-1.784-1.135-1.784-3.459c0-3,2.351-6.08,6.378-6.783V26.2Zm38.743-2.972a0.758,0.758,0,0,0-.271-0.567l-2.729-2.135a0.716,0.716,0,0,0-1.135.567,0.645,0.645,0,0,0,.243.54l2.73,2.135a0.733,0.733,0,0,0,.459.162A0.7,0.7,0,0,0,655.96,23.226Zm-3.243,1.135a0.652,0.652,0,0,0-.189-0.486l-2.7-2.567a0.693,0.693,0,0,0-.486-0.189,0.681,0.681,0,0,0-.7.7,0.585,0.585,0,0,0,.217.486l2.7,2.594a0.632,0.632,0,0,0,.459.189A0.7,0.7,0,0,0,652.717,24.361Zm2.162,5.891a0.761,0.761,0,0,0-.27-0.567c-0.973-.73-2.487-1.811-6.405-6.134a0.766,0.766,0,0,0-.594-0.27,0.818,0.818,0,0,0-.784.784v0.054c0,1.189.135,2.324,0.135,3.351,0,3.756-.432,10.431-5.54,10.431-2.81,0-3.81-2.027-3.81-4.108,0-3.216,2.27-7.161,5.567-9.728a0.839,0.839,0,0,0,.27-0.649,0.754,0.754,0,0,0-.757-0.757h-7.863a0.77,0.77,0,1,0,0,1.54h5.81c-2.784,2.783-4.594,6.459-4.594,9.593,0,3.486,2.107,5.675,5.377,5.675,6.216,0,7.08-7.269,7.08-12.025V26.036a40.416,40.416,0,0,0,4.946,4.729,1.369,1.369,0,0,0,.7.243A0.718,0.718,0,0,0,654.879,30.252Zm27.138,8.728a0.767,0.767,0,0,0-.27-0.595l-10.755-8.674V26.928h7.458a0.77,0.77,0,1,0,0-1.54h-7.458V21.929a0.784,0.784,0,0,0-1.568,0v3.459h-6.891a0.77,0.77,0,1,0,0,1.54h6.891v2.756l-6.053,6.7-3.756,1.27a0.78,0.78,0,0,0-.541.73,0.761,0.761,0,0,0,.784.757,0.748,0.748,0,0,0,.243-0.027l3.973-1.3A0.854,0.854,0,0,0,664.4,37.6l5.864-6.513L680.774,39.6a0.753,0.753,0,0,0,.486.162,0.766,0.766,0,0,0,.6-0.27A0.89,0.89,0,0,0,682.017,38.98Zm-8.674-1.027a0.8,0.8,0,0,0-.784-0.784h-4.027a0.784,0.784,0,0,0,0,1.567h4.027A0.8,0.8,0,0,0,673.343,37.954Zm29.378,0.192a0.667,0.667,0,0,0-.7-0.7l-6,.264c-0.408.024-.816,0.024-1.177,0.024-3.963,0-4.612-1.033-4.612-1.777,0-2.786,6.318-6.2,10.041-7.687a0.673,0.673,0,0,0,.432-0.625,0.692,0.692,0,0,0-.672-0.7,1.036,1.036,0,0,0-.265.048,34.8,34.8,0,0,0-6.245,3.171l-0.841-6.1a0.661,0.661,0,0,0-.7-0.576,0.678,0.678,0,0,0-.673.7l0.937,6.87c-1.922,1.465-3.387,3.171-3.387,4.9,0,1.633.817,3.171,5.765,3.171,0.408,0,.841,0,1.321-0.024l6.149-.288A0.662,0.662,0,0,0,702.721,38.146ZM501.668,60.434a1.458,1.458,0,0,0-1.709-1.439l-32.7.18a2.289,2.289,0,0,0-2.428-1.934c-1.619,0-2.789.72-2.789,2.339,0,1.169.585,2.159,2.519,2.159l32.607-.18c-0.765,3.823-6.522,11.379-13.538,15.381l2.249,1.754C493.663,74.151,501.668,64.8,501.668,60.434ZM482.959,70.958V67.27a1.794,1.794,0,0,0-2.024-1.979c-2.069,0-3.6.854-3.6,2.294a2.193,2.193,0,0,0,1.8,1.889v1.574c0,6.971-3.733,16.911-17.046,20.239l1.4,2.159C477.337,90.072,482.959,80.088,482.959,70.958Zm60.921-5.577V62.458H514.961a2.338,2.338,0,0,0-2.519-2.024c-1.754,0-2.743.9-2.743,2.519a2.21,2.21,0,0,0,2.519,2.429H543.88Zm3.058,20.958a2.635,2.635,0,0,0-5.217-.45H507.585v2.923h36.834A2.222,2.222,0,0,0,546.938,86.339Zm44.955-23.432c0-1.034-.45-1.709-1.889-1.709H557.577a2.5,2.5,0,0,0-2.7-2.069,2.426,2.426,0,0,0-2.7,2.563c0,1.3.72,2.114,2.519,2.114h32.517c-0.315,1.979-6.927,10.794-15.382,16.551-2.653-2.833-5.532-5.712-7.915-8.005l-2.159,1.8c4.138,4.183,12.413,13.537,13.9,15.966a2.207,2.207,0,0,0-.5,1.394,2.368,2.368,0,0,0,2.519,2.2,2.593,2.593,0,0,0,2.519-2.474c0-2.384-5.038-7.331-6.522-8.905C584.247,75.186,591.893,65.921,591.893,62.908Zm45.359,2.519-2.474-.9c-2.833,12.818-13.312,22.712-17.585,23.657V58.545c0-1.214-.674-2.114-2.473-2.114-2.069,0-2.879,1.079-2.879,2.249a2.027,2.027,0,0,0,1.664,2.069V90.207a2.869,2.869,0,0,0,2.789,2.519C619.667,92.726,632.979,83.326,637.252,65.426ZM605.59,58.455c0-1.349-1.394-1.934-2.7-1.934-1.889,0-2.923,1.034-2.923,1.934a2.129,2.129,0,0,0,2.024,2.069c0,16.236-1.664,25.006-8.366,31.257l2.114,1.664C603.476,86.474,605.59,78.334,605.59,58.455Zm74.7,21a2.022,2.022,0,0,0-1.214-1.8l0.81-5.937-1.709-.45c-1.35,4.992-1.53,5.847-2.339,5.847-2.024,0-4.318-1.3-6.3-3.823,4.948-4.407,7.106-8.545,7.106-9.4,0-.495-0.629-0.765-3.148-1.169a27.271,27.271,0,0,1-5.532,8.1,25.658,25.658,0,0,1-2.7-9.849h11.873c1.619,0,2.294-.675,2.294-1.844a2.325,2.325,0,0,0-2.564-2.429,2.266,2.266,0,0,0-2.473,1.8H671.97a1.665,1.665,0,0,0,.855-1.484c0-1.3-1.17-2.654-5.262-3.823l-1.125,1.124a16.416,16.416,0,0,1,3.014,2.653V57.2a1.37,1.37,0,0,0,.854,1.3h-5.217l-0.045-4.183c0-.72-0.36-1.214-1.664-1.214-1.214,0-1.574.585-1.574,1.214l0.045,4.183H639.588v2.474h22.4a29.568,29.568,0,0,0,3.553,12.053,41.153,41.153,0,0,1-9.67,6.072l1.8,1.484a41.552,41.552,0,0,0,9.355-5.307c3.058,4.093,7.061,6.162,10.614,6.162C679.3,81.437,680.29,80.583,680.29,79.458Zm-1.3,10.569c0-1.484-1.169-4.228-7.106-8.5l-1.574,1.034c2.069,2.294,4.363,5.487,4.812,6.836a1.65,1.65,0,0,0-.18.809,1.956,1.956,0,0,0,2.159,1.934A1.987,1.987,0,0,0,678.986,90.027ZM660.367,64.392a2.377,2.377,0,0,0-2.609-2.159,2.007,2.007,0,0,0-2.024,1.169h-8.5c0-.585-0.36-1.124-1.664-1.124-1.259,0-1.619.54-1.619,1.124v9.8h3.283V71.588h8.41v1.079h3.194V66.416A2.3,2.3,0,0,0,660.367,64.392Zm3.778,21.453c0-1.8-3.239-4.093-6.477-5.262l-1.214,1.349a21.76,21.76,0,0,1,3.868,3.688,0.99,0.99,0,0,0-.045.36,1.921,1.921,0,0,0,2.024,1.8A1.873,1.873,0,0,0,664.145,85.845ZM660.1,75.411l-0.225-1.8c-10.3,1.754-16.1,2.294-19.609,2.564,0.27,2.609.585,3.193,1.394,3.193C643.231,79.368,651.956,77.7,660.1,75.411Zm11.154,15.471a2.047,2.047,0,0,0-1.844-2.114l0.269-4.273h-1.709l-0.944,4.5c-0.225,1.124-.855,1.529-2.159,1.529H655.24c-1.26,0-1.395-.54-1.395-1.214v-7.2c0-.855-0.449-1.349-1.754-1.349-1.214,0-1.664.63-1.664,1.349V89.8c0,2.519,1.215,3.823,4.543,3.823h11.063C669.946,93.625,671.251,92.456,671.251,90.882Zm-24.422-7.96V82.247l-2.113-.045c-0.5,2.339-1.665,5.4-2.744,6.341-1.664.09-2.294,1.079-2.294,2.069a2.1,2.1,0,0,0,2.2,2.2C645.66,92.816,646.829,86.025,646.829,82.921Zm8.815-13.672h-8.41V65.7h8.41v3.553ZM719.43,56.521a2.472,2.472,0,0,0-2.7-2.294,2.149,2.149,0,0,0-2.158,1.214H693.525v-0.09c0-.63-0.36-1.214-1.754-1.214s-1.8.585-1.8,1.214v17.09h3.553V70.823h20.913v1.619h3.553V58.635A2.372,2.372,0,0,0,719.43,56.521Zm5.307,35.44c0-1.439-.99-2.384-2.789-2.384a2.329,2.329,0,0,0-2.608,1.889H705.8V86.474h11.783c1.664,0,2.339-.72,2.339-1.979,0-1.484-.99-2.429-2.789-2.429a2.329,2.329,0,0,0-2.608,1.889H705.8v-4.5H718.98c1.664,0,2.384-.72,2.384-1.979,0-1.484-1.035-2.429-2.789-2.429a2.326,2.326,0,0,0-2.608,1.934H705.8V73.162c0-.585-0.36-1.169-1.754-1.169s-1.754.585-1.754,1.169v3.823h-8.006a7.376,7.376,0,0,0,1.124-2.384c0-.72-0.764-1.169-3.642-1.484-0.4,1.8-3.014,7.826-7.871,13.177l1.754,1.3a42.545,42.545,0,0,0,7.061-8.14h9.58v4.5H690.151v2.519H702.3v4.992h-18.26V93.94H722.4C724.062,93.94,724.737,93.221,724.737,91.961Zm-10.3-30.043H693.525V57.871h20.913v4.048Zm0,6.521H693.525V64.347h20.913V68.44Z" transform="translate(-462.031 -19.188)"/>
</svg>
