<svg xmlns="http://www.w3.org/2000/svg" width="317.313" height="77.063" viewBox="0 0 317.313 77.063">
  <defs>
    <style>
      .cls-1 {
        fill: #2b546a;
        fill-rule: evenodd;
      }
    </style>
  </defs>
  <path id="_09_title.svg" data-name="09_title.svg" class="cls-1" d="M484.2,23.172a0.736,0.736,0,0,0-.243-0.567l-2.676-2.216a0.746,0.746,0,0,0-1.243.54,0.758,0.758,0,0,0,.271.568l2.675,2.243a0.692,0.692,0,0,0,.486.189A0.733,0.733,0,0,0,484.2,23.172Zm-3.513,1.189a0.81,0.81,0,0,0-.162-0.486L478.146,21.2a0.779,0.779,0,0,0-.568-0.243,0.731,0.731,0,0,0-.756.73,0.713,0.713,0,0,0,.189.513l2.378,2.675a0.763,0.763,0,0,0,.54.243A0.737,0.737,0,0,0,480.686,24.361Zm2.027,10.161a0.8,0.8,0,0,0-.784-0.784c-0.946,0-3.837-1.784-7.242-3.837l-2.513-1.513V23.172a0.8,0.8,0,0,0-.784-0.784,0.785,0.785,0,0,0-.784.784v16.7a0.785,0.785,0,0,0,.784.784,0.8,0.8,0,0,0,.784-0.784v-9.62l1.675,1c4.459,2.648,6.729,4.053,8.08,4.053A0.785,0.785,0,0,0,482.713,34.522Zm23.518-10.647a0.8,0.8,0,0,0-.783-0.784H494.476a0.822,0.822,0,0,0-.784.784,0.8,0.8,0,0,0,.784.784h10.972A0.784,0.784,0,0,0,506.231,23.875Zm0.865,5.972V28.361a0.784,0.784,0,0,0-.784-0.784H492.774a0.784,0.784,0,1,0,0,1.567h12.755v0.7c0,1.486-3.351,7.431-12.755,9.161a0.759,0.759,0,0,0-.622.757,0.8,0.8,0,0,0,.784.784h0.135C503.015,38.71,507.1,32.306,507.1,29.847Zm21.816-6.161a0.8,0.8,0,0,0-.783-0.784h-9a0.8,0.8,0,0,0-.784.784,0.785,0.785,0,0,0,.784.784h9A0.784,0.784,0,0,0,528.912,23.686Zm5.324,15.457a0.768,0.768,0,0,0-.784-0.784h-3.486c-1.621,0-2.945-.189-3.486-0.7a1.5,1.5,0,0,1-.324-1.189c0-2.108-.7-3.567-2.135-3.81l4.864-4.108a0.783,0.783,0,0,0,.27-0.622,0.816,0.816,0,0,0-.783-0.784H517.536a0.8,0.8,0,0,0-.784.784,0.784,0.784,0,0,0,.784.784h8.674l-11.08,9.4a0.745,0.745,0,0,0-.3.568,0.79,0.79,0,0,0,.811.784,0.808,0.808,0,0,0,.486-0.162l5.729-4.837a5.092,5.092,0,0,1,1.676-.3c0.513,0,1.054.081,1.054,2.3,0,2.729,1.756,3.459,5.377,3.459h3.486A0.768,0.768,0,0,0,534.236,39.143Zm23.127-11.728a0.784,0.784,0,0,0-.784-0.784h-9.133v-3.54a0.785,0.785,0,0,0-.784-0.784,0.8,0.8,0,0,0-.784.784v3.54h-5.837a0.784,0.784,0,0,0-.783.784,0.8,0.8,0,0,0,.783.784h5.837l-0.054,3.3h-4.7a0.77,0.77,0,1,0,0,1.54H545.8v1.973c0,4.216.946,5.648,3.919,5.648a9.877,9.877,0,0,0,7.134-3.4,0.694,0.694,0,0,0,.189-0.486,0.808,0.808,0,0,0-.784-0.811,0.765,0.765,0,0,0-.594.27,8.513,8.513,0,0,1-5.945,2.864c-1.7,0-2.352-.73-2.352-3.945,0-.486,0-1.243.028-2.108h5.864a0.77,0.77,0,1,0,0-1.54h-5.864l0.054-3.3h9.133A0.8,0.8,0,0,0,557.363,27.415Zm28.066,8.3a0.808,0.808,0,0,0-.811-0.784,0.731,0.731,0,0,0-.54.216,9.848,9.848,0,0,1-6.567,3.081c-2.594,0-.162-7.81-4.648-7.81a6.961,6.961,0,0,0-2.405.459l3.81-7.215a0.833,0.833,0,0,0,.081-0.351,0.777,0.777,0,0,0-1.459-.405l-8.323,15.728a0.863,0.863,0,0,0-.081.378,0.778,0.778,0,0,0,.756.784,0.806,0.806,0,0,0,.7-0.405L569,33.63a5.585,5.585,0,0,1,3.864-1.648c2.756,0,.189,7.81,4.648,7.81a11.527,11.527,0,0,0,7.674-3.54A0.892,0.892,0,0,0,585.429,35.711Zm25.122-3.972c0-4.459-3.351-7.377-8.567-7.377-6.107,0-9.755,4.324-9.755,8.512,0,3.729,1.784,5.026,3.351,5.026,1.189,0,2.54-1.459,3.621-3.4a23.217,23.217,0,0,0,2.54-7.215V25.928h0.406c4.242,0,6.836,2.243,6.836,5.81,0,3.081-3.918,6.188-7.809,6.188a0.784,0.784,0,1,0,0,1.567C605.984,39.494,610.551,35.738,610.551,31.738ZM600.174,27.2c-1,5.215-3.621,9.134-4.594,9.134S593.8,35.2,593.8,32.873c0-3,2.351-6.08,6.378-6.783V27.2Zm38.743-2.972a0.761,0.761,0,0,0-.27-0.567l-2.73-2.135a0.716,0.716,0,0,0-1.135.567,0.645,0.645,0,0,0,.243.54l2.73,2.135a0.733,0.733,0,0,0,.459.162A0.7,0.7,0,0,0,638.917,24.226Zm-3.243,1.135a0.652,0.652,0,0,0-.189-0.486l-2.7-2.567a0.693,0.693,0,0,0-.486-0.189,0.681,0.681,0,0,0-.7.7,0.588,0.588,0,0,0,.217.486l2.7,2.594a0.632,0.632,0,0,0,.459.189A0.7,0.7,0,0,0,635.674,25.361Zm2.162,5.891a0.761,0.761,0,0,0-.27-0.567c-0.973-.73-2.487-1.811-6.405-6.134a0.766,0.766,0,0,0-.594-0.27,0.818,0.818,0,0,0-.784.784v0.054c0,1.189.135,2.324,0.135,3.351,0,3.756-.432,10.431-5.54,10.431-2.81,0-3.81-2.027-3.81-4.108,0-3.216,2.27-7.161,5.567-9.728a0.839,0.839,0,0,0,.27-0.649,0.754,0.754,0,0,0-.757-0.757h-7.863a0.77,0.77,0,1,0,0,1.54h5.81C620.811,27.982,619,31.657,619,34.792c0,3.486,2.108,5.675,5.377,5.675,6.216,0,7.08-7.269,7.08-12.025V27.036a40.416,40.416,0,0,0,4.946,4.729,1.369,1.369,0,0,0,.7.243A0.717,0.717,0,0,0,637.836,31.252Zm27.138,8.728a0.767,0.767,0,0,0-.27-0.595l-10.755-8.674V27.928h7.458a0.77,0.77,0,1,0,0-1.54h-7.458V22.929a0.784,0.784,0,0,0-1.568,0v3.459H645.49a0.77,0.77,0,1,0,0,1.54h6.891v2.756l-6.053,6.7-3.756,1.27a0.78,0.78,0,0,0-.541.73,0.761,0.761,0,0,0,.784.757,0.748,0.748,0,0,0,.243-0.027l3.973-1.3a0.854,0.854,0,0,0,.324-0.216l5.864-6.513L663.731,40.6a0.753,0.753,0,0,0,.486.162,0.766,0.766,0,0,0,.6-0.27A0.89,0.89,0,0,0,664.974,39.98ZM656.3,38.954a0.8,0.8,0,0,0-.784-0.784H651.49a0.784,0.784,0,1,0,0,1.567h4.026A0.8,0.8,0,0,0,656.3,38.954ZM686.293,32.8c0-3.963-2.979-6.558-7.615-6.558-5.428,0-8.671,3.843-8.671,7.566,0,3.315,1.585,4.468,2.979,4.468,1.056,0,2.257-1.3,3.218-3.027a20.61,20.61,0,0,0,2.258-6.413v-1.2h0.361c3.771,0,6.077,1.994,6.077,5.164,0,2.738-3.483,5.5-6.942,5.5a0.7,0.7,0,1,0,0,1.393C682.233,39.7,686.293,36.359,686.293,32.8Zm-9.224-4.035c-0.889,4.636-3.219,8.119-4.083,8.119s-1.586-1.009-1.586-3.075c0-2.666,2.09-5.4,5.669-6.029v0.985ZM429.312,62.734c2.525,1.337,2.673,2.178,2.673,2.921,0,0.4-2.079,12.576-13.863,24.26l0.4,0.594c4.852-2.575,9.457-6.238,14.754-17.923,0.3-.693,1.684-4.109,2.03-4.9a8.332,8.332,0,0,0,1.04-1.98c0-1.485-2.921-4.01-5.3-4.01a3.439,3.439,0,0,0-1.485.346Zm15.2-.347c5.446,6.535,9.952,14.011,11.833,22.329,0.5,2.129.693,3.07,1.684,3.07,1.039,0,1.732-1.436,1.732-3.416,0-3.367-4.257-14.9-14.8-22.527Zm12.526-9.258a6.09,6.09,0,1,0,6.09,6.04A6.074,6.074,0,0,0,457.037,53.129Zm0,2.03a4.035,4.035,0,1,1-4.01,4.01A4.025,4.025,0,0,1,457.037,55.159Zm17.047,2.575a4.193,4.193,0,0,0,3.862,3.911c0.545,0,3.119-.4,3.713-0.5,3.961-.5,10.3-0.941,11.388-0.99,5.4-.3,5.99-0.346,5.99-1.287,0-1.238-3.168-2.277-3.911-2.277-0.5,0-2.773.842-3.317,0.941-3.466.594-12.18,1.238-13.516,1.238a5.029,5.029,0,0,1-3.565-1.386Zm-5.2,9.506a6.007,6.007,0,0,0-.1.941c0,2.178,2.525,4.555,3.96,4.555,1.436-.347,3.961-0.891,5.149-1.089,7.031-1.139,18.319-2.327,19.953-2.327,0.5,0,.644.1,0.644,0.4a39.171,39.171,0,0,1-2.822,7.03c-4.258,8.466-10.447,13.269-19.557,17.378l0.248,0.644c15.3-3.07,20.4-13.021,23.765-20.3,1.584-3.466,1.782-3.862,2.574-4.406,1.337-.941,1.485-0.941,1.485-1.337,0-.842-3.069-3.02-3.911-3.02-0.346,0-1.931.941-2.327,0.99-2.624.594-20.349,2.476-23.913,2.476a5.358,5.358,0,0,1-4.456-2.178Zm42.521-8.367c3.565,0.842,3.614,1.238,3.614,7.427,0,4.307,0,17.378-.247,19.953-0.05.347-.5,2.079-0.5,2.475,0,1.089,1.931,3.664,3.07,3.664a15.4,15.4,0,0,0,2.278-1.287A87.376,87.376,0,0,0,531.9,83.875c5.6-4.01,10.694-8.912,13.219-15.2l-0.594-.4A67.511,67.511,0,0,1,528.24,82.934c-2.822,1.832-8.565,5.05-9.951,5.05a0.709,0.709,0,0,1-.644-0.842c-0.049-.5-0.049-2.674-0.049-3.367,0-1.485.2-19.16,0.445-21.19,0.05-.446.693-2.376,0.693-2.822,0-1.188-2.921-2.476-4.8-2.476a3.129,3.129,0,0,0-2.426.842Zm42.026,1.881c2.426,0.644,2.822,1.436,2.822,4.01a50.515,50.515,0,0,1-2.179,14.407,27.98,27.98,0,0,1-8.416,12.774l0.4,0.594c11.387-5.941,12.427-16.487,13.12-27.726,0-.4.346-2.376,0.346-2.872,0-1.436-3.119-2.475-4.208-2.475a3.644,3.644,0,0,0-1.832.594Zm9.605-2.921c2.376,1.089,2.822,1.733,2.822,5.2,0,2.822-.149,19.705-0.3,22.032,0,0.4-.248,2.475-0.248,2.921,0,1.386,2.08,3.367,2.773,3.367,0.643,0,2.871-1.782,3.515-2.228,7.328-4.753,13.368-8.714,16.536-17.279l-0.643-.4c-8.565,11.387-18.22,15.5-18.715,15.5s-0.5-.743-0.5-0.99c0-1.485.2-20.052,0.544-23.369,0.05-.4.644-2.376,0.644-2.872,0-1.287-3.268-2.971-4.951-2.971a2.559,2.559,0,0,0-1.386.4Zm44.341,8.021h-8.615L595.1,64.121c0.1,1.634.2,2.772,0.2,5.842V88.876c0,0.99-.2,5.842-0.2,6.932a0.819,0.819,0,0,0,.991.99c1.98,0,1.98-.743,1.98-1.535V92.737h31.786v3.07c0,0.5.049,0.842,0.94,0.842,1.288,0,2.08-.347,2.08-1.337,0-.2-0.2-5.595-0.2-6.585V68.675c1.485-.99,1.634-1.139,1.634-1.584a0.834,0.834,0,0,0-.4-0.693l-2.526-2.079a1.269,1.269,0,0,0-.594-0.248,0.631,0.631,0,0,0-.5.4l-0.94,1.386h-9.9V57.14H635.6a0.82,0.82,0,0,0,1.04-.693,1.385,1.385,0,0,0-.446-0.891l-3.218-3.02a1.105,1.105,0,0,0-.644-0.3,0.734,0.734,0,0,0-.594.4L630.1,55.159H596.289c-2.03,0-3.565-.1-5-0.2l0.842,2.377a32.647,32.647,0,0,1,3.862-.2h11.387v8.714ZM610,57.14h6.832v8.714H610V57.14ZM598.071,67.834h9.308c-0.149,5.941-.792,12.229-9.308,16.636V67.834Zm0,17.774a17.153,17.153,0,0,0,9.258-6.684c2.476-3.911,2.625-9.159,2.674-11.09h6.832v9.952c0,3.911.743,4.109,5.249,4.109a29.41,29.41,0,0,0,5.3-.3,2.268,2.268,0,0,0,1.832-1.782,0.848,0.848,0,0,0-.594-0.792c-0.792-.446-0.891-0.545-0.891-5.3l-0.743-.1c-0.2.743-.941,3.961-1.089,4.456-0.446,1.238-.792,1.238-4.159,1.238-2.129,0-2.278-.644-2.278-1.832V67.834h10.4V90.757H598.071V85.608ZM646.2,72.29h-1.387c-1.93,0-3.416-.1-4.951-0.2l0.793,2.377a30.1,30.1,0,0,1,3.911-.2h2.277V88.48a31.867,31.867,0,0,1-7.278,3.911l2.426,3.565a1.543,1.543,0,0,0,.991.693,0.653,0.653,0,0,0,.594-0.792,5.4,5.4,0,0,0-.149-1.287c4.11-4.654,4.555-5.2,5.2-5.991,0.148,1.287,1.782,3.713,5,5.149,2.426,1.089,5.248,1.535,12.823,1.535h16.636c0.1-1.287.941-1.733,3.218-2.921V91.549c-16.982.99-23.814,0.99-24.21,0.99-12.279,0-12.576-4.01-12.576-6.832V74.914c1.683-1.04,1.683-1.188,1.683-1.485a0.926,0.926,0,0,0-.4-0.693l-2.525-2.079a0.793,0.793,0,0,0-.544-0.248,0.672,0.672,0,0,0-.5.347Zm12.575-10.3h8.417a0.865,0.865,0,0,0,1.089-.743,1.167,1.167,0,0,0-.445-0.792l-2.624-2.426a1.105,1.105,0,0,0-.644-0.3,0.831,0.831,0,0,0-.545.4l-1.336,1.881h-1.882V54.416c1.387-.446,1.634-0.792,1.634-1.238a0.913,0.913,0,0,0-.99-0.743l-3.515-.5a25.451,25.451,0,0,1,.247,3.713v4.357h-2.129c-1.98,0-3.564-.1-4.951-0.2l0.743,2.377a34.8,34.8,0,0,1,4.258-.2v6.139c0,12.526-4.258,18.517-5.743,20.547l0.643,0.5c5.4-4.852,7.377-12.18,7.724-19.458h4.456a117.917,117.917,0,0,1-1.139,14.209c-0.545,2.822-1.634,2.822-2.673,2.822a38.187,38.187,0,0,1-4.11-.3l-0.049.792c3.713,0.99,3.861,1.733,3.96,3.02,3.219-.4,4.308-1.881,4.9-3.664,1.139-3.317,1.584-12.081,1.733-15.992,1.584-.644,1.733-0.891,1.733-1.238a0.917,0.917,0,0,0-.347-0.594l-2.376-2.228a1.132,1.132,0,0,0-.594-0.3,0.714,0.714,0,0,0-.545.347l-0.842,1.139h-4.06V61.992ZM676.253,75.9v-2.03c1.435-.743,1.584-0.792,1.584-1.337a0.74,0.74,0,0,0-.693-0.693,42.576,42.576,0,0,0,3.763-2.773c2.426-.347,2.673-0.347,2.673-0.99a0.862,0.862,0,0,0-.346-0.693l-2.476-2.327a1.116,1.116,0,0,0-.693-0.4,0.852,0.852,0,0,0-.545.347L678.282,66.4h-5.644c-1.98,0-3.564-.1-5-0.2l0.792,2.377a29.022,29.022,0,0,1,3.862-.2h5.743a31.182,31.182,0,0,1-2.129,3.268l-2.723-.347a36.858,36.858,0,0,1,.247,4.6H671c-1.98,0-3.614-.1-5-0.2l0.743,2.377a37.731,37.731,0,0,1,3.911-.2h2.772v7.823c0,0.446,0,1.04-1.089.99l-4.555-.2v0.792c4.308,1.188,4.8,1.337,4.951,2.971,3.169-.148,3.466-1.683,3.565-2.822,0.05-.743-0.049-4.406-0.049-5.248V77.884h7.773a0.819,0.819,0,0,0,1.039-.693,1.256,1.256,0,0,0-.445-0.842L681.8,73.726a0.978,0.978,0,0,0-.594-0.3,0.736,0.736,0,0,0-.595.4L679.174,75.9h-2.921Zm-4.209-17.081a35.717,35.717,0,0,0,1.783-4.01c1.386-.3,1.93-0.4,1.93-1.089,0-.347-0.148-0.693-1.485-1.04l-2.97-.743c-0.446,4.555-2.526,9.407-4.753,13.615L667.192,66A19.637,19.637,0,0,0,671,60.8h12.923a0.823,0.823,0,0,0,1.039-.743,1.092,1.092,0,0,0-.445-0.792L681.7,56.644a1.133,1.133,0,0,0-.594-0.3,0.671,0.671,0,0,0-.545.347l-1.485,2.129h-7.031ZM641,53.921a26.927,26.927,0,0,1,5.446,8.021c1.09,2.476,1.189,2.773,2.03,2.773,0.891,0,1.436-1.188,1.436-2.377,0-4.258-7.03-8.268-8.417-9.06Zm76.617,18.22h12.328v1.782c0,0.5,0,.842.891,0.842,1.139,0,2.08-.248,2.08-1.139,0-.594-0.2-3.515-0.2-4.208V57.189c1.189-.792,1.288-0.842,1.288-1.287a0.946,0.946,0,0,0-.347-0.693l-2.129-1.931a0.858,0.858,0,0,0-.544-0.3,0.657,0.657,0,0,0-.545.4L729.6,54.664H718.46c-2.03,0-3.565-.1-5-0.2l0.891,2.377a31.4,31.4,0,0,1,3.713-.2h11.883V70.161H717.865l-3.317-1.485c0.149,1.782.2,4.357,0.2,5.545V90.46c0,3.614.4,4.7,4.654,4.7h8.912c2.773,0,7.13,0,7.13-2.228,0-.3-0.941-1.634-1.04-1.98-0.1-.3-0.347-3.961-0.446-5.991l-0.792-.049c-1.683,7.674-1.782,7.674-4.109,7.674h-9.506c-1.931,0-1.931-1.089-1.931-1.931V72.141Zm-20.547,8.07L693.8,78.379c0.1,1.436.2,4.406,0.2,5.545v5.4c0,1.04-.2,6.337-0.2,6.981a0.887,0.887,0,0,0,1.09.941c0.544,0,1.782-.1,1.782-1.188V93.975h10.447v1.634c0,0.446,0,.842.891,0.842,1.98,0,1.98-.99,1.98-1.485,0-.446-0.2-5.694-0.2-6.535V82.885c1.337-.891,1.486-0.99,1.486-1.436a0.927,0.927,0,0,0-.4-0.693l-2.228-2.03a1.1,1.1,0,0,0-.544-0.248,0.628,0.628,0,0,0-.545.347l-0.94,1.386h-9.556Zm10.051,1.98v9.8H696.675v-9.8h10.447Zm-8.714-27.379c-1.931,0-3.416-.1-4.951-0.2l0.841,2.377a31.2,31.2,0,0,1,3.714-.2h11.882a0.939,0.939,0,0,0,1.139-.693,1.1,1.1,0,0,0-.4-0.792l-2.723-2.327a0.83,0.83,0,0,0-.644-0.347,0.766,0.766,0,0,0-.594.4l-1.188,1.782h-7.08Zm-3.317,6.238c-1.981,0-3.466-.1-5-0.2l0.891,2.377c0.743-.05,2.03-0.2,3.714-0.2h16.833c0.4,0,1.188-.05,1.188-0.693a0.89,0.89,0,0,0-.445-0.743L709.6,59.219a0.989,0.989,0,0,0-.643-0.346,0.766,0.766,0,0,0-.595.4l-1.237,1.782H695.091Zm2.97,6.238c-1.98,0-3.465-.1-5-0.2l0.891,2.377a29.875,29.875,0,0,1,3.713-.2H709.8c0.4,0,1.188-.049,1.188-0.693a0.89,0.89,0,0,0-.445-0.743l-2.674-2.376a0.9,0.9,0,0,0-.643-0.347,0.764,0.764,0,0,0-.594.4l-1.189,1.782h-7.377Zm0,6.288c-2.03,0-3.614-.1-5-0.2l0.891,2.376a28.87,28.87,0,0,1,3.713-.2h12.081c0.4,0,1.188-.049,1.188-0.693a0.891,0.891,0,0,0-.446-0.743l-2.673-2.376a0.99,0.99,0,0,0-.644-0.347,0.766,0.766,0,0,0-.594.4l-1.238,1.782h-7.278Z" transform="translate(-418.125 -20.188)"/>
</svg>
