<svg xmlns="http://www.w3.org/2000/svg" width="246.593" height="74.531" viewBox="0 0 246.593 74.531">
  <defs>
    <style>
      .cls-1 {
        fill: #2b546a;
        fill-rule: evenodd;
      }
    </style>
  </defs>
  <path id="_24_title.svg" data-name="24_title.svg" class="cls-1" d="M495.242,28.172A0.736,0.736,0,0,0,495,27.6l-2.676-2.216a0.746,0.746,0,0,0-1.243.54,0.761,0.761,0,0,0,.27.568l2.676,2.243a0.692,0.692,0,0,0,.486.189A0.733,0.733,0,0,0,495.242,28.172Zm-3.513,1.189a0.81,0.81,0,0,0-.162-0.486L489.189,26.2a0.78,0.78,0,0,0-.568-0.243,0.732,0.732,0,0,0-.757.73,0.714,0.714,0,0,0,.19.513l2.378,2.675a0.763,0.763,0,0,0,.54.243A0.738,0.738,0,0,0,491.729,29.361Zm2.026,10.161a0.8,0.8,0,0,0-.783-0.784c-0.946,0-3.837-1.784-7.242-3.837l-2.514-1.513V28.172a0.8,0.8,0,0,0-.783-0.784,0.784,0.784,0,0,0-.784.784v16.7a0.784,0.784,0,0,0,.784.784,0.8,0.8,0,0,0,.783-0.784v-9.62l1.676,1c4.459,2.648,6.729,4.053,8.08,4.053A0.784,0.784,0,0,0,493.755,39.522Zm23.519-10.647a0.8,0.8,0,0,0-.784-0.784H505.519a0.822,0.822,0,0,0-.784.784,0.8,0.8,0,0,0,.784.784H516.49A0.784,0.784,0,0,0,517.274,28.875Zm0.865,5.972V33.361a0.784,0.784,0,0,0-.784-0.784H503.817a0.784,0.784,0,1,0,0,1.567h12.755v0.7c0,1.486-3.351,7.431-12.755,9.161a0.759,0.759,0,0,0-.622.757,0.8,0.8,0,0,0,.784.784h0.135C514.058,43.71,518.139,37.306,518.139,34.847Zm21.816-6.161a0.8,0.8,0,0,0-.784-0.784h-9a0.8,0.8,0,0,0-.784.784,0.784,0.784,0,0,0,.784.784h9A0.784,0.784,0,0,0,539.955,28.686Zm5.324,15.457a0.768,0.768,0,0,0-.784-0.784h-3.486c-1.621,0-2.945-.189-3.486-0.7a1.5,1.5,0,0,1-.324-1.189c0-2.108-.7-3.567-2.135-3.81l4.864-4.108a0.783,0.783,0,0,0,.27-0.622,0.816,0.816,0,0,0-.783-0.784H528.578a0.8,0.8,0,0,0-.783.784,0.784,0.784,0,0,0,.783.784h8.675l-11.08,9.4a0.745,0.745,0,0,0-.3.568,0.789,0.789,0,0,0,.811.784,0.808,0.808,0,0,0,.486-0.162l5.729-4.837a5.092,5.092,0,0,1,1.676-.3c0.513,0,1.053.081,1.053,2.3,0,2.729,1.757,3.459,5.378,3.459H544.5A0.768,0.768,0,0,0,545.279,44.143Zm23.127-11.728a0.784,0.784,0,0,0-.784-0.784h-9.134v-3.54a0.784,0.784,0,0,0-.783-0.784,0.8,0.8,0,0,0-.784.784v3.54h-5.837a0.784,0.784,0,0,0-.783.784,0.8,0.8,0,0,0,.783.784h5.837l-0.054,3.3h-4.7a0.77,0.77,0,1,0,0,1.54h4.675v1.973c0,4.216.946,5.648,3.918,5.648a9.878,9.878,0,0,0,7.135-3.4,0.694,0.694,0,0,0,.189-0.486,0.808,0.808,0,0,0-.784-0.811,0.765,0.765,0,0,0-.594.27,8.513,8.513,0,0,1-5.946,2.864c-1.7,0-2.351-.73-2.351-3.945,0-.486,0-1.243.027-2.108H564.3a0.77,0.77,0,1,0,0-1.54h-5.864l0.054-3.3h9.134A0.8,0.8,0,0,0,568.406,32.415Zm28.066,8.3a0.808,0.808,0,0,0-.811-0.784,0.735,0.735,0,0,0-.541.216,9.844,9.844,0,0,1-6.566,3.081c-2.594,0-.162-7.81-4.648-7.81a6.961,6.961,0,0,0-2.4.459l3.81-7.215a0.833,0.833,0,0,0,.081-0.351,0.777,0.777,0,0,0-1.459-.405L575.61,43.629a0.863,0.863,0,0,0-.081.378,0.778,0.778,0,0,0,.756.784,0.806,0.806,0,0,0,.7-0.405l3.054-5.756a5.585,5.585,0,0,1,3.864-1.648c2.756,0,.189,7.81,4.648,7.81a11.527,11.527,0,0,0,7.674-3.54A0.892,0.892,0,0,0,596.472,40.711Zm25.122-3.972c0-4.459-3.351-7.377-8.567-7.377-6.107,0-9.755,4.324-9.755,8.512,0,3.729,1.784,5.026,3.351,5.026,1.189,0,2.54-1.459,3.621-3.4a23.217,23.217,0,0,0,2.54-7.215V30.928h0.406c4.242,0,6.836,2.243,6.836,5.81,0,3.081-3.918,6.188-7.809,6.188a0.784,0.784,0,1,0,0,1.567C617.027,44.494,621.594,40.738,621.594,36.738ZM611.217,32.2c-1,5.215-3.621,9.134-4.594,9.134s-1.784-1.135-1.784-3.459c0-3,2.351-6.08,6.378-6.783V32.2Zm38.743-2.973a0.758,0.758,0,0,0-.271-0.567l-2.729-2.135a0.716,0.716,0,0,0-1.135.567,0.645,0.645,0,0,0,.243.54l2.73,2.135a0.733,0.733,0,0,0,.459.162A0.7,0.7,0,0,0,649.96,29.226Zm-3.243,1.135a0.652,0.652,0,0,0-.189-0.486l-2.7-2.567a0.693,0.693,0,0,0-.486-0.189,0.681,0.681,0,0,0-.7.7,0.585,0.585,0,0,0,.217.486l2.7,2.594a0.632,0.632,0,0,0,.459.189A0.7,0.7,0,0,0,646.717,30.361Zm2.162,5.891a0.761,0.761,0,0,0-.27-0.568c-0.973-.73-2.487-1.811-6.405-6.134a0.766,0.766,0,0,0-.594-0.27,0.818,0.818,0,0,0-.784.784v0.054c0,1.189.135,2.324,0.135,3.351,0,3.756-.432,10.431-5.54,10.431-2.81,0-3.81-2.027-3.81-4.108,0-3.216,2.27-7.161,5.567-9.728a0.839,0.839,0,0,0,.27-0.649,0.754,0.754,0,0,0-.757-0.757h-7.863a0.77,0.77,0,1,0,0,1.54h5.81c-2.784,2.783-4.594,6.459-4.594,9.593,0,3.486,2.107,5.675,5.377,5.675,6.216,0,7.08-7.269,7.08-12.025V32.036a40.416,40.416,0,0,0,4.946,4.729,1.369,1.369,0,0,0,.7.243A0.718,0.718,0,0,0,648.879,36.252Zm27.138,8.728a0.767,0.767,0,0,0-.27-0.595l-10.755-8.674V32.928h7.458a0.77,0.77,0,1,0,0-1.54h-7.458V27.929a0.784,0.784,0,0,0-1.568,0v3.459h-6.891a0.77,0.77,0,1,0,0,1.54h6.891v2.756l-6.053,6.7-3.756,1.27a0.78,0.78,0,0,0-.541.73,0.761,0.761,0,0,0,.784.757,0.748,0.748,0,0,0,.243-0.027l3.973-1.3A0.854,0.854,0,0,0,658.4,43.6l5.864-6.513L674.774,45.6a0.753,0.753,0,0,0,.486.162,0.766,0.766,0,0,0,.6-0.27A0.89,0.89,0,0,0,676.017,44.98Zm-8.674-1.027a0.8,0.8,0,0,0-.784-0.784h-4.027a0.784,0.784,0,0,0,0,1.567h4.027A0.8,0.8,0,0,0,667.343,43.954Zm29.378,0.192a0.667,0.667,0,0,0-.7-0.7l-6,.264c-0.408.024-.816,0.024-1.177,0.024-3.963,0-4.612-1.033-4.612-1.777,0-2.786,6.318-6.2,10.041-7.687a0.673,0.673,0,0,0,.432-0.625,0.692,0.692,0,0,0-.672-0.7,1.036,1.036,0,0,0-.265.048,34.8,34.8,0,0,0-6.245,3.171l-0.841-6.1a0.661,0.661,0,0,0-.7-0.576,0.678,0.678,0,0,0-.673.7l0.937,6.87c-1.922,1.465-3.387,3.171-3.387,4.9,0,1.633.817,3.171,5.765,3.171,0.408,0,.841,0,1.321-0.024l6.149-.288A0.662,0.662,0,0,0,696.721,44.146ZM477.231,78.2L464.686,90.836l1.541,1.541,12.544-12.5Zm4.709-17.827h-9.551v2.2h7.351v11h7.394V97h-18.4v2.2h20.6V71.381H481.94v-11Zm8.8,14.657v16.9h2.2v-16.9h-2.2Zm26.3,11.664V60.377h-2.2v27.2L526.946,99.64l1.54-1.541S517.57,87.359,517.042,86.7Zm51.583-13.117h2.2v-13.2h-2.2v13.2Zm3.741-13.2v13.2h2.2v-13.2h-2.2Zm-8.8,3.653V60.377h-2.2v3.653h-18.4v2.2h18.4v1.541h-18.4v2.2h18.4V82.385h-3.741v2.2h5.942V69.973h3.609v-2.2h-3.609V66.231h3.609v-2.2h-3.609ZM548.818,78.776h-2.2V99.2h16.946V97H548.818V78.776Zm66.933,17.981V55.564h-31.29V84.429h-4.109V86.9h4.109V99.233h2.475V86.9h20.547V80.32h-2.475v4.109h-5.694v-9.9h8.169V63.882h-8.169V62.149h8.169V59.674H588.521v2.475h8.318v1.733h-8.318V74.527h8.318v9.9h-9.9V58.04h26.34V99.233h10.793V96.757h-8.318Zm-10.743-30.4v5.694h-5.694V66.358h5.694ZM591,72.051V66.358h5.843v5.694H591Zm82.894-9.9V59.674H657.3V55.564h-2.475v4.109H642.55l2.971-2.872-1.832-1.733L629.579,69.18l1.832,1.733,6.931-7.03v35.35h2.475V61.407l1.634-1.634v2.377h12.378v1.733H646.66V78.735h8.169V82.7l-2.872-2.872-1.733,1.733,4.11,4.109L641.956,97.995l1.733,1.733L656.067,87.4l12.377,12.328,1.832-1.733L657.3,85.172V78.735h12.378V63.882H657.3V62.149H673.89ZM649.135,76.26v-9.9h5.694v9.9h-5.694Zm18.072-9.9v9.9h-9.9v-9.9h9.9Zm22.065-5.981h-2.2V99.2h13.2V97h-11V60.377Zm12.457,7.395v2.2h7.35V84.586h2.2V67.772h-9.551Z" transform="translate(-464.688 -25.188)"/>
</svg>
