<svg xmlns="http://www.w3.org/2000/svg" width="215.063" height="77.438" viewBox="0 0 215.063 77.438">
  <defs>
    <style>
      .cls-1 {
        fill: #2b546a;
        fill-rule: evenodd;
      }
    </style>
  </defs>
  <path id="_13_title.svg" data-name="13_title.svg" class="cls-1" d="M466.242,22.172A0.736,0.736,0,0,0,466,21.6l-2.676-2.216a0.746,0.746,0,0,0-1.243.54,0.761,0.761,0,0,0,.27.568l2.676,2.243a0.692,0.692,0,0,0,.486.189A0.733,0.733,0,0,0,466.242,22.172Zm-3.513,1.189a0.81,0.81,0,0,0-.162-0.486L460.189,20.2a0.78,0.78,0,0,0-.568-0.243,0.732,0.732,0,0,0-.757.73,0.714,0.714,0,0,0,.19.513l2.378,2.675a0.763,0.763,0,0,0,.54.243A0.738,0.738,0,0,0,462.729,23.361Zm2.026,10.161a0.8,0.8,0,0,0-.783-0.784c-0.946,0-3.837-1.784-7.242-3.837l-2.514-1.513V22.172a0.8,0.8,0,0,0-.783-0.784,0.784,0.784,0,0,0-.784.784v16.7a0.784,0.784,0,0,0,.784.784,0.8,0.8,0,0,0,.783-0.784v-9.62l1.676,1c4.459,2.648,6.729,4.053,8.08,4.053A0.784,0.784,0,0,0,464.755,33.522Zm23.519-10.647a0.8,0.8,0,0,0-.784-0.784H476.519a0.822,0.822,0,0,0-.784.784,0.8,0.8,0,0,0,.784.784H487.49A0.784,0.784,0,0,0,488.274,22.875Zm0.865,5.972V27.361a0.784,0.784,0,0,0-.784-0.784H474.817a0.784,0.784,0,1,0,0,1.567h12.755v0.7c0,1.486-3.351,7.431-12.755,9.161a0.759,0.759,0,0,0-.622.757,0.8,0.8,0,0,0,.784.784h0.135C485.058,37.71,489.139,31.306,489.139,28.847Zm21.816-6.161a0.8,0.8,0,0,0-.784-0.784h-9a0.8,0.8,0,0,0-.784.784,0.784,0.784,0,0,0,.784.784h9A0.784,0.784,0,0,0,510.955,22.686Zm5.324,15.457a0.768,0.768,0,0,0-.784-0.784h-3.486c-1.621,0-2.945-.189-3.486-0.7a1.5,1.5,0,0,1-.324-1.189c0-2.108-.7-3.567-2.135-3.81l4.864-4.107a0.783,0.783,0,0,0,.27-0.622,0.816,0.816,0,0,0-.783-0.784H499.578a0.8,0.8,0,0,0-.783.784,0.784,0.784,0,0,0,.783.784h8.675l-11.08,9.4a0.745,0.745,0,0,0-.3.568,0.789,0.789,0,0,0,.811.784,0.808,0.808,0,0,0,.486-0.162l5.729-4.837a5.092,5.092,0,0,1,1.676-.3c0.513,0,1.053.081,1.053,2.3,0,2.729,1.757,3.459,5.378,3.459H515.5A0.768,0.768,0,0,0,516.279,38.143Zm23.127-11.728a0.784,0.784,0,0,0-.784-0.784h-9.134v-3.54a0.784,0.784,0,0,0-.783-0.784,0.8,0.8,0,0,0-.784.784v3.54h-5.837a0.784,0.784,0,0,0-.783.784,0.8,0.8,0,0,0,.783.784h5.837l-0.054,3.3h-4.7a0.77,0.77,0,1,0,0,1.54h4.675v1.973c0,4.216.946,5.648,3.918,5.648a9.878,9.878,0,0,0,7.135-3.4,0.694,0.694,0,0,0,.189-0.486,0.808,0.808,0,0,0-.784-0.811,0.765,0.765,0,0,0-.594.27,8.513,8.513,0,0,1-5.946,2.864c-1.7,0-2.351-.73-2.351-3.945,0-.486,0-1.243.027-2.108H535.3a0.77,0.77,0,1,0,0-1.54h-5.864l0.054-3.3h9.134A0.8,0.8,0,0,0,539.406,26.415Zm28.066,8.3a0.808,0.808,0,0,0-.811-0.784,0.735,0.735,0,0,0-.541.216,9.844,9.844,0,0,1-6.566,3.081c-2.594,0-.162-7.81-4.648-7.81a6.961,6.961,0,0,0-2.4.459l3.81-7.215a0.833,0.833,0,0,0,.081-0.351,0.777,0.777,0,0,0-1.459-.405L546.61,37.629a0.863,0.863,0,0,0-.081.378,0.778,0.778,0,0,0,.756.784,0.806,0.806,0,0,0,.7-0.405l3.054-5.756a5.585,5.585,0,0,1,3.864-1.648c2.756,0,.189,7.81,4.648,7.81a11.527,11.527,0,0,0,7.674-3.54A0.892,0.892,0,0,0,567.472,34.711Zm25.122-3.972c0-4.459-3.351-7.377-8.567-7.377-6.107,0-9.755,4.324-9.755,8.512,0,3.729,1.784,5.026,3.351,5.026,1.189,0,2.54-1.459,3.621-3.4a23.217,23.217,0,0,0,2.54-7.215V24.928h0.406c4.242,0,6.836,2.243,6.836,5.81,0,3.081-3.918,6.188-7.809,6.188a0.784,0.784,0,1,0,0,1.567C588.027,38.494,592.594,34.738,592.594,30.738ZM582.217,26.2c-1,5.215-3.621,9.134-4.594,9.134s-1.784-1.135-1.784-3.459c0-3,2.351-6.08,6.378-6.783V26.2Zm38.743-2.972a0.758,0.758,0,0,0-.271-0.567l-2.729-2.135a0.716,0.716,0,0,0-1.135.567,0.645,0.645,0,0,0,.243.54l2.73,2.135a0.733,0.733,0,0,0,.459.162A0.7,0.7,0,0,0,620.96,23.226Zm-3.243,1.135a0.652,0.652,0,0,0-.189-0.486l-2.7-2.567a0.693,0.693,0,0,0-.486-0.189,0.681,0.681,0,0,0-.7.7,0.585,0.585,0,0,0,.217.486l2.7,2.594a0.632,0.632,0,0,0,.459.189A0.7,0.7,0,0,0,617.717,24.361Zm2.162,5.891a0.761,0.761,0,0,0-.27-0.567c-0.973-.73-2.487-1.811-6.405-6.134a0.766,0.766,0,0,0-.594-0.27,0.818,0.818,0,0,0-.784.784v0.054c0,1.189.135,2.324,0.135,3.351,0,3.756-.432,10.431-5.54,10.431-2.81,0-3.81-2.027-3.81-4.108,0-3.216,2.27-7.161,5.567-9.728a0.839,0.839,0,0,0,.27-0.649,0.754,0.754,0,0,0-.757-0.757h-7.863a0.77,0.77,0,1,0,0,1.54h5.81c-2.784,2.783-4.594,6.459-4.594,9.593,0,3.486,2.107,5.675,5.377,5.675,6.216,0,7.08-7.269,7.08-12.025V26.036a40.416,40.416,0,0,0,4.946,4.729,1.369,1.369,0,0,0,.7.243A0.718,0.718,0,0,0,619.879,30.252Zm27.138,8.728a0.767,0.767,0,0,0-.27-0.595l-10.755-8.674V26.928h7.458a0.77,0.77,0,1,0,0-1.54h-7.458V21.929a0.784,0.784,0,0,0-1.568,0v3.459h-6.891a0.77,0.77,0,1,0,0,1.54h6.891v2.756l-6.053,6.7-3.756,1.27a0.78,0.78,0,0,0-.541.73,0.761,0.761,0,0,0,.784.757,0.748,0.748,0,0,0,.243-0.027l3.973-1.3A0.854,0.854,0,0,0,629.4,37.6l5.864-6.513L645.774,39.6a0.753,0.753,0,0,0,.486.162,0.766,0.766,0,0,0,.6-0.27A0.89,0.89,0,0,0,647.017,38.98Zm-8.674-1.027a0.8,0.8,0,0,0-.784-0.784h-4.027a0.784,0.784,0,0,0,0,1.567h4.027A0.8,0.8,0,0,0,638.343,37.954Zm29.378,0.192a0.667,0.667,0,0,0-.7-0.7l-6,.264c-0.408.024-.816,0.024-1.177,0.024-3.963,0-4.612-1.033-4.612-1.777,0-2.786,6.318-6.2,10.041-7.687a0.673,0.673,0,0,0,.432-0.625,0.692,0.692,0,0,0-.672-0.7,1.036,1.036,0,0,0-.265.048,34.8,34.8,0,0,0-6.245,3.171l-0.841-6.1a0.661,0.661,0,0,0-.7-0.576,0.678,0.678,0,0,0-.673.7l0.937,6.87c-1.922,1.465-3.387,3.171-3.387,4.9,0,1.633.817,3.171,5.765,3.171,0.408,0,.841,0,1.321-0.024l6.149-.288A0.662,0.662,0,0,0,667.721,38.146Zm-164.112,27.6a1.271,1.271,0,0,0-.99-1.485h-6.337a1.609,1.609,0,0,0,0,2.971h6.337A1.271,1.271,0,0,0,503.609,65.745Zm0,4.8a1.271,1.271,0,0,0-.99-1.485h-6.337a1.271,1.271,0,0,0-.99,1.485c0,0.941.445,1.535,0.99,1.535h6.337C503.164,72.082,503.609,71.488,503.609,70.547Zm9.011-2.872V62.081a3.677,3.677,0,0,0-3.713-3.713H493.46V56.585h14.16c1.188,0,1.831-.594,1.831-2.426s-0.643-2.476-1.831-2.476H471.328c-1.188,0-1.782.644-1.782,2.476s0.594,2.426,1.782,2.426h14.309v1.782h-15.5a3.677,3.677,0,0,0-3.713,3.713v5.595c0,1.782.891,2.674,3.664,2.674,2.723,0,3.664-.891,3.664-2.674V63.17a0.782,0.782,0,0,1,.792-0.792h11.09v6.783c0,1.881.941,2.822,3.911,2.822,2.921,0,3.912-.941,3.912-2.822V62.378h10.991a0.782,0.782,0,0,1,.792.792v4.505c0,1.782.891,2.674,3.664,2.674S512.62,69.458,512.62,67.675Zm-28.666-1.931a1.271,1.271,0,0,0-.991-1.485h-6.386a1.609,1.609,0,0,0,0,2.971h6.386A1.271,1.271,0,0,0,483.954,65.745Zm23.517,10.744c0-1.931-.644-2.575-1.881-2.575H473.408c-1.238,0-1.832.644-1.832,2.575s0.594,2.525,1.832,2.525H505.59C506.827,79.013,507.471,78.419,507.471,76.488Zm-23.517-5.941a1.271,1.271,0,0,0-.991-1.485h-6.386a1.271,1.271,0,0,0-.991,1.485c0,0.941.446,1.535,0.991,1.535h6.386C483.508,72.082,483.954,71.488,483.954,70.547Zm28.617,12.922c0-2.03-.694-2.723-2.03-2.723H468.407c-1.336,0-1.98.693-1.98,2.723,0,2.079.644,2.723,1.98,2.723h10.1L474.4,90.648h-3.466c-0.643,0-1.782.644-1.782,2.426,0,1.238.743,3.169,2.278,3.169h0.049c13.516,0,25.052-1.089,31.34-1.584,0.99,1.139,1.535,1.98,3.268,1.98,1.634,0,4.307-1.386,4.307-3.218,0-1.584-5.446-6.09-6.733-7.228h6.882C511.877,86.192,512.571,85.549,512.571,83.469Zm-14.21,6.387c-4.406.3-9.407,0.5-14.556,0.644l4.01-4.307h9.9a2.2,2.2,0,0,0-.694,1.535C497.024,88.816,497.718,89.212,498.361,89.856Zm55.805-13.37c0-9.9-6.91-18.531-17.826-18.531-13.469,0-19.808,11.532-19.808,19.5,0,8.847,4.49,15.318,9.552,15.318,7.571,0,11.664-12.016,13.513-27.2,5.722,1.5,7.439,6.558,7.439,10.784,0,3.829-1.673,7.659-9.332,11.268-1.276.572-1.717,2.377-.66,4.4,1.012,1.893,2.641,2.729,3.917,2.113C551.613,88.766,554.166,84.057,554.166,76.486ZM532.6,65.614c-0.968,9.287-3.609,18.751-6.382,18.751-1.277,0-2.685-2.553-2.685-6.734C523.531,73.625,526.26,67.33,532.6,65.614ZM602.6,91.292c0-2.872-.99-3.862-2.872-3.862H583.838V77.924h10.15c1.881,0,2.872-.941,2.872-3.862s-0.991-3.911-2.872-3.911h-10.15V60.645h13.319c1.881,0,2.822-.941,2.822-3.812s-0.941-3.862-2.822-3.862H561.905c-1.881,0-2.772.99-2.772,3.862s0.891,3.812,2.772,3.812h13.368v9.506H565.024c-1.881,0-2.822.99-2.822,3.911s0.941,3.862,2.822,3.862h10.249V87.43H559.281c-1.881,0-2.822.99-2.822,3.862,0,2.921.941,3.862,2.822,3.862h40.45C601.613,95.154,602.6,94.213,602.6,91.292Zm47.742,1.337V55.446a3.677,3.677,0,0,0-3.713-3.713H610.341a3.677,3.677,0,0,0-3.713,3.713V92.629a3.677,3.677,0,0,0,3.713,3.713h36.291A3.677,3.677,0,0,0,650.345,92.629Zm-7.872-3.862a0.782,0.782,0,0,1-.792.792H615.292a0.782,0.782,0,0,1-.792-0.792V59.407a0.782,0.782,0,0,1,.792-0.792h26.389a0.782,0.782,0,0,1,.792.792v29.36ZM640.79,79.36a1.946,1.946,0,0,0-.149-0.693l-1.089-2.525a1.513,1.513,0,0,0-1.139-1.04,3.628,3.628,0,0,0,.446-2.03c0-2.03-.693-2.723-2.03-2.723h-4.753V66.784h5.4c1.386,0,2.079-.693,2.079-2.773s-0.693-2.773-2.079-2.773H619.5c-1.386,0-2.03.693-2.03,2.773s0.644,2.773,2.03,2.773h5.447v3.565h-4.753c-1.337,0-1.981.693-1.981,2.723,0,2.079.644,2.723,1.981,2.723h4.753V80.35H619.3c-1.386,0-2.03.693-2.03,2.773s0.644,2.773,2.03,2.773h18.369c1.386,0,2.079-.693,2.079-2.773a3.163,3.163,0,0,0-.594-2.228C640.344,80.5,640.79,80,640.79,79.36Zm-4.753.99h-3.961V75.8h3.268a1.228,1.228,0,0,0-.644,1.04,1.946,1.946,0,0,0,.149.693Z" transform="translate(-452.656 -19.188)"/>
</svg>
