<svg xmlns="http://www.w3.org/2000/svg" width="204" height="68" viewBox="0 0 204 68">
  <defs>
    <style>
      .cls-1 {
        fill: #2b546a;
        fill-rule: evenodd;
      }
    </style>
  </defs>
  <path id="キャラクター" class="cls-1" d="M42.271,65.951l-1.2-9.981L51,54.679a0.914,0.914,0,0,0,.756-1.008,0.961,0.961,0,0,0-.868-1.039H50.779c-3.163.409-6.577,0.819-9.963,1.228-0.308-2.519-.616-5.069-0.9-7.588l8.956-.945a0.844,0.844,0,0,0,.784-0.913,0.991,0.991,0,0,0-.868-1.1H48.68c-3.051.315-6.045,0.63-9.012,0.913l-0.5-4.471a1.009,1.009,0,0,0-1.063-.882,0.911,0.911,0,0,0-.98,1.008V40.07l0.532,4.377c-3.163.315-6.325,0.63-9.6,0.913a0.937,0.937,0,0,0-.84,1.008,1.071,1.071,0,0,0,.924,1.1c0.084,0,9.712-1.008,9.768-1.008l0.951,7.651L27.914,55.4a0.926,0.926,0,0,0-.728,1.039c0,0.063,0,1.133.784,1.133,0.084,0,.112,0,11.139-1.354l1.175,10.17a0.939,0.939,0,0,0,.952.85,1.1,1.1,0,0,0,1.035-1.1V65.951Zm24.5,0.126c-0.084-.693-1.064-8.721-1.735-14.452l8.956-1.165c0.056,0,.14-0.031.2-0.031a0.53,0.53,0,0,1,.532.661,11.385,11.385,0,0,1-6.185,8.753,0.951,0.951,0,0,0-.56.882,1.108,1.108,0,0,0,.952,1.133,0.9,0.9,0,0,0,.476-0.126c4.618-2.519,6.017-6.014,7-9.477a5.122,5.122,0,0,0,.224-1.354,2.2,2.2,0,0,0-2.211-2.424c-0.112,0-.224.032-0.336,0.032-3.107.409-6.185,0.819-9.292,1.2-0.224-2.015-.42-3.463-0.448-3.747a0.911,0.911,0,0,0-1.819.063v0.157l0.448,3.747c-1.623.22-3.247,0.409-4.842,0.6a0.924,0.924,0,0,0-.784.976,0.868,0.868,0,0,0,.9.976c0.112,0,1.231-.126,4.954-0.63l1.735,14.546a0.9,0.9,0,0,0,.868.913,0.99,0.99,0,0,0,.98-1.1V66.077ZM103.113,50.3a0.939,0.939,0,0,1,1.119,1.07c0,0.032-.391,12.279-16.68,13.413a1,1,0,0,0-.924,1.1,1.192,1.192,0,0,0,1.12,1.291h0.084c17.352-1.322,18.583-14.672,18.583-15.743a3.009,3.009,0,0,0-3.106-3.275H85.145a1.075,1.075,0,0,0,0,2.141h17.968Zm0.756-7.116a0.97,0.97,0,0,0,.923-1.071,0.981,0.981,0,0,0-.923-1.1H87.02a1.023,1.023,0,0,0-.98,1.1,0.979,0.979,0,0,0,.98,1.071h16.849ZM114.88,66.8c12.986-1.984,18.472-11.524,20.1-21.788a5.305,5.305,0,0,0,.084-0.913,2.575,2.575,0,0,0-2.715-2.9H121.485a3.245,3.245,0,0,0-3.274,2.078c-1.483,2.708-3.694,5.856-6.213,7.62a1.11,1.11,0,0,0-.5.945,1.24,1.24,0,0,0,1.091,1.259c0.9,0,4.478-3.306,7.417-8.627a1.947,1.947,0,0,1,1.959-1.228h10.132a1.018,1.018,0,0,1,.811,1.1v0.189c-1.483,10.359-7.277,18.2-18.359,19.93a1.138,1.138,0,0,0-1.008,1.165,1.125,1.125,0,0,0,1.147,1.165h0.2Zm26.657-.126c12.846-1.48,19.7-9.509,21.438-21.6a4.832,4.832,0,0,0,.056-0.882c0-1.858-.951-2.96-2.715-2.96H150.045a3.429,3.429,0,0,0-3.414,1.7c-1.568,2.708-3.919,5.888-6.6,7.557a1.044,1.044,0,0,0-.532.945,1.164,1.164,0,0,0,1.035,1.228c0.952,0,5.038-3.715,7.781-8.344a2.139,2.139,0,0,1,1.959-1.1h9.8a1.067,1.067,0,0,1,.951,1.228,25.215,25.215,0,0,1-4.058,11.272c-2.631-2.645-8.368-5.888-9.1-5.888a1.156,1.156,0,0,0-1.063,1.2,0.778,0.778,0,0,0,.475.787,36.429,36.429,0,0,1,8.313,5.7c-3.695,4.251-8.816,6.36-14.414,6.958a0.935,0.935,0,0,0-.9.976,1.172,1.172,0,0,0,1.119,1.228h0.14Zm47.955-12.531a1.128,1.128,0,0,0,0-2.236H169.453a1.124,1.124,0,0,0,0,2.236h20.039Z"/>
  <path id="藤子_不二雄の" data-name="藤子・  ・不二雄の" class="cls-1" d="M22.271,3.678a0.818,0.818,0,0,0-.738-0.857H17.152V1.939a0.866,0.866,0,0,0-.929-0.832,0.869,0.869,0,0,0-.976.832V2.821h-7.9V1.939a0.9,0.9,0,0,0-.976-0.832,0.874,0.874,0,0,0-.952.832V2.821H1.058a0.818,0.818,0,0,0-.738.857,0.81,0.81,0,0,0,.738.882H5.414V5.719a0.89,0.89,0,0,0,.952.832,0.913,0.913,0,0,0,.976-0.832V4.56h7.9V5.719a0.866,0.866,0,0,0,.976.806,0.863,0.863,0,0,0,.929-0.806V4.56h4.381A0.81,0.81,0,0,0,22.271,3.678Zm0.1,13.507a0.877,0.877,0,0,0-.428-0.756,6.467,6.467,0,0,1-2.6-2.318H21.58a0.739,0.739,0,0,0,.667-0.781,0.75,0.75,0,0,0-.667-0.756H18.533a10.312,10.312,0,0,1-.548-2.016h3.286a0.825,0.825,0,0,0,.667-0.806,0.767,0.767,0,0,0-.667-0.756H19.914L20.39,7.432a0.661,0.661,0,0,0,.024-0.2,0.618,0.618,0,0,0-.643-0.63,0.826,0.826,0,0,0-.762.554l-0.571,1.84H15.7a6.963,6.963,0,0,0,.214-1.411,0.816,0.816,0,0,0-.738-1.008,0.853,0.853,0,0,0-.833.781,13.337,13.337,0,0,1-.19,1.638h-1.5c-0.119-.6-0.31-1.285-0.476-1.865A0.723,0.723,0,0,0,11.438,6.6a0.634,0.634,0,0,0-.619.655c0,0.2.333,1.361,0.4,1.739H10.176a0.749,0.749,0,0,0-.667.756,0.8,0.8,0,0,0,.667.806h3.6a11.376,11.376,0,0,1-.809,2.016H9.89a0.732,0.732,0,0,0-.667.756,0.724,0.724,0,0,0,.667.781h2.167a8.721,8.721,0,0,1-2.524,2.495,1.012,1.012,0,0,0-.429.806,0.756,0.756,0,0,0,.738.806,0.972,0.972,0,0,0,.619-0.252,0.572,0.572,0,0,0,.476.5l2.4,0.706a0.5,0.5,0,0,0,.191.025,0.693,0.693,0,0,0,.6-0.756A0.673,0.673,0,0,0,13.7,17.79l-2.19-.63a13.293,13.293,0,0,0,2.309-3.049h3.976A11.027,11.027,0,0,0,20.1,17.059l-2.309.68a0.684,0.684,0,0,0-.452.655,0.649,0.649,0,0,0,.571.756,0.441,0.441,0,0,0,.167-0.025l2.428-.68a0.731,0.731,0,0,0,.5-0.68,0.024,0.024,0,0,1-.024-0.025,1.166,1.166,0,0,0,.69.252A0.721,0.721,0,0,0,22.366,17.185Zm-0.1,5.645a0.819,0.819,0,0,0-.428-0.731l-3.69-1.613a0.624,0.624,0,0,0-.214-0.025,0.683,0.683,0,0,0-.643.756,0.761,0.761,0,0,0,.4.706l3.666,1.638a1,1,0,0,0,.238.05A0.724,0.724,0,0,0,22.271,22.83Zm-5.714-1.109v-5.67a0.832,0.832,0,0,0-.833-0.756,0.785,0.785,0,0,0-.786.756v5.342c0,0.832-.238,1.008-0.643,1.008H13.747a0.759,0.759,0,0,0-.643.832,0.818,0.818,0,0,0,.714.857H14.6C15.676,24.09,16.557,23.586,16.557,21.721ZM14.1,21.192a0.654,0.654,0,0,0-.667-0.706,0.606,0.606,0,0,0-.286.076A8.493,8.493,0,0,1,9.8,22.1a0.76,0.76,0,0,0-.571.756,0.817,0.817,0,0,0,.738.857c0.9,0,3.047-1.235,3.809-1.789A0.85,0.85,0,0,0,14.1,21.192Zm-5.595.328V9.272a1.722,1.722,0,0,0-1.619-1.84H3.272a1.72,1.72,0,0,0-1.6,1.84v7.787A8.347,8.347,0,0,1,.3,22.2a1.367,1.367,0,0,0-.167.63,0.747,0.747,0,0,0,.762.806,0.926,0.926,0,0,0,.738-0.454,10.946,10.946,0,0,0,1.643-5.04h3.6v3.175a0.988,0.988,0,0,1-.976,1.008H4.653a0.835,0.835,0,0,0-.762.857,0.869,0.869,0,0,0,.762.907H6.033A2.343,2.343,0,0,0,8.509,21.519Zm8.571-8.946h-2.5a20.306,20.306,0,0,0,.738-2.016h1.214A11.648,11.648,0,0,0,17.08,12.573Zm-10.214-.63H3.319V9.7a0.589,0.589,0,0,1,.571-0.63H6.319a0.6,0.6,0,0,1,.548.63v2.243Zm0,4.561H3.319v-2.9H6.867v2.9Zm39.18-3.1a0.957,0.957,0,0,0-.833-1.008H36.4V9.952A0.767,0.767,0,0,1,36.976,9.2c4.857-1.285,7.38-4.46,7.38-5.821a1.48,1.48,0,0,0-1.524-1.512H26.1a0.9,0.9,0,0,0-.809.958A0.914,0.914,0,0,0,26.1,3.8H41.618a0.342,0.342,0,0,1,.381.3c0,0.479-1.643,2.369-6.023,3.528a1.877,1.877,0,0,0-1.5,1.94V12.4h-9.5a0.94,0.94,0,0,0-.833,1.008,0.94,0.94,0,0,0,.833,1.008h9.5v6.149a1.278,1.278,0,0,1-1.524,1.512H30.119a0.93,0.93,0,0,0-.833.983,0.966,0.966,0,0,0,.833,1.033H33.19c2.167,0,3.214-.806,3.214-3.15V14.413h8.809A0.957,0.957,0,0,0,46.047,13.4Zm14.491-.529A1.669,1.669,0,1,0,58.9,14.64,1.7,1.7,0,0,0,60.538,12.876Zm39.65,0a1.669,1.669,0,1,0-1.642,1.764A1.7,1.7,0,0,0,100.188,12.876Zm33.157,4.46a0.946,0.946,0,0,0-.334-0.731l-7.023-6.678a0.715,0.715,0,0,0-.595-0.277,1.033,1.033,0,0,0-.619,1.739l6.976,6.754a0.9,0.9,0,0,0,.642.3A1.045,1.045,0,0,0,133.345,17.336Zm0-14.515a0.889,0.889,0,0,0-.81-0.958h-20.4a0.89,0.89,0,0,0-.81.958,0.9,0.9,0,0,0,.81.983h9.523a20.479,20.479,0,0,1-9.88,12.726,1.018,1.018,0,0,0-.5.907,1.034,1.034,0,0,0,.976,1.159,1.221,1.221,0,0,0,.619-0.176,22.965,22.965,0,0,0,8.452-8.593V23.485a0.973,0.973,0,0,0,1,.907,0.937,0.937,0,0,0,.976-0.907V8.642a0.9,0.9,0,0,0-.905-0.882A18.619,18.619,0,0,0,123.655,3.8h8.88A0.9,0.9,0,0,0,133.345,2.821Zm22.49,1.26a0.991,0.991,0,0,0-.881-1.058H137.337a0.975,0.975,0,0,0-.881,1.058,0.992,0.992,0,0,0,.881,1.058h17.617A1.009,1.009,0,0,0,155.835,4.081Zm1.31,18.27a0.993,0.993,0,0,0-.857-1.058H136a1.076,1.076,0,0,0,0,2.117h20.285A0.993,0.993,0,0,0,157.145,22.351ZM180.9,22.905a0.827,0.827,0,0,0-.738-0.882h-3.071V17.991h2.428a0.827,0.827,0,0,0,.738-0.882,0.818,0.818,0,0,0-.738-0.857h-2.428V12.22h2.428a0.81,0.81,0,0,0,.738-0.882,0.818,0.818,0,0,0-.738-0.857h-2.428V6.4h3.071a0.844,0.844,0,0,0,.738-0.882,0.8,0.8,0,0,0-.738-0.857h-2.881l0.786-2.57a0.449,0.449,0,0,0,.024-0.176,0.922,0.922,0,0,0-.881-0.832,0.794,0.794,0,0,0-.786.58l-0.9,3h-3.31a10.936,10.936,0,0,0,.715-2.545,0.807,0.807,0,0,0-.834-0.806,0.838,0.838,0,0,0-.833.655,14.934,14.934,0,0,1-3.095,6.224,1.023,1.023,0,0,0-.214.655,0.872,0.872,0,0,0,.809.907,2.509,2.509,0,0,0,1.429-1.285V21.948a1.744,1.744,0,0,0,1.714,1.814h8.261A0.819,0.819,0,0,0,180.9,22.905ZM168.922,4.282a0.915,0.915,0,0,0-.81-0.932h-5V1.964a0.858,0.858,0,0,0-1.715-.025V3.35h-1.69a0.9,0.9,0,0,0-.786.932,0.872,0.872,0,0,0,.786.958h1.69c-0.071,5.443-1.095,9-2.357,11.113a1.615,1.615,0,0,0-.214.832,0.972,0.972,0,0,0,.786,1.084,0.908,0.908,0,0,0,.69-0.529c1.643-2.444,2.667-7.434,2.81-12.5h5A0.888,0.888,0,0,0,168.922,4.282Zm0.095,19.3V23.46L167.85,12.7a0.7,0.7,0,0,0-.761-0.6,0.752,0.752,0,0,0-.786.756l0.786,7.459a4.271,4.271,0,0,1-3.619,1.537l1.762-13.331a0.787,0.787,0,0,0-.834-0.781,0.912,0.912,0,0,0-.833.731l-1.738,13.381h-1.452a0.923,0.923,0,0,0-.81.958,0.94,0.94,0,0,0,.857.958h2.5A5.749,5.749,0,0,0,167.3,22.25l0.143,1.436a0.721,0.721,0,0,0,.738.68A0.8,0.8,0,0,0,169.017,23.586Zm6.357-13.1h-3.429V7.054a0.606,0.606,0,0,1,.667-0.655h2.762v4.082Zm0,5.771h-3.429V12.22h3.429v4.032Zm0,5.771h-2.833a0.593,0.593,0,0,1-.6-0.63v-3.4h3.429v4.032Zm27.8-7.607c0-5.482-3.046-8.947-8.486-8.947-6.742,0-9.451,4.348-9.451,9.914,0,4.621,1.743,7.372,4.431,7.372,3.3,0,5.755-4.411,5.755-13.568V8.976a0.734,0.734,0,0,0-.9-0.651,0.8,0.8,0,0,0-.987.672c-0.1,2.268-.714,11.636-3.78,11.636-1.681,0-2.689-2.205-2.689-5.251,0-4.7,2.163-8.086,7.561-8.086,4.453,0,6.616,2.982,6.616,7.057,0,4.411-1.68,6.049-5.292,6.952a0.773,0.773,0,0,0-.631.882,0.925,0.925,0,0,0,.883,1.05,0.9,0.9,0,0,0,.252-0.042C200.905,22.376,203.174,19.772,203.174,14.416Z"/>
  <path id="F" class="cls-1" d="M87.9,2.9A0.969,0.969,0,0,0,86.849,1.79H73.969c-1.238,0-1.786.63-1.786,1.915V21.446a0.926,0.926,0,0,0,1.024,1.084,0.943,0.943,0,0,0,1.047-1.084V13.281h11.5A0.98,0.98,0,0,0,86.8,12.2a0.988,0.988,0,0,0-1.048-1.109h-11.5V4.663a0.536,0.536,0,0,1,.6-0.655H86.8A0.99,0.99,0,0,0,87.9,2.9Z"/>
</svg>
