<svg xmlns="http://www.w3.org/2000/svg" width="750" height="300" viewBox="0 0 750 300">
  <defs>
    <style>
      .cls-1 {
        fill: #2b546a;
      }

      .cls-2, .cls-3 {
        fill: #fff;
      }

      .cls-2 {
        fill-rule: evenodd;
      }
    </style>
  </defs>
  <rect id="長方形_4" data-name="長方形 4" class="cls-1" width="750" height="300"/>
  <path id="角丸長方形_3_のコピー_12" data-name="角丸長方形 3 のコピー 12" class="cls-2" d="M16,281.437H37.25a4,4,0,0,1,4,4v5.907a4,4,0,0,1-4,4H16a4,4,0,0,1-4-4v-5.907A4,4,0,0,1,16,281.437Zm46.5,0H83.75a4,4,0,0,1,4,4v5.907a4,4,0,0,1-4,4H62.5a4,4,0,0,1-4-4v-5.907A4,4,0,0,1,62.5,281.437Zm47.125,0h21.219a4,4,0,0,1,4,4v5.907a4,4,0,0,1-4,4H109.625a4,4,0,0,1-4-4v-5.907A4,4,0,0,1,109.625,281.437Zm46.531,0h21.25a4,4,0,0,1,4,4v5.907a4,4,0,0,1-4,4h-21.25a4,4,0,0,1-4-4v-5.907A4,4,0,0,1,156.156,281.437Zm47.125,0H224.5a4,4,0,0,1,4,4v5.907a4,4,0,0,1-4,4H203.281a4,4,0,0,1-4-4v-5.907A4,4,0,0,1,203.281,281.437Zm46.375,0h21.219a4,4,0,0,1,4,4v5.907a4,4,0,0,1-4,4H249.656a4,4,0,0,1-4-4v-5.907A4,4,0,0,1,249.656,281.437Zm46.938,0h21.25a4,4,0,0,1,4,4v5.907a4,4,0,0,1-4,4h-21.25a4,4,0,0,1-4-4v-5.907A4,4,0,0,1,296.594,281.437Zm47,0h21.25a4,4,0,0,1,4,4v5.907a4,4,0,0,1-4,4h-21.25a4,4,0,0,1-4-4v-5.907A4,4,0,0,1,343.594,281.437Zm46.343,0h21.25a4,4,0,0,1,4,4v5.907a4,4,0,0,1-4,4h-21.25a4,4,0,0,1-4-4v-5.907A4,4,0,0,1,389.937,281.437Zm47,0h21.219a4,4,0,0,1,4,4v5.907a4,4,0,0,1-4,4H436.937a4,4,0,0,1-4-4v-5.907A4,4,0,0,1,436.937,281.437Zm45.063,0h21.25a4,4,0,0,1,4,4v5.907a4,4,0,0,1-4,4H482a4,4,0,0,1-4-4v-5.907A4,4,0,0,1,482,281.437Zm46.5,0h21.25a4,4,0,0,1,4,4v5.907a4,4,0,0,1-4,4H528.5a4,4,0,0,1-4-4v-5.907A4,4,0,0,1,528.5,281.437Zm47.125,0h21.219a4,4,0,0,1,4,4v5.907a4,4,0,0,1-4,4H575.625a4,4,0,0,1-4-4v-5.907A4,4,0,0,1,575.625,281.437Zm46.531,0h21.25a4,4,0,0,1,4,4v5.907a4,4,0,0,1-4,4h-21.25a4,4,0,0,1-4-4v-5.907A4,4,0,0,1,622.156,281.437Zm47.125,0H690.5a4,4,0,0,1,4,4v5.907a4,4,0,0,1-4,4H669.281a4,4,0,0,1-4-4v-5.907A4,4,0,0,1,669.281,281.437Zm46.375,0h21.219a4,4,0,0,1,4,4v5.907a4,4,0,0,1-4,4H715.656a4,4,0,0,1-4-4v-5.907A4,4,0,0,1,715.656,281.437Z"/>
  <path id="角丸長方形_3_のコピー_11" data-name="角丸長方形 3 のコピー 11" class="cls-2" d="M16,7.438H37.25a4,4,0,0,1,4,4v5.906a4,4,0,0,1-4,4H16a4,4,0,0,1-4-4V11.438A4,4,0,0,1,16,7.438Zm46.5,0H83.75a4,4,0,0,1,4,4v5.906a4,4,0,0,1-4,4H62.5a4,4,0,0,1-4-4V11.438A4,4,0,0,1,62.5,7.438Zm47.125,0h21.219a4,4,0,0,1,4,4v5.906a4,4,0,0,1-4,4H109.625a4,4,0,0,1-4-4V11.438A4,4,0,0,1,109.625,7.438Zm46.531,0h21.25a4,4,0,0,1,4,4v5.906a4,4,0,0,1-4,4h-21.25a4,4,0,0,1-4-4V11.438A4,4,0,0,1,156.156,7.438Zm47.125,0H224.5a4,4,0,0,1,4,4v5.906a4,4,0,0,1-4,4H203.281a4,4,0,0,1-4-4V11.438A4,4,0,0,1,203.281,7.438Zm46.375,0h21.219a4,4,0,0,1,4,4v5.906a4,4,0,0,1-4,4H249.656a4,4,0,0,1-4-4V11.438A4,4,0,0,1,249.656,7.438Zm46.938,0h21.25a4,4,0,0,1,4,4v5.906a4,4,0,0,1-4,4h-21.25a4,4,0,0,1-4-4V11.438A4,4,0,0,1,296.594,7.438Zm47,0h21.25a4,4,0,0,1,4,4v5.906a4,4,0,0,1-4,4h-21.25a4,4,0,0,1-4-4V11.438A4,4,0,0,1,343.594,7.438Zm46.343,0h21.25a4,4,0,0,1,4,4v5.906a4,4,0,0,1-4,4h-21.25a4,4,0,0,1-4-4V11.438A4,4,0,0,1,389.937,7.438Zm47,0h21.219a4,4,0,0,1,4,4v5.906a4,4,0,0,1-4,4H436.937a4,4,0,0,1-4-4V11.438A4,4,0,0,1,436.937,7.438Zm45.063,0h21.25a4,4,0,0,1,4,4v5.906a4,4,0,0,1-4,4H482a4,4,0,0,1-4-4V11.438A4,4,0,0,1,482,7.438Zm46.5,0h21.25a4,4,0,0,1,4,4v5.906a4,4,0,0,1-4,4H528.5a4,4,0,0,1-4-4V11.438A4,4,0,0,1,528.5,7.438Zm47.125,0h21.219a4,4,0,0,1,4,4v5.906a4,4,0,0,1-4,4H575.625a4,4,0,0,1-4-4V11.438A4,4,0,0,1,575.625,7.438Zm46.531,0h21.25a4,4,0,0,1,4,4v5.906a4,4,0,0,1-4,4h-21.25a4,4,0,0,1-4-4V11.438A4,4,0,0,1,622.156,7.438Zm47.125,0H690.5a4,4,0,0,1,4,4v5.906a4,4,0,0,1-4,4H669.281a4,4,0,0,1-4-4V11.438A4,4,0,0,1,669.281,7.438Zm46.375,0h21.219a4,4,0,0,1,4,4v5.906a4,4,0,0,1-4,4H715.656a4,4,0,0,1-4-4V11.438A4,4,0,0,1,715.656,7.438Z"/>
  <rect id="長方形_5" data-name="長方形 5" class="cls-3" y="274" width="750" height="2"/>
</svg>
