<svg xmlns="http://www.w3.org/2000/svg" width="244" height="76.563" viewBox="0 0 244 76.563">
  <defs>
    <style>
      .cls-1 {
        fill: #2b546a;
        fill-rule: evenodd;
      }
    </style>
  </defs>
  <path id="_20_title.svg" data-name="20_title.svg" class="cls-1" d="M492.2,26.172a0.736,0.736,0,0,0-.243-0.567l-2.676-2.216a0.746,0.746,0,0,0-1.243.54,0.758,0.758,0,0,0,.271.568l2.675,2.243a0.692,0.692,0,0,0,.486.189A0.733,0.733,0,0,0,492.2,26.172Zm-3.513,1.189a0.81,0.81,0,0,0-.162-0.486L486.146,24.2a0.779,0.779,0,0,0-.568-0.243,0.731,0.731,0,0,0-.756.73,0.713,0.713,0,0,0,.189.513l2.378,2.675a0.763,0.763,0,0,0,.54.243A0.737,0.737,0,0,0,488.686,27.361Zm2.027,10.161a0.8,0.8,0,0,0-.784-0.784c-0.946,0-3.837-1.784-7.242-3.837l-2.513-1.513V26.172a0.8,0.8,0,0,0-.784-0.784,0.785,0.785,0,0,0-.784.784v16.7a0.785,0.785,0,0,0,.784.784,0.8,0.8,0,0,0,.784-0.784v-9.62l1.675,1c4.459,2.648,6.729,4.053,8.08,4.053A0.785,0.785,0,0,0,490.713,37.522Zm23.518-10.647a0.8,0.8,0,0,0-.783-0.784H502.476a0.822,0.822,0,0,0-.784.784,0.8,0.8,0,0,0,.784.784h10.972A0.784,0.784,0,0,0,514.231,26.875Zm0.865,5.972V31.361a0.784,0.784,0,0,0-.784-0.784H500.774a0.784,0.784,0,1,0,0,1.567h12.755v0.7c0,1.486-3.351,7.431-12.755,9.161a0.759,0.759,0,0,0-.622.757,0.8,0.8,0,0,0,.784.784h0.135C511.015,41.71,515.1,35.306,515.1,32.847Zm21.816-6.161a0.8,0.8,0,0,0-.783-0.784h-9a0.8,0.8,0,0,0-.784.784,0.785,0.785,0,0,0,.784.784h9A0.784,0.784,0,0,0,536.912,26.686Zm5.324,15.457a0.768,0.768,0,0,0-.784-0.784h-3.486c-1.621,0-2.945-.189-3.486-0.7a1.5,1.5,0,0,1-.324-1.189c0-2.108-.7-3.567-2.135-3.81l4.864-4.108a0.783,0.783,0,0,0,.27-0.622,0.816,0.816,0,0,0-.783-0.784H525.536a0.8,0.8,0,0,0-.784.784,0.784,0.784,0,0,0,.784.784h8.674l-11.08,9.4a0.745,0.745,0,0,0-.3.568,0.79,0.79,0,0,0,.811.784,0.808,0.808,0,0,0,.486-0.162l5.729-4.837a5.092,5.092,0,0,1,1.676-.3c0.513,0,1.054.081,1.054,2.3,0,2.729,1.756,3.459,5.377,3.459h3.486A0.768,0.768,0,0,0,542.236,42.143Zm23.127-11.728a0.784,0.784,0,0,0-.784-0.784h-9.133v-3.54a0.785,0.785,0,0,0-.784-0.784,0.8,0.8,0,0,0-.784.784v3.54h-5.837a0.784,0.784,0,0,0-.783.784,0.8,0.8,0,0,0,.783.784h5.837l-0.054,3.3h-4.7a0.77,0.77,0,1,0,0,1.54H553.8v1.973c0,4.216.946,5.648,3.919,5.648a9.877,9.877,0,0,0,7.134-3.4,0.694,0.694,0,0,0,.189-0.486,0.808,0.808,0,0,0-.784-0.811,0.765,0.765,0,0,0-.594.27,8.513,8.513,0,0,1-5.945,2.864c-1.7,0-2.352-.73-2.352-3.945,0-.486,0-1.243.028-2.108h5.864a0.77,0.77,0,1,0,0-1.54h-5.864l0.054-3.3h9.133A0.8,0.8,0,0,0,565.363,30.415Zm28.066,8.3a0.808,0.808,0,0,0-.811-0.784,0.731,0.731,0,0,0-.54.216,9.848,9.848,0,0,1-6.567,3.081c-2.594,0-.162-7.81-4.648-7.81a6.961,6.961,0,0,0-2.405.459l3.81-7.215a0.833,0.833,0,0,0,.081-0.351,0.777,0.777,0,0,0-1.459-.405l-8.323,15.728a0.863,0.863,0,0,0-.081.378,0.778,0.778,0,0,0,.756.784,0.806,0.806,0,0,0,.7-0.405L577,36.63a5.585,5.585,0,0,1,3.864-1.648c2.756,0,.189,7.81,4.648,7.81a11.527,11.527,0,0,0,7.674-3.54A0.892,0.892,0,0,0,593.429,38.711Zm25.122-3.972c0-4.459-3.351-7.377-8.567-7.377-6.107,0-9.755,4.324-9.755,8.512,0,3.729,1.784,5.026,3.351,5.026,1.189,0,2.54-1.459,3.621-3.4a23.217,23.217,0,0,0,2.54-7.215V28.928h0.406c4.242,0,6.836,2.243,6.836,5.81,0,3.081-3.918,6.188-7.809,6.188a0.784,0.784,0,1,0,0,1.567C613.984,42.494,618.551,38.738,618.551,34.738ZM608.174,30.2c-1,5.215-3.621,9.134-4.594,9.134S601.8,38.2,601.8,35.873c0-3,2.351-6.08,6.378-6.783V30.2Zm38.743-2.972a0.761,0.761,0,0,0-.27-0.567l-2.73-2.135a0.716,0.716,0,0,0-1.135.567,0.645,0.645,0,0,0,.243.54l2.73,2.135a0.733,0.733,0,0,0,.459.162A0.7,0.7,0,0,0,646.917,27.226Zm-3.243,1.135a0.652,0.652,0,0,0-.189-0.486l-2.7-2.567a0.693,0.693,0,0,0-.486-0.189,0.681,0.681,0,0,0-.7.7,0.588,0.588,0,0,0,.217.486l2.7,2.594a0.632,0.632,0,0,0,.459.189A0.7,0.7,0,0,0,643.674,28.361Zm2.162,5.891a0.761,0.761,0,0,0-.27-0.568c-0.973-.73-2.487-1.811-6.405-6.134a0.766,0.766,0,0,0-.594-0.27,0.818,0.818,0,0,0-.784.784v0.054c0,1.189.135,2.324,0.135,3.351,0,3.756-.432,10.431-5.54,10.431-2.81,0-3.81-2.027-3.81-4.108,0-3.216,2.27-7.161,5.567-9.728a0.839,0.839,0,0,0,.27-0.649,0.754,0.754,0,0,0-.757-0.757h-7.863a0.77,0.77,0,1,0,0,1.54h5.81C628.811,30.982,627,34.657,627,37.792c0,3.486,2.108,5.675,5.377,5.675,6.216,0,7.08-7.269,7.08-12.025V30.036a40.416,40.416,0,0,0,4.946,4.729,1.369,1.369,0,0,0,.7.243A0.717,0.717,0,0,0,645.836,34.252Zm27.138,8.728a0.767,0.767,0,0,0-.27-0.595l-10.755-8.674V30.928h7.458a0.77,0.77,0,1,0,0-1.54h-7.458V25.929a0.784,0.784,0,0,0-1.568,0v3.459H653.49a0.77,0.77,0,1,0,0,1.54h6.891v2.756l-6.053,6.7-3.756,1.27a0.78,0.78,0,0,0-.541.73,0.761,0.761,0,0,0,.784.757,0.748,0.748,0,0,0,.243-0.027l3.973-1.3a0.854,0.854,0,0,0,.324-0.216l5.864-6.513L671.731,43.6a0.753,0.753,0,0,0,.486.162,0.766,0.766,0,0,0,.6-0.27A0.89,0.89,0,0,0,672.974,42.98ZM664.3,41.954a0.8,0.8,0,0,0-.784-0.784H659.49a0.784,0.784,0,1,0,0,1.567h4.026A0.8,0.8,0,0,0,664.3,41.954ZM694.293,35.8c0-3.963-2.979-6.558-7.615-6.558-5.428,0-8.671,3.843-8.671,7.566,0,3.315,1.585,4.468,2.979,4.468,1.056,0,2.257-1.3,3.218-3.027a20.61,20.61,0,0,0,2.258-6.413v-1.2h0.361c3.771,0,6.077,1.994,6.077,5.164,0,2.738-3.483,5.5-6.942,5.5a0.7,0.7,0,1,0,0,1.393C690.233,42.7,694.293,39.359,694.293,35.8Zm-9.224-4.035c-0.889,4.636-3.219,8.119-4.083,8.119s-1.586-1.009-1.586-3.075c0-2.666,2.09-5.4,5.669-6.029v0.985ZM505.948,83.5a1.531,1.531,0,0,0,1.535-1.634,1.505,1.505,0,0,0-1.535-1.634H487.926V71.072h12.625a1.588,1.588,0,0,0,0-3.169H468.914a1.585,1.585,0,0,0,0,3.169h15.5v9.159h-20.6a1.533,1.533,0,0,0-1.534,1.634,1.561,1.561,0,0,0,1.534,1.634h20.6v9.06c0,2.475-.2,3.565-2.674,3.565-1.683,0-4.555-.545-9.159-1.634a1.528,1.528,0,0,0-.495-0.05,1.857,1.857,0,0,0-1.783,1.881,1.627,1.627,0,0,0,1.337,1.634,46.659,46.659,0,0,0,10.5,1.733c5.248,0,5.793-2.624,5.793-7.179V83.5h18.022Zm-2.723-15a1.676,1.676,0,0,0,3.317,0V63.249c0-2.674-1.386-4.7-4.8-4.7H486.49v-3.02a1.543,1.543,0,0,0-1.733-1.436,1.561,1.561,0,0,0-1.782,1.436v3.02H467.627c-3.416,0-4.8,2.03-4.8,4.7V68.5a1.482,1.482,0,0,0,1.634,1.436,1.5,1.5,0,0,0,1.683-1.436V63.3c0-1.139.347-1.584,1.535-1.584H501.69c1.188,0,1.535.446,1.535,1.584v5.2Zm45.3,30.2c3.466,0,5.644-1.584,5.644-5.595V74.389c0-3.565-2.079-5.149-5.644-5.149H535.208V64.734a1.618,1.618,0,0,0-1.733-1.535,1.575,1.575,0,0,0-1.683,1.535V69.24H519.414c-3.515,0-5.743,1.782-5.743,5.2V93.1c0,3.317,1.782,5.595,5.743,5.595h29.112Zm3.763-32.33a1.554,1.554,0,0,0,1.733,1.485,1.491,1.491,0,0,0,1.634-1.485V62.16c0-2.624-1.585-4.555-4.8-4.555h-15.1V55.327a1.795,1.795,0,0,0-3.565,0V57.6h-15.2c-3.069,0-4.8,1.832-4.8,4.555v4.357A1.491,1.491,0,0,0,513.82,68a1.553,1.553,0,0,0,1.732-1.485V62.358a1.307,1.307,0,0,1,1.535-1.584H550.9c1.238,0,1.386.644,1.386,1.584v4.01ZM550.8,92.955a2.374,2.374,0,0,1-2.377,2.674H535.208V84.786h15.6v8.169Zm-19.012,2.674H519.563a2.433,2.433,0,0,1-2.525-2.674V84.786h14.754V95.629ZM550.8,81.766h-15.6V72.309h13.219a2.162,2.162,0,0,1,2.377,2.178v7.278Zm-19.012,0H517.038V74.488c0-1.337.841-2.178,2.525-2.178h12.229v9.456ZM601.279,73.5c3.317,0,4.406-1.188,4.406-3.862V65.873c0-2.723-1.336-3.763-4.406-3.763h-5.545V58.3h9.357a1.4,1.4,0,0,0,1.436-1.535,1.386,1.386,0,0,0-1.436-1.485H573.7a1.512,1.512,0,0,0,0,3.02h8.961V62.11h-5.2c-3.318,0-4.456.842-4.456,3.763v3.763c0,2.971,1.089,3.862,4.456,3.862h23.814Zm3.911,12.774a1.432,1.432,0,0,0,1.387-1.584,1.416,1.416,0,0,0-1.387-1.535H574.147a1.447,1.447,0,0,0-1.386,1.535,1.462,1.462,0,0,0,1.386,1.584h14.061v8.07c0,1.337-.1,1.98-1.584,1.98a18.01,18.01,0,0,1-3.515-.5c-0.1,0-.149-0.05-0.248-0.05a1.657,1.657,0,0,0-1.436,1.782,1.589,1.589,0,0,0,1.387,1.683,23.86,23.86,0,0,0,4.109.446c3.763,0,4.6-1.782,4.6-5.4V86.271H605.19Zm-2.624-6.387a1.432,1.432,0,0,0,1.387-1.584,1.416,1.416,0,0,0-1.387-1.535H576.375a1.447,1.447,0,0,0-1.386,1.535,1.462,1.462,0,0,0,1.386,1.584h26.191ZM564.394,97.411a90.412,90.412,0,0,0,6.585-15.15,3.449,3.449,0,0,0,.1-0.644,1.731,1.731,0,0,0-1.733-1.782,1.556,1.556,0,0,0-1.535,1.139,86,86,0,0,1-6.585,14.259,2.14,2.14,0,0,0-.4,1.238,1.985,1.985,0,0,0,1.981,1.98A1.857,1.857,0,0,0,564.394,97.411ZM604.1,99a1.673,1.673,0,0,0,1.584-1.634c0-1.238-3.416-5.446-6.188-8.268a1.468,1.468,0,0,0-1.139-.545,1.738,1.738,0,0,0-1.733,1.634,1.132,1.132,0,0,0,.347.792,56.105,56.105,0,0,1,5.842,7.278A1.5,1.5,0,0,0,604.1,99Zm-31.439-.5c1.634,0,8.12-7.13,8.12-8.516a1.725,1.725,0,0,0-1.733-1.535,1.173,1.173,0,0,0-1.04.545,27.976,27.976,0,0,1-6.486,6.783,1.311,1.311,0,0,0-.544,1.089A1.692,1.692,0,0,0,572.662,98.5Zm19.9-28.023h-6.733V65.13h6.733v5.347Zm9.853-1.188c0,0.891-.2,1.188-1.139,1.188h-5.545V65.13h5.545a0.953,0.953,0,0,1,1.139,1.188v2.971ZM563.4,66.22a1.728,1.728,0,0,0-.892-0.3,1.88,1.88,0,0,0-1.831,1.931,1.722,1.722,0,0,0,1.039,1.485c1.882,0.941,4.258,2.327,5.892,3.268a1.6,1.6,0,0,0,.891.3,1.813,1.813,0,0,0,1.684-1.881C570.187,70.279,570.088,69.586,563.4,66.22Zm19.259,4.258h-5.248a0.967,0.967,0,0,1-1.139-1.188V66.319a0.953,0.953,0,0,1,1.139-1.188h5.248v5.347ZM568.5,60.872a1.389,1.389,0,0,0,.941.346,1.784,1.784,0,0,0,1.634-1.782,1.606,1.606,0,0,0-.693-1.386c-4.06-3.07-5.249-3.565-5.991-3.565a1.747,1.747,0,0,0-1.832,1.733A1.659,1.659,0,0,0,563.4,57.6C565.186,58.595,566.77,59.734,568.5,60.872Zm24.062,1.238h-6.733V58.3h6.733V62.11Zm61.888-.644a1.466,1.466,0,0,0,1.485-1.535,1.44,1.44,0,0,0-1.485-1.535H640.342v-3.07a1.537,1.537,0,0,0-1.683-1.485,1.554,1.554,0,0,0-1.733,1.485V58.4H623.41a1.429,1.429,0,0,0-1.436,1.535,1.456,1.456,0,0,0,1.436,1.535h10.1a61.181,61.181,0,0,1-6.833,10.1c-1.138,0-2.178.05-3.267,0.05a1.337,1.337,0,0,0-1.436,1.485,1.808,1.808,0,0,0,1.683,1.881c1.436,0,19.557-.941,27.974-2.129a23.179,23.179,0,0,1,1.534,2.921,1.3,1.3,0,0,0,1.189.941,2.124,2.124,0,0,0,1.93-1.98c0-1.188-3.861-6.288-6.881-9.555a1.379,1.379,0,0,0-1.04-.4,1.751,1.751,0,0,0-1.832,1.485,1.241,1.241,0,0,0,.347.842c0.891,1.04,2.327,2.228,3.119,3.218-4.7.594-12.824,0.99-19.656,1.238a62.836,62.836,0,0,0,6.932-10.1h17.18Zm-2.971,37.628c3.515,0,4.951-1.535,4.951-10v-0.05a1.5,1.5,0,0,0-1.584-1.386,1.247,1.247,0,0,0-1.387,1.287c-0.3,6.535-.742,6.932-2.673,6.932-1.535,0-1.832-.248-1.832-2.228V79.191a1.457,1.457,0,0,0-1.634-1.436,1.482,1.482,0,0,0-1.634,1.436V93.6c0,4.357,1.387,5.5,4.753,5.5h1.04Zm-30.152.3c6.288-4.555,8.664-10.1,8.664-20.2a1.512,1.512,0,0,0-1.633-1.436,1.486,1.486,0,0,0-1.634,1.436c0,9.407-1.981,13.615-7.526,17.329a1.356,1.356,0,0,0-.742,1.188,2.172,2.172,0,0,0,2.03,1.931A1.3,1.3,0,0,0,621.33,99.391ZM635.886,98.3a1.482,1.482,0,0,0,1.634,1.436,1.457,1.457,0,0,0,1.634-1.436V79.191a1.5,1.5,0,0,0-1.634-1.485,1.521,1.521,0,0,0-1.634,1.485V98.3ZM614.1,97.857a153.325,153.325,0,0,0,6.04-16.041,1.713,1.713,0,0,0-1.832-1.485,1.445,1.445,0,0,0-1.386.99,124.091,124.091,0,0,1-6.09,15.15,1.515,1.515,0,0,0-.2.743,1.778,1.778,0,0,0,1.881,1.683A1.67,1.67,0,0,0,614.1,97.857Zm4.6-24.31a1.553,1.553,0,0,0,1.535-1.584,1.6,1.6,0,0,0-.792-1.386c-3.169-1.881-6.387-3.812-7.328-3.812a1.626,1.626,0,0,0-1.535,1.634,1.436,1.436,0,0,0,.743,1.287,58.376,58.376,0,0,1,6.535,3.614A1.484,1.484,0,0,0,618.706,73.547Zm0.743-12.179a1.711,1.711,0,0,0,1.584-1.634,1.69,1.69,0,0,0-.743-1.287c-0.643-.446-5.891-4.258-7.03-4.258a1.636,1.636,0,0,0-1.485,1.683,1.223,1.223,0,0,0,.693,1.139,56.079,56.079,0,0,1,6.04,4.06A1.751,1.751,0,0,0,619.449,61.368Zm77.815,37.083c5.446,0,7.575-1.139,8.961-10.6,0-.1.05-0.2,0.05-0.3a1.769,1.769,0,0,0-1.882-1.634,1.642,1.642,0,0,0-1.683,1.337c-1.04,7.229-1.584,7.724-5.347,7.724h-6.288c-3.961,0-4.852-1.238-4.852-4.109V77.062a1.505,1.505,0,0,1,1.782-1.733h10.051c4.307,0,6.04-1.733,6.04-5.3V60.872c0-3.614-1.733-5.347-6.04-5.347H683.45a1.588,1.588,0,0,0,0,3.169H698.2c1.783,0,2.476.5,2.476,1.98V70.18c0,1.535-.693,1.98-2.476,1.98h-9.9c-3.663,0-5.4,1.386-5.4,4.951V90.727c0,5.347,2.426,7.724,8.317,7.724h6.041ZM675.43,98.3c2.723,0,3.861-1.188,3.861-3.862V85.727c0-2.624-1.138-3.812-3.861-3.812h-9.7c-2.723,0-3.862,1.188-3.862,3.812V94.44c0,2.674,1.139,3.862,3.862,3.862h9.7Zm0.5-3.911a0.91,0.91,0,0,1-.941.941h-8.862a0.871,0.871,0,0,1-.891-0.941V85.776a0.857,0.857,0,0,1,.891-0.891h8.862a0.9,0.9,0,0,1,.941.891v8.615Zm3.416-29.409a1.456,1.456,0,0,0,1.436-1.535,1.429,1.429,0,0,0-1.436-1.535H661.616a1.39,1.39,0,0,0-1.386,1.535,1.416,1.416,0,0,0,1.386,1.535h17.725ZM677.46,58.4a1.455,1.455,0,0,0,1.435-1.535,1.429,1.429,0,0,0-1.435-1.535H663.6a1.391,1.391,0,0,0-1.387,1.535A1.416,1.416,0,0,0,663.6,58.4H677.46Zm0.148,13.17a1.489,1.489,0,0,0,0-2.971h-14.16a1.489,1.489,0,0,0,0,2.971h14.16Zm0,6.585a1.489,1.489,0,0,0,0-2.971h-14.16a1.489,1.489,0,0,0,0,2.971h14.16Z" transform="translate(-462.281 -23.188)"/>
</svg>
