<svg xmlns="http://www.w3.org/2000/svg" width="408.187" height="72.406" viewBox="0 0 408.187 72.406">
  <defs>
    <style>
      .cls-1 {
        fill: #2b546a;
        fill-rule: evenodd;
      }
    </style>
  </defs>
  <path id="_18_title.svg" data-name="18_title.svg" class="cls-1" d="M466.242,27.172A0.736,0.736,0,0,0,466,26.6l-2.676-2.216a0.746,0.746,0,0,0-1.243.54,0.761,0.761,0,0,0,.27.568l2.676,2.243a0.692,0.692,0,0,0,.486.189A0.733,0.733,0,0,0,466.242,27.172Zm-3.513,1.189a0.81,0.81,0,0,0-.162-0.486L460.189,25.2a0.78,0.78,0,0,0-.568-0.243,0.732,0.732,0,0,0-.757.73,0.714,0.714,0,0,0,.19.513l2.378,2.675a0.763,0.763,0,0,0,.54.243A0.738,0.738,0,0,0,462.729,28.361Zm2.026,10.161a0.8,0.8,0,0,0-.783-0.784c-0.946,0-3.837-1.784-7.242-3.837l-2.514-1.513V27.172a0.8,0.8,0,0,0-.783-0.784,0.784,0.784,0,0,0-.784.784v16.7a0.784,0.784,0,0,0,.784.784,0.8,0.8,0,0,0,.783-0.784v-9.62l1.676,1c4.459,2.648,6.729,4.053,8.08,4.053A0.784,0.784,0,0,0,464.755,38.522Zm23.519-10.647a0.8,0.8,0,0,0-.784-0.784H476.519a0.822,0.822,0,0,0-.784.784,0.8,0.8,0,0,0,.784.784H487.49A0.784,0.784,0,0,0,488.274,27.875Zm0.865,5.972V32.361a0.784,0.784,0,0,0-.784-0.784H474.817a0.784,0.784,0,1,0,0,1.567h12.755v0.7c0,1.486-3.351,7.431-12.755,9.161a0.759,0.759,0,0,0-.622.757,0.8,0.8,0,0,0,.784.784h0.135C485.058,42.71,489.139,36.306,489.139,33.847Zm21.816-6.161a0.8,0.8,0,0,0-.784-0.784h-9a0.8,0.8,0,0,0-.784.784,0.784,0.784,0,0,0,.784.784h9A0.784,0.784,0,0,0,510.955,27.686Zm5.324,15.457a0.768,0.768,0,0,0-.784-0.784h-3.486c-1.621,0-2.945-.189-3.486-0.7a1.5,1.5,0,0,1-.324-1.189c0-2.108-.7-3.567-2.135-3.81l4.864-4.108a0.783,0.783,0,0,0,.27-0.622,0.816,0.816,0,0,0-.783-0.784H499.578a0.8,0.8,0,0,0-.783.784,0.784,0.784,0,0,0,.783.784h8.675l-11.08,9.4a0.745,0.745,0,0,0-.3.568,0.789,0.789,0,0,0,.811.784,0.808,0.808,0,0,0,.486-0.162l5.729-4.837a5.092,5.092,0,0,1,1.676-.3c0.513,0,1.053.081,1.053,2.3,0,2.729,1.757,3.459,5.378,3.459H515.5A0.768,0.768,0,0,0,516.279,43.143Zm23.127-11.728a0.784,0.784,0,0,0-.784-0.784h-9.134v-3.54a0.784,0.784,0,0,0-.783-0.784,0.8,0.8,0,0,0-.784.784v3.54h-5.837a0.784,0.784,0,0,0-.783.784,0.8,0.8,0,0,0,.783.784h5.837l-0.054,3.3h-4.7a0.77,0.77,0,1,0,0,1.54h4.675v1.973c0,4.216.946,5.648,3.918,5.648a9.878,9.878,0,0,0,7.135-3.4,0.694,0.694,0,0,0,.189-0.486,0.808,0.808,0,0,0-.784-0.811,0.765,0.765,0,0,0-.594.27,8.513,8.513,0,0,1-5.946,2.864c-1.7,0-2.351-.73-2.351-3.945,0-.486,0-1.243.027-2.108H535.3a0.77,0.77,0,1,0,0-1.54h-5.864l0.054-3.3h9.134A0.8,0.8,0,0,0,539.406,31.415Zm28.066,8.3a0.808,0.808,0,0,0-.811-0.784,0.735,0.735,0,0,0-.541.216,9.844,9.844,0,0,1-6.566,3.081c-2.594,0-.162-7.81-4.648-7.81a6.961,6.961,0,0,0-2.4.459l3.81-7.215a0.833,0.833,0,0,0,.081-0.351,0.777,0.777,0,0,0-1.459-.405L546.61,42.629a0.863,0.863,0,0,0-.081.378,0.778,0.778,0,0,0,.756.784,0.806,0.806,0,0,0,.7-0.405l3.054-5.756a5.585,5.585,0,0,1,3.864-1.648c2.756,0,.189,7.81,4.648,7.81a11.527,11.527,0,0,0,7.674-3.54A0.892,0.892,0,0,0,567.472,39.711Zm25.122-3.972c0-4.459-3.351-7.377-8.567-7.377-6.107,0-9.755,4.324-9.755,8.512,0,3.729,1.784,5.026,3.351,5.026,1.189,0,2.54-1.459,3.621-3.4a23.217,23.217,0,0,0,2.54-7.215V29.928h0.406c4.242,0,6.836,2.243,6.836,5.81,0,3.081-3.918,6.188-7.809,6.188a0.784,0.784,0,1,0,0,1.567C588.027,43.494,592.594,39.738,592.594,35.738ZM582.217,31.2c-1,5.215-3.621,9.134-4.594,9.134s-1.784-1.135-1.784-3.459c0-3,2.351-6.08,6.378-6.783V31.2Zm38.743-2.972a0.758,0.758,0,0,0-.271-0.567l-2.729-2.135a0.716,0.716,0,0,0-1.135.567,0.645,0.645,0,0,0,.243.54l2.73,2.135a0.733,0.733,0,0,0,.459.162A0.7,0.7,0,0,0,620.96,28.226Zm-3.243,1.135a0.652,0.652,0,0,0-.189-0.486l-2.7-2.567a0.693,0.693,0,0,0-.486-0.189,0.681,0.681,0,0,0-.7.7,0.585,0.585,0,0,0,.217.486l2.7,2.594a0.632,0.632,0,0,0,.459.189A0.7,0.7,0,0,0,617.717,29.361Zm2.162,5.891a0.761,0.761,0,0,0-.27-0.568c-0.973-.73-2.487-1.811-6.405-6.134a0.766,0.766,0,0,0-.594-0.27,0.818,0.818,0,0,0-.784.784v0.054c0,1.189.135,2.324,0.135,3.351,0,3.756-.432,10.431-5.54,10.431-2.81,0-3.81-2.027-3.81-4.108,0-3.216,2.27-7.161,5.567-9.728a0.839,0.839,0,0,0,.27-0.649,0.754,0.754,0,0,0-.757-0.757h-7.863a0.77,0.77,0,1,0,0,1.54h5.81c-2.784,2.783-4.594,6.459-4.594,9.593,0,3.486,2.107,5.675,5.377,5.675,6.216,0,7.08-7.269,7.08-12.025V31.036a40.416,40.416,0,0,0,4.946,4.729,1.369,1.369,0,0,0,.7.243A0.718,0.718,0,0,0,619.879,35.252Zm27.138,8.728a0.767,0.767,0,0,0-.27-0.595l-10.755-8.674V31.928h7.458a0.77,0.77,0,1,0,0-1.54h-7.458V26.929a0.784,0.784,0,0,0-1.568,0v3.459h-6.891a0.77,0.77,0,1,0,0,1.54h6.891v2.756l-6.053,6.7-3.756,1.27a0.78,0.78,0,0,0-.541.73,0.761,0.761,0,0,0,.784.757,0.748,0.748,0,0,0,.243-0.027l3.973-1.3A0.854,0.854,0,0,0,629.4,42.6l5.864-6.513L645.774,44.6a0.753,0.753,0,0,0,.486.162,0.766,0.766,0,0,0,.6-0.27A0.89,0.89,0,0,0,647.017,43.98Zm-8.674-1.027a0.8,0.8,0,0,0-.784-0.784h-4.027a0.784,0.784,0,0,0,0,1.567h4.027A0.8,0.8,0,0,0,638.343,42.954Zm29.378,0.192a0.667,0.667,0,0,0-.7-0.7l-6,.264c-0.408.024-.816,0.024-1.177,0.024-3.963,0-4.612-1.033-4.612-1.777,0-2.786,6.318-6.2,10.041-7.687a0.673,0.673,0,0,0,.432-0.625,0.692,0.692,0,0,0-.672-0.7,1.036,1.036,0,0,0-.265.048,34.8,34.8,0,0,0-6.245,3.171l-0.841-6.1a0.661,0.661,0,0,0-.7-0.576,0.678,0.678,0,0,0-.673.7l0.937,6.87c-1.922,1.465-3.387,3.171-3.387,4.9,0,1.633.817,3.171,5.765,3.171,0.408,0,.841,0,1.321-0.024l6.149-.288A0.662,0.662,0,0,0,667.721,43.146ZM395.539,92.866a1.387,1.387,0,0,0-.594-1.139q-3.787-2.822-6.535-4.6a14.174,14.174,0,0,0,1.386-6.387c0-6.832-3.416-10.793-9.258-10.793-3.218,0-7.971,2.327-13.615,6.585v-5H369.7a1.411,1.411,0,1,0,0-2.822h-2.772V62.516a1.437,1.437,0,0,0-1.436-1.436,1.47,1.47,0,0,0-1.436,1.436V68.7h-6.585a1.411,1.411,0,1,0,0,2.822h6.585V78.8c-2.971,2.426-6.189,5.347-9.506,8.664a1.32,1.32,0,0,0-.446.99,1.515,1.515,0,0,0,1.436,1.485,1.46,1.46,0,0,0,1.04-.5c2.673-2.674,5.2-5,7.476-6.981V94.351a1.47,1.47,0,0,0,1.436,1.436,1.437,1.437,0,0,0,1.436-1.436V80.142c6.634-5.248,11.288-7.328,13.615-7.328,4.208,0,6.387,2.723,6.387,7.922a11.8,11.8,0,0,1-.941,4.8c-3.07-1.782-5.1-2.525-6.783-2.525-4.109,0-6.139,2.723-6.139,5.347s2.475,4.7,5.644,4.7a11.148,11.148,0,0,0,8.12-3.664c1.782,1.188,3.861,2.723,6.436,4.6a1.347,1.347,0,0,0,.842.3A1.436,1.436,0,0,0,395.539,92.866ZM384.4,87.816a8.979,8.979,0,0,1-5.694,2.377c-1.634,0-2.773-.842-2.773-1.881,0-1.188.941-2.575,3.268-2.575C380.439,85.736,381.974,86.331,384.4,87.816Zm48.115-21.438a1.335,1.335,0,0,0-.5-1.089l-5.4-3.763a1.471,1.471,0,0,0-.742-0.248,1.235,1.235,0,0,0-1.288,1.337,1.157,1.157,0,0,0,.5.99l5.4,3.812a1.474,1.474,0,0,0,.743.248A1.278,1.278,0,0,0,432.515,66.378Zm-8.12,3.07a1.216,1.216,0,0,0-.5-0.99L418.7,64.3a1.215,1.215,0,0,0-.793-0.3,1.31,1.31,0,0,0-1.287,1.287,1.245,1.245,0,0,0,.5,1.04l5.2,4.159a1.213,1.213,0,0,0,.792.3A1.321,1.321,0,0,0,424.4,69.447Zm8.665,16.883a1.418,1.418,0,0,0-1.436-1.485,1.308,1.308,0,0,0-.941.346c-4.6,4.258-9.951,6.733-14.7,6.733-4.011,0-6.09-.792-6.09-7.922V63.9a1.436,1.436,0,0,0-2.872,0V84c0,8.268,2.971,10.793,8.962,10.793,5.545,0,11.486-2.723,16.635-7.476A1.4,1.4,0,0,0,433.06,86.331ZM473.2,64.4a1.367,1.367,0,0,0-.991-1.287l-3.762-1.139a1.452,1.452,0,0,0-1.832,1.337,1.489,1.489,0,0,0,.99,1.386l3.713,1.139a1.373,1.373,0,0,0,.446.049,1.34,1.34,0,0,0,1.337-.99A1.777,1.777,0,0,0,473.2,64.4ZM455.38,63.308a1.08,1.08,0,0,0-.05-0.4,1.481,1.481,0,0,0-1.782-.941l-3.713,1.139a1.427,1.427,0,0,0-.99,1.337,1.4,1.4,0,0,0,1.386,1.436,1.367,1.367,0,0,0,.445-0.049l3.714-1.139A1.489,1.489,0,0,0,455.38,63.308Zm27.874,22.428a1.4,1.4,0,0,0-.5-1.089L474.1,77.419H478.4a1.47,1.47,0,0,0,1.436-1.436,1.437,1.437,0,0,0-1.436-1.436h-7.723l-4.308-3.614h6.239a1.436,1.436,0,0,0,1.435-1.436,1.469,1.469,0,0,0-1.435-1.436h-10.3V62.12a1.436,1.436,0,1,0-2.871,0v5.941h-9.011a1.47,1.47,0,0,0-1.436,1.436,1.437,1.437,0,0,0,1.436,1.436h6.634l-4.6,3.614h-7.08a1.437,1.437,0,0,0-1.436,1.436,1.47,1.47,0,0,0,1.436,1.436h3.367L439.537,84.6a1.429,1.429,0,0,0-.545,1.188,1.4,1.4,0,0,0,1.436,1.436,1.6,1.6,0,0,0,.891-0.3l12.13-9.506h16.19l11.239,9.457a1.388,1.388,0,0,0,.94.347,1.46,1.46,0,0,0,1.09-.545A1.309,1.309,0,0,0,483.254,85.736Zm-9.209,7.674a1.436,1.436,0,0,0-1.435-1.436H456.568V87.766h11.883a1.436,1.436,0,0,0,1.435-1.436V80.587a1.436,1.436,0,0,0-1.435-1.436H455.925a1.436,1.436,0,0,0-1.436,1.436,1.469,1.469,0,0,0,1.436,1.436h11.139v2.872H455.132a1.436,1.436,0,0,0-1.435,1.436v7.08a1.436,1.436,0,0,0,1.435,1.436H472.61A1.436,1.436,0,0,0,474.045,93.41Zm-7.822-18.863h-9.061l4.605-3.614h2.426a1.305,1.305,0,0,0-.347.941,1.406,1.406,0,0,0,.5,1.089Zm57.917-5.892a1.469,1.469,0,0,0-1.435-1.436h-16.24a19.752,19.752,0,0,1-.891-4.9,1.411,1.411,0,1,0-2.822,0,22.862,22.862,0,0,0,.792,4.9H489.137a1.469,1.469,0,0,0-1.436,1.436,1.437,1.437,0,0,0,1.436,1.436h15.249c0.445,1.287.941,2.674,1.584,4.109h-10.6a1.383,1.383,0,0,0-1.386,1.386,1.416,1.416,0,0,0,1.386,1.386h11.932a35.734,35.734,0,0,0,3.07,5,31.568,31.568,0,0,0-7.576-1.139c-9.456,0-10.2,4.9-10.2,6.387,0,3.119,1.931,7.624,13.121,7.624h7.971a1.436,1.436,0,1,0,0-2.872h-7.971c-4.7,0-10.3-.842-10.3-4.753,0-2.376,3.268-3.515,7.377-3.515a31.568,31.568,0,0,1,11.041,2.327,1.526,1.526,0,0,0,.644.148,1.439,1.439,0,0,0,1.386-1.485,1.57,1.57,0,0,0-.4-0.99,36.75,36.75,0,0,1-4.951-6.733H518a1.416,1.416,0,0,0,1.386-1.386A1.383,1.383,0,0,0,518,74.2h-8.912a39.007,39.007,0,0,1-1.733-4.109h15.349A1.436,1.436,0,0,0,524.14,68.655Zm49.7-3.466a1.468,1.468,0,0,0-1.435-1.436H560.62a1.437,1.437,0,0,0-1.436,1.436V94.995a1.4,1.4,0,0,0,1.436,1.386,1.426,1.426,0,0,0,1.436-1.386V86.232h9.407a1.391,1.391,0,0,0,1.436-1.485,0.727,0.727,0,0,0-.05-0.346l-3.466-12.328,4.209-6.09A1.648,1.648,0,0,0,573.839,65.19Zm-16.784,8.219a1.48,1.48,0,0,0-1.485-1.436h-4.7l4.258-2.872a1.352,1.352,0,0,0,.594-1.188V63.754a1.481,1.481,0,0,0-1.486-1.436,1.455,1.455,0,0,0-1.336,1.436v3.367l-6.635,4.505V67.764h3.664a1.437,1.437,0,0,0,0-2.872h-3.664V61.427a1.411,1.411,0,1,0-2.822,0v3.466h-7.08a1.436,1.436,0,1,0,0,2.872h7.08v4.208H532.4a1.436,1.436,0,1,0,0,2.872h9.11l-11.635,7.872a1.477,1.477,0,0,0-.594,1.188,1.339,1.339,0,0,0,1.386,1.436,1.669,1.669,0,0,0,.842-0.248l8.367-5.694a1.674,1.674,0,0,0-.247.842V93.51a1.437,1.437,0,0,0,1.436,1.436H552.3a1.449,1.449,0,0,0,1.486-1.436V80.241A1.449,1.449,0,0,0,552.3,78.8H541.064a0.97,0.97,0,0,0-.347.049l5.941-4.01h8.912A1.48,1.48,0,0,0,557.055,73.408Zm12.626-6.832-3.07,4.406a1.665,1.665,0,0,0-.248.842,0.956,0.956,0,0,0,.05.4l3.119,11.189h-7.476V66.576h7.625Zm-18.765,25.5H542.5V88.113h5.694a1.287,1.287,0,0,0,0-2.574H542.5V81.627h8.417V92.074Zm71.285-25.2a1.437,1.437,0,0,0-1.436-1.436H601.407V61.674a1.461,1.461,0,0,0-2.921,0v3.763H579.919a1.436,1.436,0,1,0,0,2.872h40.846A1.437,1.437,0,0,0,622.2,66.873ZM611.9,88.856V74.2a1.47,1.47,0,0,0-1.436-1.436h-9.159V70.685a1.4,1.4,0,0,0-1.486-1.337,1.374,1.374,0,0,0-1.386,1.337v2.079h-9.11A1.47,1.47,0,0,0,587.89,74.2V84.7l-4.01,2.426a1.537,1.537,0,0,0-.693,1.238,1.447,1.447,0,0,0,2.178,1.238l4.7-2.872a1.334,1.334,0,0,0,.693-1.188v-9.9h7.674V94.945a1.384,1.384,0,0,0,1.386,1.386,1.409,1.409,0,0,0,1.486-1.386V75.636h7.723V88.856A1.436,1.436,0,0,0,611.9,88.856ZM662.344,74.25V62.912a1.436,1.436,0,0,0-1.436-1.436H632.39a1.436,1.436,0,0,0-1.435,1.436V74.25a1.386,1.386,0,0,0,1.435,1.337h28.518A1.386,1.386,0,0,0,662.344,74.25ZM657.591,94V79a1.281,1.281,0,0,0-1.337-1.238H637.54A1.281,1.281,0,0,0,636.2,79V94a1.343,1.343,0,0,0,1.337,1.386h18.714A1.343,1.343,0,0,0,657.591,94Zm1.882-21.091H633.826V69.943H656.4a1.213,1.213,0,1,0,0-2.426H633.826V64.348h25.647v8.565Zm-4.555,19.755H638.926V89.9h13.417a1.14,1.14,0,0,0,0-2.278H638.926V85.093h13.417a1.14,1.14,0,0,0,0-2.277H638.926V80.29h15.992V92.668Zm58.017-19.953a1.325,1.325,0,0,0-.594-1.139l-14.655-10a1.362,1.362,0,0,0-1.634.05l-14.061,10a1.445,1.445,0,0,0,.841,2.575,1.487,1.487,0,0,0,.892-0.3l13.169-9.358,13.814,9.407a1.64,1.64,0,0,0,.792.248,1.4,1.4,0,0,0,1.188-.644A1.665,1.665,0,0,0,712.935,72.715Zm-5.744,12.774V78.31a1.436,1.436,0,0,0-1.435-1.436h-8.12V73.8h4.8a1.437,1.437,0,0,0,0-2.872H690.655a1.436,1.436,0,1,0,0,2.872h4.109v3.07h-7.179a1.436,1.436,0,0,0-1.435,1.436v7.179a1.427,1.427,0,0,0,1.435,1.386h5.3l-7.228,7.278a1.542,1.542,0,0,0-.446,1.04,1.639,1.639,0,0,0,.446.99,1.571,1.571,0,0,0,.99.4,1.6,1.6,0,0,0,1.039-.4l9.308-9.308h8.764A1.427,1.427,0,0,0,707.191,85.489Zm1.684,9.457a1.388,1.388,0,0,0-.594-1.139l-7.13-5.149a1.38,1.38,0,0,0-.891-0.3,1.4,1.4,0,0,0-1.386,1.436,1.476,1.476,0,0,0,.594,1.188l7.129,5.149a1.37,1.37,0,0,0,.793.248,1.569,1.569,0,0,0,1.237-.594A1.665,1.665,0,0,0,708.875,94.945Zm-26.29-31.736a1.351,1.351,0,0,0-1.436-1.436h-9.8a1.47,1.47,0,0,0-1.436,1.436V94.8a1.47,1.47,0,0,0,1.436,1.436,1.437,1.437,0,0,0,1.436-1.436V84.053h7.179a1.48,1.48,0,0,0,1.436-1.485l-2.525-12.229,3.564-6.436A1.582,1.582,0,0,0,682.585,63.209ZM704.32,84.053h-6.684V79.746h6.684v4.307Zm-9.556,0h-5.792V79.746h5.792v4.307ZM678.723,64.645l-2.624,4.8a1.654,1.654,0,0,0-.149.743v0.248l2.278,10.744h-5.446V64.645h5.941Zm83.563,28.171a1.437,1.437,0,0,0-1.436-1.436H741.294V76.23h13.665a1.427,1.427,0,0,0,1.435-1.386V63.8a1.479,1.479,0,0,0-1.435-1.485H739.016A1.48,1.48,0,0,0,737.58,63.8a1.428,1.428,0,0,0,1.436,1.386h14.507v8.219H739.858a1.47,1.47,0,0,0-1.436,1.436V92.816a1.437,1.437,0,0,0,1.436,1.436H760.85A1.436,1.436,0,0,0,762.286,92.816Zm-30.1-29.508a1.4,1.4,0,0,0-1.436-1.386h-9.11a1.384,1.384,0,0,0-1.386,1.386,1.44,1.44,0,0,0,1.386,1.485h9.11A1.449,1.449,0,0,0,732.184,63.308Zm2.822,5.892a1.47,1.47,0,0,0-1.436-1.436H718.42a1.47,1.47,0,0,0-1.436,1.436,1.437,1.437,0,0,0,1.436,1.436h15.15A1.437,1.437,0,0,0,735.006,69.2Zm-2.822,5.644a1.428,1.428,0,0,0-1.436-1.386h-9.11a1.411,1.411,0,0,0,0,2.822h9.11A1.437,1.437,0,0,0,732.184,74.844Zm0,5a1.428,1.428,0,0,0-1.436-1.386h-9.11a1.411,1.411,0,0,0,0,2.822h9.11A1.437,1.437,0,0,0,732.184,79.845Zm0.594,13.615V86.083a1.437,1.437,0,0,0-1.436-1.436h-9.951a1.47,1.47,0,0,0-1.436,1.436V93.46a1.47,1.47,0,0,0,1.436,1.436h9.951A1.437,1.437,0,0,0,732.778,93.46Zm-2.872-1.436h-7.08V87.519h7.08v4.505Z" transform="translate(-354.094 -24.188)"/>
</svg>
