<svg xmlns="http://www.w3.org/2000/svg" width="215.687" height="76.75" viewBox="0 0 215.687 76.75">
  <defs>
    <style>
      .cls-1 {
        fill: #2b546a;
        fill-rule: evenodd;
      }
    </style>
  </defs>
  <path id="_03_title.svg" data-name="03_title.svg" class="cls-1" d="M516.255,96.441V81.687c-6.436-1.931-11.437-3.961-14.061-10.991h14.061V57.08h-15.5V50.5h-14.7V57.08H470.26V70.7h14.507c-2.08,6.436-6.684,9.258-14.507,10.991V96.441c11.09-1.683,19.012-6.634,23.963-13.665C499.224,89.708,506.551,94.411,516.255,96.441ZM567.012,96V87.43a2.174,2.174,0,0,1-.495.1l-1.089-3.367h0.5V71.488h-12.13l0.248-.693h-3.912a9.708,9.708,0,0,0,4.357-1.535V70.6h7.575V69.458a9.239,9.239,0,0,0,4.308,1.386V66.289a4.231,4.231,0,0,1-2.822-.99h2.822V61.388H563.4V60.546h3.218V51.387h-15.2V50.446H538.643v0.941H521.909V76.934c0,1.089-.347,2.03-0.941,2.228V96.936a19.132,19.132,0,0,0,7.377-5.149v5.05c6.882,0.049,11.288-2.079,13.615-5.694,0.4,2.525,2.278,5.4,5.05,5.4h13.962A28.536,28.536,0,0,0,567.012,96ZM553.051,61.388h-3.169V65.3H552.7a4.233,4.233,0,0,1-2.822.99v4.505h-0.891V66.685L546.169,65.3h2.822V61.388h-3.218V60.546h7.278v0.842Zm2.624,15.15H553.5V75.053h2.179v1.485Zm4.951,8.318a8.462,8.462,0,0,1-2.03.3l0.2-.99h1.584ZM555.675,80.6H553.5V79.162h2.179V80.6Zm-20-18.913h-2.624V60.249h2.624v1.436Zm25.944,26.389H553.4a0.825,0.825,0,0,1-.792-0.842v-3.07h1.535l-0.2,1.04H553.4V87.48c4.9,0,6.833,0,7.823-.594ZM546.664,70.795h-2.377l-0.445.693H533.048V70.795a12.008,12.008,0,0,0,3.466-1.188V70.6h7.526V69.458Zm-11.487-5.5a2.705,2.705,0,0,1-2.129.99V65.3h2.129Zm9.259,11.239h-2.377V75.053h2.377v1.485Zm0,4.06h-2.377V79.162h2.377V80.6Zm-2.575,4.456H533.94c-0.347,1.386-1.09,1.832-2.773,2.03a18.364,18.364,0,0,0,.941-2.921h9.753v0.891ZM617.75,68.814V61.19h-3.218l0.3-1.188h2.079V51.684h-8.367V50.5H596.262v1.188h-8.169V60h1.882c0.1,0.446.2,0.842,0.247,1.188H587.3V58.516H585.37V50.594H573.389v7.922h-1.931V69.953h1.931V83.667c-0.644.05-1.288,0.05-1.931,0.05V95.1c6.04,0.2,10.843-.743,14.9-2.971v4.555c11.784,0,15.052-3.07,15.3-10.2h0.891v4.505a5.611,5.611,0,0,0,5.545,5.644h5.15A9.308,9.308,0,0,0,617.7,95.9v-9.11a4.511,4.511,0,0,1-3.02.792h-2.426a0.412,0.412,0,0,1-.445-0.446V86.489h5.644V69.656h-29.31V86.489h3.911c-0.4.743-1.535,0.792-4.753,0.792V78.32a8.005,8.005,0,0,1-1.931,1.634v-10H587.3V68.814H617.75ZM603.986,60l-0.247,1.188h-2.773A10.249,10.249,0,0,0,600.718,60h3.268ZM605.174,75.8h-4.852V74.706h4.852V75.8Zm0,5.3h-4.852v-1.04h4.852v1.04ZM451.2,23.172a0.736,0.736,0,0,0-.243-0.567l-2.676-2.216a0.746,0.746,0,0,0-1.243.54,0.758,0.758,0,0,0,.271.568l2.675,2.243a0.692,0.692,0,0,0,.486.189A0.733,0.733,0,0,0,451.2,23.172Zm-3.513,1.189a0.81,0.81,0,0,0-.162-0.486L445.146,21.2a0.779,0.779,0,0,0-.568-0.243,0.731,0.731,0,0,0-.756.73,0.713,0.713,0,0,0,.189.513l2.378,2.675a0.763,0.763,0,0,0,.54.243A0.737,0.737,0,0,0,447.686,24.361Zm2.027,10.161a0.8,0.8,0,0,0-.784-0.784c-0.946,0-3.837-1.784-7.242-3.837l-2.513-1.513V23.172a0.8,0.8,0,0,0-.784-0.784,0.785,0.785,0,0,0-.784.784v16.7a0.785,0.785,0,0,0,.784.784,0.8,0.8,0,0,0,.784-0.784v-9.62l1.675,1c4.459,2.648,6.729,4.053,8.08,4.053A0.785,0.785,0,0,0,449.713,34.522Zm23.518-10.647a0.8,0.8,0,0,0-.783-0.784H461.476a0.822,0.822,0,0,0-.784.784,0.8,0.8,0,0,0,.784.784h10.972A0.784,0.784,0,0,0,473.231,23.875Zm0.865,5.972V28.361a0.784,0.784,0,0,0-.784-0.784H459.774a0.784,0.784,0,1,0,0,1.567h12.755v0.7c0,1.486-3.351,7.431-12.755,9.161a0.759,0.759,0,0,0-.622.757,0.8,0.8,0,0,0,.784.784h0.135C470.015,38.71,474.1,32.306,474.1,29.847Zm21.816-6.161a0.8,0.8,0,0,0-.783-0.784h-9a0.8,0.8,0,0,0-.784.784,0.785,0.785,0,0,0,.784.784h9A0.784,0.784,0,0,0,495.912,23.686Zm5.324,15.457a0.768,0.768,0,0,0-.784-0.784h-3.486c-1.621,0-2.945-.189-3.486-0.7a1.5,1.5,0,0,1-.324-1.189c0-2.108-.7-3.567-2.135-3.81l4.864-4.108a0.783,0.783,0,0,0,.27-0.622,0.816,0.816,0,0,0-.783-0.784H484.536a0.8,0.8,0,0,0-.784.784,0.784,0.784,0,0,0,.784.784h8.674l-11.08,9.4a0.745,0.745,0,0,0-.3.568,0.79,0.79,0,0,0,.811.784,0.808,0.808,0,0,0,.486-0.162l5.729-4.837a5.092,5.092,0,0,1,1.676-.3c0.513,0,1.054.081,1.054,2.3,0,2.729,1.756,3.459,5.377,3.459h3.486A0.768,0.768,0,0,0,501.236,39.143Zm23.127-11.728a0.784,0.784,0,0,0-.784-0.784h-9.133v-3.54a0.785,0.785,0,0,0-.784-0.784,0.8,0.8,0,0,0-.784.784v3.54h-5.837a0.784,0.784,0,0,0-.783.784,0.8,0.8,0,0,0,.783.784h5.837l-0.054,3.3h-4.7a0.77,0.77,0,1,0,0,1.54H512.8v1.973c0,4.216.946,5.648,3.919,5.648a9.877,9.877,0,0,0,7.134-3.4,0.694,0.694,0,0,0,.189-0.486,0.808,0.808,0,0,0-.784-0.811,0.765,0.765,0,0,0-.594.27,8.513,8.513,0,0,1-5.945,2.864c-1.7,0-2.352-.73-2.352-3.945,0-.486,0-1.243.028-2.108h5.864a0.77,0.77,0,1,0,0-1.54h-5.864l0.054-3.3h9.133A0.8,0.8,0,0,0,524.363,27.415Zm28.066,8.3a0.808,0.808,0,0,0-.811-0.784,0.731,0.731,0,0,0-.54.216,9.848,9.848,0,0,1-6.567,3.081c-2.594,0-.162-7.81-4.648-7.81a6.961,6.961,0,0,0-2.405.459l3.81-7.215a0.833,0.833,0,0,0,.081-0.351,0.777,0.777,0,0,0-1.459-.405l-8.323,15.728a0.863,0.863,0,0,0-.081.378,0.778,0.778,0,0,0,.756.784,0.806,0.806,0,0,0,.7-0.405L536,33.63a5.585,5.585,0,0,1,3.864-1.648c2.756,0,.189,7.81,4.648,7.81a11.527,11.527,0,0,0,7.674-3.54A0.892,0.892,0,0,0,552.429,35.711Zm25.122-3.972c0-4.459-3.351-7.377-8.567-7.377-6.107,0-9.755,4.324-9.755,8.512,0,3.729,1.784,5.026,3.351,5.026,1.189,0,2.54-1.459,3.621-3.4a23.217,23.217,0,0,0,2.54-7.215V25.928h0.406c4.242,0,6.836,2.243,6.836,5.81,0,3.081-3.918,6.188-7.809,6.188a0.784,0.784,0,1,0,0,1.567C572.984,39.494,577.551,35.738,577.551,31.738ZM567.174,27.2c-1,5.215-3.621,9.134-4.594,9.134S560.8,35.2,560.8,32.873c0-3,2.351-6.08,6.378-6.783V27.2Zm38.743-2.972a0.761,0.761,0,0,0-.27-0.567l-2.73-2.135a0.716,0.716,0,0,0-1.135.567,0.645,0.645,0,0,0,.243.54l2.73,2.135a0.733,0.733,0,0,0,.459.162A0.7,0.7,0,0,0,605.917,24.226Zm-3.243,1.135a0.652,0.652,0,0,0-.189-0.486l-2.7-2.567a0.693,0.693,0,0,0-.486-0.189,0.681,0.681,0,0,0-.7.7,0.588,0.588,0,0,0,.217.486l2.7,2.594a0.632,0.632,0,0,0,.459.189A0.7,0.7,0,0,0,602.674,25.361Zm2.162,5.891a0.761,0.761,0,0,0-.27-0.567c-0.973-.73-2.487-1.811-6.405-6.134a0.766,0.766,0,0,0-.594-0.27,0.818,0.818,0,0,0-.784.784v0.054c0,1.189.135,2.324,0.135,3.351,0,3.756-.432,10.431-5.54,10.431-2.81,0-3.81-2.027-3.81-4.108,0-3.216,2.27-7.161,5.567-9.728a0.839,0.839,0,0,0,.27-0.649,0.754,0.754,0,0,0-.757-0.757h-7.863a0.77,0.77,0,1,0,0,1.54h5.81C587.811,27.982,586,31.657,586,34.792c0,3.486,2.108,5.675,5.377,5.675,6.216,0,7.08-7.269,7.08-12.025V27.036a40.416,40.416,0,0,0,4.946,4.729,1.369,1.369,0,0,0,.7.243A0.717,0.717,0,0,0,604.836,31.252Zm27.138,8.728a0.767,0.767,0,0,0-.27-0.595l-10.755-8.674V27.928h7.458a0.77,0.77,0,1,0,0-1.54h-7.458V22.929a0.784,0.784,0,0,0-1.568,0v3.459H612.49a0.77,0.77,0,1,0,0,1.54h6.891v2.756l-6.053,6.7-3.756,1.27a0.78,0.78,0,0,0-.541.73,0.761,0.761,0,0,0,.784.757,0.748,0.748,0,0,0,.243-0.027l3.973-1.3a0.854,0.854,0,0,0,.324-0.216l5.864-6.513L630.731,40.6a0.753,0.753,0,0,0,.486.162,0.766,0.766,0,0,0,.6-0.27A0.89,0.89,0,0,0,631.974,39.98ZM623.3,38.954a0.8,0.8,0,0,0-.784-0.784H618.49a0.784,0.784,0,1,0,0,1.567h4.026A0.8,0.8,0,0,0,623.3,38.954ZM653.293,32.8c0-3.963-2.979-6.558-7.615-6.558-5.428,0-8.671,3.843-8.671,7.566,0,3.315,1.585,4.468,2.979,4.468,1.056,0,2.257-1.3,3.218-3.027a20.61,20.61,0,0,0,2.258-6.413v-1.2h0.361c3.771,0,6.077,1.994,6.077,5.164,0,2.738-3.483,5.5-6.942,5.5a0.7,0.7,0,1,0,0,1.393C649.233,39.7,653.293,36.359,653.293,32.8Zm-9.224-4.035c-0.889,4.636-3.219,8.119-4.083,8.119s-1.586-1.009-1.586-3.075c0-2.666,2.09-5.4,5.669-6.029v0.985Z" transform="translate(-437.594 -20.188)"/>
</svg>
