<svg xmlns="http://www.w3.org/2000/svg" width="302.906" height="75.188" viewBox="0 0 302.906 75.188">
  <defs>
    <style>
      .cls-1 {
        fill: #2b546a;
        fill-rule: evenodd;
      }
    </style>
  </defs>
  <path id="_12_title.svg" data-name="12_title.svg" class="cls-1" d="M467.2,22.172a0.736,0.736,0,0,0-.243-0.567l-2.676-2.216a0.746,0.746,0,0,0-1.243.54,0.758,0.758,0,0,0,.271.568l2.675,2.243a0.692,0.692,0,0,0,.486.189A0.733,0.733,0,0,0,467.2,22.172Zm-3.513,1.189a0.81,0.81,0,0,0-.162-0.486L461.146,20.2a0.779,0.779,0,0,0-.568-0.243,0.731,0.731,0,0,0-.756.73,0.713,0.713,0,0,0,.189.513l2.378,2.675a0.763,0.763,0,0,0,.54.243A0.737,0.737,0,0,0,463.686,23.361Zm2.027,10.161a0.8,0.8,0,0,0-.784-0.784c-0.946,0-3.837-1.784-7.242-3.837l-2.513-1.513V22.172a0.8,0.8,0,0,0-.784-0.784,0.785,0.785,0,0,0-.784.784v16.7a0.785,0.785,0,0,0,.784.784,0.8,0.8,0,0,0,.784-0.784v-9.62l1.675,1c4.459,2.648,6.729,4.053,8.08,4.053A0.785,0.785,0,0,0,465.713,33.522Zm23.518-10.647a0.8,0.8,0,0,0-.783-0.784H477.476a0.822,0.822,0,0,0-.784.784,0.8,0.8,0,0,0,.784.784h10.972A0.784,0.784,0,0,0,489.231,22.875Zm0.865,5.972V27.361a0.784,0.784,0,0,0-.784-0.784H475.774a0.784,0.784,0,1,0,0,1.567h12.755v0.7c0,1.486-3.351,7.431-12.755,9.161a0.759,0.759,0,0,0-.622.757,0.8,0.8,0,0,0,.784.784h0.135C486.015,37.71,490.1,31.306,490.1,28.847Zm21.816-6.161a0.8,0.8,0,0,0-.783-0.784h-9a0.8,0.8,0,0,0-.784.784,0.785,0.785,0,0,0,.784.784h9A0.784,0.784,0,0,0,511.912,22.686Zm5.324,15.457a0.768,0.768,0,0,0-.784-0.784h-3.486c-1.621,0-2.945-.189-3.486-0.7a1.5,1.5,0,0,1-.324-1.189c0-2.108-.7-3.567-2.135-3.81l4.864-4.107a0.783,0.783,0,0,0,.27-0.622,0.816,0.816,0,0,0-.783-0.784H500.536a0.8,0.8,0,0,0-.784.784,0.784,0.784,0,0,0,.784.784h8.674l-11.08,9.4a0.745,0.745,0,0,0-.3.568,0.79,0.79,0,0,0,.811.784,0.808,0.808,0,0,0,.486-0.162l5.729-4.837a5.092,5.092,0,0,1,1.676-.3c0.513,0,1.054.081,1.054,2.3,0,2.729,1.756,3.459,5.377,3.459h3.486A0.768,0.768,0,0,0,517.236,38.143Zm23.127-11.728a0.784,0.784,0,0,0-.784-0.784h-9.133v-3.54a0.785,0.785,0,0,0-.784-0.784,0.8,0.8,0,0,0-.784.784v3.54h-5.837a0.784,0.784,0,0,0-.783.784,0.8,0.8,0,0,0,.783.784h5.837l-0.054,3.3h-4.7a0.77,0.77,0,1,0,0,1.54H528.8v1.973c0,4.216.946,5.648,3.919,5.648a9.877,9.877,0,0,0,7.134-3.4,0.694,0.694,0,0,0,.189-0.486,0.808,0.808,0,0,0-.784-0.811,0.765,0.765,0,0,0-.594.27,8.513,8.513,0,0,1-5.945,2.864c-1.7,0-2.352-.73-2.352-3.945,0-.486,0-1.243.028-2.108h5.864a0.77,0.77,0,1,0,0-1.54h-5.864l0.054-3.3h9.133A0.8,0.8,0,0,0,540.363,26.415Zm28.066,8.3a0.808,0.808,0,0,0-.811-0.784,0.731,0.731,0,0,0-.54.216,9.848,9.848,0,0,1-6.567,3.081c-2.594,0-.162-7.81-4.648-7.81a6.961,6.961,0,0,0-2.405.459l3.81-7.215a0.833,0.833,0,0,0,.081-0.351,0.777,0.777,0,0,0-1.459-.405l-8.323,15.728a0.863,0.863,0,0,0-.081.378,0.778,0.778,0,0,0,.756.784,0.806,0.806,0,0,0,.7-0.405L552,32.63a5.585,5.585,0,0,1,3.864-1.648c2.756,0,.189,7.81,4.648,7.81a11.527,11.527,0,0,0,7.674-3.54A0.892,0.892,0,0,0,568.429,34.711Zm25.122-3.972c0-4.459-3.351-7.377-8.567-7.377-6.107,0-9.755,4.324-9.755,8.512,0,3.729,1.784,5.026,3.351,5.026,1.189,0,2.54-1.459,3.621-3.4a23.217,23.217,0,0,0,2.54-7.215V24.928h0.406c4.242,0,6.836,2.243,6.836,5.81,0,3.081-3.918,6.188-7.809,6.188a0.784,0.784,0,1,0,0,1.567C588.984,38.494,593.551,34.738,593.551,30.738ZM583.174,26.2c-1,5.215-3.621,9.134-4.594,9.134S576.8,34.2,576.8,31.873c0-3,2.351-6.08,6.378-6.783V26.2Zm38.743-2.972a0.761,0.761,0,0,0-.27-0.567l-2.73-2.135a0.716,0.716,0,0,0-1.135.567,0.645,0.645,0,0,0,.243.54l2.73,2.135a0.733,0.733,0,0,0,.459.162A0.7,0.7,0,0,0,621.917,23.226Zm-3.243,1.135a0.652,0.652,0,0,0-.189-0.486l-2.7-2.567a0.693,0.693,0,0,0-.486-0.189,0.681,0.681,0,0,0-.7.7,0.588,0.588,0,0,0,.217.486l2.7,2.594a0.632,0.632,0,0,0,.459.189A0.7,0.7,0,0,0,618.674,24.361Zm2.162,5.891a0.761,0.761,0,0,0-.27-0.567c-0.973-.73-2.487-1.811-6.405-6.134a0.766,0.766,0,0,0-.594-0.27,0.818,0.818,0,0,0-.784.784v0.054c0,1.189.135,2.324,0.135,3.351,0,3.756-.432,10.431-5.54,10.431-2.81,0-3.81-2.027-3.81-4.108,0-3.216,2.27-7.161,5.567-9.728a0.839,0.839,0,0,0,.27-0.649,0.754,0.754,0,0,0-.757-0.757h-7.863a0.77,0.77,0,1,0,0,1.54h5.81C603.811,26.982,602,30.657,602,33.792c0,3.486,2.108,5.675,5.377,5.675,6.216,0,7.08-7.269,7.08-12.025V26.036a40.416,40.416,0,0,0,4.946,4.729,1.369,1.369,0,0,0,.7.243A0.717,0.717,0,0,0,620.836,30.252Zm27.138,8.728a0.767,0.767,0,0,0-.27-0.595l-10.755-8.674V26.928h7.458a0.77,0.77,0,1,0,0-1.54h-7.458V21.929a0.784,0.784,0,0,0-1.568,0v3.459H628.49a0.77,0.77,0,1,0,0,1.54h6.891v2.756l-6.053,6.7-3.756,1.27a0.78,0.78,0,0,0-.541.73,0.761,0.761,0,0,0,.784.757,0.748,0.748,0,0,0,.243-0.027l3.973-1.3a0.854,0.854,0,0,0,.324-0.216l5.864-6.513L646.731,39.6a0.753,0.753,0,0,0,.486.162,0.766,0.766,0,0,0,.6-0.27A0.89,0.89,0,0,0,647.974,38.98ZM639.3,37.954a0.8,0.8,0,0,0-.784-0.784H634.49a0.784,0.784,0,1,0,0,1.567h4.026A0.8,0.8,0,0,0,639.3,37.954ZM669.293,31.8c0-3.963-2.979-6.558-7.615-6.558-5.428,0-8.671,3.843-8.671,7.566,0,3.315,1.585,4.468,2.979,4.468,1.056,0,2.257-1.3,3.218-3.027a20.61,20.61,0,0,0,2.258-6.413v-1.2h0.361c3.771,0,6.077,1.994,6.077,5.164,0,2.738-3.483,5.5-6.942,5.5a0.7,0.7,0,1,0,0,1.393C665.233,38.7,669.293,35.359,669.293,31.8Zm-9.224-4.036c-0.889,4.636-3.219,8.119-4.083,8.119s-1.586-1.009-1.586-3.075c0-2.666,2.09-5.4,5.669-6.029v0.985Zm-249.622,26.7a2.863,2.863,0,0,0-2.285.879c-0.351.47-.236,0.7,0.352,0.7q2.282,0.7,2.285,2.109,0.35,15.647.176,29.355-0.354,2.286-.528,3.516-0.354.877,1.582,2.109a5.5,5.5,0,0,0,2.286.879c0.7,0,.994-0.588.878-1.758q-0.354-12.129-.7-21.27,5.274,1.232,10.9,6.856,1.755,1.936,2.988,1.934,1.932,0,1.934-2.285a4.865,4.865,0,0,0-1.758-3.164q-3.869-3.864-14.063-4.746,0.174-6.328.352-10.371,1.932-.7,1.055-1.758a14.707,14.707,0,0,0-5.45-2.988h0Zm21.446,6.855a1.327,1.327,0,0,0,1.406-1.582q0-3.514-7.559-4.746-0.7.177-.175,0.527a11.177,11.177,0,0,1,4.921,4.746,1.88,1.88,0,0,0,1.407,1.055h0ZM427.5,65.722q1.406,0,1.406-1.934,0-3.164-6.328-5.625-1.055-.173-0.351.527a12.659,12.659,0,0,1,3.691,5.625,1.751,1.751,0,0,0,1.582,1.406h0ZM468.481,65.9q-0.528-.173-1.055,1.055-10.724.527-20.742,1.582-2.286.177-4.4,0.176a2.812,2.812,0,0,1-2.636-1.758q-0.177-.35-0.528,0-0.7,1.936,0,2.461,2.46,2.464,4.043,3.867a0.9,0.9,0,0,0,1.407-.527q8.438-2.637,20.917-2.637-7.559,15.82-20.566,23.555c-0.351.352-.294,0.585,0.176,0.7q15.993-5.451,25.84-23.906,2.809-.173,1.933-1.406a15.8,15.8,0,0,0-4.394-3.164h0Zm-3.516-9.844c-0.351-.115-0.821.176-1.406,0.879q-8.088.7-15.645,1.406a5.306,5.306,0,0,1-1.933,0,3.579,3.579,0,0,1-2.11-1.582c-0.236-.467-0.527-0.409-0.879.176a1.757,1.757,0,0,0,0,2.109q1.583,1.409,3.165,2.637a1.278,1.278,0,0,0,1.933,0A102.47,102.47,0,0,1,463.032,60.1q1.4,0,4.57.352,2.282-.35,1.582-2.285a13.888,13.888,0,0,0-4.219-2.109h0Zm17.759,1.758a4.711,4.711,0,0,0-1.582,1.055c-0.469.588-.412,0.879,0.176,0.879q2.109,0.177,2.637,1.406,0.173,15.82.176,23.027a5.721,5.721,0,0,0,1.406,4.219q1.583,1.582,5.625,1.582h4.57q3.165,0,8.965-.527,1.932-.173,4.043-0.527,2.46-.527,1.406-2.285a14.131,14.131,0,0,0-2.636-1.934,1.2,1.2,0,0,0-1.583-.176q-0.526.354-1.054,0.7a54.852,54.852,0,0,1-6.328.879,47.493,47.493,0,0,1-8.965.176q-2.109-.35-2.11-2.109V73.632a109.09,109.09,0,0,0,20.391-4.219q2.46,0.527,1.934-1.231a23.02,23.02,0,0,0-5.1-4.57,2.868,2.868,0,0,0-2.988.352c-0.352.352-.176,0.588,0.527,0.7q1.582,1.055.352,1.758a56.457,56.457,0,0,1-15.118,5.449A90.622,90.622,0,0,1,488,62.207q1.932-.7.7-1.934a19.971,19.971,0,0,0-4.746-2.285,5.273,5.273,0,0,0-1.231-.176h0Zm32.344,1.055a2.393,2.393,0,0,0-.7-1.758q-1.76-1.755-7.559-2.109-0.526.177,0,.527a10.745,10.745,0,0,1,4.746,3.34,2.507,2.507,0,0,0,2.11,1.582,1.327,1.327,0,0,0,1.406-1.582h0Zm-4.219,4.043a2.887,2.887,0,0,0-.879-2.109q-1.935-1.932-6.855-2.461c-0.47,0-.588.118-0.352,0.352a10.288,10.288,0,0,1,4.571,4.043q1.054,1.759,2.109,1.758a1.326,1.326,0,0,0,1.406-1.582h0Zm41.743-4.922q-22.853,1.759-27.949,2.285a4.656,4.656,0,0,1-1.758-.352,3.063,3.063,0,0,1-1.23-1.23c-0.237-.585-0.528-0.467-0.879.351a1.733,1.733,0,0,0,0,1.582,13.424,13.424,0,0,0,3.691,3.692,1.432,1.432,0,0,0,2.285-.176,42.2,42.2,0,0,1,4.4-1.055q4.569-.878,19.336-2.109a56.047,56.047,0,0,1-8.789,7.559,11,11,0,0,0-4.571-2.637,2.333,2.333,0,0,0-1.406.527q-0.7.527-.176,0.879a7.359,7.359,0,0,1,1.407,1.055q-0.356,15.47-12.129,24.434c-0.236.352-.176,0.527,0.176,0.527q13.884-6.328,16.347-22.852,4.92-1.755,15.117-8.086,3.337,0.527,1.934-1.406A31.18,31.18,0,0,0,554,57.109Zm25.389,9.141a5.385,5.385,0,0,0-1.758-3.867q-3.692-3.691-10.723-3.867c-0.47.118-.527,0.352-0.176,0.7a16.207,16.207,0,0,1,8.086,7.734,2.7,2.7,0,0,0,2.461,1.758q2.109,0,2.11-2.461h0Zm22.851-1.934q-16.174,15.293-28.3,20.215a2.027,2.027,0,0,1-2.285,0,3.66,3.66,0,0,1-1.933-2.461q-0.177-.35-0.528,0-1.408,2.464,0,4.043a20.9,20.9,0,0,0,5.274,4.043q1.581,0.877,1.933-1.055A84.818,84.818,0,0,0,601.36,65.722q0.349-.877-0.528-0.527h0ZM625.06,54.648a1.869,1.869,0,0,0-1.582,0,7.094,7.094,0,0,0-1.055.879q-0.882.7,0,.879,2.283,0.7,2.637,1.934a57.031,57.031,0,0,1,.351,8.965q-9.492.7-15.82,0.7a2.362,2.362,0,0,1-2.109-1.055q-0.354-.7-0.879,0a2,2,0,0,0-.176,2.109,14.883,14.883,0,0,0,3.516,2.988,1.394,1.394,0,0,0,1.933.176,6.308,6.308,0,0,1,1.582-.527,79.942,79.942,0,0,1,11.778-1.582q-0.356,14.238-10.9,23.027c-0.351.467-.236,0.7,0.352,0.7Q628.75,86.819,629.1,69.941q5.8-.173,9.492-0.176a55.553,55.553,0,0,1,5.625.352,1.833,1.833,0,0,0,1.406-1.758,1.487,1.487,0,0,0-.879-1.23A28.4,28.4,0,0,0,640,65.019L638.6,66.25q-3.692.354-9.316,0.7,0-3.691.175-8.262,1.583-.527.7-1.582a23.028,23.028,0,0,0-5.1-2.461h0Zm46.5,0.176c-0.236.352-.236,0.588,0,0.7a1.887,1.887,0,0,1,1.054,1.406,2.328,2.328,0,0,1-.527,1.406,74.21,74.21,0,0,1-26.367,22.676q-0.705.7,0.352,0.7,8.787-2.637,18.808-9.844,0.351,7.383,0,14.238a41.664,41.664,0,0,1-.351,5.1,2.4,2.4,0,0,0,.878,1.406,6.291,6.291,0,0,0,1.934,1.055,1.326,1.326,0,0,0,1.582-1.406V88.222q-0.177-4.569-.176-16,3.165-.878-1.23-2.637A82.851,82.851,0,0,0,676.3,60.1a9.8,9.8,0,0,0,1.758-.527,0.757,0.757,0,0,0,.351-1.23A17.244,17.244,0,0,0,674.193,55a3.167,3.167,0,0,0-1.583-.527,1.432,1.432,0,0,0-1.054.352h0ZM691,54.472a2.863,2.863,0,0,0-2.285.879c-0.351.47-.236,0.7,0.352,0.7q2.281,0.7,2.285,2.109,0.35,15.647.176,29.355-0.356,2.286-.528,3.516-0.354.877,1.582,2.109a5.5,5.5,0,0,0,2.285.879c0.7,0,1-.588.879-1.758q-0.354-12.129-.7-21.27,5.274,1.232,10.9,6.856,1.755,1.936,2.988,1.934,1.932,0,1.934-2.285a4.865,4.865,0,0,0-1.758-3.164q-3.869-3.864-14.063-4.746,0.174-6.328.352-10.371,1.932-.7,1.054-1.758A14.7,14.7,0,0,0,691,54.472h0Z" transform="translate(-407.969 -19.188)"/>
</svg>
