<svg xmlns="http://www.w3.org/2000/svg" width="73" height="239" viewBox="0 0 73 239">
  <defs>
    <style>
      .cls-1 {
        fill: #2b546a;
        fill-rule: evenodd;
      }
    </style>
  </defs>
  <path id="キャラクター" class="cls-1" d="M18.009,31.169L16.633,19.754,28,18.277a1.045,1.045,0,0,0,.864-1.152,1.1,1.1,0,0,0-.992-1.188H27.739c-3.617.468-7.521,0.936-11.394,1.4-0.352-2.881-.7-5.8-1.024-8.679l10.242-1.08a0.965,0.965,0,0,0,.9-1.044,1.133,1.133,0,0,0-.992-1.26H25.339C21.85,5.638,18.425,6,15.033,6.322L14.456,1.208A1.154,1.154,0,0,0,13.24.2a1.042,1.042,0,0,0-1.12,1.152V1.568l0.608,5.006c-3.617.36-7.233,0.72-10.978,1.044A1.071,1.071,0,0,0,.79,8.771a1.225,1.225,0,0,0,1.056,1.26c0.1,0,11.106-1.152,11.17-1.152L14.1,17.629,1.59,19.106a1.059,1.059,0,0,0-.832,1.188c0,0.072,0,1.3.9,1.3,0.1,0,.128,0,12.739-1.549l1.344,11.632a1.073,1.073,0,0,0,1.088.972,1.262,1.262,0,0,0,1.184-1.26V31.169Zm-0.8,32.543c-0.1-.792-1.216-9.975-1.984-16.529l10.242-1.332c0.064,0,.16-0.036.224-0.036a0.606,0.606,0,0,1,.608.756,13.022,13.022,0,0,1-7.073,10.011,1.088,1.088,0,0,0-.64,1.008,1.267,1.267,0,0,0,1.088,1.3,1.029,1.029,0,0,0,.544-0.144c5.281-2.881,6.881-6.878,8-10.839a5.855,5.855,0,0,0,.256-1.549,2.521,2.521,0,0,0-2.529-2.773c-0.128,0-.256.036-0.384,0.036-3.553.468-7.073,0.936-10.626,1.368-0.256-2.3-.48-3.961-0.512-4.285a1.041,1.041,0,0,0-2.081.072v0.18l0.512,4.285c-1.856.252-3.713,0.468-5.537,0.684a1.056,1.056,0,0,0-.9,1.116,0.993,0.993,0,0,0,1.024,1.116c0.128,0,1.408-.144,5.665-0.72L15.1,64.072a1.027,1.027,0,0,0,.992,1.044,1.132,1.132,0,0,0,1.12-1.26V63.712Zm6.337,21.559a1.074,1.074,0,0,1,1.28,1.224c0,0.036-.448,14.044-19.076,15.34A1.14,1.14,0,0,0,4.694,103.1a1.363,1.363,0,0,0,1.28,1.476h0.1c19.844-1.512,21.252-16.781,21.252-18.005a3.441,3.441,0,0,0-3.553-3.745H3a1.229,1.229,0,0,0,0,2.449H23.546Zm0.864-8.138a1.109,1.109,0,0,0,1.056-1.224,1.122,1.122,0,0,0-1.056-1.26H5.143a1.17,1.17,0,0,0-1.12,1.26,1.12,1.12,0,0,0,1.12,1.224H24.41ZM4.982,140.141c14.851-2.268,21.124-13.179,22.981-24.919a6.068,6.068,0,0,0,.1-1.044c0-2.017-1.088-3.313-3.1-3.313H12.536a3.712,3.712,0,0,0-3.745,2.376c-1.7,3.1-4.225,6.7-7.105,8.715a1.269,1.269,0,0,0-.576,1.08,1.418,1.418,0,0,0,1.248,1.441c1.024,0,5.121-3.781,8.482-9.867a2.227,2.227,0,0,1,2.24-1.405H24.666a1.165,1.165,0,0,1,.928,1.261v0.216c-1.7,11.847-8.322,20.814-21,22.8a1.3,1.3,0,0,0-1.152,1.332,1.286,1.286,0,0,0,1.312,1.332H4.982ZM3.446,176c14.691-1.692,22.533-10.875,24.517-24.7a5.528,5.528,0,0,0,.064-1.008c0-2.125-1.088-3.385-3.1-3.385H13.176c-1.856,0-3.041.468-3.9,1.944-1.792,3.1-4.481,6.734-7.554,8.643a1.194,1.194,0,0,0-.608,1.08,1.332,1.332,0,0,0,1.184,1.405c1.088,0,5.761-4.25,8.9-9.543a2.445,2.445,0,0,1,2.24-1.261h11.2a1.22,1.22,0,0,1,1.088,1.405,28.837,28.837,0,0,1-4.641,12.892c-3.009-3.025-9.57-6.734-10.4-6.734A1.323,1.323,0,0,0,9.463,158.1a0.889,0.889,0,0,0,.544.9,41.67,41.67,0,0,1,9.506,6.518c-4.225,4.862-10.082,7.274-16.483,7.959a1.07,1.07,0,0,0-1.024,1.116,1.341,1.341,0,0,0,1.28,1.4h0.16Zm10.21,33.156a1.153,1.153,0,1,0,2.3,0V183.369a1.152,1.152,0,1,0-2.3,0v25.784Z"/>
  <path id="藤子_不二雄の" data-name="藤子・  ・不二雄の" class="cls-1" d="M71.986,3.768a0.911,0.911,0,0,0-.821-0.953H66.294V1.833a1.069,1.069,0,0,0-2.118,0V2.814h-8.79V1.833A1,1,0,0,0,54.3.908a0.972,0.972,0,0,0-1.059.925V2.814H48.4a0.911,0.911,0,0,0-.821.953,0.9,0.9,0,0,0,.821.982h4.845v1.29a0.99,0.99,0,0,0,1.059.925,1.015,1.015,0,0,0,1.086-.925V4.749h8.79v1.29a1.073,1.073,0,0,0,2.118,0V4.749h4.871A0.9,0.9,0,0,0,71.986,3.768ZM72.092,18.8a0.976,0.976,0,0,0-.477-0.841,7.193,7.193,0,0,1-2.886-2.58h2.489a0.823,0.823,0,0,0,.741-0.869,0.834,0.834,0,0,0-.741-0.841H67.829a11.491,11.491,0,0,1-.609-2.243h3.654a0.918,0.918,0,0,0,.741-0.9,0.854,0.854,0,0,0-.741-0.841H69.365l0.529-1.739a0.735,0.735,0,0,0,.026-0.224,0.687,0.687,0,0,0-.715-0.7,0.919,0.919,0,0,0-.847.617L67.723,9.685H64.679a7.746,7.746,0,0,0,.238-1.57A0.908,0.908,0,0,0,64.1,6.993a0.948,0.948,0,0,0-.927.869,14.852,14.852,0,0,1-.212,1.823H61.29c-0.132-.673-0.344-1.43-0.529-2.075a0.8,0.8,0,0,0-.821-0.589,0.7,0.7,0,0,0-.688.729c0,0.224.371,1.514,0.45,1.935H58.536a0.833,0.833,0,0,0-.741.841,0.9,0.9,0,0,0,.741.9h4a12.66,12.66,0,0,1-.9,2.243H58.219a0.815,0.815,0,0,0-.741.841,0.8,0.8,0,0,0,.741.869h2.409a9.7,9.7,0,0,1-2.806,2.776,1.126,1.126,0,0,0-.477.9,0.841,0.841,0,0,0,.821.9,1.08,1.08,0,0,0,.688-0.28,0.636,0.636,0,0,0,.529.561l2.674,0.785a0.553,0.553,0,0,0,.212.028,0.771,0.771,0,0,0,.662-0.841,0.749,0.749,0,0,0-.476-0.729l-2.436-.7a14.791,14.791,0,0,0,2.568-3.393h4.421a12.272,12.272,0,0,0,2.568,3.281l-2.568.757a0.762,0.762,0,0,0-.5.729,0.722,0.722,0,0,0,.636.841,0.491,0.491,0,0,0,.185-0.028l2.7-.757a0.814,0.814,0,0,0,.556-0.757,0.026,0.026,0,0,1-.026-0.028,1.3,1.3,0,0,0,.768.281A0.8,0.8,0,0,0,72.092,18.8Zm-0.106,6.282a0.911,0.911,0,0,0-.477-0.813l-4.1-1.795a0.7,0.7,0,0,0-.238-0.028,0.759,0.759,0,0,0-.715.841,0.846,0.846,0,0,0,.45.785l4.077,1.823a1.11,1.11,0,0,0,.265.056A0.806,0.806,0,0,0,71.986,25.081Zm-6.354-1.234v-6.31a0.925,0.925,0,0,0-.927-0.841,0.874,0.874,0,0,0-.874.841v5.945c0,0.925-.265,1.122-0.715,1.122H62.508a0.844,0.844,0,0,0-.715.925,0.91,0.91,0,0,0,.794.954h0.874C64.652,26.483,65.632,25.922,65.632,23.847ZM62.9,23.258a0.727,0.727,0,0,0-.741-0.785,0.674,0.674,0,0,0-.318.084,9.442,9.442,0,0,1-3.733,1.711,0.846,0.846,0,0,0-.635.841,0.909,0.909,0,0,0,.821.954c1.006,0,3.389-1.374,4.236-1.991A0.946,0.946,0,0,0,62.9,23.258Zm-6.222.365V9.994a1.916,1.916,0,0,0-1.8-2.047H50.858a1.913,1.913,0,0,0-1.774,2.047v8.665a9.294,9.294,0,0,1-1.535,5.721,1.523,1.523,0,0,0-.185.7,0.831,0.831,0,0,0,.847.9,1.029,1.029,0,0,0,.821-0.5,12.186,12.186,0,0,0,1.827-5.609h4V23.4a1.1,1.1,0,0,1-1.086,1.122H52.394a0.929,0.929,0,0,0-.847.953,0.967,0.967,0,0,0,.847,1.01H53.93A2.606,2.606,0,0,0,56.683,23.623Zm9.531-9.955h-2.78a22.6,22.6,0,0,0,.821-2.243h1.35A12.977,12.977,0,0,0,66.214,13.667Zm-11.358-.7H50.911v-2.5a0.655,0.655,0,0,1,.635-0.7h2.7a0.669,0.669,0,0,1,.609.7v2.5Zm0,5.076H50.911V14.817h3.945v3.225Zm17.1,24.592a1.065,1.065,0,0,0-.927-1.122h-9.8v-2.72a0.854,0.854,0,0,1,.635-0.841c5.4-1.43,8.207-4.964,8.207-6.478a1.647,1.647,0,0,0-1.694-1.683H49.773a1.1,1.1,0,0,0,0,2.159H67.035a0.381,0.381,0,0,1,.424.336c0,0.533-1.827,2.636-6.7,3.926a2.089,2.089,0,0,0-1.668,2.159v3.141H48.529a1.142,1.142,0,0,0,0,2.243H59.092V50.6A1.421,1.421,0,0,1,57.4,52.281H54.247a1.035,1.035,0,0,0-.927,1.094,1.075,1.075,0,0,0,.927,1.15h3.415c2.409,0,3.574-.9,3.574-3.505V43.756h9.8A1.065,1.065,0,0,0,71.959,42.634ZM61.608,70.087a1.856,1.856,0,1,0-1.827,1.963A1.895,1.895,0,0,0,61.608,70.087Zm0,46.717a1.856,1.856,0,1,0-1.827,1.963A1.894,1.894,0,0,0,61.608,116.8Zm10.4,33A1.055,1.055,0,0,0,71.642,149l-7.81-7.432a0.8,0.8,0,0,0-.662-0.308,1.15,1.15,0,0,0-.688,1.935l7.757,7.516a1.008,1.008,0,0,0,.715.336A1.163,1.163,0,0,0,72.012,149.809Zm0-16.153a0.989,0.989,0,0,0-.9-1.065H48.423a0.989,0.989,0,0,0-.9,1.065,1,1,0,0,0,.9,1.094h10.59a22.79,22.79,0,0,1-10.987,14.162,1.134,1.134,0,0,0-.556,1.009,1.15,1.15,0,0,0,1.086,1.29,1.359,1.359,0,0,0,.688-0.2,25.54,25.54,0,0,0,9.4-9.563v15.2a1.082,1.082,0,0,0,1.112,1.009,1.041,1.041,0,0,0,1.086-1.009V140.134a1,1,0,0,0-1.006-.981,20.7,20.7,0,0,0,1.4-4.4h9.875A1,1,0,0,0,72.012,133.656ZM70.556,163.1a1.1,1.1,0,0,0-.98-1.178H49.985a1.085,1.085,0,0,0-.98,1.178,1.1,1.1,0,0,0,.98,1.178H69.577A1.123,1.123,0,0,0,70.556,163.1Zm1.456,20.331a1.1,1.1,0,0,0-.953-1.177H48.5a1.2,1.2,0,0,0,0,2.355H71.059A1.1,1.1,0,0,0,72.012,183.431ZM71.959,212.09a0.92,0.92,0,0,0-.821-0.982H67.723v-4.487h2.7a0.981,0.981,0,0,0,0-1.935h-2.7V200.2h2.7a0.9,0.9,0,0,0,.821-0.981,0.911,0.911,0,0,0-.821-0.954h-2.7v-4.543h3.415a0.939,0.939,0,0,0,.821-0.981,0.892,0.892,0,0,0-.821-0.954h-3.2l0.874-2.86a0.5,0.5,0,0,0,.026-0.2,1.025,1.025,0,0,0-.98-0.926,0.883,0.883,0,0,0-.874.645l-1.006,3.337H62.3a12.211,12.211,0,0,0,.794-2.832,0.9,0.9,0,0,0-.927-0.9,0.932,0.932,0,0,0-.927.729,16.616,16.616,0,0,1-3.442,6.926,1.141,1.141,0,0,0-.238.729,0.97,0.97,0,0,0,.9,1.01c0.609,0,1.3-.953,1.589-1.43v15a1.94,1.94,0,0,0,1.906,2.019h9.187A0.911,0.911,0,0,0,71.959,212.09ZM58.642,191.366a1.018,1.018,0,0,0-.9-1.038h-5.56v-1.542a0.954,0.954,0,0,0-1.906-.028v1.57H48.4a1,1,0,0,0-.874,1.038,0.969,0.969,0,0,0,.874,1.065h1.88c-0.079,6.058-1.218,10.012-2.621,12.367a1.793,1.793,0,0,0-.238.926,1.082,1.082,0,0,0,.874,1.206,1.013,1.013,0,0,0,.768-0.589c1.827-2.721,2.965-8.273,3.124-13.91h5.56A0.987,0.987,0,0,0,58.642,191.366Zm0.106,21.481v-0.141l-1.3-11.974a0.779,0.779,0,0,0-.847-0.673,0.837,0.837,0,0,0-.874.841l0.874,8.3a4.745,4.745,0,0,1-4.024,1.711l1.959-14.835a0.875,0.875,0,0,0-.927-0.869,1.013,1.013,0,0,0-.927.813l-1.933,14.891H49.138a1.026,1.026,0,0,0-.9,1.065,1.047,1.047,0,0,0,.953,1.066h2.78a6.388,6.388,0,0,0,4.872-1.683l0.159,1.6a0.8,0.8,0,0,0,.821.757A0.887,0.887,0,0,0,58.748,212.847Zm7.069-14.583H62V194.45a0.674,0.674,0,0,1,.741-0.729h3.071v4.543Zm0,6.422H62V200.2h3.812v4.487Zm0,6.422H62.667a0.659,0.659,0,0,1-.662-0.7v-3.786h3.812v4.487Zm3.891,17.712c0-6.1-3.387-9.951-9.437-9.951-7.5,0-10.512,4.835-10.512,11.026,0,5.139,1.939,8.2,4.929,8.2,3.667,0,6.4-4.906,6.4-15.091V222.77a0.816,0.816,0,0,0-1-.724,0.886,0.886,0,0,0-1.1.747c-0.117,2.523-.794,12.941-4.2,12.941-1.869,0-2.99-2.452-2.99-5.839,0-5.233,2.406-8.994,8.409-8.994,4.952,0,7.358,3.317,7.358,7.849,0,4.905-1.869,6.727-5.887,7.732a0.859,0.859,0,0,0-.7.981,1.029,1.029,0,0,0,.981,1.168,0.981,0.981,0,0,0,.28-0.047C67.186,237.673,69.708,234.777,69.708,228.82Z"/>
  <path id="F" class="cls-1" d="M68.861,84.839A1.078,1.078,0,0,0,67.7,83.605H53.373c-1.377,0-1.986.7-1.986,2.131v19.743a1.03,1.03,0,0,0,1.138,1.206,1.049,1.049,0,0,0,1.165-1.206V96.393H66.478a1.221,1.221,0,0,0,0-2.44H53.69V86.8a0.6,0.6,0,0,1,.662-0.729H67.643A1.1,1.1,0,0,0,68.861,84.839Z"/>
</svg>
