<svg xmlns="http://www.w3.org/2000/svg" width="352.593" height="79.094" viewBox="0 0 352.593 79.094">
  <defs>
    <style>
      .cls-1 {
        fill: #2b546a;
        fill-rule: evenodd;
      }
    </style>
  </defs>
  <path id="_25_title.svg" data-name="25_title.svg" class="cls-1" d="M486.242,19.172A0.736,0.736,0,0,0,486,18.6l-2.676-2.216a0.746,0.746,0,0,0-1.243.54,0.761,0.761,0,0,0,.27.568l2.676,2.243a0.692,0.692,0,0,0,.486.189A0.733,0.733,0,0,0,486.242,19.172Zm-3.513,1.189a0.81,0.81,0,0,0-.162-0.486L480.189,17.2a0.78,0.78,0,0,0-.568-0.243,0.732,0.732,0,0,0-.757.73,0.714,0.714,0,0,0,.19.513l2.378,2.675a0.763,0.763,0,0,0,.54.243A0.738,0.738,0,0,0,482.729,20.361Zm2.026,10.161a0.8,0.8,0,0,0-.783-0.784c-0.946,0-3.837-1.783-7.242-3.837l-2.514-1.513V19.172a0.8,0.8,0,0,0-.783-0.784,0.784,0.784,0,0,0-.784.784v16.7a0.784,0.784,0,0,0,.784.784,0.8,0.8,0,0,0,.783-0.784v-9.62l1.676,1c4.459,2.648,6.729,4.053,8.08,4.053A0.784,0.784,0,0,0,484.755,30.522Zm23.519-10.647a0.8,0.8,0,0,0-.784-0.784H496.519a0.822,0.822,0,0,0-.784.784,0.8,0.8,0,0,0,.784.784H507.49A0.784,0.784,0,0,0,508.274,19.875Zm0.865,5.972V24.361a0.784,0.784,0,0,0-.784-0.784H494.817a0.784,0.784,0,1,0,0,1.567h12.755v0.7c0,1.486-3.351,7.431-12.755,9.161a0.759,0.759,0,0,0-.622.757,0.8,0.8,0,0,0,.784.784h0.135C505.058,34.71,509.139,28.306,509.139,25.847Zm21.816-6.161a0.8,0.8,0,0,0-.784-0.784h-9a0.8,0.8,0,0,0-.784.784,0.784,0.784,0,0,0,.784.784h9A0.784,0.784,0,0,0,530.955,19.686Zm5.324,15.457a0.768,0.768,0,0,0-.784-0.784h-3.486c-1.621,0-2.945-.189-3.486-0.7a1.5,1.5,0,0,1-.324-1.189c0-2.108-.7-3.567-2.135-3.81l4.864-4.107a0.783,0.783,0,0,0,.27-0.622,0.816,0.816,0,0,0-.783-0.784H519.578a0.8,0.8,0,0,0-.783.784,0.784,0.784,0,0,0,.783.784h8.675l-11.08,9.4a0.745,0.745,0,0,0-.3.568,0.789,0.789,0,0,0,.811.784,0.808,0.808,0,0,0,.486-0.162l5.729-4.837a5.092,5.092,0,0,1,1.676-.3c0.513,0,1.053.081,1.053,2.3,0,2.729,1.757,3.459,5.378,3.459H535.5A0.768,0.768,0,0,0,536.279,35.143Zm23.127-11.728a0.784,0.784,0,0,0-.784-0.784h-9.134v-3.54a0.784,0.784,0,0,0-.783-0.784,0.8,0.8,0,0,0-.784.784v3.54h-5.837a0.784,0.784,0,0,0-.783.784,0.8,0.8,0,0,0,.783.784h5.837l-0.054,3.3h-4.7a0.77,0.77,0,1,0,0,1.54h4.675v1.973c0,4.216.946,5.648,3.918,5.648a9.878,9.878,0,0,0,7.135-3.4,0.694,0.694,0,0,0,.189-0.486,0.808,0.808,0,0,0-.784-0.811,0.765,0.765,0,0,0-.594.27,8.513,8.513,0,0,1-5.946,2.864c-1.7,0-2.351-.73-2.351-3.945,0-.486,0-1.243.027-2.108H555.3a0.77,0.77,0,1,0,0-1.54h-5.864l0.054-3.3h9.134A0.8,0.8,0,0,0,559.406,23.415Zm28.066,8.3a0.808,0.808,0,0,0-.811-0.784,0.735,0.735,0,0,0-.541.216,9.844,9.844,0,0,1-6.566,3.081c-2.594,0-.162-7.81-4.648-7.81a6.961,6.961,0,0,0-2.4.459l3.81-7.215a0.833,0.833,0,0,0,.081-0.351,0.777,0.777,0,0,0-1.459-.405L566.61,34.629a0.863,0.863,0,0,0-.081.378,0.778,0.778,0,0,0,.756.784,0.806,0.806,0,0,0,.7-0.405l3.054-5.756a5.585,5.585,0,0,1,3.864-1.648c2.756,0,.189,7.81,4.648,7.81a11.527,11.527,0,0,0,7.674-3.54A0.892,0.892,0,0,0,587.472,31.711Zm25.122-3.972c0-4.459-3.351-7.377-8.567-7.377-6.107,0-9.755,4.324-9.755,8.512,0,3.729,1.784,5.026,3.351,5.026,1.189,0,2.54-1.459,3.621-3.4a23.217,23.217,0,0,0,2.54-7.215V21.928h0.406c4.242,0,6.836,2.243,6.836,5.81,0,3.081-3.918,6.188-7.809,6.188a0.784,0.784,0,1,0,0,1.567C608.027,35.494,612.594,31.738,612.594,27.738ZM602.217,23.2c-1,5.215-3.621,9.134-4.594,9.134s-1.784-1.135-1.784-3.459c0-3,2.351-6.08,6.378-6.783V23.2Zm38.743-2.972a0.758,0.758,0,0,0-.271-0.567l-2.729-2.135a0.716,0.716,0,0,0-1.135.567,0.645,0.645,0,0,0,.243.54l2.73,2.135a0.733,0.733,0,0,0,.459.162A0.7,0.7,0,0,0,640.96,20.226Zm-3.243,1.135a0.652,0.652,0,0,0-.189-0.486l-2.7-2.567a0.693,0.693,0,0,0-.486-0.189,0.681,0.681,0,0,0-.7.7,0.585,0.585,0,0,0,.217.486l2.7,2.594a0.632,0.632,0,0,0,.459.189A0.7,0.7,0,0,0,637.717,21.361Zm2.162,5.891a0.761,0.761,0,0,0-.27-0.567c-0.973-.73-2.487-1.811-6.405-6.134a0.766,0.766,0,0,0-.594-0.27,0.818,0.818,0,0,0-.784.784v0.054c0,1.189.135,2.324,0.135,3.351,0,3.756-.432,10.431-5.54,10.431-2.81,0-3.81-2.027-3.81-4.108,0-3.216,2.27-7.161,5.567-9.728a0.839,0.839,0,0,0,.27-0.649,0.754,0.754,0,0,0-.757-0.757h-7.863a0.77,0.77,0,1,0,0,1.54h5.81c-2.784,2.783-4.594,6.459-4.594,9.593,0,3.486,2.107,5.675,5.377,5.675,6.216,0,7.08-7.269,7.08-12.025V23.036a40.416,40.416,0,0,0,4.946,4.729,1.369,1.369,0,0,0,.7.243A0.718,0.718,0,0,0,639.879,27.252Zm27.138,8.728a0.767,0.767,0,0,0-.27-0.595l-10.755-8.674V23.928h7.458a0.77,0.77,0,1,0,0-1.54h-7.458V18.929a0.784,0.784,0,0,0-1.568,0v3.459h-6.891a0.77,0.77,0,1,0,0,1.54h6.891v2.756l-6.053,6.7-3.756,1.27a0.78,0.78,0,0,0-.541.73,0.761,0.761,0,0,0,.784.757,0.748,0.748,0,0,0,.243-0.027l3.973-1.3A0.854,0.854,0,0,0,649.4,34.6l5.864-6.513L665.774,36.6a0.753,0.753,0,0,0,.486.162,0.766,0.766,0,0,0,.6-0.27A0.89,0.89,0,0,0,667.017,35.98Zm-8.674-1.027a0.8,0.8,0,0,0-.784-0.784h-4.027a0.784,0.784,0,0,0,0,1.567h4.027A0.8,0.8,0,0,0,658.343,34.954Zm29.378,0.192a0.667,0.667,0,0,0-.7-0.7l-6,.264c-0.408.024-.816,0.024-1.177,0.024-3.963,0-4.612-1.033-4.612-1.777,0-2.786,6.318-6.2,10.041-7.687a0.673,0.673,0,0,0,.432-0.625,0.692,0.692,0,0,0-.672-0.7,1.036,1.036,0,0,0-.265.048,34.8,34.8,0,0,0-6.245,3.171l-0.841-6.1a0.661,0.661,0,0,0-.7-0.576,0.678,0.678,0,0,0-.673.7l0.937,6.87c-1.922,1.465-3.387,3.171-3.387,4.9,0,1.633.817,3.171,5.765,3.171,0.408,0,.841,0,1.321-0.024l6.149-.288A0.662,0.662,0,0,0,687.721,35.146ZM403.427,57.467c1.733,1.04,2.476,1.733,2.476,8.615,0,0.693-.3,4.109-0.3,4.9,0,0.99.99,3.911,2.376,3.911,0.793,0,.793-1.139.793-2.079,0-3.268-.149-9.308-0.248-12.427a3.726,3.726,0,0,0,2.178.792c0.2,0,6.288-.743,7.229-0.842,6.288-.594,13.021-0.941,13.764-0.941,0.792,0,1.089.248,1.089,0.792a56.518,56.518,0,0,1-2.475,12.576c-2.129,6.733-5.991,13.17-16.636,18.913l0.3,0.644c16.14-4.555,19.359-17.329,21.488-28.567,0.445-2.426.5-2.723,1.485-3.367a1.571,1.571,0,0,0,.941-1.287c0-1.04-3.021-3.268-3.664-3.268-0.446,0-2.278.99-2.773,1.089-1.832.346-20.6,1.535-21.091,1.535-1.238,0-1.386-.1-3.218-1.139a5.941,5.941,0,0,0-2.525-.693,2.7,2.7,0,0,0-.991.2Zm44.511-1.139c2.773,1.634,6.882,4.357,9.407,7.575,1.188,1.535,1.584,2.03,2.228,2.03,0.842,0,1.386-.99,1.386-2.129,0-5.1-10.793-7.674-12.674-8.12Zm0.941,27.577a4.629,4.629,0,0,0-.2,1.238c0,2.822,3.317,5.446,4.555,5.446,0.544,0,.742-0.2,1.733-1.04a16.567,16.567,0,0,1,1.98-1.436c7.922-4.852,21.042-13.318,26.389-25.844l-0.644-.347c-10.644,14.9-27.676,24.26-29.953,24.26-1.387,0-2.525-1.535-3.169-2.525Zm45.3-23.072a4.208,4.208,0,0,0,4.06,3.664c0.594,0,3.664-.594,4.357-0.693,2.377-.347,7.427-1.089,14.408-1.535,3.663-.2,4.159-0.248,4.159-1.287,0-1.287-2.823-2.129-3.565-2.129-0.594,0-3.565,1.089-4.308,1.188-0.99.149-10.694,1.485-14.8,1.485a5.819,5.819,0,0,1-3.664-1.04Zm-6.783,19.259a5.386,5.386,0,0,0,4.308,5.595c0.148,0,2.921-.644,3.169-0.693a111.567,111.567,0,0,1,22.18-2.377,75.17,75.17,0,0,1,8.664.5c0.347,0.05,1.733.2,1.931,0.2a1.069,1.069,0,0,0,1.238-.941c0-1.287-3.218-3.367-4.406-3.367-0.446,0-2.476.446-2.921,0.545-1.288.148-7.575,0.545-9.011,0.644-3.218.248-19.755,1.931-20.2,1.931-2.129,0-3.169-1.089-4.258-2.228Zm47.63-8.466a4.48,4.48,0,0,0-.1.891c0,1.584,2.179,3.614,3.367,3.614a12.058,12.058,0,0,0,1.832-.792c1.04-.5,1.782-0.693,7.427-2.079,2.079,9.852,2.822,13.318,2.871,15.348,0.1,3.367,1.733,4.7,2.525,4.7a0.986,0.986,0,0,0,.99-1.089,11.3,11.3,0,0,0-.346-2.178c-1.981-8.318-2.575-11.536-3.714-17.329,4.258-.99,11.14-2.575,11.635-2.575a0.163,0.163,0,0,1,.2.149c0,0.4-2.277,4.208-5.644,9.11l0.594,0.446a46.434,46.434,0,0,0,6.387-6.634,9.389,9.389,0,0,1,1.783-1.881c1.435-.644,1.683-0.743,1.683-1.337,0-.99-2.674-2.971-3.367-2.971-0.4,0-2.079.941-2.525,1.04-0.5.148-7.674,1.733-11.189,2.475a30.782,30.782,0,0,1-.842-6.585c-0.049-1.584-1.931-2.03-3.317-2.03a4.122,4.122,0,0,0-2.277.693v0.743c2.277,0.3,2.673.891,4.059,7.674-3.02.644-8.466,1.782-9.06,1.782a3.281,3.281,0,0,1-2.277-1.436Zm38.1-15.3c2.772,1.634,6.882,4.357,9.407,7.575,1.188,1.535,1.584,2.03,2.228,2.03,0.841,0,1.386-.99,1.386-2.129,0-5.1-10.793-7.674-12.675-8.12Zm0.94,27.577a4.629,4.629,0,0,0-.2,1.238c0,2.822,3.317,5.446,4.555,5.446,0.545,0,.743-0.2,1.733-1.04a16.649,16.649,0,0,1,1.98-1.436c7.922-4.852,21.042-13.318,26.389-25.844l-0.643-.347c-10.645,14.9-27.676,24.26-29.954,24.26-1.386,0-2.525-1.535-3.169-2.525Zm70.315-17.378V59.5h11.684a0.8,0.8,0,0,0,.991-0.693,1.347,1.347,0,0,0-.4-0.842l-3.168-2.872a0.855,0.855,0,0,0-.594-0.3,0.69,0.69,0,0,0-.594.4l-1.585,2.327h-6.337v-5.05c1.386-.594,1.881-0.891,1.881-1.386,0-.594-0.742-0.693-1.237-0.792l-3.664-.4a42.376,42.376,0,0,1,.247,4.9v2.723h-5.2c-1.931,0-3.466-.1-5-0.2l0.842,2.377a33.358,33.358,0,0,1,3.911-.2H641.6v7.03H634.62c-2.03,0-3.564-.1-4.951-0.2l0.792,2.376a29.044,29.044,0,0,1,3.862-.2H657.94a0.8,0.8,0,0,0,.99-0.743,1.352,1.352,0,0,0-.4-0.842l-3.07-2.773a0.968,0.968,0,0,0-.594-0.3,0.733,0.733,0,0,0-.594.4l-1.584,2.278h-8.318ZM619.668,54.892L616.4,53.011a52.945,52.945,0,0,1,.2,5.892V81.628c0,0.99-.2,5.842-0.2,6.932a0.95,0.95,0,0,0,1.089,1.188c1.782,0,1.782-.693,1.782-1.287V84.846H626.7v2.525a0.727,0.727,0,0,0,.891.891c1.782,0,1.98-.743,1.98-1.386,0-.5-0.2-5.347-0.2-6.337V57.665c1.139-.792,1.486-1.04,1.486-1.436a0.867,0.867,0,0,0-.347-0.693l-2.277-1.98a0.916,0.916,0,0,0-.6-0.248,0.67,0.67,0,0,0-.5.347L626.3,54.892h-6.635Zm7.031,1.98V68.705h-7.427V56.872H626.7Zm0,13.813v12.18h-7.427V70.686H626.7Zm24.408,4.9V71.082c1.139-.545,1.585-0.743,1.585-1.287s-0.5-.693-1.04-0.743l-3.565-.446c0.1,1.485.2,2.921,0.2,4.357v2.624H635.462c-1.98,0-3.565-.1-4.951-0.2l0.743,2.376a33.086,33.086,0,0,1,3.861-.2h13.17V90.539a0.74,0.74,0,0,1-.941.842l-7.377-.5v0.792c6.041,1.238,6.14,2.079,6.338,3.466,4.159-.446,4.9-1.386,4.9-3.466,0-.594-0.1-3.664-0.1-4.357V77.568h6.734a0.768,0.768,0,0,0,.99-0.743,1.1,1.1,0,0,0-.446-0.842l-3.069-2.822a1.245,1.245,0,0,0-.693-0.3,0.671,0.671,0,0,0-.545.347l-1.584,2.376h-1.387ZM633.482,79.8a17.654,17.654,0,0,1,4.5,5.941c1.04,2.079,1.139,2.327,1.931,2.327s1.337-.842,1.337-1.98c0-2.525-3.961-5.5-7.229-6.882ZM690.844,58.11h10.4a44.04,44.04,0,0,1-2.426,5.5l0.644,0.446c1.436-1.386,3.317-3.218,4.8-4.9,2.476-.148,2.822-0.148,2.822-0.891a1.18,1.18,0,0,0-.3-0.693l-3.02-3.169a0.863,0.863,0,0,0-.643-0.4,0.968,0.968,0,0,0-.644.4l-1.535,1.733H686.289V52.317c1.337-.5,1.881-0.743,1.881-1.337s-0.792-.743-1.237-0.792l-3.714-.5c0.2,2.228.248,4.852,0.248,5.595V56.13H668.812c0-1.089-.05-1.535-0.1-2.228l-0.743-.049a18.345,18.345,0,0,1-2.871,6.387c-1.486,1.98-1.783,2.475-1.783,3.07a1.317,1.317,0,0,0,1.535,1.188c1.238,0,3.565-.792,3.911-6.387h9.061c-0.545,8.367-7.575,13.219-13.17,15.843L664.9,74.7c10-2.525,14.011-8.466,15.645-13.764,1.089-.2,1.98-0.347,1.98-1.089,0-.4-0.346-0.693-1.584-0.99l-2.921-.743h10.1v9.952c0,2.822.1,4.109,4.01,4.109h9.011c2.822,0,5.149-.248,5.149-2.129a9.6,9.6,0,0,0-.94-1.584c-0.149-.644-0.2-4.456-0.2-5l-0.793-.1c-0.247.693-1.237,4.159-1.534,4.951a1.531,1.531,0,0,1-1.783,1.089h-7.822c-2.179,0-2.377-.446-2.377-1.782V58.11Zm-4.5,20.349h16.189a0.84,0.84,0,0,0,1.04-.743,1.407,1.407,0,0,0-.445-0.842L699.855,73.9a0.872,0.872,0,0,0-.644-0.3,0.679,0.679,0,0,0-.544.4l-1.634,2.476H672.377c-1.981,0-3.565-.1-4.951-0.2l0.841,2.376a32.665,32.665,0,0,1,3.862-.2h11.387V90.737H667.574c-2.03,0-3.565-.1-5-0.2l0.841,2.376a32.648,32.648,0,0,1,3.862-.2H706.44a0.824,0.824,0,0,0,1.04-.743,1.441,1.441,0,0,0-.446-0.842l-3.268-2.921a0.844,0.844,0,0,0-.594-0.347,0.734,0.734,0,0,0-.594.4l-1.634,2.475h-14.6V78.459Zm58.9,0.049a34.892,34.892,0,0,1,4.109,7.03c-8.02,1.436-10.347,1.782-16.635,2.476a148.227,148.227,0,0,0,7.773-18.368h14.358c0.346,0,1.188-.049,1.188-0.693a0.984,0.984,0,0,0-.445-0.792l-3.268-2.822a0.935,0.935,0,0,0-.644-0.347,0.766,0.766,0,0,0-.594.4l-1.584,2.278H729.343c-2.079,0-3.02-.049-4.951-0.2l0.891,2.376a28.6,28.6,0,0,1,3.664-.2h8.318c-1.189,4.6-4.209,14.011-6.041,18.517-1.336.1-3.168,0.248-5.347,0.3l0.892,3.218c0.247,0.891.3,1.089,0.841,1.089s0.644-.4.891-1.386c14.507-2.921,18.567-4.06,21.29-4.852l1.782,4.8a1.528,1.528,0,0,0,1.287,1.238c0.892,0,1.189-.99,1.189-2.03,0-3.119-2.872-8.813-8.269-12.625ZM722.313,49.693c-0.545,3.565-4.011,14.061-11.833,26.686l0.594,0.545a45,45,0,0,0,6.733-9.06V87.371c0,1.139-.1,5.991-0.1,6.981a0.791,0.791,0,0,0,.941.941c0.891,0,2.129-.2,2.129-1.287,0-1.04-.149-5.694-0.149-6.634V64.695c1.337-.594,1.486-0.941,1.486-1.238,0-.545-0.347-0.594-1.535-0.693a89.213,89.213,0,0,0,4.406-9.754c1.436,0,2.03-.05,2.03-0.842,0-.446-0.247-0.644-1.238-1.04Zm10.2,5.3c-2.03,0-3.02-.05-5-0.149l0.891,2.327a29.709,29.709,0,0,1,3.714-.2h19.705c0.346,0,1.188-.05,1.188-0.693a1.126,1.126,0,0,0-.446-0.743L749.3,52.664a1.163,1.163,0,0,0-.693-0.347,0.694,0.694,0,0,0-.545.4l-1.584,2.277H732.512Z" transform="translate(-403.438 -16.188)"/>
</svg>
