<svg xmlns="http://www.w3.org/2000/svg" width="250.5" height="77.531" viewBox="0 0 250.5 77.531">
  <defs>
    <style>
      .cls-1 {
        fill: #2b546a;
        fill-rule: evenodd;
      }
    </style>
  </defs>
  <path id="_17_title.svg" data-name="17_title.svg" class="cls-1" d="M466.242,19.172A0.736,0.736,0,0,0,466,18.6l-2.676-2.216a0.746,0.746,0,0,0-1.243.54,0.761,0.761,0,0,0,.27.568l2.676,2.243a0.692,0.692,0,0,0,.486.189A0.733,0.733,0,0,0,466.242,19.172Zm-3.513,1.189a0.81,0.81,0,0,0-.162-0.486L460.189,17.2a0.78,0.78,0,0,0-.568-0.243,0.732,0.732,0,0,0-.757.73,0.714,0.714,0,0,0,.19.513l2.378,2.675a0.763,0.763,0,0,0,.54.243A0.738,0.738,0,0,0,462.729,20.361Zm2.026,10.161a0.8,0.8,0,0,0-.783-0.784c-0.946,0-3.837-1.783-7.242-3.837l-2.514-1.513V19.172a0.8,0.8,0,0,0-.783-0.784,0.784,0.784,0,0,0-.784.784v16.7a0.784,0.784,0,0,0,.784.784,0.8,0.8,0,0,0,.783-0.784v-9.62l1.676,1c4.459,2.648,6.729,4.053,8.08,4.053A0.784,0.784,0,0,0,464.755,30.522Zm23.519-10.647a0.8,0.8,0,0,0-.784-0.784H476.519a0.822,0.822,0,0,0-.784.784,0.8,0.8,0,0,0,.784.784H487.49A0.784,0.784,0,0,0,488.274,19.875Zm0.865,5.972V24.361a0.784,0.784,0,0,0-.784-0.784H474.817a0.784,0.784,0,1,0,0,1.567h12.755v0.7c0,1.486-3.351,7.431-12.755,9.161a0.759,0.759,0,0,0-.622.757,0.8,0.8,0,0,0,.784.784h0.135C485.058,34.71,489.139,28.306,489.139,25.847Zm21.816-6.161a0.8,0.8,0,0,0-.784-0.784h-9a0.8,0.8,0,0,0-.784.784,0.784,0.784,0,0,0,.784.784h9A0.784,0.784,0,0,0,510.955,19.686Zm5.324,15.457a0.768,0.768,0,0,0-.784-0.784h-3.486c-1.621,0-2.945-.189-3.486-0.7a1.5,1.5,0,0,1-.324-1.189c0-2.108-.7-3.567-2.135-3.81l4.864-4.107a0.783,0.783,0,0,0,.27-0.622,0.816,0.816,0,0,0-.783-0.784H499.578a0.8,0.8,0,0,0-.783.784,0.784,0.784,0,0,0,.783.784h8.675l-11.08,9.4a0.745,0.745,0,0,0-.3.568,0.789,0.789,0,0,0,.811.784,0.808,0.808,0,0,0,.486-0.162l5.729-4.837a5.092,5.092,0,0,1,1.676-.3c0.513,0,1.053.081,1.053,2.3,0,2.729,1.757,3.459,5.378,3.459H515.5A0.768,0.768,0,0,0,516.279,35.143Zm23.127-11.728a0.784,0.784,0,0,0-.784-0.784h-9.134v-3.54a0.784,0.784,0,0,0-.783-0.784,0.8,0.8,0,0,0-.784.784v3.54h-5.837a0.784,0.784,0,0,0-.783.784,0.8,0.8,0,0,0,.783.784h5.837l-0.054,3.3h-4.7a0.77,0.77,0,1,0,0,1.54h4.675v1.973c0,4.216.946,5.648,3.918,5.648a9.878,9.878,0,0,0,7.135-3.4,0.694,0.694,0,0,0,.189-0.486,0.808,0.808,0,0,0-.784-0.811,0.765,0.765,0,0,0-.594.27,8.513,8.513,0,0,1-5.946,2.864c-1.7,0-2.351-.73-2.351-3.945,0-.486,0-1.243.027-2.108H535.3a0.77,0.77,0,1,0,0-1.54h-5.864l0.054-3.3h9.134A0.8,0.8,0,0,0,539.406,23.415Zm28.066,8.3a0.808,0.808,0,0,0-.811-0.784,0.735,0.735,0,0,0-.541.216,9.844,9.844,0,0,1-6.566,3.081c-2.594,0-.162-7.81-4.648-7.81a6.961,6.961,0,0,0-2.4.459l3.81-7.215a0.833,0.833,0,0,0,.081-0.351,0.777,0.777,0,0,0-1.459-.405L546.61,34.629a0.863,0.863,0,0,0-.081.378,0.778,0.778,0,0,0,.756.784,0.806,0.806,0,0,0,.7-0.405l3.054-5.756a5.585,5.585,0,0,1,3.864-1.648c2.756,0,.189,7.81,4.648,7.81a11.527,11.527,0,0,0,7.674-3.54A0.892,0.892,0,0,0,567.472,31.711Zm25.122-3.972c0-4.459-3.351-7.377-8.567-7.377-6.107,0-9.755,4.324-9.755,8.512,0,3.729,1.784,5.026,3.351,5.026,1.189,0,2.54-1.459,3.621-3.4a23.217,23.217,0,0,0,2.54-7.215V21.928h0.406c4.242,0,6.836,2.243,6.836,5.81,0,3.081-3.918,6.188-7.809,6.188a0.784,0.784,0,1,0,0,1.567C588.027,35.494,592.594,31.738,592.594,27.738ZM582.217,23.2c-1,5.215-3.621,9.134-4.594,9.134s-1.784-1.135-1.784-3.459c0-3,2.351-6.08,6.378-6.783V23.2Zm38.743-2.972a0.758,0.758,0,0,0-.271-0.567l-2.729-2.135a0.716,0.716,0,0,0-1.135.567,0.645,0.645,0,0,0,.243.54l2.73,2.135a0.733,0.733,0,0,0,.459.162A0.7,0.7,0,0,0,620.96,20.226Zm-3.243,1.135a0.652,0.652,0,0,0-.189-0.486l-2.7-2.567a0.693,0.693,0,0,0-.486-0.189,0.681,0.681,0,0,0-.7.7,0.585,0.585,0,0,0,.217.486l2.7,2.594a0.632,0.632,0,0,0,.459.189A0.7,0.7,0,0,0,617.717,21.361Zm2.162,5.891a0.761,0.761,0,0,0-.27-0.567c-0.973-.73-2.487-1.811-6.405-6.134a0.766,0.766,0,0,0-.594-0.27,0.818,0.818,0,0,0-.784.784v0.054c0,1.189.135,2.324,0.135,3.351,0,3.756-.432,10.431-5.54,10.431-2.81,0-3.81-2.027-3.81-4.108,0-3.216,2.27-7.161,5.567-9.728a0.839,0.839,0,0,0,.27-0.649,0.754,0.754,0,0,0-.757-0.757h-7.863a0.77,0.77,0,1,0,0,1.54h5.81c-2.784,2.783-4.594,6.459-4.594,9.593,0,3.486,2.107,5.675,5.377,5.675,6.216,0,7.08-7.269,7.08-12.025V23.036a40.416,40.416,0,0,0,4.946,4.729,1.369,1.369,0,0,0,.7.243A0.718,0.718,0,0,0,619.879,27.252Zm27.138,8.728a0.767,0.767,0,0,0-.27-0.595l-10.755-8.674V23.928h7.458a0.77,0.77,0,1,0,0-1.54h-7.458V18.929a0.784,0.784,0,0,0-1.568,0v3.459h-6.891a0.77,0.77,0,1,0,0,1.54h6.891v2.756l-6.053,6.7-3.756,1.27a0.78,0.78,0,0,0-.541.73,0.761,0.761,0,0,0,.784.757,0.748,0.748,0,0,0,.243-0.027l3.973-1.3A0.854,0.854,0,0,0,629.4,34.6l5.864-6.513L645.774,36.6a0.753,0.753,0,0,0,.486.162,0.766,0.766,0,0,0,.6-0.27A0.89,0.89,0,0,0,647.017,35.98Zm-8.674-1.027a0.8,0.8,0,0,0-.784-0.784h-4.027a0.784,0.784,0,0,0,0,1.567h4.027A0.8,0.8,0,0,0,638.343,34.954Zm29.378,0.192a0.667,0.667,0,0,0-.7-0.7l-6,.264c-0.408.024-.816,0.024-1.177,0.024-3.963,0-4.612-1.033-4.612-1.777,0-2.786,6.318-6.2,10.041-7.687a0.673,0.673,0,0,0,.432-0.625,0.692,0.692,0,0,0-.672-0.7,1.036,1.036,0,0,0-.265.048,34.8,34.8,0,0,0-6.245,3.171l-0.841-6.1a0.661,0.661,0,0,0-.7-0.576,0.678,0.678,0,0,0-.673.7l0.937,6.87c-1.922,1.465-3.387,3.171-3.387,4.9,0,1.633.817,3.171,5.765,3.171,0.408,0,.841,0,1.321-0.024l6.149-.288A0.662,0.662,0,0,0,667.721,35.146Zm-191.1,58.582,1.732-1.733L465.972,79.667,474.24,71.5l-1.832-1.881-8.169,8.318-9.407-9.407h18.814V56.149h4.208V53.674h-4.208V49.564H450.624V93.233h14.853V90.757H453.1V70.26ZM453.1,52.04H471.17v1.634H454.683v2.475H471.17v9.9H453.1V52.04Zm-9.555.5,4.109,4.109,1.832-1.733-5.941-5.842-10,10.051,1.831,1.733s1.238-1.386,2.872-2.971v2.476h4.06v1.584h-4.06v2.476h4.06v26.34h-1.584V66.051h-2.476V93.233h10.645V66.051h-2.476V90.757h-1.634V64.418h4.11V61.942h-4.11V60.358h4.11V57.882H438.345Zm85.379-2.971H497.484V52.04H518.13V90.757h-8.268v2.475h10.744V52.04h8.317V49.564Zm-16.586,4.109H501.693V76.8h10.644V53.674ZM509.862,74.32h-5.694V56.149h5.694V74.32Zm-9.9-20.646H485.206v2.475H499.96V53.674Zm0,4.208H485.206v2.476H499.96V57.882ZM484.612,75.557l1.832,1.733,14.11-14.11-1.832-1.733Zm61.768,15.2V64.418h8.169l-1.98,1.98,1.733,1.733,1.98-1.98V89.173h18.963V66.051H556.431L570.393,52.04h2.376v9.9H564.6v2.476h10.645V49.564H556.282V52.04h10.645L554.7,64.319V61.942H546.38V60.358H554.7V57.882H546.38V56.149H554.7V53.674H546.38V49.564h-2.475v4.109h-8.17v2.475h8.17v1.733h-8.17v2.476h8.17v30.4H542.32V61.942h-2.475V93.233h39.608V90.757H546.38Zm12.378-22.23h14.011V86.7H558.758V68.527Zm43.092-2.971-2.871,2.822V60.358h4.109V57.882h-4.109V49.564H596.5v8.318h-1.584V49.564h-2.476V68.527h2.476V60.358H596.5v10.5l-8.763,8.813,1.832,1.733,6.931-6.931V93.233h2.476V71.993l4.7-4.7Zm30.2-9.407V53.674H619.674V49.564H617.2v4.109H604.821v2.475H617.2v1.733H604.821v2.476h16.437v1.584H604.821v2.476h16.437v26.34H612.99v2.475h10.744V64.418h8.318V61.942h-8.318V60.358h8.318V57.882H619.674V56.149h12.378ZM616.06,75.557l-10-10-1.733,1.733,9.9,10Zm32.413-17.725v2.476h24.755v1.584H648.473v2.475h24.755V70.21H648.473v2.475H675.7V57.833H665.059l8.318-8.318H653.325L639.71,63.13l1.832,1.733Zm5.942-5.842h13.021c-1.733,1.634-4.605,4.456-5.842,5.842H648.622C651.444,54.961,654.068,52.238,654.415,51.99Zm4.852,38.717V74.27h-2.476V93.183h27.231V90.708H659.267Zm1.089-15.2,10.05,10,1.733-1.733-10.05-10Zm20.051,8.268-10-10-1.732,1.733,9.9,10Zm-40.7,4.109,1.832,1.733,14.11-14.111-1.832-1.733Z" transform="translate(-433.531 -16.188)"/>
</svg>
