<svg xmlns="http://www.w3.org/2000/svg" width="245.125" height="78.906" viewBox="0 0 245.125 78.906">
  <defs>
    <style>
      .cls-1 {
        fill: #2b546a;
        fill-rule: evenodd;
      }
    </style>
  </defs>
  <path id="_21_title.svg" data-name="21_title.svg" class="cls-1" d="M463.2,25.172a0.736,0.736,0,0,0-.243-0.567l-2.676-2.216a0.746,0.746,0,0,0-1.243.54,0.758,0.758,0,0,0,.271.568l2.675,2.243a0.692,0.692,0,0,0,.486.189A0.733,0.733,0,0,0,463.2,25.172Zm-3.513,1.189a0.81,0.81,0,0,0-.162-0.486L457.146,23.2a0.779,0.779,0,0,0-.568-0.243,0.731,0.731,0,0,0-.756.73,0.713,0.713,0,0,0,.189.513l2.378,2.675a0.763,0.763,0,0,0,.54.243A0.737,0.737,0,0,0,459.686,26.361Zm2.027,10.161a0.8,0.8,0,0,0-.784-0.784c-0.946,0-3.837-1.784-7.242-3.837l-2.513-1.513V25.172a0.8,0.8,0,0,0-.784-0.784,0.785,0.785,0,0,0-.784.784v16.7a0.785,0.785,0,0,0,.784.784,0.8,0.8,0,0,0,.784-0.784v-9.62l1.675,1c4.459,2.648,6.729,4.053,8.08,4.053A0.785,0.785,0,0,0,461.713,36.522Zm23.518-10.647a0.8,0.8,0,0,0-.783-0.784H473.476a0.822,0.822,0,0,0-.784.784,0.8,0.8,0,0,0,.784.784h10.972A0.784,0.784,0,0,0,485.231,25.875Zm0.865,5.972V30.361a0.784,0.784,0,0,0-.784-0.784H471.774a0.784,0.784,0,1,0,0,1.567h12.755v0.7c0,1.486-3.351,7.431-12.755,9.161a0.759,0.759,0,0,0-.622.757,0.8,0.8,0,0,0,.784.784h0.135C482.015,40.71,486.1,34.306,486.1,31.847Zm21.816-6.161a0.8,0.8,0,0,0-.783-0.784h-9a0.8,0.8,0,0,0-.784.784,0.785,0.785,0,0,0,.784.784h9A0.784,0.784,0,0,0,507.912,25.686Zm5.324,15.457a0.768,0.768,0,0,0-.784-0.784h-3.486c-1.621,0-2.945-.189-3.486-0.7a1.5,1.5,0,0,1-.324-1.189c0-2.108-.7-3.567-2.135-3.81l4.864-4.108a0.783,0.783,0,0,0,.27-0.622,0.816,0.816,0,0,0-.783-0.784H496.536a0.8,0.8,0,0,0-.784.784,0.784,0.784,0,0,0,.784.784h8.674l-11.08,9.4a0.745,0.745,0,0,0-.3.568,0.79,0.79,0,0,0,.811.784,0.808,0.808,0,0,0,.486-0.162l5.729-4.837a5.092,5.092,0,0,1,1.676-.3c0.513,0,1.054.081,1.054,2.3,0,2.729,1.756,3.459,5.377,3.459h3.486A0.768,0.768,0,0,0,513.236,41.143Zm23.127-11.728a0.784,0.784,0,0,0-.784-0.784h-9.133v-3.54a0.785,0.785,0,0,0-.784-0.784,0.8,0.8,0,0,0-.784.784v3.54h-5.837a0.784,0.784,0,0,0-.783.784,0.8,0.8,0,0,0,.783.784h5.837l-0.054,3.3h-4.7a0.77,0.77,0,1,0,0,1.54H524.8v1.973c0,4.216.946,5.648,3.919,5.648a9.877,9.877,0,0,0,7.134-3.4,0.694,0.694,0,0,0,.189-0.486,0.808,0.808,0,0,0-.784-0.811,0.765,0.765,0,0,0-.594.27,8.513,8.513,0,0,1-5.945,2.864c-1.7,0-2.352-.73-2.352-3.945,0-.486,0-1.243.028-2.108h5.864a0.77,0.77,0,1,0,0-1.54h-5.864l0.054-3.3h9.133A0.8,0.8,0,0,0,536.363,29.415Zm28.066,8.3a0.808,0.808,0,0,0-.811-0.784,0.731,0.731,0,0,0-.54.216,9.848,9.848,0,0,1-6.567,3.081c-2.594,0-.162-7.81-4.648-7.81a6.961,6.961,0,0,0-2.405.459l3.81-7.215a0.833,0.833,0,0,0,.081-0.351,0.777,0.777,0,0,0-1.459-.405l-8.323,15.728a0.863,0.863,0,0,0-.081.378,0.778,0.778,0,0,0,.756.784,0.806,0.806,0,0,0,.7-0.405L548,35.63a5.585,5.585,0,0,1,3.864-1.648c2.756,0,.189,7.81,4.648,7.81a11.527,11.527,0,0,0,7.674-3.54A0.892,0.892,0,0,0,564.429,37.711Zm25.122-3.972c0-4.459-3.351-7.377-8.567-7.377-6.107,0-9.755,4.324-9.755,8.512,0,3.729,1.784,5.026,3.351,5.026,1.189,0,2.54-1.459,3.621-3.4a23.217,23.217,0,0,0,2.54-7.215V27.928h0.406c4.242,0,6.836,2.243,6.836,5.81,0,3.081-3.918,6.188-7.809,6.188a0.784,0.784,0,1,0,0,1.567C584.984,41.494,589.551,37.738,589.551,33.738ZM579.174,29.2c-1,5.215-3.621,9.134-4.594,9.134S572.8,37.2,572.8,34.873c0-3,2.351-6.08,6.378-6.783V29.2Zm38.743-2.972a0.761,0.761,0,0,0-.27-0.567l-2.73-2.135a0.716,0.716,0,0,0-1.135.567,0.645,0.645,0,0,0,.243.54l2.73,2.135a0.733,0.733,0,0,0,.459.162A0.7,0.7,0,0,0,617.917,26.226Zm-3.243,1.135a0.652,0.652,0,0,0-.189-0.486l-2.7-2.567a0.693,0.693,0,0,0-.486-0.189,0.681,0.681,0,0,0-.7.7,0.588,0.588,0,0,0,.217.486l2.7,2.594a0.632,0.632,0,0,0,.459.189A0.7,0.7,0,0,0,614.674,27.361Zm2.162,5.891a0.761,0.761,0,0,0-.27-0.568c-0.973-.73-2.487-1.811-6.405-6.134a0.766,0.766,0,0,0-.594-0.27,0.818,0.818,0,0,0-.784.784v0.054c0,1.189.135,2.324,0.135,3.351,0,3.756-.432,10.431-5.54,10.431-2.81,0-3.81-2.027-3.81-4.108,0-3.216,2.27-7.161,5.567-9.728a0.839,0.839,0,0,0,.27-0.649,0.754,0.754,0,0,0-.757-0.757h-7.863a0.77,0.77,0,1,0,0,1.54h5.81C599.811,29.982,598,33.657,598,36.792c0,3.486,2.108,5.675,5.377,5.675,6.216,0,7.08-7.269,7.08-12.025V29.036a40.416,40.416,0,0,0,4.946,4.729,1.369,1.369,0,0,0,.7.243A0.717,0.717,0,0,0,616.836,33.252Zm27.138,8.728a0.767,0.767,0,0,0-.27-0.595l-10.755-8.674V29.928h7.458a0.77,0.77,0,1,0,0-1.54h-7.458V24.929a0.784,0.784,0,0,0-1.568,0v3.459H624.49a0.77,0.77,0,1,0,0,1.54h6.891v2.756l-6.053,6.7-3.756,1.27a0.78,0.78,0,0,0-.541.73,0.761,0.761,0,0,0,.784.757,0.748,0.748,0,0,0,.243-0.027l3.973-1.3a0.854,0.854,0,0,0,.324-0.216l5.864-6.513L642.731,42.6a0.753,0.753,0,0,0,.486.162,0.766,0.766,0,0,0,.6-0.27A0.89,0.89,0,0,0,643.974,41.98ZM635.3,40.954a0.8,0.8,0,0,0-.784-0.784H630.49a0.784,0.784,0,1,0,0,1.567h4.026A0.8,0.8,0,0,0,635.3,40.954ZM665.293,34.8c0-3.963-2.979-6.558-7.615-6.558-5.428,0-8.671,3.843-8.671,7.566,0,3.315,1.585,4.468,2.979,4.468,1.056,0,2.257-1.3,3.218-3.027a20.61,20.61,0,0,0,2.258-6.413v-1.2h0.361c3.771,0,6.077,1.994,6.077,5.164,0,2.738-3.483,5.5-6.942,5.5a0.7,0.7,0,1,0,0,1.393C661.233,41.7,665.293,38.359,665.293,34.8Zm-9.224-4.035c-0.889,4.636-3.219,8.119-4.083,8.119s-1.586-1.009-1.586-3.075c0-2.666,2.09-5.4,5.669-6.029v0.985Zm-175.821,33.5H462.38l0.756-9.285H450.018l0.972,9.285H433.554L434.9,72.8h12.74l-9.933,28.071h5.183l13.657-24.13L471.5,100.653h5.4L464.917,72.8h14.2ZM461.139,88.993h-8.1l0.81,9.285h6.856Zm70.247-33.631h-30.23l1.08,23.32h26.343Zm-2.591,24.616H500.724l0.378,4.966h1.242l-0.972,15.925h4.157l1.3-9.663h2.267l-0.107,9.123h4.048l0.81-9.123h2.321l-0.108,9.069h3.887l0.972-9.069h1.565l-0.324,9.771h3.833l2-14.36H507.472l0.216-1.673h20.459ZM501.318,92.286v-4.8l-4.157-10.85,3.185-13.442V55.524H484.1l5.614,45.237h4l-1.458-23,4.319,9.609h-2.376l0.27,4.912h6.856Zm22.565-29.366-0.108,3.131H507.958V62.919h15.925Zm-0.27,7.72-0.108,2.7H507.9l0.054-2.7h15.655Zm-29.421-6.91L492.087,74.9l-0.756-11.174h2.861Zm86.659,1.3,1.295-9.447H535.83l1.349,9.447H553.32l0.864,9.5H540.472l1.188,7.45h13.171l1.026,11.444H540.094l0.81,5.668h35.9l0.756-5.668H562.281l1.079-11.444h13.172l1.08-7.449h-13.5l0.81-9.5h15.925Zm47.52-7.881H600.3V66h26.991Zm0.108,16.411H597.763l0.378,7.018h5.236l-2,15.547,0.162,4.589h22.4l0.648-4.373-1.133-12.362h-7.234l3.131,12.254H606.67l4.858-15.655h15.979ZM598.573,56.117l-10.851.054-2.645,16.087,2.051,12.254,2.322-5.722,3.293,22.295h3.994L595.712,63.3ZM678.7,64.053h-4.21l2.213-9.5h-9.069l-1.188,9.5h-3.239l-0.431-9.5h-9.339l1.4,9.5h-3.725l0.918,20.405h3.293l-0.918,16.411h3.4l4.1-16.411h3.239l2.213,16.249h7.4l0.377-4.049h-4.048l0.324-12.2h4.642Zm-28.5-4.481h-4.319V54.39H635.243l0.7,5.182h-4.858l1.134,7.881h17.76ZM649.98,76.307l-0.054-6.8H633.839l0.864,6.8H649.98Zm-0.054,7.881v-5.83H635.3l0.7,5.83h13.928Zm0.324,16.681-0.108-14.576-14.036-.108,1.944,14.683h12.2Zm20.891-22.187H657.753v-7.5h13.388v7.5Zm-25.048,18.03h-4.157l-0.485-5.29h4.264Z" transform="translate(-433.563 -22.188)"/>
</svg>
