<svg xmlns="http://www.w3.org/2000/svg" width="215.687" height="78.25" viewBox="0 0 215.687 78.25">
  <defs>
    <style>
      .cls-1 {
        fill: #2b546a;
        fill-rule: evenodd;
      }
    </style>
  </defs>
  <path id="_16_title.svg" data-name="16_title.svg" class="cls-1" d="M479.2,24.172a0.736,0.736,0,0,0-.243-0.567l-2.676-2.216a0.746,0.746,0,0,0-1.243.54,0.758,0.758,0,0,0,.271.568l2.675,2.243a0.692,0.692,0,0,0,.486.189A0.733,0.733,0,0,0,479.2,24.172Zm-3.513,1.189a0.81,0.81,0,0,0-.162-0.486L473.146,22.2a0.779,0.779,0,0,0-.568-0.243,0.731,0.731,0,0,0-.756.73,0.713,0.713,0,0,0,.189.513l2.378,2.675a0.763,0.763,0,0,0,.54.243A0.737,0.737,0,0,0,475.686,25.361Zm2.027,10.161a0.8,0.8,0,0,0-.784-0.784c-0.946,0-3.837-1.784-7.242-3.837l-2.513-1.513V24.172a0.8,0.8,0,0,0-.784-0.784,0.785,0.785,0,0,0-.784.784v16.7a0.785,0.785,0,0,0,.784.784,0.8,0.8,0,0,0,.784-0.784v-9.62l1.675,1c4.459,2.648,6.729,4.053,8.08,4.053A0.785,0.785,0,0,0,477.713,35.522Zm23.518-10.647a0.8,0.8,0,0,0-.783-0.784H489.476a0.822,0.822,0,0,0-.784.784,0.8,0.8,0,0,0,.784.784h10.972A0.784,0.784,0,0,0,501.231,24.875Zm0.865,5.972V29.361a0.784,0.784,0,0,0-.784-0.784H487.774a0.784,0.784,0,1,0,0,1.567h12.755v0.7c0,1.486-3.351,7.431-12.755,9.161a0.759,0.759,0,0,0-.622.757,0.8,0.8,0,0,0,.784.784h0.135C498.015,39.71,502.1,33.306,502.1,30.847Zm21.816-6.161a0.8,0.8,0,0,0-.783-0.784h-9a0.8,0.8,0,0,0-.784.784,0.785,0.785,0,0,0,.784.784h9A0.784,0.784,0,0,0,523.912,24.686Zm5.324,15.457a0.768,0.768,0,0,0-.784-0.784h-3.486c-1.621,0-2.945-.189-3.486-0.7a1.5,1.5,0,0,1-.324-1.189c0-2.108-.7-3.567-2.135-3.81l4.864-4.108a0.783,0.783,0,0,0,.27-0.622,0.816,0.816,0,0,0-.783-0.784H512.536a0.8,0.8,0,0,0-.784.784,0.784,0.784,0,0,0,.784.784h8.674l-11.08,9.4a0.745,0.745,0,0,0-.3.568,0.79,0.79,0,0,0,.811.784,0.808,0.808,0,0,0,.486-0.162l5.729-4.837a5.092,5.092,0,0,1,1.676-.3c0.513,0,1.054.081,1.054,2.3,0,2.729,1.756,3.459,5.377,3.459h3.486A0.768,0.768,0,0,0,529.236,40.143Zm23.127-11.728a0.784,0.784,0,0,0-.784-0.784h-9.133v-3.54a0.785,0.785,0,0,0-.784-0.784,0.8,0.8,0,0,0-.784.784v3.54h-5.837a0.784,0.784,0,0,0-.783.784,0.8,0.8,0,0,0,.783.784h5.837l-0.054,3.3h-4.7a0.77,0.77,0,1,0,0,1.54H540.8v1.973c0,4.216.946,5.648,3.919,5.648a9.877,9.877,0,0,0,7.134-3.4,0.694,0.694,0,0,0,.189-0.486,0.808,0.808,0,0,0-.784-0.811,0.765,0.765,0,0,0-.594.27,8.513,8.513,0,0,1-5.945,2.864c-1.7,0-2.352-.73-2.352-3.945,0-.486,0-1.243.028-2.108h5.864a0.77,0.77,0,1,0,0-1.54h-5.864l0.054-3.3h9.133A0.8,0.8,0,0,0,552.363,28.415Zm28.066,8.3a0.808,0.808,0,0,0-.811-0.784,0.731,0.731,0,0,0-.54.216,9.848,9.848,0,0,1-6.567,3.081c-2.594,0-.162-7.81-4.648-7.81a6.961,6.961,0,0,0-2.405.459l3.81-7.215a0.833,0.833,0,0,0,.081-0.351,0.777,0.777,0,0,0-1.459-.405l-8.323,15.728a0.863,0.863,0,0,0-.081.378,0.778,0.778,0,0,0,.756.784,0.806,0.806,0,0,0,.7-0.405L564,34.63a5.585,5.585,0,0,1,3.864-1.648c2.756,0,.189,7.81,4.648,7.81a11.527,11.527,0,0,0,7.674-3.54A0.892,0.892,0,0,0,580.429,36.711Zm25.122-3.972c0-4.459-3.351-7.377-8.567-7.377-6.107,0-9.755,4.324-9.755,8.512,0,3.729,1.784,5.026,3.351,5.026,1.189,0,2.54-1.459,3.621-3.4a23.217,23.217,0,0,0,2.54-7.215V26.928h0.406c4.242,0,6.836,2.243,6.836,5.81,0,3.081-3.918,6.188-7.809,6.188a0.784,0.784,0,1,0,0,1.567C600.984,40.494,605.551,36.738,605.551,32.738ZM595.174,28.2c-1,5.215-3.621,9.134-4.594,9.134S588.8,36.2,588.8,33.873c0-3,2.351-6.08,6.378-6.783V28.2Zm38.743-2.972a0.761,0.761,0,0,0-.27-0.567l-2.73-2.135a0.716,0.716,0,0,0-1.135.567,0.645,0.645,0,0,0,.243.54l2.73,2.135a0.733,0.733,0,0,0,.459.162A0.7,0.7,0,0,0,633.917,25.226Zm-3.243,1.135a0.652,0.652,0,0,0-.189-0.486l-2.7-2.567a0.693,0.693,0,0,0-.486-0.189,0.681,0.681,0,0,0-.7.7,0.588,0.588,0,0,0,.217.486l2.7,2.594a0.632,0.632,0,0,0,.459.189A0.7,0.7,0,0,0,630.674,26.361Zm2.162,5.891a0.761,0.761,0,0,0-.27-0.568c-0.973-.73-2.487-1.811-6.405-6.134a0.766,0.766,0,0,0-.594-0.27,0.818,0.818,0,0,0-.784.784v0.054c0,1.189.135,2.324,0.135,3.351,0,3.756-.432,10.431-5.54,10.431-2.81,0-3.81-2.027-3.81-4.108,0-3.216,2.27-7.161,5.567-9.728a0.839,0.839,0,0,0,.27-0.649,0.754,0.754,0,0,0-.757-0.757h-7.863a0.77,0.77,0,1,0,0,1.54h5.81C615.811,28.982,614,32.657,614,35.792c0,3.486,2.108,5.675,5.377,5.675,6.216,0,7.08-7.269,7.08-12.025V28.036a40.416,40.416,0,0,0,4.946,4.729,1.369,1.369,0,0,0,.7.243A0.717,0.717,0,0,0,632.836,32.252Zm27.138,8.728a0.767,0.767,0,0,0-.27-0.595l-10.755-8.674V28.928h7.458a0.77,0.77,0,1,0,0-1.54h-7.458V23.929a0.784,0.784,0,0,0-1.568,0v3.459H640.49a0.77,0.77,0,1,0,0,1.54h6.891v2.756l-6.053,6.7-3.756,1.27a0.78,0.78,0,0,0-.541.73,0.761,0.761,0,0,0,.784.757,0.748,0.748,0,0,0,.243-0.027l3.973-1.3a0.854,0.854,0,0,0,.324-0.216l5.864-6.513L658.731,41.6a0.753,0.753,0,0,0,.486.162,0.766,0.766,0,0,0,.6-0.27A0.89,0.89,0,0,0,659.974,40.98ZM651.3,39.954a0.8,0.8,0,0,0-.784-0.784H646.49a0.784,0.784,0,1,0,0,1.567h4.026A0.8,0.8,0,0,0,651.3,39.954ZM681.293,33.8c0-3.963-2.979-6.558-7.615-6.558-5.428,0-8.671,3.843-8.671,7.566,0,3.315,1.585,4.468,2.979,4.468,1.056,0,2.257-1.3,3.218-3.027a20.61,20.61,0,0,0,2.258-6.413v-1.2h0.361c3.771,0,6.077,1.994,6.077,5.164,0,2.738-3.483,5.5-6.942,5.5a0.7,0.7,0,1,0,0,1.393C677.233,40.7,681.293,37.359,681.293,33.8Zm-9.224-4.035c-0.889,4.636-3.219,8.119-4.083,8.119s-1.586-1.009-1.586-3.075c0-2.666,2.09-5.4,5.669-6.029v0.985ZM503.9,58.991a15.794,15.794,0,0,0-1.634-.149l-3.317-.2a8.166,8.166,0,0,1-1.981-.446l0.3-.347a1.257,1.257,0,0,0,.248-0.792c0-1.485-1.188-2.327-4.357-3.07-0.792,0-.99.05-0.99,0.248a4.175,4.175,0,0,0,.644,1.634,0.894,0.894,0,0,1,.2.4l-0.1.4c-1.139,2.921-7.328,11.783-12.428,17.824a0.809,0.809,0,0,0-.2.446,0.107,0.107,0,0,0,.1.1,1.467,1.467,0,0,0,.545-0.2c3.565-2.773,4.208-3.317,10.1-9.457a7.716,7.716,0,0,0,2.228.693l1.04,0.2c2.178-.148,2.475-0.148,4.5-0.248,1.288-.2,1.684-0.4,1.684-0.743,0-.743-0.892-1.287-2.723-1.733l-0.4-.1a35.182,35.182,0,0,1-5.694,1.188c1.634-1.832,2.079-2.376,4.654-5.694,1.04,0.594,2.079,1.188,2.376,1.386,0.5,0.3,1.04.644,1.585,0.941a16.11,16.11,0,0,0,4.158,1.931,6.329,6.329,0,0,0,1.387.248c0.544,0,.94-0.2.94-0.545,0-.693-0.693-1.733-2.475-3.713Zm-3.119,8.318c-5.3,2.079-9.259,3.218-10.942,3.169-0.594-.2-0.693-0.2-1.238-0.347a2.027,2.027,0,0,0-.544-0.049,0.25,0.25,0,0,0-.3.248,1.045,1.045,0,0,0,.2.5l0.5,0.743a1.851,1.851,0,0,1,.247.693l0.1,0.545c-0.693,9.06-2.97,15.942-7.426,22.478a1.524,1.524,0,0,0-.2.446,0.106,0.106,0,0,0,.1.1,1.44,1.44,0,0,0,.445-0.1c2.674-2.624,3.615-3.862,6.387-8.318a3.59,3.59,0,0,1,.5.545l0.347,0.644,0.2,0.346c0.94,2.228,1.04,2.575,1.881,4.8l0.1,0.149a2.853,2.853,0,0,0,1.882,1.386c0.346,0,.5-0.2.99-1.287,0.594-.1,1.139-0.2,1.337-0.248,1.93-.4,3.218-0.594,3.416-0.644,0.247-.049.941-0.1,1.733-0.2,0.841-.149,1.039-0.347.99-1.139,0.247-.594.445-1.089,0.544-1.337l0.793-1.98c0.1-.248.346-0.842,0.742-1.733L504,86.123a0.183,0.183,0,0,0,.049-0.148c0-.644-1.584-1.881-3.267-2.525h-0.248c-1.139.446-1.832,0.693-2.822,0.99l-5.1,1.535-1.486.446c-0.247.049-.792,0.148-1.683,0.248l-0.891-.2c0.742-1.634.841-1.931,1.485-3.614a19.964,19.964,0,0,0,3.565-.743c1.832-.5,3.465-0.842,7.129-1.584,0.594-.149.842-0.3,0.842-0.644a2.208,2.208,0,0,0-.1-0.5c1.287-3.911,2.129-6.535,2.574-7.823l0.2-.3a4.177,4.177,0,0,1,.5-0.644,1.18,1.18,0,0,0,.4-0.644c0-.5-1.733-1.683-3.961-2.674h-0.4Zm-2.773,11.338c-1.386.594-2.723,1.139-5.694,2.327a13.727,13.727,0,0,1-1.881.4,22.062,22.062,0,0,0,.99-4.06c3.763-.99,4.951-1.287,5.694-1.485a6.567,6.567,0,0,1,2.228-.347c-0.2,1.535-.248,1.733-0.5,3.02h-0.5Zm-0.693-4.852c-2.872,1.139-4.852,1.931-5.644,2.228a15.454,15.454,0,0,0,.5-3.218l0.148-.3a0.908,0.908,0,0,0-.4-0.693c2.971-.644,3.664-0.792,7.427-1.782a0.709,0.709,0,0,1,.644.842c-0.2,1.436-.2,1.634-0.446,3.169a4.894,4.894,0,0,0-1.832-.3Zm-5.991,13.863c2.674-.644,3.615-0.891,7.922-1.98,0.346,0,.346,0,0.346.4-0.1.792-.2,1.535-0.247,1.782s-0.149.644-.3,1.584c-0.05.2-.149,0.941-0.3,1.683-0.743.248-1.287,0.4-1.486,0.5l-1.435.545a8.2,8.2,0,0,1-2.525.594c-0.693-2.129-.792-2.426-1.535-4.406l-0.149-.3Zm20.6-7.724V71.319a17.946,17.946,0,0,1,.2-2.277v-0.4c-0.248-.594-1.09-1.139-2.773-1.733-0.743,0-.99.1-0.99,0.347a1.179,1.179,0,0,0,.247.594,2.191,2.191,0,0,1,.4.792v2.921c0,1.337-.049,2.377-0.148,5A7.285,7.285,0,0,1,508.5,78.2l0.1,0.347c0.991,3.317,1.337,4.06,2.08,4.06,0.594,0,1.04-.891,1.188-2.178ZM518.008,58c0.149,2.178.248,4.06,0.248,4.951,0,0.743-.05,2.129-0.1,4.555-0.05.99-.05,4.6-0.05,8.417,0,7.971,0,9.853-.3,15.5l-0.049.743a0.975,0.975,0,0,1-.941,1.139,12.492,12.492,0,0,1-2.426-.4c-0.346-.1-1.386-0.3-2.525-0.5-0.4,0-.5,0-0.5.149a1.324,1.324,0,0,0,.3.347c0.693,0.594,1.98,1.584,2.624,2.129,2.971,2.377,3.02,2.426,3.515,3.218a2.028,2.028,0,0,0,1.04,1.188c0.891-.1,1.931-1.931,2.723-4.6l0.05-.792,0.049-.594a18.811,18.811,0,0,0-.1-2.624l-0.1-6.189c-0.2-9.258-.2-9.258-0.2-11.189,0-5.5.149-9.6,0.545-14.506l0.148-.99,0.149-.842c0.148-.792-1.684-1.881-4.753-2.822-0.891,0-1.288.148-1.288,0.446a0.711,0.711,0,0,0,.1.3c0.347,0.4.694,0.743,0.991,1.139a3.612,3.612,0,0,1,.742,1.436Zm22.5,15.051c-0.149-2.525-.149-2.872-0.248-5.3V65.576c0-1.04-2.129-2.228-3.911-2.228a12.52,12.52,0,0,0-1.337.049,1.111,1.111,0,0,0-.743.693,1.4,1.4,0,0,0,.545.842l0.941,0.891a2.092,2.092,0,0,1,.643.941l0.248,1.139a55.106,55.106,0,0,1,.5,5.793l-4.6.792-4.555.792c-0.248,0-.4.05-0.4,0.148a0.391,0.391,0,0,0,.247.248,2.723,2.723,0,0,0,.446.346c0.148,0.1.346,0.248,0.544,0.4a3.941,3.941,0,0,0,2.228.891h0.3c2.773-.594,3.169-0.693,5.942-1.337a22.507,22.507,0,0,0,.148,2.773c0.149,1.584.248,2.822,0.3,3.664,0.1,2.079.1,3.218,0.1,7.228v0.4c0.545,2.03,1.535,3.367,2.476,3.367a1.391,1.391,0,0,0,.94-0.792c12.279-1.683,14.754-1.881,23.369-1.832,1.189-.1,1.733-0.4,1.733-0.941,0-1.386-1.98-2.376-5.793-3.02h-0.4a8.487,8.487,0,0,1-3.812,1.337c-0.148,0-.891.148-1.782,0.3-2.179.4-4.407,0.792-4.8,0.842l-4.208.644c-0.743.1-2.179,0.347-4.209,0.693-0.049-1.98-.049-3.268-0.1-3.713l-0.4-6.535c-0.049-.5-0.148-2.773-0.247-5.1,2.921-.545,3.267-0.594,6.139-1.188v6.783c0.693,1.981,1.535,3.268,2.079,3.268a1.173,1.173,0,0,0,.644-0.4,6.341,6.341,0,0,1,.743-0.594c2.97-.5,3.416-0.545,6.238-1.188a1.621,1.621,0,0,0,1.238.99c0.643,0,1.089-.545,1.485-1.733l0.1-.446c0.5-4.06.545-4.753,0.891-8.219,4.852-.248,7.427-0.3,10.2-0.3,1.238,0,1.832-.346,1.832-1.04,0-1.238-2.673-2.624-6.139-3.119l-0.3.05c-1.485,1.238-1.584,1.287-5.2,1.683,0.347-2.079.446-2.921,0.842-6.288l0.347-1.584a5.6,5.6,0,0,0,.2-1.188c0-1.485-2.674-3.317-4.852-3.317-0.693,0-1.04.2-1.04,0.5a1.3,1.3,0,0,0,.3.743l0.743,1.04a2.334,2.334,0,0,1,.346,1.089l0.1,0.792c-0.247,4.7-.346,5.941-0.643,8.714-3.516.594-4.11,0.693-6.882,1.04,0.1-1.436.148-2.129,0.148-3.367,0-1.188-.049-2.971-0.148-5.3V61.615c0-.99-2.723-2.376-4.555-2.376a0.727,0.727,0,0,0-.842.545,1.562,1.562,0,0,0,.4.891c0.248,0.3.5,0.594,0.743,0.941a1.914,1.914,0,0,1,.5.941l0.148,0.99a68.453,68.453,0,0,1,.3,8.417l-3.12.545Zm16.19-.2c-0.1,2.723-.149,3.367-0.5,7.03-0.644.149-1.337,0.3-1.387,0.3l-1.238.3a24.357,24.357,0,0,1-3.564.5c-0.05-1.386-.05-1.981-0.05-2.921,0-1.287,0-2.277.05-4.456l2.178-.248Zm25.36,13.863c0.742,2.624,1.831,4.159,2.921,4.159,0.643,0,1.089-.792,1.237-2.277a68.606,68.606,0,0,1,8.813-1.535,9.526,9.526,0,0,1,2.327.545c3.169,5,3.565,5.5,4.209,5.5a1.644,1.644,0,0,0,1.039-.743c0.892-1.089,1.288-2.377,1.733-5V86.915c0.149-6.288.149-6.783,0.248-13.863l0.1-8.714V63.6l0.5-2.426c0-.594-2.179-1.931-4.8-2.921l-0.346.1c-1.238.743-6.387,2.08-15.348,4.06a7.319,7.319,0,0,1-2.377.247l-0.792-.247c-0.545,0-.743.049-0.743,0.3a2.652,2.652,0,0,0,.4,1.188l0.4,1.04a2.545,2.545,0,0,1,.248.941v0.743c0.3,5.694.4,8.466,0.4,12.873,0,2.723-.049,4.01-0.148,6.981v0.248Zm10.5-15.2a6.9,6.9,0,0,1-1.337,1.089,16.526,16.526,0,0,1-1.782.644l-2.179.693c-0.247.1-.842,0.2-1.733,0.4-0.049-2.822-.1-3.713-0.346-7.922V65.823a2.287,2.287,0,0,0-.545-1.238c2.575-.545,3.515-0.792,5.842-1.337,4.308-.99,5.149-1.188,8.764-1.832,0.891,0.3.99,0.4,0.99,1.436V74.24c0,1.535,0,3.614-.05,6.09l-0.049,5.05c-0.05,1.089-.248,1.386-0.941,1.386a4.819,4.819,0,0,1-.792-0.049,4.876,4.876,0,0,0-3.466-2.723h-0.346a3.422,3.422,0,0,1-2.03,1.139c-1.337.3-2.228,0.5-2.575,0.594-1.287.346-2.079,0.545-2.327,0.594-0.2.049-.841,0.148-1.485,0.248l-0.248-4.654-0.3-5.941,1.387,0.049c1.386-.3,2.327-0.5,2.723-0.594l4.357-1.089c0.2-.05.841-0.2,1.732-0.4,0.793-.2,1.189-0.5,1.189-0.941a0.952,0.952,0,0,0-.446-0.644c-0.743-.644-1.782-0.891-3.763-0.891Zm37.91-11.684,0.1-.693c0.247-1.04-2.129-2.475-4.308-2.624-0.891.247-1.188,0.4-1.188,0.693a1.734,1.734,0,0,0,.594.941c0.1,0.1.347,0.4,0.594,0.693l0.347,1.139c0.4,2.129.445,2.475,0.792,4.852a125.033,125.033,0,0,1-12.378,2.773c-0.346.2-.445,0.248-0.643,0.346-0.1,0-.1,0-0.1.05a1.546,1.546,0,0,0,.693.445c0.594,0.347.891,0.545,1.337,0.792a3.97,3.97,0,0,0,1.336.3l0.5-.049a133,133,0,0,1,14.309-3.466c3.169-.594,3.763-0.842,3.763-1.485,0-.891-1.733-1.584-3.961-1.683a4.64,4.64,0,0,1-2.624,1.436l0.5-2.624Zm-2.376,10.793a2.625,2.625,0,0,1-1.634,1.04l-2.129.693a21.858,21.858,0,0,0-2.277.842l-0.545.149-0.346.2,0.742,0.5a2.94,2.94,0,0,0,1.684.545h0.247c0.941-.247,1.981-0.545,3.218-0.842a30.692,30.692,0,0,1,4.209-.941,1.052,1.052,0,0,0,1.089-.842c0-.792-1.485-1.386-3.862-1.485Zm-4.258,9.853c2.228-.594,2.674-0.693,3.713-0.941,0.941-.2.941-0.2,3.961-0.891,0.743-.3,1.04-0.545,1.04-0.891,0-.743-1.188-1.188-3.763-1.436a1.365,1.365,0,0,0-.743.5c-0.742.693-.792,0.743-5.842,2.327a0.744,0.744,0,0,0-.643.4,1.023,1.023,0,0,0,.594.446,7.74,7.74,0,0,0,1.386.5h0.3Zm7.278,2.228c-1.238.99-5,2.278-9.8,3.367a5.812,5.812,0,0,0-1.485-.248c-0.644.1-.891,0.2-0.891,0.4a1.286,1.286,0,0,0,.2.5l0.693,0.99,0.4,0.891c0.99,2.426,1.139,2.772,2.079,4.8a2.413,2.413,0,0,0,2.08,1.485c0.792,0,.891-0.2.891-1.485,1.832-.644,2.228-0.743,6.189-0.99,0.99-.049,1.386-0.248,1.386-0.644a1.319,1.319,0,0,0-.149-0.594,24.369,24.369,0,0,0,1.882-4.258l0.594-.842a1.873,1.873,0,0,0,.4-0.792,2.411,2.411,0,0,0-.99-1.139,6.748,6.748,0,0,0-3.119-1.436h-0.347Zm-1.386,7.427c-1.684.545-3.268,1.04-5.05,1.634-0.693-2.079-1.188-3.515-1.535-4.357,3.763-1.04,4.357-1.188,7.575-1.98l0.149,0.3a13.083,13.083,0,0,1-.793,4.406h-0.346Zm20.2-31.885c-1.04,1.04-5.446,2.624-12.229,4.406l-0.347.149-0.3.148a0.865,0.865,0,0,0,.446.248l0.644,0.4a6.277,6.277,0,0,0,1.782.5h0.347c3.02-1.04,3.663-1.238,7.525-2.426,0.644,0.1.644,0.149,0.644,0.693a47.809,47.809,0,0,1-1.288,9.506,38.579,38.579,0,0,1-6.782,2.129,4.851,4.851,0,0,0-2.377-1.04C637,73,636.656,73.1,636.656,73.4a3.132,3.132,0,0,0,.347,1.04l0.3,0.594a1.29,1.29,0,0,1,.148.545l0.05,1.089c0.148,2.872.2,5.1,0.248,6.535a62.156,62.156,0,0,0,.346,6.288c0.347,2.278,1.188,3.961,2.575,4.852,1.633,1.089,6.386,1.881,11.536,1.881,1.188,0,3.119-.1,5.594-0.248l0.4-.1c2.872-.3,4.011-0.842,4.011-1.881a3.441,3.441,0,0,0-.4-1.238c-0.6-1.188-.892-2.327-1.288-5.4-0.049-.347-0.1-0.941-0.247-1.931a0.821,0.821,0,0,0-.3-0.693,1.226,1.226,0,0,0-.5.644c-1.684,5.743-1.684,5.743-2.724,6.436-0.891.545-3.713,0.941-6.98,0.941-3.565,0-6.536-.347-7.724-0.891s-1.535-1.386-1.535-3.763c0-1.287.05-3.268,0.149-4.7l0.247-4.109c0.05-.594.05-1.881,0.1-3.862,0.743-.1,1.238-0.148,1.386-0.2l4.753-.99c0.347-.1,1.486-0.248,3.219-0.446a1.049,1.049,0,0,0,.99-0.99,1.4,1.4,0,0,0-1.089-1.238l1.138-3.317,2.08-6.04,0.4-.4a1.222,1.222,0,0,0,.445-0.594c0-.693-2.277-2.376-4.059-2.971h-0.347Z" transform="translate(-465.594 -21.188)"/>
</svg>
